%TF.GenerationSoftware,KiCad,Pcbnew,8.0.7*%
%TF.CreationDate,2025-02-14T15:53:52+00:00*%
%TF.ProjectId,FYP_Motor_R2,4659505f-4d6f-4746-9f72-5f52322e6b69,rev?*%
%TF.SameCoordinates,Original*%
%TF.FileFunction,Copper,L1,Top*%
%TF.FilePolarity,Positive*%
%FSLAX46Y46*%
G04 Gerber Fmt 4.6, Leading zero omitted, Abs format (unit mm)*
G04 Created by KiCad (PCBNEW 8.0.7) date 2025-02-14 15:53:52*
%MOMM*%
%LPD*%
G01*
G04 APERTURE LIST*
G04 Aperture macros list*
%AMRoundRect*
0 Rectangle with rounded corners*
0 $1 Rounding radius*
0 $2 $3 $4 $5 $6 $7 $8 $9 X,Y pos of 4 corners*
0 Add a 4 corners polygon primitive as box body*
4,1,4,$2,$3,$4,$5,$6,$7,$8,$9,$2,$3,0*
0 Add four circle primitives for the rounded corners*
1,1,$1+$1,$2,$3*
1,1,$1+$1,$4,$5*
1,1,$1+$1,$6,$7*
1,1,$1+$1,$8,$9*
0 Add four rect primitives between the rounded corners*
20,1,$1+$1,$2,$3,$4,$5,0*
20,1,$1+$1,$4,$5,$6,$7,0*
20,1,$1+$1,$6,$7,$8,$9,0*
20,1,$1+$1,$8,$9,$2,$3,0*%
G04 Aperture macros list end*
%TA.AperFunction,SMDPad,CuDef*%
%ADD10RoundRect,0.140000X0.140000X0.170000X-0.140000X0.170000X-0.140000X-0.170000X0.140000X-0.170000X0*%
%TD*%
%TA.AperFunction,SMDPad,CuDef*%
%ADD11R,1.300000X0.450000*%
%TD*%
%TA.AperFunction,ComponentPad*%
%ADD12O,1.800000X1.150000*%
%TD*%
%TA.AperFunction,ComponentPad*%
%ADD13O,2.000000X1.450000*%
%TD*%
%TA.AperFunction,SMDPad,CuDef*%
%ADD14R,0.480000X0.400000*%
%TD*%
%TA.AperFunction,SMDPad,CuDef*%
%ADD15RoundRect,0.200000X0.275000X-0.200000X0.275000X0.200000X-0.275000X0.200000X-0.275000X-0.200000X0*%
%TD*%
%TA.AperFunction,SMDPad,CuDef*%
%ADD16RoundRect,0.200000X0.200000X0.275000X-0.200000X0.275000X-0.200000X-0.275000X0.200000X-0.275000X0*%
%TD*%
%TA.AperFunction,SMDPad,CuDef*%
%ADD17RoundRect,0.218750X0.218750X0.256250X-0.218750X0.256250X-0.218750X-0.256250X0.218750X-0.256250X0*%
%TD*%
%TA.AperFunction,SMDPad,CuDef*%
%ADD18RoundRect,0.225000X-0.225000X-0.250000X0.225000X-0.250000X0.225000X0.250000X-0.225000X0.250000X0*%
%TD*%
%TA.AperFunction,SMDPad,CuDef*%
%ADD19RoundRect,0.150000X0.825000X0.150000X-0.825000X0.150000X-0.825000X-0.150000X0.825000X-0.150000X0*%
%TD*%
%TA.AperFunction,SMDPad,CuDef*%
%ADD20R,1.500000X0.900000*%
%TD*%
%TA.AperFunction,SMDPad,CuDef*%
%ADD21R,0.900000X1.500000*%
%TD*%
%TA.AperFunction,HeatsinkPad*%
%ADD22C,0.600000*%
%TD*%
%TA.AperFunction,SMDPad,CuDef*%
%ADD23R,3.900000X3.900000*%
%TD*%
%TA.AperFunction,ComponentPad*%
%ADD24R,3.960000X1.980000*%
%TD*%
%TA.AperFunction,ComponentPad*%
%ADD25O,3.960000X1.980000*%
%TD*%
%TA.AperFunction,SMDPad,CuDef*%
%ADD26R,0.900000X1.700000*%
%TD*%
%TA.AperFunction,SMDPad,CuDef*%
%ADD27RoundRect,0.200000X-0.200000X-0.275000X0.200000X-0.275000X0.200000X0.275000X-0.200000X0.275000X0*%
%TD*%
%TA.AperFunction,SMDPad,CuDef*%
%ADD28RoundRect,0.140000X-0.170000X0.140000X-0.170000X-0.140000X0.170000X-0.140000X0.170000X0.140000X0*%
%TD*%
%TA.AperFunction,SMDPad,CuDef*%
%ADD29RoundRect,0.250000X0.450000X0.425000X-0.450000X0.425000X-0.450000X-0.425000X0.450000X-0.425000X0*%
%TD*%
%TA.AperFunction,SMDPad,CuDef*%
%ADD30RoundRect,0.250000X-0.850000X-0.350000X0.850000X-0.350000X0.850000X0.350000X-0.850000X0.350000X0*%
%TD*%
%TA.AperFunction,SMDPad,CuDef*%
%ADD31RoundRect,0.250000X-1.275000X-1.125000X1.275000X-1.125000X1.275000X1.125000X-1.275000X1.125000X0*%
%TD*%
%TA.AperFunction,SMDPad,CuDef*%
%ADD32RoundRect,0.249997X-2.950003X-2.650003X2.950003X-2.650003X2.950003X2.650003X-2.950003X2.650003X0*%
%TD*%
%TA.AperFunction,SMDPad,CuDef*%
%ADD33RoundRect,0.062500X-0.337500X-0.062500X0.337500X-0.062500X0.337500X0.062500X-0.337500X0.062500X0*%
%TD*%
%TA.AperFunction,SMDPad,CuDef*%
%ADD34RoundRect,0.062500X-0.062500X-0.337500X0.062500X-0.337500X0.062500X0.337500X-0.062500X0.337500X0*%
%TD*%
%TA.AperFunction,HeatsinkPad*%
%ADD35R,3.350000X3.350000*%
%TD*%
%TA.AperFunction,SMDPad,CuDef*%
%ADD36RoundRect,0.100000X0.100000X-0.225000X0.100000X0.225000X-0.100000X0.225000X-0.100000X-0.225000X0*%
%TD*%
%TA.AperFunction,SMDPad,CuDef*%
%ADD37RoundRect,0.200000X-0.275000X0.200000X-0.275000X-0.200000X0.275000X-0.200000X0.275000X0.200000X0*%
%TD*%
%TA.AperFunction,ViaPad*%
%ADD38C,0.600000*%
%TD*%
%TA.AperFunction,Conductor*%
%ADD39C,0.200000*%
%TD*%
%TA.AperFunction,Conductor*%
%ADD40C,0.300000*%
%TD*%
%TA.AperFunction,Conductor*%
%ADD41C,0.500000*%
%TD*%
G04 APERTURE END LIST*
D10*
%TO.P,C6,1*%
%TO.N,IO0*%
X124230000Y-57500000D03*
%TO.P,C6,2*%
%TO.N,GND*%
X123270000Y-57500000D03*
%TD*%
D11*
%TO.P,J1,1,VBUS*%
%TO.N,Net-(J1-VBUS)*%
X122150000Y-89525000D03*
%TO.P,J1,2,D-*%
%TO.N,Net-(J1-D-)*%
X122150000Y-88875000D03*
%TO.P,J1,3,D+*%
%TO.N,Net-(J1-D+)*%
X122150000Y-88225000D03*
%TO.P,J1,4,ID*%
%TO.N,unconnected-(J1-ID-Pad4)*%
X122150000Y-87575000D03*
%TO.P,J1,5,GND*%
%TO.N,GND*%
X122150000Y-86925000D03*
D12*
%TO.P,J1,6,Shield*%
%TO.N,unconnected-(J1-Shield-Pad6)*%
X126000000Y-92100000D03*
D13*
%TO.N,unconnected-(J1-Shield-Pad6)_3*%
X122200000Y-91950000D03*
%TO.N,unconnected-(J1-Shield-Pad6)_1*%
X122200000Y-84500000D03*
D12*
%TO.N,unconnected-(J1-Shield-Pad6)_2*%
X126000000Y-84350000D03*
%TD*%
D14*
%TO.P,D2,1*%
%TO.N,GND*%
X115180000Y-73500000D03*
%TO.P,D2,2*%
%TO.N,Net-(J1-D+)*%
X116500000Y-73500000D03*
%TD*%
D15*
%TO.P,R2,1*%
%TO.N,Net-(J1-VBUS)*%
X122000000Y-79325000D03*
%TO.P,R2,2*%
%TO.N,Net-(U1-VBUS)*%
X122000000Y-77675000D03*
%TD*%
D16*
%TO.P,R10,1*%
%TO.N,GND*%
X92650000Y-53000000D03*
%TO.P,R10,2*%
%TO.N,Net-(J2-Pin_2)*%
X91000000Y-53000000D03*
%TD*%
D17*
%TO.P,D6,1,K*%
%TO.N,GND*%
X110120000Y-82500000D03*
%TO.P,D6,2,A*%
%TO.N,Net-(D6-A)*%
X108545000Y-82500000D03*
%TD*%
D18*
%TO.P,C5,1*%
%TO.N,EN*%
X106225000Y-59000000D03*
%TO.P,C5,2*%
%TO.N,GND*%
X107775000Y-59000000D03*
%TD*%
D14*
%TO.P,D3,1*%
%TO.N,GND*%
X115180000Y-72000000D03*
%TO.P,D3,2*%
%TO.N,Net-(J1-D-)*%
X116500000Y-72000000D03*
%TD*%
D19*
%TO.P,U3,1,RO*%
%TO.N,MOD_RO*%
X97475000Y-49405000D03*
%TO.P,U3,2,~{RE}*%
%TO.N,MOD_DRE*%
X97475000Y-48135000D03*
%TO.P,U3,3,DE*%
X97475000Y-46865000D03*
%TO.P,U3,4,DI*%
%TO.N,MOD_DI*%
X97475000Y-45595000D03*
%TO.P,U3,5,GND*%
%TO.N,GND*%
X92525000Y-45595000D03*
%TO.P,U3,6,A*%
%TO.N,Net-(J2-Pin_1)*%
X92525000Y-46865000D03*
%TO.P,U3,7,B*%
%TO.N,Net-(J2-Pin_2)*%
X92525000Y-48135000D03*
%TO.P,U3,8,VCC*%
%TO.N,+3V3*%
X92525000Y-49405000D03*
%TD*%
D18*
%TO.P,C2,1*%
%TO.N,+3V3*%
X124950000Y-81000000D03*
%TO.P,C2,2*%
%TO.N,GND*%
X126500000Y-81000000D03*
%TD*%
D20*
%TO.P,U2,1,GND*%
%TO.N,GND*%
X106250000Y-37390000D03*
%TO.P,U2,2,3V3*%
%TO.N,+3V3*%
X106250000Y-38660000D03*
%TO.P,U2,3,EN*%
%TO.N,EN*%
X106250000Y-39930000D03*
%TO.P,U2,4,IO4*%
%TO.N,GPIO4*%
X106250000Y-41200000D03*
%TO.P,U2,5,IO5*%
%TO.N,GPIO5*%
X106250000Y-42470000D03*
%TO.P,U2,6,IO6*%
%TO.N,GPIO6*%
X106250000Y-43740000D03*
%TO.P,U2,7,IO7*%
%TO.N,GPIO7*%
X106250000Y-45010000D03*
%TO.P,U2,8,IO15*%
%TO.N,GPIO15*%
X106250000Y-46280000D03*
%TO.P,U2,9,IO16*%
%TO.N,GPIO16*%
X106250000Y-47550000D03*
%TO.P,U2,10,IO17*%
%TO.N,MOD_DI*%
X106250000Y-48820000D03*
%TO.P,U2,11,IO18*%
%TO.N,MOD_RO*%
X106250000Y-50090000D03*
%TO.P,U2,12,IO8*%
%TO.N,GPIO8*%
X106250000Y-51360000D03*
%TO.P,U2,13,USB_D-*%
%TO.N,USB_D-_NC*%
X106250000Y-52630000D03*
%TO.P,U2,14,USB_D+*%
%TO.N,USB_D+_NC*%
X106250000Y-53900000D03*
D21*
%TO.P,U2,15,IO3*%
%TO.N,GPIO3_NC*%
X108015000Y-55150000D03*
%TO.P,U2,16,IO46*%
%TO.N,GPIO46_NC*%
X109285000Y-55150000D03*
%TO.P,U2,17,IO9*%
%TO.N,GPIO9*%
X110555000Y-55150000D03*
%TO.P,U2,18,IO10*%
%TO.N,MOD_DRE*%
X111825000Y-55150000D03*
%TO.P,U2,19,IO11*%
%TO.N,GPIO11*%
X113095000Y-55150000D03*
%TO.P,U2,20,IO12*%
%TO.N,GPIO12*%
X114365000Y-55150000D03*
%TO.P,U2,21,IO13*%
%TO.N,GPIO13*%
X115635000Y-55150000D03*
%TO.P,U2,22,IO14*%
%TO.N,GPIO14*%
X116905000Y-55150000D03*
%TO.P,U2,23,IO21*%
%TO.N,GPIO21*%
X118175000Y-55150000D03*
%TO.P,U2,24,IO47*%
%TO.N,GPIO47*%
X119445000Y-55150000D03*
%TO.P,U2,25,IO48*%
%TO.N,GPIO48*%
X120715000Y-55150000D03*
%TO.P,U2,26,IO45*%
%TO.N,GPIO45_NC*%
X121985000Y-55150000D03*
D20*
%TO.P,U2,27,IO0*%
%TO.N,IO0*%
X123750000Y-53900000D03*
%TO.P,U2,28,IO35*%
%TO.N,GPIO35_NC*%
X123750000Y-52630000D03*
%TO.P,U2,29,IO36*%
%TO.N,GPIO36_NC*%
X123750000Y-51360000D03*
%TO.P,U2,30,IO37*%
%TO.N,GPIO37_NC*%
X123750000Y-50090000D03*
%TO.P,U2,31,IO38*%
%TO.N,GPIO38*%
X123750000Y-48820000D03*
%TO.P,U2,32,IO39*%
%TO.N,GPIO39*%
X123750000Y-47550000D03*
%TO.P,U2,33,IO40*%
%TO.N,GPIO40*%
X123750000Y-46280000D03*
%TO.P,U2,34,IO41*%
%TO.N,GPIO41*%
X123750000Y-45010000D03*
%TO.P,U2,35,IO42*%
%TO.N,GPIO42*%
X123750000Y-43740000D03*
%TO.P,U2,36,RXD0*%
%TO.N,RX0*%
X123750000Y-42470000D03*
%TO.P,U2,37,TXD0*%
%TO.N,TX0*%
X123750000Y-41200000D03*
%TO.P,U2,38,IO2*%
%TO.N,GPIO2*%
X123750000Y-39930000D03*
%TO.P,U2,39,IO1*%
%TO.N,GPIO1*%
X123750000Y-38660000D03*
%TO.P,U2,40,GND*%
%TO.N,GND*%
X123750000Y-37390000D03*
D22*
%TO.P,U2,41,GND*%
X112100000Y-44410000D03*
X112100000Y-45810000D03*
X112800000Y-43710000D03*
X112800000Y-45110000D03*
X112800000Y-46510000D03*
X113500000Y-44410000D03*
D23*
X113500000Y-45110000D03*
D22*
X113500000Y-45810000D03*
X114200000Y-43710000D03*
X114200000Y-45110000D03*
X114200000Y-46510000D03*
X114900000Y-44410000D03*
X114900000Y-45810000D03*
%TD*%
D17*
%TO.P,D5,1,K*%
%TO.N,GND*%
X115325000Y-58500000D03*
%TO.P,D5,2,A*%
%TO.N,Net-(D5-A)*%
X113750000Y-58500000D03*
%TD*%
D24*
%TO.P,J3,1,Pin_1*%
%TO.N,5V*%
X92000000Y-82235000D03*
D25*
%TO.P,J3,2,Pin_2*%
%TO.N,GND*%
X92000000Y-87235000D03*
%TD*%
D26*
%TO.P,SW2,1,A*%
%TO.N,GND*%
X120100000Y-60000000D03*
%TO.P,SW2,2,B*%
%TO.N,IO0*%
X123500000Y-60000000D03*
%TD*%
%TO.P,SW1,1,A*%
%TO.N,GND*%
X109500000Y-61500000D03*
%TO.P,SW1,2,B*%
%TO.N,EN*%
X106100000Y-61500000D03*
%TD*%
D27*
%TO.P,R12,1*%
%TO.N,Net-(D5-A)*%
X113675000Y-57000000D03*
%TO.P,R12,2*%
%TO.N,GPIO13*%
X115325000Y-57000000D03*
%TD*%
%TO.P,R15,1*%
%TO.N,Net-(D6-A)*%
X108470000Y-80500000D03*
%TO.P,R15,2*%
%TO.N,+3V3*%
X110120000Y-80500000D03*
%TD*%
D28*
%TO.P,C1,2*%
%TO.N,GND*%
X118000000Y-78980000D03*
%TO.P,C1,1*%
%TO.N,Net-(J1-VBUS)*%
X118000000Y-78020000D03*
%TD*%
D16*
%TO.P,R9,1*%
%TO.N,Net-(J2-Pin_1)*%
X89000000Y-53000000D03*
%TO.P,R9,2*%
%TO.N,+3V3*%
X87350000Y-53000000D03*
%TD*%
D14*
%TO.P,D1,1*%
%TO.N,GND*%
X120180000Y-81000000D03*
%TO.P,D1,2*%
%TO.N,Net-(J1-VBUS)*%
X121500000Y-81000000D03*
%TD*%
D27*
%TO.P,R14,1*%
%TO.N,+3V3*%
X120675000Y-62750000D03*
%TO.P,R14,2*%
%TO.N,IO0*%
X122325000Y-62750000D03*
%TD*%
D16*
%TO.P,R6,1*%
%TO.N,MOD_DRE*%
X99825000Y-40000000D03*
%TO.P,R6,2*%
%TO.N,+3V3*%
X98175000Y-40000000D03*
%TD*%
D29*
%TO.P,C7,1*%
%TO.N,5V*%
X98090000Y-76000000D03*
%TO.P,C7,2*%
%TO.N,GND*%
X95390000Y-76000000D03*
%TD*%
D16*
%TO.P,R8,1*%
%TO.N,MOD_RO*%
X102500000Y-48000000D03*
%TO.P,R8,2*%
%TO.N,+3V3*%
X100850000Y-48000000D03*
%TD*%
D24*
%TO.P,J2,1,Pin_1*%
%TO.N,Net-(J2-Pin_1)*%
X92000000Y-60500000D03*
D25*
%TO.P,J2,2,Pin_2*%
%TO.N,Net-(J2-Pin_2)*%
X92000000Y-65500000D03*
%TD*%
D15*
%TO.P,R1,1*%
%TO.N,GND*%
X119500000Y-79325000D03*
%TO.P,R1,2*%
%TO.N,Net-(J1-VBUS)*%
X119500000Y-77675000D03*
%TD*%
D30*
%TO.P,U4,1,GND*%
%TO.N,GND*%
X102200000Y-71245000D03*
%TO.P,U4,2,VO*%
%TO.N,+3V3*%
X102200000Y-73525000D03*
D31*
X106825000Y-72000000D03*
X106825000Y-75050000D03*
D32*
X108500000Y-73525000D03*
D31*
X110175000Y-72000000D03*
X110175000Y-75050000D03*
D30*
%TO.P,U4,3,VI*%
%TO.N,5V*%
X102200000Y-75805000D03*
%TD*%
D33*
%TO.P,U1,1,~{DCD}*%
%TO.N,unconnected-(U1-~{DCD}-Pad1)*%
X121670000Y-72000000D03*
%TO.P,U1,2,~{RI}/CLK*%
%TO.N,unconnected-(U1-~{RI}{slash}CLK-Pad2)*%
X121670000Y-72500000D03*
%TO.P,U1,3,GND*%
%TO.N,GND*%
X121670000Y-73000000D03*
%TO.P,U1,4,D+*%
%TO.N,Net-(J1-D-)*%
X121670000Y-73500000D03*
%TO.P,U1,5,D-*%
%TO.N,Net-(J1-D+)*%
X121670000Y-74000000D03*
%TO.P,U1,6,VDD*%
%TO.N,+3V3*%
X121670000Y-74500000D03*
%TO.P,U1,7,VREGIN*%
X121670000Y-75000000D03*
D34*
%TO.P,U1,8,VBUS*%
%TO.N,Net-(U1-VBUS)*%
X122620000Y-75950000D03*
%TO.P,U1,9,~{RST}*%
%TO.N,Net-(U1-~{RST})*%
X123120000Y-75950000D03*
%TO.P,U1,10,NC*%
%TO.N,unconnected-(U1-NC-Pad10)*%
X123620000Y-75950000D03*
%TO.P,U1,11,~{SUSPEND}*%
%TO.N,Net-(U1-~{SUSPEND})*%
X124120000Y-75950000D03*
%TO.P,U1,12,SUSPEND*%
%TO.N,unconnected-(U1-SUSPEND-Pad12)*%
X124620000Y-75950000D03*
%TO.P,U1,13,CHREN*%
%TO.N,unconnected-(U1-CHREN-Pad13)*%
X125120000Y-75950000D03*
%TO.P,U1,14,CHR1*%
%TO.N,unconnected-(U1-CHR1-Pad14)*%
X125620000Y-75950000D03*
D33*
%TO.P,U1,15,CHR0*%
%TO.N,unconnected-(U1-CHR0-Pad15)*%
X126570000Y-75000000D03*
%TO.P,U1,16,~{WAKEUP}/GPIO.3*%
%TO.N,unconnected-(U1-~{WAKEUP}{slash}GPIO.3-Pad16)*%
X126570000Y-74500000D03*
%TO.P,U1,17,RS485/GPIO.2*%
%TO.N,unconnected-(U1-RS485{slash}GPIO.2-Pad17)*%
X126570000Y-74000000D03*
%TO.P,U1,18,~{RXT}/GPIO.1*%
%TO.N,unconnected-(U1-~{RXT}{slash}GPIO.1-Pad18)*%
X126570000Y-73500000D03*
%TO.P,U1,19,~{TXT}/GPIO.0*%
%TO.N,unconnected-(U1-~{TXT}{slash}GPIO.0-Pad19)*%
X126570000Y-73000000D03*
%TO.P,U1,20,GPIO.6*%
%TO.N,unconnected-(U1-GPIO.6-Pad20)*%
X126570000Y-72500000D03*
%TO.P,U1,21,GPIO.5*%
%TO.N,unconnected-(U1-GPIO.5-Pad21)*%
X126570000Y-72000000D03*
D34*
%TO.P,U1,22,GPIO.4*%
%TO.N,unconnected-(U1-GPIO.4-Pad22)*%
X125620000Y-71050000D03*
%TO.P,U1,23,~{CTS}*%
%TO.N,unconnected-(U1-~{CTS}-Pad23)*%
X125120000Y-71050000D03*
%TO.P,U1,24,~{RTS}*%
%TO.N,RTS*%
X124620000Y-71050000D03*
%TO.P,U1,25,RXD*%
%TO.N,TX0*%
X124120000Y-71050000D03*
%TO.P,U1,26,TXD*%
%TO.N,RX0*%
X123620000Y-71050000D03*
%TO.P,U1,27,~{DSR}*%
%TO.N,unconnected-(U1-~{DSR}-Pad27)*%
X123120000Y-71050000D03*
%TO.P,U1,28,~{DTR}*%
%TO.N,DTR*%
X122620000Y-71050000D03*
D35*
%TO.P,U1,29,GND*%
%TO.N,GND*%
X124120000Y-73500000D03*
%TD*%
D29*
%TO.P,C8,1*%
%TO.N,+3V3*%
X98090000Y-73500000D03*
%TO.P,C8,2*%
%TO.N,GND*%
X95390000Y-73500000D03*
%TD*%
D16*
%TO.P,R11,1*%
%TO.N,Net-(J2-Pin_2)*%
X89325000Y-56000000D03*
%TO.P,R11,2*%
%TO.N,Net-(J2-Pin_1)*%
X87675000Y-56000000D03*
%TD*%
%TO.P,R5,1*%
%TO.N,MOD_DI*%
X102500000Y-46000000D03*
%TO.P,R5,2*%
%TO.N,+3V3*%
X100850000Y-46000000D03*
%TD*%
D15*
%TO.P,R4,1*%
%TO.N,GND*%
X125570000Y-79150000D03*
%TO.P,R4,2*%
%TO.N,Net-(U1-~{SUSPEND})*%
X125570000Y-77500000D03*
%TD*%
D16*
%TO.P,R13,1*%
%TO.N,+3V3*%
X108000000Y-64500000D03*
%TO.P,R13,2*%
%TO.N,EN*%
X106350000Y-64500000D03*
%TD*%
D36*
%TO.P,Q1,1,E1*%
%TO.N,RTS*%
X113850000Y-62950000D03*
%TO.P,Q1,2,B1*%
%TO.N,DTR*%
X114500000Y-62950000D03*
%TO.P,Q1,3,C2*%
%TO.N,IO0*%
X115150000Y-62950000D03*
%TO.P,Q1,4,E2*%
%TO.N,DTR*%
X115150000Y-61050000D03*
%TO.P,Q1,5,B2*%
%TO.N,RTS*%
X114500000Y-61050000D03*
%TO.P,Q1,6,C1*%
%TO.N,EN*%
X113850000Y-61050000D03*
%TD*%
D37*
%TO.P,R3,1*%
%TO.N,Net-(U1-~{RST})*%
X123570000Y-77500000D03*
%TO.P,R3,2*%
%TO.N,+3V3*%
X123570000Y-79150000D03*
%TD*%
D38*
%TO.N,GND*%
X122200000Y-57900000D03*
X122200000Y-57200000D03*
X116600000Y-59000000D03*
X116600000Y-58000000D03*
X118800000Y-59600000D03*
X118800000Y-60700000D03*
X124120000Y-73500000D03*
X110750000Y-62750000D03*
X98500000Y-71750000D03*
X108000000Y-38250000D03*
X91750000Y-75000000D03*
X111500000Y-83500000D03*
X96750000Y-70500000D03*
X119000000Y-81500000D03*
X86750000Y-87750000D03*
X94250000Y-72000000D03*
X127000000Y-78750000D03*
X91750000Y-76000000D03*
X118000000Y-80500000D03*
X88750000Y-73000000D03*
X94000000Y-53000000D03*
X118500000Y-81000000D03*
X91750000Y-74000000D03*
X90500000Y-45500000D03*
X87000000Y-74750000D03*
X121250000Y-86000000D03*
X100000000Y-70500000D03*
X122000000Y-38000000D03*
X117500000Y-80000000D03*
X94250000Y-70500000D03*
X88250000Y-87750000D03*
X120250000Y-72500000D03*
X87000000Y-73000000D03*
X115500000Y-75000000D03*
X127000000Y-79500000D03*
X86750000Y-86500000D03*
X91750000Y-73000000D03*
%TO.N,EN*%
X104250000Y-50750000D03*
X104250000Y-40750000D03*
%TO.N,RTS*%
X126500000Y-69000000D03*
X119500000Y-67000000D03*
%TO.N,+3V3*%
X109500000Y-50500000D03*
X118000000Y-62750000D03*
X100500000Y-54257684D03*
X111500000Y-66750000D03*
%TD*%
D39*
%TO.N,GND*%
X120750000Y-73000000D02*
X120250000Y-72500000D01*
X121670000Y-73000000D02*
X120750000Y-73000000D01*
D40*
%TO.N,IO0*%
X124250000Y-54400000D02*
X124250000Y-57480000D01*
X124250000Y-57480000D02*
X124230000Y-57500000D01*
X123750000Y-53900000D02*
X124250000Y-54400000D01*
X124230000Y-59270000D02*
X123500000Y-60000000D01*
X124230000Y-57500000D02*
X124230000Y-59270000D01*
%TO.N,Net-(J1-VBUS)*%
X124500000Y-84000000D02*
X121500000Y-81000000D01*
X124500000Y-88125000D02*
X124500000Y-84000000D01*
X123100000Y-89525000D02*
X124500000Y-88125000D01*
X122150000Y-89525000D02*
X123100000Y-89525000D01*
D41*
%TO.N,+3V3*%
X127350000Y-83400000D02*
X124950000Y-81000000D01*
X127350000Y-88736701D02*
X127350000Y-83400000D01*
X122961701Y-93125000D02*
X127350000Y-88736701D01*
X124650000Y-81300000D02*
X124950000Y-81000000D01*
X121438299Y-93125000D02*
X122961701Y-93125000D01*
X120750000Y-92436701D02*
X121438299Y-93125000D01*
X120750000Y-91130000D02*
X120750000Y-92436701D01*
X110120000Y-80500000D02*
X120750000Y-91130000D01*
%TO.N,GND*%
X123750000Y-37390000D02*
X122610000Y-37390000D01*
X115180000Y-72000000D02*
X115180000Y-73500000D01*
X90595000Y-45595000D02*
X90500000Y-45500000D01*
X106250000Y-37390000D02*
X107140000Y-37390000D01*
X92525000Y-45595000D02*
X90595000Y-45595000D01*
D40*
X122150000Y-86900000D02*
X121250000Y-86000000D01*
D41*
X115180000Y-74680000D02*
X115500000Y-75000000D01*
X122610000Y-37390000D02*
X122000000Y-38000000D01*
X109500000Y-61500000D02*
X110750000Y-62750000D01*
X115180000Y-73500000D02*
X115180000Y-74680000D01*
X107775000Y-59000000D02*
X107775000Y-59775000D01*
X107775000Y-59775000D02*
X109500000Y-61500000D01*
X92650000Y-53000000D02*
X94000000Y-53000000D01*
X107140000Y-37390000D02*
X108000000Y-38250000D01*
X110120000Y-82500000D02*
X110500000Y-82500000D01*
D40*
X122150000Y-86925000D02*
X122150000Y-86900000D01*
D41*
X110500000Y-82500000D02*
X111500000Y-83500000D01*
D40*
%TO.N,EN*%
X105070000Y-39930000D02*
X106250000Y-39930000D01*
X106100000Y-61500000D02*
X106100000Y-59125000D01*
X112050000Y-61050000D02*
X113850000Y-61050000D01*
X106100000Y-59125000D02*
X106225000Y-59000000D01*
X107225000Y-58000000D02*
X109000000Y-58000000D01*
X104250000Y-40750000D02*
X105070000Y-39930000D01*
X106350000Y-64500000D02*
X106350000Y-61750000D01*
X104250000Y-57025000D02*
X104250000Y-50750000D01*
X106225000Y-59000000D02*
X104250000Y-57025000D01*
X106225000Y-59000000D02*
X107225000Y-58000000D01*
X106350000Y-61750000D02*
X106100000Y-61500000D01*
X109000000Y-58000000D02*
X112050000Y-61050000D01*
%TO.N,IO0*%
X121250000Y-63825000D02*
X122325000Y-62750000D01*
X123500000Y-61575000D02*
X123500000Y-60000000D01*
X116025000Y-63825000D02*
X121250000Y-63825000D01*
X122325000Y-62750000D02*
X123500000Y-61575000D01*
X115150000Y-62950000D02*
X116025000Y-63825000D01*
%TO.N,Net-(J1-D+)*%
X118056568Y-83631369D02*
X118424263Y-83263673D01*
X119442495Y-83942495D02*
X119612199Y-83772788D01*
X120516053Y-85016053D02*
X120516053Y-85666053D01*
X119555632Y-82980830D02*
X119018231Y-83518232D01*
X116874308Y-81374308D02*
X116992629Y-81492629D01*
X117632304Y-83546517D02*
X117717156Y-83631369D01*
X118480830Y-84395044D02*
X118565682Y-84479896D01*
X120036463Y-84536463D02*
X120121317Y-84621317D01*
X116992629Y-81492629D02*
X118000000Y-82500000D01*
X117500000Y-73500000D02*
X118000000Y-74000000D01*
X120516053Y-87483947D02*
X121257106Y-88225000D01*
X116500000Y-73500000D02*
X116500000Y-81000000D01*
X119018231Y-83518232D02*
X119018232Y-83518232D01*
X120319307Y-83405093D02*
X120404159Y-83489945D01*
X116500000Y-73500000D02*
X117500000Y-73500000D01*
X120516053Y-86881333D02*
X120516053Y-87483947D01*
X118593969Y-83093967D02*
X118593968Y-83093968D01*
X118424263Y-83263673D02*
X118593969Y-83093967D01*
X120404159Y-83829357D02*
X120036464Y-84197053D01*
X120121317Y-84621317D02*
X120516053Y-85016053D01*
X120276053Y-85906053D02*
X119756053Y-85906053D01*
X118905094Y-84479896D02*
X119442495Y-83942494D01*
X119442495Y-83942494D02*
X119442495Y-83942495D01*
X119470780Y-82556566D02*
X119555632Y-82641418D01*
X119018232Y-83518232D02*
X118480830Y-84055633D01*
X121257106Y-88225000D02*
X122150000Y-88225000D01*
X119756053Y-86506053D02*
X120276053Y-86506053D01*
X119612199Y-83772788D02*
X119979895Y-83405092D01*
X120516053Y-86866053D02*
X120516053Y-86881333D01*
X119516053Y-86146053D02*
X119516053Y-86266053D01*
X116500000Y-81000000D02*
X116874308Y-81374308D01*
X118000000Y-74000000D02*
X121670000Y-74000000D01*
X118000000Y-82839411D02*
X117632304Y-83207106D01*
X118593968Y-83093968D02*
X119131368Y-82556565D01*
X120516053Y-86746053D02*
X120516053Y-86866053D01*
X120036464Y-84197053D02*
G75*
G03*
X120036421Y-84536504I169736J-169747D01*
G01*
X119979895Y-83405092D02*
G75*
G02*
X120319307Y-83405093I169705J-169708D01*
G01*
X118000000Y-82500000D02*
G75*
G02*
X117999995Y-82839405I-169700J-169700D01*
G01*
X117717156Y-83631369D02*
G75*
G03*
X118056568Y-83631369I169706J169704D01*
G01*
X119516053Y-86266053D02*
G75*
G03*
X119756053Y-86506147I240047J-47D01*
G01*
X120276053Y-86506053D02*
G75*
G02*
X120516147Y-86746053I47J-240047D01*
G01*
X119555632Y-82641418D02*
G75*
G02*
X119555608Y-82980806I-169732J-169682D01*
G01*
X119131368Y-82556565D02*
G75*
G02*
X119470806Y-82556539I169732J-169735D01*
G01*
X119756053Y-85906053D02*
G75*
G03*
X119516053Y-86146053I47J-240047D01*
G01*
X120404159Y-83489945D02*
G75*
G02*
X120404208Y-83829406I-169659J-169755D01*
G01*
X120516053Y-85666053D02*
G75*
G02*
X120276053Y-85906053I-239953J-47D01*
G01*
X118480830Y-84055633D02*
G75*
G03*
X118480868Y-84395005I169670J-169667D01*
G01*
X118565682Y-84479896D02*
G75*
G03*
X118905094Y-84479896I169706J169704D01*
G01*
X117632304Y-83207106D02*
G75*
G03*
X117632315Y-83546505I169696J-169694D01*
G01*
%TO.N,Net-(J1-D-)*%
X121200000Y-88875000D02*
X114000000Y-81675000D01*
X119000000Y-73500000D02*
X121670000Y-73500000D01*
X122150000Y-88875000D02*
X121200000Y-88875000D01*
X114000000Y-81675000D02*
X114000000Y-71000000D01*
X116000000Y-70500000D02*
X117500000Y-72000000D01*
X114500000Y-70500000D02*
X116000000Y-70500000D01*
X117500000Y-72000000D02*
X119000000Y-73500000D01*
X116500000Y-72000000D02*
X117500000Y-72000000D01*
X114000000Y-71000000D02*
X114500000Y-70500000D01*
%TO.N,Net-(D5-A)*%
X113750000Y-57075000D02*
X113675000Y-57000000D01*
X113750000Y-58500000D02*
X113750000Y-57075000D01*
%TO.N,Net-(D6-A)*%
X108470000Y-82425000D02*
X108545000Y-82500000D01*
X108470000Y-80500000D02*
X108470000Y-82425000D01*
%TO.N,Net-(J2-Pin_1)*%
X87675000Y-56175000D02*
X92000000Y-60500000D01*
X91550001Y-46865000D02*
X92525000Y-46865000D01*
X89000000Y-53000000D02*
X87500000Y-54500000D01*
X87675000Y-56000000D02*
X87675000Y-56175000D01*
X89000000Y-49415001D02*
X91550001Y-46865000D01*
X89000000Y-53000000D02*
X89000000Y-49415001D01*
X87500000Y-54500000D02*
X87500000Y-55825000D01*
X87500000Y-55825000D02*
X87675000Y-56000000D01*
%TO.N,Net-(J2-Pin_2)*%
X89325000Y-55175000D02*
X89325000Y-56000000D01*
X95500000Y-59000000D02*
X95500000Y-62000000D01*
X92500000Y-56000000D02*
X95500000Y-59000000D01*
X89325000Y-56000000D02*
X92500000Y-56000000D01*
X95500000Y-62000000D02*
X92000000Y-65500000D01*
X92525000Y-48135000D02*
X91550001Y-48135000D01*
X91000000Y-53500000D02*
X89325000Y-55175000D01*
X91000000Y-48685001D02*
X91000000Y-53000000D01*
X91000000Y-53000000D02*
X91000000Y-53500000D01*
X91550001Y-48135000D02*
X91000000Y-48685001D01*
%TO.N,RTS*%
X113850000Y-62950000D02*
X113850000Y-64850000D01*
X126184904Y-69000000D02*
X124620000Y-70564904D01*
X116000000Y-67000000D02*
X119500000Y-67000000D01*
X126500000Y-69000000D02*
X126184904Y-69000000D01*
X113850000Y-64850000D02*
X116000000Y-67000000D01*
X114500000Y-61364168D02*
X114500000Y-61050000D01*
X124620000Y-70564904D02*
X124620000Y-71050000D01*
X113850000Y-62014168D02*
X114500000Y-61364168D01*
X113850000Y-62950000D02*
X113850000Y-62014168D01*
%TO.N,DTR*%
X116725001Y-65500000D02*
X119500000Y-65500000D01*
X122620000Y-68620000D02*
X122620000Y-71050000D01*
X115150000Y-61421274D02*
X115150000Y-61050000D01*
X114500000Y-63274999D02*
X116725001Y-65500000D01*
X114500000Y-62071274D02*
X115150000Y-61421274D01*
X114500000Y-62950000D02*
X114500000Y-62071274D01*
X114500000Y-62950000D02*
X114500000Y-63274999D01*
X119500000Y-65500000D02*
X122620000Y-68620000D01*
%TO.N,Net-(U1-VBUS)*%
X122000000Y-77675000D02*
X122000000Y-76570000D01*
X122000000Y-76570000D02*
X122620000Y-75950000D01*
%TO.N,Net-(U1-~{RST})*%
X123120000Y-77050000D02*
X123570000Y-77500000D01*
X123120000Y-75950000D02*
X123120000Y-77050000D01*
%TO.N,Net-(U1-~{SUSPEND})*%
X125095000Y-77500000D02*
X125570000Y-77500000D01*
X124120000Y-76525000D02*
X125095000Y-77500000D01*
X124120000Y-75950000D02*
X124120000Y-76525000D01*
%TO.N,MOD_DI*%
X102500000Y-46500000D02*
X104820000Y-48820000D01*
X102500000Y-46000000D02*
X102500000Y-46500000D01*
X99570000Y-43500000D02*
X101500000Y-43500000D01*
X97475000Y-45595000D02*
X99570000Y-43500000D01*
X102500000Y-44500000D02*
X102500000Y-46000000D01*
X104820000Y-48820000D02*
X106250000Y-48820000D01*
X101500000Y-43500000D02*
X102500000Y-44500000D01*
%TO.N,MOD_DRE*%
X97475000Y-46865000D02*
X97475000Y-48135000D01*
X107260000Y-36500000D02*
X110500000Y-39740000D01*
X97475000Y-46865000D02*
X96500001Y-46865000D01*
X96150000Y-43850000D02*
X103500000Y-36500000D01*
X96500001Y-46865000D02*
X96150000Y-46514999D01*
X110500000Y-47250000D02*
X111825000Y-48575000D01*
X103500000Y-36500000D02*
X107260000Y-36500000D01*
X111825000Y-48575000D02*
X111825000Y-55150000D01*
X110500000Y-39740000D02*
X110500000Y-47250000D01*
X96150000Y-46514999D02*
X96150000Y-43850000D01*
%TO.N,MOD_RO*%
X101600000Y-45100000D02*
X101600000Y-47100000D01*
X99500000Y-45000000D02*
X100000000Y-44500000D01*
X100000000Y-44500000D02*
X101000000Y-44500000D01*
X101000000Y-44500000D02*
X101600000Y-45100000D01*
X104590000Y-50090000D02*
X106250000Y-50090000D01*
X97475000Y-49405000D02*
X98449999Y-49405000D01*
X102500000Y-48000000D02*
X104590000Y-50090000D01*
X99500000Y-48354999D02*
X99500000Y-45000000D01*
X98449999Y-49405000D02*
X99500000Y-48354999D01*
X101600000Y-47100000D02*
X102500000Y-48000000D01*
%TO.N,GPIO13*%
X115325000Y-57000000D02*
X115325000Y-55460000D01*
X115325000Y-55460000D02*
X115635000Y-55150000D01*
%TO.N,RX0*%
X125000000Y-62758358D02*
X125000000Y-43000000D01*
X125000000Y-43000000D02*
X124470000Y-42470000D01*
X123620000Y-71050000D02*
X123620000Y-64138358D01*
X123620000Y-64138358D02*
X125000000Y-62758358D01*
X124470000Y-42470000D02*
X123750000Y-42470000D01*
%TO.N,TX0*%
X126000000Y-42400000D02*
X124800000Y-41200000D01*
X124800000Y-41200000D02*
X123750000Y-41200000D01*
X126000000Y-64500000D02*
X126000000Y-42400000D01*
X124120000Y-66380000D02*
X126000000Y-64500000D01*
X124120000Y-71050000D02*
X124120000Y-66380000D01*
D41*
%TO.N,+3V3*%
X87350000Y-53000000D02*
X87350000Y-45900000D01*
X100500000Y-54257684D02*
X100500000Y-65675000D01*
X87350000Y-45900000D02*
X89750000Y-43500000D01*
X95452684Y-49405000D02*
X95550000Y-49307684D01*
D40*
X121670000Y-74500000D02*
X121670000Y-75000000D01*
D41*
X98175000Y-40000000D02*
X95550000Y-42625000D01*
D40*
X122920000Y-78500000D02*
X123570000Y-79150000D01*
D41*
X95550000Y-43500000D02*
X95550000Y-49307684D01*
X107080000Y-38660000D02*
X109500000Y-41080000D01*
X120675000Y-62750000D02*
X118000000Y-62750000D01*
D40*
X121175000Y-78175000D02*
X121500000Y-78500000D01*
D41*
X124950000Y-80530000D02*
X123570000Y-79150000D01*
X109500000Y-41080000D02*
X109500000Y-50500000D01*
X95550000Y-49307684D02*
X100500000Y-54257684D01*
X95550000Y-42625000D02*
X95550000Y-43500000D01*
X124950000Y-81000000D02*
X124950000Y-80530000D01*
X110175000Y-80445000D02*
X110120000Y-80500000D01*
X92525000Y-49405000D02*
X95452684Y-49405000D01*
X123570000Y-79150000D02*
X123570000Y-79070000D01*
D40*
X121500000Y-78500000D02*
X122920000Y-78500000D01*
D41*
X89750000Y-43500000D02*
X95550000Y-43500000D01*
D40*
X121175000Y-75495000D02*
X121175000Y-78175000D01*
D41*
X110175000Y-75050000D02*
X110175000Y-80445000D01*
D40*
X121670000Y-75000000D02*
X121175000Y-75495000D01*
D41*
X106250000Y-38660000D02*
X107080000Y-38660000D01*
X100500000Y-65675000D02*
X106825000Y-72000000D01*
D40*
%TO.N,Net-(J1-VBUS)*%
X121500000Y-81000000D02*
X121500000Y-79825000D01*
X118345000Y-77675000D02*
X118000000Y-78020000D01*
X121150000Y-79325000D02*
X119500000Y-77675000D01*
X121500000Y-79825000D02*
X122000000Y-79325000D01*
X122000000Y-79325000D02*
X121150000Y-79325000D01*
X119500000Y-77675000D02*
X118345000Y-77675000D01*
%TD*%
%TA.AperFunction,Conductor*%
%TO.N,+3V3*%
G36*
X100845732Y-45269685D02*
G01*
X100866374Y-45286319D01*
X100913181Y-45333126D01*
X100946666Y-45394449D01*
X100949500Y-45420807D01*
X100949500Y-47164069D01*
X100949500Y-47164071D01*
X100949499Y-47164071D01*
X100974497Y-47289738D01*
X100974499Y-47289744D01*
X101023535Y-47408127D01*
X101094723Y-47514669D01*
X101213681Y-47633627D01*
X101247166Y-47694949D01*
X101250000Y-47721308D01*
X101250000Y-56500001D01*
X103229217Y-57939430D01*
X103948933Y-58462860D01*
X103991573Y-58518210D01*
X104000000Y-58563143D01*
X104000000Y-65750000D01*
X107250000Y-65750000D01*
X107250000Y-64842736D01*
X107250377Y-64834413D01*
X107250373Y-64834413D01*
X107250500Y-64831617D01*
X107250500Y-64168374D01*
X107250373Y-64165568D01*
X107250377Y-64165567D01*
X107250000Y-64157257D01*
X107250000Y-63874000D01*
X107269685Y-63806961D01*
X107322489Y-63761206D01*
X107374000Y-63750000D01*
X111876000Y-63750000D01*
X111943039Y-63769685D01*
X111988794Y-63822489D01*
X112000000Y-63874000D01*
X112000000Y-76901000D01*
X111980315Y-76968039D01*
X111927511Y-77013794D01*
X111876000Y-77025000D01*
X104624000Y-77025000D01*
X104556961Y-77005315D01*
X104511206Y-76952511D01*
X104500000Y-76901000D01*
X104500000Y-74525000D01*
X104500000Y-69250000D01*
X100124000Y-69250000D01*
X100056961Y-69230315D01*
X100011206Y-69177511D01*
X100000000Y-69126000D01*
X100000000Y-48815179D01*
X100019685Y-48748140D01*
X100020855Y-48746352D01*
X100076466Y-48663125D01*
X100125501Y-48544742D01*
X100135577Y-48494091D01*
X100150500Y-48419068D01*
X100150500Y-45374000D01*
X100170185Y-45306961D01*
X100222989Y-45261206D01*
X100274500Y-45250000D01*
X100778693Y-45250000D01*
X100845732Y-45269685D01*
G37*
%TD.AperFunction*%
%TD*%
%TA.AperFunction,Conductor*%
%TO.N,GND*%
G36*
X124880344Y-78267882D02*
G01*
X125005394Y-78343478D01*
X125167804Y-78394086D01*
X125238384Y-78400500D01*
X125238387Y-78400500D01*
X125901613Y-78400500D01*
X125901616Y-78400500D01*
X125972196Y-78394086D01*
X126134606Y-78343478D01*
X126259655Y-78267882D01*
X126323804Y-78250000D01*
X127375500Y-78250000D01*
X127442539Y-78269685D01*
X127488294Y-78322489D01*
X127499500Y-78374000D01*
X127499500Y-81876000D01*
X127479815Y-81943039D01*
X127427011Y-81988794D01*
X127375500Y-82000000D01*
X127062730Y-82000000D01*
X126995691Y-81980315D01*
X126975049Y-81963681D01*
X125936818Y-80925450D01*
X125903333Y-80864127D01*
X125900499Y-80837769D01*
X125900499Y-80701662D01*
X125900498Y-80701644D01*
X125890349Y-80602292D01*
X125890348Y-80602289D01*
X125854704Y-80494723D01*
X125837003Y-80441303D01*
X125836999Y-80441297D01*
X125836998Y-80441294D01*
X125747970Y-80296959D01*
X125747969Y-80296958D01*
X125747968Y-80296956D01*
X125628044Y-80177032D01*
X125628043Y-80177031D01*
X125622383Y-80172556D01*
X125623416Y-80171248D01*
X125593861Y-80142743D01*
X125582186Y-80125270D01*
X125582185Y-80125268D01*
X125532956Y-80051589D01*
X125532952Y-80051584D01*
X124581819Y-79100451D01*
X124548334Y-79039128D01*
X124545500Y-79012770D01*
X124545500Y-78893386D01*
X124545500Y-78893384D01*
X124539086Y-78822804D01*
X124505614Y-78715385D01*
X124500000Y-78678496D01*
X124500000Y-78374000D01*
X124519685Y-78306961D01*
X124572489Y-78261206D01*
X124624000Y-78250000D01*
X124816196Y-78250000D01*
X124880344Y-78267882D01*
G37*
%TD.AperFunction*%
%TD*%
%TA.AperFunction,Conductor*%
%TO.N,GND*%
G36*
X118928215Y-78516155D02*
G01*
X118928555Y-78515400D01*
X118933514Y-78517632D01*
X118934405Y-78517880D01*
X118935394Y-78518478D01*
X119097804Y-78569086D01*
X119168384Y-78575500D01*
X119429192Y-78575500D01*
X119496231Y-78595185D01*
X119516873Y-78611819D01*
X120463681Y-79558627D01*
X120497166Y-79619950D01*
X120500000Y-79646308D01*
X120500000Y-80000000D01*
X120813181Y-80313181D01*
X120846666Y-80374504D01*
X120849500Y-80400862D01*
X120849500Y-80471919D01*
X120829815Y-80538958D01*
X120824767Y-80546229D01*
X120816206Y-80557664D01*
X120816202Y-80557671D01*
X120768034Y-80686819D01*
X120765909Y-80692517D01*
X120759500Y-80752127D01*
X120759500Y-80752134D01*
X120759500Y-80752135D01*
X120759500Y-81247870D01*
X120759501Y-81247876D01*
X120765908Y-81307483D01*
X120816202Y-81442328D01*
X120816203Y-81442329D01*
X120816204Y-81442331D01*
X120902452Y-81557543D01*
X120902451Y-81557543D01*
X120902452Y-81557544D01*
X120902454Y-81557546D01*
X120950313Y-81593373D01*
X120992181Y-81649303D01*
X121000000Y-81692637D01*
X121000000Y-81876000D01*
X120980315Y-81943039D01*
X120927511Y-81988794D01*
X120876000Y-82000000D01*
X119854656Y-82000000D01*
X119787617Y-81980315D01*
X119785859Y-81979164D01*
X119722828Y-81937061D01*
X119702265Y-81928546D01*
X119560775Y-81869958D01*
X119560768Y-81869955D01*
X119445793Y-81847097D01*
X119388734Y-81835753D01*
X119388732Y-81835753D01*
X119213333Y-81835766D01*
X119213329Y-81835766D01*
X119041305Y-81869993D01*
X119041300Y-81869994D01*
X118879253Y-81937124D01*
X118879252Y-81937124D01*
X118831446Y-81969068D01*
X118816431Y-81979101D01*
X118749756Y-81999980D01*
X118747541Y-82000000D01*
X118551362Y-82000000D01*
X118484323Y-81980315D01*
X118463681Y-81963681D01*
X117186819Y-80686819D01*
X117153334Y-80625496D01*
X117150500Y-80599138D01*
X117150500Y-78685667D01*
X117170185Y-78618628D01*
X117222989Y-78572873D01*
X117292147Y-78562929D01*
X117355703Y-78591954D01*
X117362181Y-78597986D01*
X117434307Y-78670112D01*
X117434311Y-78670115D01*
X117434313Y-78670117D01*
X117573605Y-78752494D01*
X117614587Y-78764400D01*
X117729002Y-78797642D01*
X117729005Y-78797642D01*
X117729007Y-78797643D01*
X117765310Y-78800500D01*
X117765318Y-78800500D01*
X118234682Y-78800500D01*
X118234690Y-78800500D01*
X118270993Y-78797643D01*
X118270995Y-78797642D01*
X118270997Y-78797642D01*
X118311975Y-78785736D01*
X118426395Y-78752494D01*
X118565687Y-78670117D01*
X118680117Y-78555687D01*
X118680120Y-78555680D01*
X118684897Y-78549524D01*
X118687249Y-78551348D01*
X118728132Y-78513187D01*
X118783779Y-78500000D01*
X118870260Y-78500000D01*
X118928215Y-78516155D01*
G37*
%TD.AperFunction*%
%TD*%
%TA.AperFunction,Conductor*%
%TO.N,GND*%
G36*
X103693039Y-70019685D02*
G01*
X103738794Y-70072489D01*
X103750000Y-70124000D01*
X103750000Y-72126000D01*
X103730315Y-72193039D01*
X103677511Y-72238794D01*
X103626000Y-72250000D01*
X96500000Y-72250000D01*
X96500000Y-74750000D01*
X93500000Y-74750000D01*
X93500000Y-70124000D01*
X93519685Y-70056961D01*
X93572489Y-70011206D01*
X93624000Y-70000000D01*
X103626000Y-70000000D01*
X103693039Y-70019685D01*
G37*
%TD.AperFunction*%
%TD*%
%TA.AperFunction,Conductor*%
%TO.N,5V*%
G36*
X103442638Y-75019905D02*
G01*
X103488595Y-75072532D01*
X103500000Y-75124477D01*
X103500000Y-76921308D01*
X103480315Y-76988347D01*
X103428799Y-77033506D01*
X95000000Y-81000000D01*
X95000000Y-83876000D01*
X94980315Y-83943039D01*
X94927511Y-83988794D01*
X94876000Y-84000000D01*
X89629500Y-84000000D01*
X89562461Y-83980315D01*
X89516706Y-83927511D01*
X89505500Y-83876000D01*
X89505500Y-80576404D01*
X89525185Y-80509365D01*
X89577060Y-80464038D01*
X95891858Y-77517133D01*
X95944296Y-77505500D01*
X96375990Y-77505500D01*
X96376000Y-77505500D01*
X96483456Y-77493947D01*
X96534967Y-77482741D01*
X96569197Y-77471347D01*
X96637497Y-77448616D01*
X96637501Y-77448613D01*
X96637504Y-77448613D01*
X96758543Y-77370825D01*
X96811347Y-77325070D01*
X96905567Y-77216336D01*
X96965338Y-77085459D01*
X96977297Y-77044729D01*
X96991686Y-77013054D01*
X97000000Y-77000000D01*
X97000000Y-76923122D01*
X97001262Y-76905475D01*
X97005500Y-76876000D01*
X97005500Y-75148501D01*
X97025185Y-75081462D01*
X97077989Y-75035707D01*
X97129014Y-75024503D01*
X103375525Y-75000478D01*
X103442638Y-75019905D01*
G37*
%TD.AperFunction*%
%TD*%
%TA.AperFunction,Conductor*%
%TO.N,GND*%
G36*
X93500000Y-74750000D02*
G01*
X96500000Y-74750000D01*
X96500000Y-76876000D01*
X96480315Y-76943039D01*
X96427511Y-76988794D01*
X96376000Y-77000000D01*
X89000000Y-77000000D01*
X89000000Y-85500000D01*
X90500000Y-85500000D01*
X94876000Y-85500000D01*
X94943039Y-85519685D01*
X94988794Y-85572489D01*
X95000000Y-85624000D01*
X95000000Y-88876000D01*
X94980315Y-88943039D01*
X94927511Y-88988794D01*
X94876000Y-89000000D01*
X86124500Y-89000000D01*
X86057461Y-88980315D01*
X86011706Y-88927511D01*
X86000500Y-88876000D01*
X86000500Y-72624000D01*
X86020185Y-72556961D01*
X86072989Y-72511206D01*
X86124500Y-72500000D01*
X93500000Y-72500000D01*
X93500000Y-74750000D01*
G37*
%TD.AperFunction*%
%TD*%
%TA.AperFunction,Conductor*%
%TO.N,GND*%
G36*
X123443039Y-56769685D02*
G01*
X123488794Y-56822489D01*
X123500000Y-56874000D01*
X123500000Y-57047371D01*
X123495076Y-57081966D01*
X123452357Y-57229002D01*
X123452356Y-57229008D01*
X123449500Y-57265302D01*
X123449500Y-57734697D01*
X123452356Y-57770991D01*
X123452357Y-57770997D01*
X123495076Y-57918033D01*
X123500000Y-57952628D01*
X123500000Y-58376000D01*
X123480315Y-58443039D01*
X123427511Y-58488794D01*
X123376000Y-58500000D01*
X121750000Y-58500000D01*
X121750000Y-61376000D01*
X121730315Y-61443039D01*
X121677511Y-61488794D01*
X121626000Y-61500000D01*
X117792174Y-61500000D01*
X117725135Y-61480315D01*
X117716570Y-61474285D01*
X114685897Y-59142997D01*
X114644763Y-59086522D01*
X114640691Y-59016771D01*
X114643791Y-59005725D01*
X114677936Y-58902685D01*
X114688000Y-58804174D01*
X114688000Y-58195826D01*
X114677936Y-58097315D01*
X114669466Y-58071757D01*
X114667065Y-58001931D01*
X114702796Y-57941889D01*
X114765317Y-57910696D01*
X114827841Y-57917501D01*
X114828233Y-57916246D01*
X114834633Y-57918240D01*
X114834776Y-57918256D01*
X114835013Y-57918358D01*
X114835389Y-57918475D01*
X114835394Y-57918478D01*
X114997804Y-57969086D01*
X115068384Y-57975500D01*
X115068387Y-57975500D01*
X115581613Y-57975500D01*
X115581616Y-57975500D01*
X115652196Y-57969086D01*
X115814606Y-57918478D01*
X115960185Y-57830472D01*
X116080472Y-57710185D01*
X116134838Y-57620252D01*
X116153260Y-57596739D01*
X116963681Y-56786319D01*
X117025004Y-56752834D01*
X117051362Y-56750000D01*
X123376000Y-56750000D01*
X123443039Y-56769685D01*
G37*
%TD.AperFunction*%
%TD*%
%TA.AperFunction,Conductor*%
%TO.N,+3V3*%
G36*
X104500000Y-74525000D02*
G01*
X103568516Y-74525000D01*
X103534034Y-74520109D01*
X103529671Y-74518846D01*
X103518462Y-74515601D01*
X103516757Y-74515070D01*
X103516079Y-74514911D01*
X103516075Y-74514910D01*
X103516074Y-74514910D01*
X103373581Y-74494982D01*
X103373578Y-74494982D01*
X102998924Y-74496422D01*
X97129976Y-74518995D01*
X97062862Y-74499570D01*
X97016905Y-74446942D01*
X97005500Y-74394997D01*
X97005500Y-72879500D01*
X97025185Y-72812461D01*
X97077989Y-72766706D01*
X97129500Y-72755500D01*
X103625990Y-72755500D01*
X103626000Y-72755500D01*
X103733456Y-72743947D01*
X103784967Y-72732741D01*
X103819197Y-72721347D01*
X103887497Y-72698616D01*
X103887501Y-72698613D01*
X103887504Y-72698613D01*
X104008543Y-72620825D01*
X104061347Y-72575070D01*
X104067648Y-72567797D01*
X104126426Y-72530023D01*
X104161362Y-72525000D01*
X104500000Y-72525000D01*
X104500000Y-74525000D01*
G37*
%TD.AperFunction*%
%TD*%
%TA.AperFunction,Conductor*%
%TO.N,GND*%
G36*
X125402514Y-71934501D02*
G01*
X125402674Y-71933905D01*
X125410524Y-71936008D01*
X125410526Y-71936008D01*
X125410528Y-71936009D01*
X125520599Y-71950500D01*
X125545498Y-71950499D01*
X125612536Y-71970181D01*
X125658293Y-72022984D01*
X125669500Y-72074495D01*
X125669500Y-72099402D01*
X125683989Y-72209468D01*
X125686094Y-72217322D01*
X125682814Y-72218200D01*
X125688581Y-72272073D01*
X125685517Y-72282522D01*
X125686095Y-72282677D01*
X125683990Y-72290529D01*
X125669500Y-72400598D01*
X125669500Y-72599403D01*
X125683989Y-72709468D01*
X125686094Y-72717322D01*
X125682814Y-72718200D01*
X125688581Y-72772073D01*
X125685517Y-72782522D01*
X125686095Y-72782677D01*
X125683990Y-72790529D01*
X125669500Y-72900598D01*
X125669500Y-73099403D01*
X125683989Y-73209468D01*
X125686094Y-73217322D01*
X125682814Y-73218200D01*
X125688581Y-73272073D01*
X125685517Y-73282522D01*
X125686095Y-73282677D01*
X125683990Y-73290529D01*
X125669500Y-73400598D01*
X125669500Y-73599403D01*
X125683989Y-73709468D01*
X125686094Y-73717322D01*
X125682814Y-73718200D01*
X125688581Y-73772073D01*
X125685517Y-73782522D01*
X125686095Y-73782677D01*
X125683990Y-73790529D01*
X125669500Y-73900598D01*
X125669500Y-74099403D01*
X125683989Y-74209468D01*
X125686094Y-74217322D01*
X125682814Y-74218200D01*
X125688581Y-74272073D01*
X125685517Y-74282522D01*
X125686095Y-74282677D01*
X125683990Y-74290529D01*
X125669500Y-74400598D01*
X125669500Y-74599403D01*
X125683989Y-74709468D01*
X125686094Y-74717322D01*
X125682814Y-74718200D01*
X125688581Y-74772073D01*
X125685517Y-74782522D01*
X125686095Y-74782677D01*
X125683990Y-74790529D01*
X125669501Y-74900589D01*
X125669500Y-74900605D01*
X125669500Y-74925500D01*
X125649815Y-74992539D01*
X125597011Y-75038294D01*
X125545504Y-75049500D01*
X125520597Y-75049500D01*
X125410531Y-75063989D01*
X125402678Y-75066094D01*
X125401802Y-75062824D01*
X125347853Y-75068567D01*
X125337477Y-75065518D01*
X125337323Y-75066095D01*
X125329470Y-75063990D01*
X125219401Y-75049500D01*
X125020596Y-75049500D01*
X124910531Y-75063989D01*
X124902678Y-75066094D01*
X124901802Y-75062824D01*
X124847853Y-75068567D01*
X124837477Y-75065518D01*
X124837323Y-75066095D01*
X124829470Y-75063990D01*
X124719401Y-75049500D01*
X124520596Y-75049500D01*
X124410531Y-75063989D01*
X124402678Y-75066094D01*
X124401802Y-75062824D01*
X124347853Y-75068567D01*
X124337477Y-75065518D01*
X124337323Y-75066095D01*
X124329470Y-75063990D01*
X124219401Y-75049500D01*
X124020596Y-75049500D01*
X123910531Y-75063989D01*
X123902678Y-75066094D01*
X123901802Y-75062824D01*
X123847853Y-75068567D01*
X123837477Y-75065518D01*
X123837323Y-75066095D01*
X123829470Y-75063990D01*
X123719401Y-75049500D01*
X123520596Y-75049500D01*
X123410531Y-75063989D01*
X123402678Y-75066094D01*
X123401802Y-75062824D01*
X123347853Y-75068567D01*
X123337477Y-75065518D01*
X123337323Y-75066095D01*
X123329470Y-75063990D01*
X123219401Y-75049500D01*
X123020596Y-75049500D01*
X122910531Y-75063989D01*
X122902678Y-75066094D01*
X122901802Y-75062824D01*
X122847853Y-75068567D01*
X122837477Y-75065518D01*
X122837323Y-75066095D01*
X122829470Y-75063990D01*
X122719410Y-75049501D01*
X122719407Y-75049500D01*
X122719401Y-75049500D01*
X122719394Y-75049500D01*
X122694499Y-75049500D01*
X122627460Y-75029815D01*
X122581705Y-74977011D01*
X122570499Y-74925500D01*
X122570499Y-74900597D01*
X122556009Y-74790529D01*
X122556009Y-74790528D01*
X122556008Y-74790525D01*
X122553905Y-74782674D01*
X122557207Y-74781789D01*
X122551392Y-74728075D01*
X122554501Y-74717485D01*
X122553905Y-74717326D01*
X122556008Y-74709475D01*
X122556008Y-74709474D01*
X122556009Y-74709472D01*
X122570500Y-74599401D01*
X122570499Y-74400600D01*
X122556009Y-74290528D01*
X122556008Y-74290525D01*
X122553905Y-74282674D01*
X122557207Y-74281789D01*
X122551392Y-74228075D01*
X122554501Y-74217485D01*
X122553905Y-74217326D01*
X122556008Y-74209475D01*
X122556008Y-74209474D01*
X122556009Y-74209472D01*
X122570500Y-74099401D01*
X122570499Y-73900600D01*
X122556009Y-73790528D01*
X122556008Y-73790525D01*
X122553905Y-73782674D01*
X122557207Y-73781789D01*
X122551392Y-73728075D01*
X122554501Y-73717485D01*
X122553905Y-73717326D01*
X122556008Y-73709475D01*
X122556008Y-73709474D01*
X122556009Y-73709472D01*
X122570500Y-73599401D01*
X122570499Y-73400600D01*
X122570499Y-73400598D01*
X122570499Y-73400596D01*
X122556011Y-73290536D01*
X122556009Y-73290529D01*
X122556009Y-73290528D01*
X122499279Y-73153571D01*
X122479676Y-73128024D01*
X122439362Y-73075485D01*
X122414168Y-73010316D01*
X122428207Y-72941871D01*
X122439358Y-72924518D01*
X122499279Y-72846429D01*
X122556009Y-72709472D01*
X122570500Y-72599401D01*
X122570499Y-72400600D01*
X122556009Y-72290528D01*
X122556008Y-72290525D01*
X122553905Y-72282674D01*
X122557207Y-72281789D01*
X122551392Y-72228075D01*
X122554501Y-72217485D01*
X122553905Y-72217326D01*
X122556008Y-72209475D01*
X122556008Y-72209474D01*
X122556009Y-72209472D01*
X122570500Y-72099401D01*
X122570500Y-72074499D01*
X122590185Y-72007460D01*
X122642989Y-71961705D01*
X122694500Y-71950499D01*
X122719402Y-71950499D01*
X122748382Y-71946683D01*
X122829472Y-71936009D01*
X122829475Y-71936007D01*
X122837326Y-71933905D01*
X122838210Y-71937207D01*
X122891925Y-71931392D01*
X122902514Y-71934501D01*
X122902674Y-71933905D01*
X122910524Y-71936008D01*
X122910526Y-71936008D01*
X122910528Y-71936009D01*
X123020599Y-71950500D01*
X123219400Y-71950499D01*
X123219401Y-71950499D01*
X123236087Y-71948302D01*
X123329472Y-71936009D01*
X123329475Y-71936007D01*
X123337326Y-71933905D01*
X123338210Y-71937207D01*
X123391925Y-71931392D01*
X123402514Y-71934501D01*
X123402674Y-71933905D01*
X123410524Y-71936008D01*
X123410526Y-71936008D01*
X123410528Y-71936009D01*
X123520599Y-71950500D01*
X123719400Y-71950499D01*
X123719401Y-71950499D01*
X123736087Y-71948302D01*
X123829472Y-71936009D01*
X123829475Y-71936007D01*
X123837326Y-71933905D01*
X123838210Y-71937207D01*
X123891925Y-71931392D01*
X123902514Y-71934501D01*
X123902674Y-71933905D01*
X123910524Y-71936008D01*
X123910526Y-71936008D01*
X123910528Y-71936009D01*
X124020599Y-71950500D01*
X124219400Y-71950499D01*
X124219401Y-71950499D01*
X124236087Y-71948302D01*
X124329472Y-71936009D01*
X124329475Y-71936007D01*
X124337326Y-71933905D01*
X124338210Y-71937207D01*
X124391925Y-71931392D01*
X124402514Y-71934501D01*
X124402674Y-71933905D01*
X124410524Y-71936008D01*
X124410526Y-71936008D01*
X124410528Y-71936009D01*
X124520599Y-71950500D01*
X124719400Y-71950499D01*
X124719401Y-71950499D01*
X124736087Y-71948302D01*
X124829472Y-71936009D01*
X124829475Y-71936007D01*
X124837326Y-71933905D01*
X124838210Y-71937207D01*
X124891925Y-71931392D01*
X124902514Y-71934501D01*
X124902674Y-71933905D01*
X124910524Y-71936008D01*
X124910526Y-71936008D01*
X124910528Y-71936009D01*
X125020599Y-71950500D01*
X125219400Y-71950499D01*
X125219401Y-71950499D01*
X125236087Y-71948302D01*
X125329472Y-71936009D01*
X125329475Y-71936007D01*
X125337326Y-71933905D01*
X125338210Y-71937207D01*
X125391925Y-71931392D01*
X125402514Y-71934501D01*
G37*
%TD.AperFunction*%
%TD*%
M02*
