M48
; DRILL file {KiCad 8.0.7} date 2025-02-14T15:53:48+0000
; FORMAT={-:-/ absolute / metric / decimal}
; #@! TF.CreationDate,2025-02-14T15:53:48+00:00
; #@! TF.GenerationSoftware,Kicad,Pcbnew,8.0.7
; #@! TF.FileFunction,MixedPlating,1,2
FMAT,2
METRIC
; #@! TA.AperFunction,Plated,PTH,ComponentDrill
T1C0.200
; #@! TA.AperFunction,Plated,PTH,ViaDrill
T2C0.300
; #@! TA.AperFunction,Plated,PTH,ComponentDrill
T3C0.550
; #@! TA.AperFunction,Plated,PTH,ComponentDrill
T4C0.850
; #@! TA.AperFunction,Plated,PTH,ComponentDrill
T5C1.320
; #@! TA.AperFunction,NonPlated,NPTH,ComponentDrill
T6C0.800
%
G90
G05
T1
X112.1Y-44.41
X112.1Y-45.81
X112.8Y-43.71
X112.8Y-45.11
X112.8Y-46.51
X113.5Y-44.41
X113.5Y-45.81
X114.2Y-43.71
X114.2Y-45.11
X114.2Y-46.51
X114.9Y-44.41
X114.9Y-45.81
T2
X86.75Y-86.5
X86.75Y-87.75
X87.0Y-73.0
X87.0Y-74.75
X88.25Y-87.75
X88.75Y-73.0
X90.5Y-45.5
X91.75Y-73.0
X91.75Y-74.0
X91.75Y-75.0
X91.75Y-76.0
X94.0Y-53.0
X94.25Y-70.5
X94.25Y-72.0
X96.75Y-70.5
X98.5Y-71.75
X100.0Y-70.5
X100.5Y-54.258
X104.25Y-40.75
X104.25Y-50.75
X108.0Y-38.25
X109.5Y-50.5
X110.75Y-62.75
X111.5Y-66.75
X111.5Y-83.5
X115.5Y-75.0
X116.6Y-58.0
X116.6Y-59.0
X117.5Y-80.0
X118.0Y-62.75
X118.0Y-80.5
X118.5Y-81.0
X118.8Y-59.6
X118.8Y-60.7
X119.0Y-81.5
X119.5Y-67.0
X120.25Y-72.5
X121.25Y-86.0
X122.0Y-38.0
X122.2Y-57.2
X122.2Y-57.9
X124.12Y-73.5
X126.5Y-69.0
X127.0Y-78.75
X127.0Y-79.5
T5
X92.0Y-60.5
X92.0Y-65.5
X92.0Y-82.235
X92.0Y-87.235
T6
X123.25Y-85.725
X123.25Y-90.725
T3
G00X125.675Y-84.35
M15
G01X126.325Y-84.35
M16
G05
G00X125.675Y-92.1
M15
G01X126.325Y-92.1
M16
G05
T4
G00X121.925Y-84.5
M15
G01X122.475Y-84.5
M16
G05
G00X121.925Y-91.95
M15
G01X122.475Y-91.95
M16
G05
M30
