%TF.GenerationSoftware,KiCad,Pcbnew,8.0.7*%
%TF.CreationDate,2025-02-14T15:53:52+00:00*%
%TF.ProjectId,FYP_Motor_R2,4659505f-4d6f-4746-9f72-5f52322e6b69,rev?*%
%TF.SameCoordinates,Original*%
%TF.FileFunction,Legend,Top*%
%TF.FilePolarity,Positive*%
%FSLAX46Y46*%
G04 Gerber Fmt 4.6, Leading zero omitted, Abs format (unit mm)*
G04 Created by KiCad (PCBNEW 8.0.7) date 2025-02-14 15:53:52*
%MOMM*%
%LPD*%
G01*
G04 APERTURE LIST*
%ADD10C,0.150000*%
%ADD11C,0.400000*%
%ADD12C,0.160000*%
%ADD13C,0.120000*%
%ADD14C,0.127000*%
%ADD15C,0.200000*%
G04 APERTURE END LIST*
D10*
X101158207Y-92369819D02*
X100824874Y-91893628D01*
X100586779Y-92369819D02*
X100586779Y-91369819D01*
X100586779Y-91369819D02*
X100967731Y-91369819D01*
X100967731Y-91369819D02*
X101062969Y-91417438D01*
X101062969Y-91417438D02*
X101110588Y-91465057D01*
X101110588Y-91465057D02*
X101158207Y-91560295D01*
X101158207Y-91560295D02*
X101158207Y-91703152D01*
X101158207Y-91703152D02*
X101110588Y-91798390D01*
X101110588Y-91798390D02*
X101062969Y-91846009D01*
X101062969Y-91846009D02*
X100967731Y-91893628D01*
X100967731Y-91893628D02*
X100586779Y-91893628D01*
X101586779Y-91846009D02*
X101920112Y-91846009D01*
X102062969Y-92369819D02*
X101586779Y-92369819D01*
X101586779Y-92369819D02*
X101586779Y-91369819D01*
X101586779Y-91369819D02*
X102062969Y-91369819D01*
X102348684Y-91369819D02*
X102682017Y-92369819D01*
X102682017Y-92369819D02*
X103015350Y-91369819D01*
X103348684Y-92369819D02*
X103348684Y-91369819D01*
X103777255Y-92322200D02*
X103920112Y-92369819D01*
X103920112Y-92369819D02*
X104158207Y-92369819D01*
X104158207Y-92369819D02*
X104253445Y-92322200D01*
X104253445Y-92322200D02*
X104301064Y-92274580D01*
X104301064Y-92274580D02*
X104348683Y-92179342D01*
X104348683Y-92179342D02*
X104348683Y-92084104D01*
X104348683Y-92084104D02*
X104301064Y-91988866D01*
X104301064Y-91988866D02*
X104253445Y-91941247D01*
X104253445Y-91941247D02*
X104158207Y-91893628D01*
X104158207Y-91893628D02*
X103967731Y-91846009D01*
X103967731Y-91846009D02*
X103872493Y-91798390D01*
X103872493Y-91798390D02*
X103824874Y-91750771D01*
X103824874Y-91750771D02*
X103777255Y-91655533D01*
X103777255Y-91655533D02*
X103777255Y-91560295D01*
X103777255Y-91560295D02*
X103824874Y-91465057D01*
X103824874Y-91465057D02*
X103872493Y-91417438D01*
X103872493Y-91417438D02*
X103967731Y-91369819D01*
X103967731Y-91369819D02*
X104205826Y-91369819D01*
X104205826Y-91369819D02*
X104348683Y-91417438D01*
X104777255Y-92369819D02*
X104777255Y-91369819D01*
X105443921Y-91369819D02*
X105634397Y-91369819D01*
X105634397Y-91369819D02*
X105729635Y-91417438D01*
X105729635Y-91417438D02*
X105824873Y-91512676D01*
X105824873Y-91512676D02*
X105872492Y-91703152D01*
X105872492Y-91703152D02*
X105872492Y-92036485D01*
X105872492Y-92036485D02*
X105824873Y-92226961D01*
X105824873Y-92226961D02*
X105729635Y-92322200D01*
X105729635Y-92322200D02*
X105634397Y-92369819D01*
X105634397Y-92369819D02*
X105443921Y-92369819D01*
X105443921Y-92369819D02*
X105348683Y-92322200D01*
X105348683Y-92322200D02*
X105253445Y-92226961D01*
X105253445Y-92226961D02*
X105205826Y-92036485D01*
X105205826Y-92036485D02*
X105205826Y-91703152D01*
X105205826Y-91703152D02*
X105253445Y-91512676D01*
X105253445Y-91512676D02*
X105348683Y-91417438D01*
X105348683Y-91417438D02*
X105443921Y-91369819D01*
X106301064Y-92369819D02*
X106301064Y-91369819D01*
X106301064Y-91369819D02*
X106872492Y-92369819D01*
X106872492Y-92369819D02*
X106872492Y-91369819D01*
X108062969Y-91465057D02*
X108110588Y-91417438D01*
X108110588Y-91417438D02*
X108205826Y-91369819D01*
X108205826Y-91369819D02*
X108443921Y-91369819D01*
X108443921Y-91369819D02*
X108539159Y-91417438D01*
X108539159Y-91417438D02*
X108586778Y-91465057D01*
X108586778Y-91465057D02*
X108634397Y-91560295D01*
X108634397Y-91560295D02*
X108634397Y-91655533D01*
X108634397Y-91655533D02*
X108586778Y-91798390D01*
X108586778Y-91798390D02*
X108015350Y-92369819D01*
X108015350Y-92369819D02*
X108634397Y-92369819D01*
X88408207Y-32414636D02*
X88360588Y-32462256D01*
X88360588Y-32462256D02*
X88217731Y-32509875D01*
X88217731Y-32509875D02*
X88122493Y-32509875D01*
X88122493Y-32509875D02*
X87979636Y-32462256D01*
X87979636Y-32462256D02*
X87884398Y-32367017D01*
X87884398Y-32367017D02*
X87836779Y-32271779D01*
X87836779Y-32271779D02*
X87789160Y-32081303D01*
X87789160Y-32081303D02*
X87789160Y-31938446D01*
X87789160Y-31938446D02*
X87836779Y-31747970D01*
X87836779Y-31747970D02*
X87884398Y-31652732D01*
X87884398Y-31652732D02*
X87979636Y-31557494D01*
X87979636Y-31557494D02*
X88122493Y-31509875D01*
X88122493Y-31509875D02*
X88217731Y-31509875D01*
X88217731Y-31509875D02*
X88360588Y-31557494D01*
X88360588Y-31557494D02*
X88408207Y-31605113D01*
X89027255Y-31509875D02*
X89217731Y-31509875D01*
X89217731Y-31509875D02*
X89312969Y-31557494D01*
X89312969Y-31557494D02*
X89408207Y-31652732D01*
X89408207Y-31652732D02*
X89455826Y-31843208D01*
X89455826Y-31843208D02*
X89455826Y-32176541D01*
X89455826Y-32176541D02*
X89408207Y-32367017D01*
X89408207Y-32367017D02*
X89312969Y-32462256D01*
X89312969Y-32462256D02*
X89217731Y-32509875D01*
X89217731Y-32509875D02*
X89027255Y-32509875D01*
X89027255Y-32509875D02*
X88932017Y-32462256D01*
X88932017Y-32462256D02*
X88836779Y-32367017D01*
X88836779Y-32367017D02*
X88789160Y-32176541D01*
X88789160Y-32176541D02*
X88789160Y-31843208D01*
X88789160Y-31843208D02*
X88836779Y-31652732D01*
X88836779Y-31652732D02*
X88932017Y-31557494D01*
X88932017Y-31557494D02*
X89027255Y-31509875D01*
X89884398Y-32509875D02*
X89884398Y-31509875D01*
X89884398Y-31509875D02*
X90455826Y-32509875D01*
X90455826Y-32509875D02*
X90455826Y-31509875D01*
X91122493Y-31509875D02*
X91312969Y-31509875D01*
X91312969Y-31509875D02*
X91408207Y-31557494D01*
X91408207Y-31557494D02*
X91503445Y-31652732D01*
X91503445Y-31652732D02*
X91551064Y-31843208D01*
X91551064Y-31843208D02*
X91551064Y-32176541D01*
X91551064Y-32176541D02*
X91503445Y-32367017D01*
X91503445Y-32367017D02*
X91408207Y-32462256D01*
X91408207Y-32462256D02*
X91312969Y-32509875D01*
X91312969Y-32509875D02*
X91122493Y-32509875D01*
X91122493Y-32509875D02*
X91027255Y-32462256D01*
X91027255Y-32462256D02*
X90932017Y-32367017D01*
X90932017Y-32367017D02*
X90884398Y-32176541D01*
X90884398Y-32176541D02*
X90884398Y-31843208D01*
X90884398Y-31843208D02*
X90932017Y-31652732D01*
X90932017Y-31652732D02*
X91027255Y-31557494D01*
X91027255Y-31557494D02*
X91122493Y-31509875D01*
X92551064Y-32509875D02*
X92217731Y-32033684D01*
X91979636Y-32509875D02*
X91979636Y-31509875D01*
X91979636Y-31509875D02*
X92360588Y-31509875D01*
X92360588Y-31509875D02*
X92455826Y-31557494D01*
X92455826Y-31557494D02*
X92503445Y-31605113D01*
X92503445Y-31605113D02*
X92551064Y-31700351D01*
X92551064Y-31700351D02*
X92551064Y-31843208D01*
X92551064Y-31843208D02*
X92503445Y-31938446D01*
X92503445Y-31938446D02*
X92455826Y-31986065D01*
X92455826Y-31986065D02*
X92360588Y-32033684D01*
X92360588Y-32033684D02*
X91979636Y-32033684D01*
X88408207Y-34024580D02*
X88360588Y-34072200D01*
X88360588Y-34072200D02*
X88217731Y-34119819D01*
X88217731Y-34119819D02*
X88122493Y-34119819D01*
X88122493Y-34119819D02*
X87979636Y-34072200D01*
X87979636Y-34072200D02*
X87884398Y-33976961D01*
X87884398Y-33976961D02*
X87836779Y-33881723D01*
X87836779Y-33881723D02*
X87789160Y-33691247D01*
X87789160Y-33691247D02*
X87789160Y-33548390D01*
X87789160Y-33548390D02*
X87836779Y-33357914D01*
X87836779Y-33357914D02*
X87884398Y-33262676D01*
X87884398Y-33262676D02*
X87979636Y-33167438D01*
X87979636Y-33167438D02*
X88122493Y-33119819D01*
X88122493Y-33119819D02*
X88217731Y-33119819D01*
X88217731Y-33119819D02*
X88360588Y-33167438D01*
X88360588Y-33167438D02*
X88408207Y-33215057D01*
X88836779Y-33119819D02*
X88836779Y-33929342D01*
X88836779Y-33929342D02*
X88884398Y-34024580D01*
X88884398Y-34024580D02*
X88932017Y-34072200D01*
X88932017Y-34072200D02*
X89027255Y-34119819D01*
X89027255Y-34119819D02*
X89217731Y-34119819D01*
X89217731Y-34119819D02*
X89312969Y-34072200D01*
X89312969Y-34072200D02*
X89360588Y-34024580D01*
X89360588Y-34024580D02*
X89408207Y-33929342D01*
X89408207Y-33929342D02*
X89408207Y-33119819D01*
X90455826Y-34119819D02*
X90122493Y-33643628D01*
X89884398Y-34119819D02*
X89884398Y-33119819D01*
X89884398Y-33119819D02*
X90265350Y-33119819D01*
X90265350Y-33119819D02*
X90360588Y-33167438D01*
X90360588Y-33167438D02*
X90408207Y-33215057D01*
X90408207Y-33215057D02*
X90455826Y-33310295D01*
X90455826Y-33310295D02*
X90455826Y-33453152D01*
X90455826Y-33453152D02*
X90408207Y-33548390D01*
X90408207Y-33548390D02*
X90360588Y-33596009D01*
X90360588Y-33596009D02*
X90265350Y-33643628D01*
X90265350Y-33643628D02*
X89884398Y-33643628D01*
X91360588Y-34119819D02*
X90884398Y-34119819D01*
X90884398Y-34119819D02*
X90884398Y-33119819D01*
X91693922Y-33596009D02*
X92027255Y-33596009D01*
X92170112Y-34119819D02*
X91693922Y-34119819D01*
X91693922Y-34119819D02*
X91693922Y-33119819D01*
X91693922Y-33119819D02*
X92170112Y-33119819D01*
X92789160Y-33643628D02*
X92789160Y-34119819D01*
X92455827Y-33119819D02*
X92789160Y-33643628D01*
X92789160Y-33643628D02*
X93122493Y-33119819D01*
D11*
X101406014Y-86686819D02*
X100739347Y-86686819D01*
X100739347Y-87734438D02*
X100739347Y-85734438D01*
X100739347Y-85734438D02*
X101691728Y-85734438D01*
X102834585Y-86782057D02*
X102834585Y-87734438D01*
X102167919Y-85734438D02*
X102834585Y-86782057D01*
X102834585Y-86782057D02*
X103501252Y-85734438D01*
X104167919Y-87734438D02*
X104167919Y-85734438D01*
X104167919Y-85734438D02*
X104929824Y-85734438D01*
X104929824Y-85734438D02*
X105120300Y-85829676D01*
X105120300Y-85829676D02*
X105215538Y-85924914D01*
X105215538Y-85924914D02*
X105310776Y-86115390D01*
X105310776Y-86115390D02*
X105310776Y-86401104D01*
X105310776Y-86401104D02*
X105215538Y-86591580D01*
X105215538Y-86591580D02*
X105120300Y-86686819D01*
X105120300Y-86686819D02*
X104929824Y-86782057D01*
X104929824Y-86782057D02*
X104167919Y-86782057D01*
X108834586Y-87734438D02*
X108167919Y-86782057D01*
X107691729Y-87734438D02*
X107691729Y-85734438D01*
X107691729Y-85734438D02*
X108453634Y-85734438D01*
X108453634Y-85734438D02*
X108644110Y-85829676D01*
X108644110Y-85829676D02*
X108739348Y-85924914D01*
X108739348Y-85924914D02*
X108834586Y-86115390D01*
X108834586Y-86115390D02*
X108834586Y-86401104D01*
X108834586Y-86401104D02*
X108739348Y-86591580D01*
X108739348Y-86591580D02*
X108644110Y-86686819D01*
X108644110Y-86686819D02*
X108453634Y-86782057D01*
X108453634Y-86782057D02*
X107691729Y-86782057D01*
X109691729Y-87734438D02*
X109691729Y-85734438D01*
X111691729Y-85829676D02*
X111501253Y-85734438D01*
X111501253Y-85734438D02*
X111215539Y-85734438D01*
X111215539Y-85734438D02*
X110929824Y-85829676D01*
X110929824Y-85829676D02*
X110739348Y-86020152D01*
X110739348Y-86020152D02*
X110644110Y-86210628D01*
X110644110Y-86210628D02*
X110548872Y-86591580D01*
X110548872Y-86591580D02*
X110548872Y-86877295D01*
X110548872Y-86877295D02*
X110644110Y-87258247D01*
X110644110Y-87258247D02*
X110739348Y-87448723D01*
X110739348Y-87448723D02*
X110929824Y-87639200D01*
X110929824Y-87639200D02*
X111215539Y-87734438D01*
X111215539Y-87734438D02*
X111406015Y-87734438D01*
X111406015Y-87734438D02*
X111691729Y-87639200D01*
X111691729Y-87639200D02*
X111786967Y-87543961D01*
X111786967Y-87543961D02*
X111786967Y-86877295D01*
X111786967Y-86877295D02*
X111406015Y-86877295D01*
D10*
X100586779Y-90119819D02*
X100586779Y-89119819D01*
X100586779Y-89119819D02*
X100920112Y-89834104D01*
X100920112Y-89834104D02*
X101253445Y-89119819D01*
X101253445Y-89119819D02*
X101253445Y-90119819D01*
X101920112Y-89119819D02*
X102110588Y-89119819D01*
X102110588Y-89119819D02*
X102205826Y-89167438D01*
X102205826Y-89167438D02*
X102301064Y-89262676D01*
X102301064Y-89262676D02*
X102348683Y-89453152D01*
X102348683Y-89453152D02*
X102348683Y-89786485D01*
X102348683Y-89786485D02*
X102301064Y-89976961D01*
X102301064Y-89976961D02*
X102205826Y-90072200D01*
X102205826Y-90072200D02*
X102110588Y-90119819D01*
X102110588Y-90119819D02*
X101920112Y-90119819D01*
X101920112Y-90119819D02*
X101824874Y-90072200D01*
X101824874Y-90072200D02*
X101729636Y-89976961D01*
X101729636Y-89976961D02*
X101682017Y-89786485D01*
X101682017Y-89786485D02*
X101682017Y-89453152D01*
X101682017Y-89453152D02*
X101729636Y-89262676D01*
X101729636Y-89262676D02*
X101824874Y-89167438D01*
X101824874Y-89167438D02*
X101920112Y-89119819D01*
X102634398Y-89119819D02*
X103205826Y-89119819D01*
X102920112Y-90119819D02*
X102920112Y-89119819D01*
X103729636Y-89119819D02*
X103920112Y-89119819D01*
X103920112Y-89119819D02*
X104015350Y-89167438D01*
X104015350Y-89167438D02*
X104110588Y-89262676D01*
X104110588Y-89262676D02*
X104158207Y-89453152D01*
X104158207Y-89453152D02*
X104158207Y-89786485D01*
X104158207Y-89786485D02*
X104110588Y-89976961D01*
X104110588Y-89976961D02*
X104015350Y-90072200D01*
X104015350Y-90072200D02*
X103920112Y-90119819D01*
X103920112Y-90119819D02*
X103729636Y-90119819D01*
X103729636Y-90119819D02*
X103634398Y-90072200D01*
X103634398Y-90072200D02*
X103539160Y-89976961D01*
X103539160Y-89976961D02*
X103491541Y-89786485D01*
X103491541Y-89786485D02*
X103491541Y-89453152D01*
X103491541Y-89453152D02*
X103539160Y-89262676D01*
X103539160Y-89262676D02*
X103634398Y-89167438D01*
X103634398Y-89167438D02*
X103729636Y-89119819D01*
X105158207Y-90119819D02*
X104824874Y-89643628D01*
X104586779Y-90119819D02*
X104586779Y-89119819D01*
X104586779Y-89119819D02*
X104967731Y-89119819D01*
X104967731Y-89119819D02*
X105062969Y-89167438D01*
X105062969Y-89167438D02*
X105110588Y-89215057D01*
X105110588Y-89215057D02*
X105158207Y-89310295D01*
X105158207Y-89310295D02*
X105158207Y-89453152D01*
X105158207Y-89453152D02*
X105110588Y-89548390D01*
X105110588Y-89548390D02*
X105062969Y-89596009D01*
X105062969Y-89596009D02*
X104967731Y-89643628D01*
X104967731Y-89643628D02*
X104586779Y-89643628D01*
X106920112Y-90024580D02*
X106872493Y-90072200D01*
X106872493Y-90072200D02*
X106729636Y-90119819D01*
X106729636Y-90119819D02*
X106634398Y-90119819D01*
X106634398Y-90119819D02*
X106491541Y-90072200D01*
X106491541Y-90072200D02*
X106396303Y-89976961D01*
X106396303Y-89976961D02*
X106348684Y-89881723D01*
X106348684Y-89881723D02*
X106301065Y-89691247D01*
X106301065Y-89691247D02*
X106301065Y-89548390D01*
X106301065Y-89548390D02*
X106348684Y-89357914D01*
X106348684Y-89357914D02*
X106396303Y-89262676D01*
X106396303Y-89262676D02*
X106491541Y-89167438D01*
X106491541Y-89167438D02*
X106634398Y-89119819D01*
X106634398Y-89119819D02*
X106729636Y-89119819D01*
X106729636Y-89119819D02*
X106872493Y-89167438D01*
X106872493Y-89167438D02*
X106920112Y-89215057D01*
X107539160Y-89119819D02*
X107729636Y-89119819D01*
X107729636Y-89119819D02*
X107824874Y-89167438D01*
X107824874Y-89167438D02*
X107920112Y-89262676D01*
X107920112Y-89262676D02*
X107967731Y-89453152D01*
X107967731Y-89453152D02*
X107967731Y-89786485D01*
X107967731Y-89786485D02*
X107920112Y-89976961D01*
X107920112Y-89976961D02*
X107824874Y-90072200D01*
X107824874Y-90072200D02*
X107729636Y-90119819D01*
X107729636Y-90119819D02*
X107539160Y-90119819D01*
X107539160Y-90119819D02*
X107443922Y-90072200D01*
X107443922Y-90072200D02*
X107348684Y-89976961D01*
X107348684Y-89976961D02*
X107301065Y-89786485D01*
X107301065Y-89786485D02*
X107301065Y-89453152D01*
X107301065Y-89453152D02*
X107348684Y-89262676D01*
X107348684Y-89262676D02*
X107443922Y-89167438D01*
X107443922Y-89167438D02*
X107539160Y-89119819D01*
X108396303Y-90119819D02*
X108396303Y-89119819D01*
X108396303Y-89119819D02*
X108729636Y-89834104D01*
X108729636Y-89834104D02*
X109062969Y-89119819D01*
X109062969Y-89119819D02*
X109062969Y-90119819D01*
X109539160Y-90119819D02*
X109539160Y-89119819D01*
X109539160Y-89119819D02*
X109872493Y-89834104D01*
X109872493Y-89834104D02*
X110205826Y-89119819D01*
X110205826Y-89119819D02*
X110205826Y-90119819D01*
X111777255Y-89596009D02*
X111920112Y-89643628D01*
X111920112Y-89643628D02*
X111967731Y-89691247D01*
X111967731Y-89691247D02*
X112015350Y-89786485D01*
X112015350Y-89786485D02*
X112015350Y-89929342D01*
X112015350Y-89929342D02*
X111967731Y-90024580D01*
X111967731Y-90024580D02*
X111920112Y-90072200D01*
X111920112Y-90072200D02*
X111824874Y-90119819D01*
X111824874Y-90119819D02*
X111443922Y-90119819D01*
X111443922Y-90119819D02*
X111443922Y-89119819D01*
X111443922Y-89119819D02*
X111777255Y-89119819D01*
X111777255Y-89119819D02*
X111872493Y-89167438D01*
X111872493Y-89167438D02*
X111920112Y-89215057D01*
X111920112Y-89215057D02*
X111967731Y-89310295D01*
X111967731Y-89310295D02*
X111967731Y-89405533D01*
X111967731Y-89405533D02*
X111920112Y-89500771D01*
X111920112Y-89500771D02*
X111872493Y-89548390D01*
X111872493Y-89548390D02*
X111777255Y-89596009D01*
X111777255Y-89596009D02*
X111443922Y-89596009D01*
X112634398Y-89119819D02*
X112824874Y-89119819D01*
X112824874Y-89119819D02*
X112920112Y-89167438D01*
X112920112Y-89167438D02*
X113015350Y-89262676D01*
X113015350Y-89262676D02*
X113062969Y-89453152D01*
X113062969Y-89453152D02*
X113062969Y-89786485D01*
X113062969Y-89786485D02*
X113015350Y-89976961D01*
X113015350Y-89976961D02*
X112920112Y-90072200D01*
X112920112Y-90072200D02*
X112824874Y-90119819D01*
X112824874Y-90119819D02*
X112634398Y-90119819D01*
X112634398Y-90119819D02*
X112539160Y-90072200D01*
X112539160Y-90072200D02*
X112443922Y-89976961D01*
X112443922Y-89976961D02*
X112396303Y-89786485D01*
X112396303Y-89786485D02*
X112396303Y-89453152D01*
X112396303Y-89453152D02*
X112443922Y-89262676D01*
X112443922Y-89262676D02*
X112539160Y-89167438D01*
X112539160Y-89167438D02*
X112634398Y-89119819D01*
X113443922Y-89834104D02*
X113920112Y-89834104D01*
X113348684Y-90119819D02*
X113682017Y-89119819D01*
X113682017Y-89119819D02*
X114015350Y-90119819D01*
X114920112Y-90119819D02*
X114586779Y-89643628D01*
X114348684Y-90119819D02*
X114348684Y-89119819D01*
X114348684Y-89119819D02*
X114729636Y-89119819D01*
X114729636Y-89119819D02*
X114824874Y-89167438D01*
X114824874Y-89167438D02*
X114872493Y-89215057D01*
X114872493Y-89215057D02*
X114920112Y-89310295D01*
X114920112Y-89310295D02*
X114920112Y-89453152D01*
X114920112Y-89453152D02*
X114872493Y-89548390D01*
X114872493Y-89548390D02*
X114824874Y-89596009D01*
X114824874Y-89596009D02*
X114729636Y-89643628D01*
X114729636Y-89643628D02*
X114348684Y-89643628D01*
X115348684Y-90119819D02*
X115348684Y-89119819D01*
X115348684Y-89119819D02*
X115586779Y-89119819D01*
X115586779Y-89119819D02*
X115729636Y-89167438D01*
X115729636Y-89167438D02*
X115824874Y-89262676D01*
X115824874Y-89262676D02*
X115872493Y-89357914D01*
X115872493Y-89357914D02*
X115920112Y-89548390D01*
X115920112Y-89548390D02*
X115920112Y-89691247D01*
X115920112Y-89691247D02*
X115872493Y-89881723D01*
X115872493Y-89881723D02*
X115824874Y-89976961D01*
X115824874Y-89976961D02*
X115729636Y-90072200D01*
X115729636Y-90072200D02*
X115586779Y-90119819D01*
X115586779Y-90119819D02*
X115348684Y-90119819D01*
X125563333Y-57859580D02*
X125515714Y-57907200D01*
X125515714Y-57907200D02*
X125372857Y-57954819D01*
X125372857Y-57954819D02*
X125277619Y-57954819D01*
X125277619Y-57954819D02*
X125134762Y-57907200D01*
X125134762Y-57907200D02*
X125039524Y-57811961D01*
X125039524Y-57811961D02*
X124991905Y-57716723D01*
X124991905Y-57716723D02*
X124944286Y-57526247D01*
X124944286Y-57526247D02*
X124944286Y-57383390D01*
X124944286Y-57383390D02*
X124991905Y-57192914D01*
X124991905Y-57192914D02*
X125039524Y-57097676D01*
X125039524Y-57097676D02*
X125134762Y-57002438D01*
X125134762Y-57002438D02*
X125277619Y-56954819D01*
X125277619Y-56954819D02*
X125372857Y-56954819D01*
X125372857Y-56954819D02*
X125515714Y-57002438D01*
X125515714Y-57002438D02*
X125563333Y-57050057D01*
X126420476Y-56954819D02*
X126230000Y-56954819D01*
X126230000Y-56954819D02*
X126134762Y-57002438D01*
X126134762Y-57002438D02*
X126087143Y-57050057D01*
X126087143Y-57050057D02*
X125991905Y-57192914D01*
X125991905Y-57192914D02*
X125944286Y-57383390D01*
X125944286Y-57383390D02*
X125944286Y-57764342D01*
X125944286Y-57764342D02*
X125991905Y-57859580D01*
X125991905Y-57859580D02*
X126039524Y-57907200D01*
X126039524Y-57907200D02*
X126134762Y-57954819D01*
X126134762Y-57954819D02*
X126325238Y-57954819D01*
X126325238Y-57954819D02*
X126420476Y-57907200D01*
X126420476Y-57907200D02*
X126468095Y-57859580D01*
X126468095Y-57859580D02*
X126515714Y-57764342D01*
X126515714Y-57764342D02*
X126515714Y-57526247D01*
X126515714Y-57526247D02*
X126468095Y-57431009D01*
X126468095Y-57431009D02*
X126420476Y-57383390D01*
X126420476Y-57383390D02*
X126325238Y-57335771D01*
X126325238Y-57335771D02*
X126134762Y-57335771D01*
X126134762Y-57335771D02*
X126039524Y-57383390D01*
X126039524Y-57383390D02*
X125991905Y-57431009D01*
X125991905Y-57431009D02*
X125944286Y-57526247D01*
X120604819Y-94358333D02*
X121319104Y-94358333D01*
X121319104Y-94358333D02*
X121461961Y-94405952D01*
X121461961Y-94405952D02*
X121557200Y-94501190D01*
X121557200Y-94501190D02*
X121604819Y-94644047D01*
X121604819Y-94644047D02*
X121604819Y-94739285D01*
X121604819Y-93358333D02*
X121604819Y-93929761D01*
X121604819Y-93644047D02*
X120604819Y-93644047D01*
X120604819Y-93644047D02*
X120747676Y-93739285D01*
X120747676Y-93739285D02*
X120842914Y-93834523D01*
X120842914Y-93834523D02*
X120890533Y-93929761D01*
X112261905Y-73954819D02*
X112261905Y-72954819D01*
X112261905Y-72954819D02*
X112500000Y-72954819D01*
X112500000Y-72954819D02*
X112642857Y-73002438D01*
X112642857Y-73002438D02*
X112738095Y-73097676D01*
X112738095Y-73097676D02*
X112785714Y-73192914D01*
X112785714Y-73192914D02*
X112833333Y-73383390D01*
X112833333Y-73383390D02*
X112833333Y-73526247D01*
X112833333Y-73526247D02*
X112785714Y-73716723D01*
X112785714Y-73716723D02*
X112738095Y-73811961D01*
X112738095Y-73811961D02*
X112642857Y-73907200D01*
X112642857Y-73907200D02*
X112500000Y-73954819D01*
X112500000Y-73954819D02*
X112261905Y-73954819D01*
X113214286Y-73050057D02*
X113261905Y-73002438D01*
X113261905Y-73002438D02*
X113357143Y-72954819D01*
X113357143Y-72954819D02*
X113595238Y-72954819D01*
X113595238Y-72954819D02*
X113690476Y-73002438D01*
X113690476Y-73002438D02*
X113738095Y-73050057D01*
X113738095Y-73050057D02*
X113785714Y-73145295D01*
X113785714Y-73145295D02*
X113785714Y-73240533D01*
X113785714Y-73240533D02*
X113738095Y-73383390D01*
X113738095Y-73383390D02*
X113166667Y-73954819D01*
X113166667Y-73954819D02*
X113785714Y-73954819D01*
X122954819Y-81166666D02*
X122478628Y-81499999D01*
X122954819Y-81738094D02*
X121954819Y-81738094D01*
X121954819Y-81738094D02*
X121954819Y-81357142D01*
X121954819Y-81357142D02*
X122002438Y-81261904D01*
X122002438Y-81261904D02*
X122050057Y-81214285D01*
X122050057Y-81214285D02*
X122145295Y-81166666D01*
X122145295Y-81166666D02*
X122288152Y-81166666D01*
X122288152Y-81166666D02*
X122383390Y-81214285D01*
X122383390Y-81214285D02*
X122431009Y-81261904D01*
X122431009Y-81261904D02*
X122478628Y-81357142D01*
X122478628Y-81357142D02*
X122478628Y-81738094D01*
X122050057Y-80785713D02*
X122002438Y-80738094D01*
X122002438Y-80738094D02*
X121954819Y-80642856D01*
X121954819Y-80642856D02*
X121954819Y-80404761D01*
X121954819Y-80404761D02*
X122002438Y-80309523D01*
X122002438Y-80309523D02*
X122050057Y-80261904D01*
X122050057Y-80261904D02*
X122145295Y-80214285D01*
X122145295Y-80214285D02*
X122240533Y-80214285D01*
X122240533Y-80214285D02*
X122383390Y-80261904D01*
X122383390Y-80261904D02*
X122954819Y-80833332D01*
X122954819Y-80833332D02*
X122954819Y-80214285D01*
X91182142Y-51954819D02*
X90848809Y-51478628D01*
X90610714Y-51954819D02*
X90610714Y-50954819D01*
X90610714Y-50954819D02*
X90991666Y-50954819D01*
X90991666Y-50954819D02*
X91086904Y-51002438D01*
X91086904Y-51002438D02*
X91134523Y-51050057D01*
X91134523Y-51050057D02*
X91182142Y-51145295D01*
X91182142Y-51145295D02*
X91182142Y-51288152D01*
X91182142Y-51288152D02*
X91134523Y-51383390D01*
X91134523Y-51383390D02*
X91086904Y-51431009D01*
X91086904Y-51431009D02*
X90991666Y-51478628D01*
X90991666Y-51478628D02*
X90610714Y-51478628D01*
X92134523Y-51954819D02*
X91563095Y-51954819D01*
X91848809Y-51954819D02*
X91848809Y-50954819D01*
X91848809Y-50954819D02*
X91753571Y-51097676D01*
X91753571Y-51097676D02*
X91658333Y-51192914D01*
X91658333Y-51192914D02*
X91563095Y-51240533D01*
X92753571Y-50954819D02*
X92848809Y-50954819D01*
X92848809Y-50954819D02*
X92944047Y-51002438D01*
X92944047Y-51002438D02*
X92991666Y-51050057D01*
X92991666Y-51050057D02*
X93039285Y-51145295D01*
X93039285Y-51145295D02*
X93086904Y-51335771D01*
X93086904Y-51335771D02*
X93086904Y-51573866D01*
X93086904Y-51573866D02*
X93039285Y-51764342D01*
X93039285Y-51764342D02*
X92991666Y-51859580D01*
X92991666Y-51859580D02*
X92944047Y-51907200D01*
X92944047Y-51907200D02*
X92848809Y-51954819D01*
X92848809Y-51954819D02*
X92753571Y-51954819D01*
X92753571Y-51954819D02*
X92658333Y-51907200D01*
X92658333Y-51907200D02*
X92610714Y-51859580D01*
X92610714Y-51859580D02*
X92563095Y-51764342D01*
X92563095Y-51764342D02*
X92515476Y-51573866D01*
X92515476Y-51573866D02*
X92515476Y-51335771D01*
X92515476Y-51335771D02*
X92563095Y-51145295D01*
X92563095Y-51145295D02*
X92610714Y-51050057D01*
X92610714Y-51050057D02*
X92658333Y-51002438D01*
X92658333Y-51002438D02*
X92753571Y-50954819D01*
X105806905Y-82954819D02*
X105806905Y-81954819D01*
X105806905Y-81954819D02*
X106045000Y-81954819D01*
X106045000Y-81954819D02*
X106187857Y-82002438D01*
X106187857Y-82002438D02*
X106283095Y-82097676D01*
X106283095Y-82097676D02*
X106330714Y-82192914D01*
X106330714Y-82192914D02*
X106378333Y-82383390D01*
X106378333Y-82383390D02*
X106378333Y-82526247D01*
X106378333Y-82526247D02*
X106330714Y-82716723D01*
X106330714Y-82716723D02*
X106283095Y-82811961D01*
X106283095Y-82811961D02*
X106187857Y-82907200D01*
X106187857Y-82907200D02*
X106045000Y-82954819D01*
X106045000Y-82954819D02*
X105806905Y-82954819D01*
X107235476Y-81954819D02*
X107045000Y-81954819D01*
X107045000Y-81954819D02*
X106949762Y-82002438D01*
X106949762Y-82002438D02*
X106902143Y-82050057D01*
X106902143Y-82050057D02*
X106806905Y-82192914D01*
X106806905Y-82192914D02*
X106759286Y-82383390D01*
X106759286Y-82383390D02*
X106759286Y-82764342D01*
X106759286Y-82764342D02*
X106806905Y-82859580D01*
X106806905Y-82859580D02*
X106854524Y-82907200D01*
X106854524Y-82907200D02*
X106949762Y-82954819D01*
X106949762Y-82954819D02*
X107140238Y-82954819D01*
X107140238Y-82954819D02*
X107235476Y-82907200D01*
X107235476Y-82907200D02*
X107283095Y-82859580D01*
X107283095Y-82859580D02*
X107330714Y-82764342D01*
X107330714Y-82764342D02*
X107330714Y-82526247D01*
X107330714Y-82526247D02*
X107283095Y-82431009D01*
X107283095Y-82431009D02*
X107235476Y-82383390D01*
X107235476Y-82383390D02*
X107140238Y-82335771D01*
X107140238Y-82335771D02*
X106949762Y-82335771D01*
X106949762Y-82335771D02*
X106854524Y-82383390D01*
X106854524Y-82383390D02*
X106806905Y-82431009D01*
X106806905Y-82431009D02*
X106759286Y-82526247D01*
X104058333Y-59359580D02*
X104010714Y-59407200D01*
X104010714Y-59407200D02*
X103867857Y-59454819D01*
X103867857Y-59454819D02*
X103772619Y-59454819D01*
X103772619Y-59454819D02*
X103629762Y-59407200D01*
X103629762Y-59407200D02*
X103534524Y-59311961D01*
X103534524Y-59311961D02*
X103486905Y-59216723D01*
X103486905Y-59216723D02*
X103439286Y-59026247D01*
X103439286Y-59026247D02*
X103439286Y-58883390D01*
X103439286Y-58883390D02*
X103486905Y-58692914D01*
X103486905Y-58692914D02*
X103534524Y-58597676D01*
X103534524Y-58597676D02*
X103629762Y-58502438D01*
X103629762Y-58502438D02*
X103772619Y-58454819D01*
X103772619Y-58454819D02*
X103867857Y-58454819D01*
X103867857Y-58454819D02*
X104010714Y-58502438D01*
X104010714Y-58502438D02*
X104058333Y-58550057D01*
X104963095Y-58454819D02*
X104486905Y-58454819D01*
X104486905Y-58454819D02*
X104439286Y-58931009D01*
X104439286Y-58931009D02*
X104486905Y-58883390D01*
X104486905Y-58883390D02*
X104582143Y-58835771D01*
X104582143Y-58835771D02*
X104820238Y-58835771D01*
X104820238Y-58835771D02*
X104915476Y-58883390D01*
X104915476Y-58883390D02*
X104963095Y-58931009D01*
X104963095Y-58931009D02*
X105010714Y-59026247D01*
X105010714Y-59026247D02*
X105010714Y-59264342D01*
X105010714Y-59264342D02*
X104963095Y-59359580D01*
X104963095Y-59359580D02*
X104915476Y-59407200D01*
X104915476Y-59407200D02*
X104820238Y-59454819D01*
X104820238Y-59454819D02*
X104582143Y-59454819D01*
X104582143Y-59454819D02*
X104486905Y-59407200D01*
X104486905Y-59407200D02*
X104439286Y-59359580D01*
D12*
X112261905Y-72454299D02*
X112261905Y-71454299D01*
X112261905Y-71454299D02*
X112500000Y-71454299D01*
X112500000Y-71454299D02*
X112642857Y-71501918D01*
X112642857Y-71501918D02*
X112738095Y-71597156D01*
X112738095Y-71597156D02*
X112785714Y-71692394D01*
X112785714Y-71692394D02*
X112833333Y-71882870D01*
X112833333Y-71882870D02*
X112833333Y-72025727D01*
X112833333Y-72025727D02*
X112785714Y-72216203D01*
X112785714Y-72216203D02*
X112738095Y-72311441D01*
X112738095Y-72311441D02*
X112642857Y-72406680D01*
X112642857Y-72406680D02*
X112500000Y-72454299D01*
X112500000Y-72454299D02*
X112261905Y-72454299D01*
X113166667Y-71454299D02*
X113785714Y-71454299D01*
X113785714Y-71454299D02*
X113452381Y-71835251D01*
X113452381Y-71835251D02*
X113595238Y-71835251D01*
X113595238Y-71835251D02*
X113690476Y-71882870D01*
X113690476Y-71882870D02*
X113738095Y-71930489D01*
X113738095Y-71930489D02*
X113785714Y-72025727D01*
X113785714Y-72025727D02*
X113785714Y-72263822D01*
X113785714Y-72263822D02*
X113738095Y-72359060D01*
X113738095Y-72359060D02*
X113690476Y-72406680D01*
X113690476Y-72406680D02*
X113595238Y-72454299D01*
X113595238Y-72454299D02*
X113309524Y-72454299D01*
X113309524Y-72454299D02*
X113214286Y-72406680D01*
X113214286Y-72406680D02*
X113166667Y-72359060D01*
D10*
X88988095Y-46204819D02*
X88988095Y-47014342D01*
X88988095Y-47014342D02*
X89035714Y-47109580D01*
X89035714Y-47109580D02*
X89083333Y-47157200D01*
X89083333Y-47157200D02*
X89178571Y-47204819D01*
X89178571Y-47204819D02*
X89369047Y-47204819D01*
X89369047Y-47204819D02*
X89464285Y-47157200D01*
X89464285Y-47157200D02*
X89511904Y-47109580D01*
X89511904Y-47109580D02*
X89559523Y-47014342D01*
X89559523Y-47014342D02*
X89559523Y-46204819D01*
X89940476Y-46204819D02*
X90559523Y-46204819D01*
X90559523Y-46204819D02*
X90226190Y-46585771D01*
X90226190Y-46585771D02*
X90369047Y-46585771D01*
X90369047Y-46585771D02*
X90464285Y-46633390D01*
X90464285Y-46633390D02*
X90511904Y-46681009D01*
X90511904Y-46681009D02*
X90559523Y-46776247D01*
X90559523Y-46776247D02*
X90559523Y-47014342D01*
X90559523Y-47014342D02*
X90511904Y-47109580D01*
X90511904Y-47109580D02*
X90464285Y-47157200D01*
X90464285Y-47157200D02*
X90369047Y-47204819D01*
X90369047Y-47204819D02*
X90083333Y-47204819D01*
X90083333Y-47204819D02*
X89988095Y-47157200D01*
X89988095Y-47157200D02*
X89940476Y-47109580D01*
X125438333Y-82859580D02*
X125390714Y-82907200D01*
X125390714Y-82907200D02*
X125247857Y-82954819D01*
X125247857Y-82954819D02*
X125152619Y-82954819D01*
X125152619Y-82954819D02*
X125009762Y-82907200D01*
X125009762Y-82907200D02*
X124914524Y-82811961D01*
X124914524Y-82811961D02*
X124866905Y-82716723D01*
X124866905Y-82716723D02*
X124819286Y-82526247D01*
X124819286Y-82526247D02*
X124819286Y-82383390D01*
X124819286Y-82383390D02*
X124866905Y-82192914D01*
X124866905Y-82192914D02*
X124914524Y-82097676D01*
X124914524Y-82097676D02*
X125009762Y-82002438D01*
X125009762Y-82002438D02*
X125152619Y-81954819D01*
X125152619Y-81954819D02*
X125247857Y-81954819D01*
X125247857Y-81954819D02*
X125390714Y-82002438D01*
X125390714Y-82002438D02*
X125438333Y-82050057D01*
X125819286Y-82050057D02*
X125866905Y-82002438D01*
X125866905Y-82002438D02*
X125962143Y-81954819D01*
X125962143Y-81954819D02*
X126200238Y-81954819D01*
X126200238Y-81954819D02*
X126295476Y-82002438D01*
X126295476Y-82002438D02*
X126343095Y-82050057D01*
X126343095Y-82050057D02*
X126390714Y-82145295D01*
X126390714Y-82145295D02*
X126390714Y-82240533D01*
X126390714Y-82240533D02*
X126343095Y-82383390D01*
X126343095Y-82383390D02*
X125771667Y-82954819D01*
X125771667Y-82954819D02*
X126390714Y-82954819D01*
X102704819Y-53761904D02*
X103514342Y-53761904D01*
X103514342Y-53761904D02*
X103609580Y-53714285D01*
X103609580Y-53714285D02*
X103657200Y-53666666D01*
X103657200Y-53666666D02*
X103704819Y-53571428D01*
X103704819Y-53571428D02*
X103704819Y-53380952D01*
X103704819Y-53380952D02*
X103657200Y-53285714D01*
X103657200Y-53285714D02*
X103609580Y-53238095D01*
X103609580Y-53238095D02*
X103514342Y-53190476D01*
X103514342Y-53190476D02*
X102704819Y-53190476D01*
X102800057Y-52761904D02*
X102752438Y-52714285D01*
X102752438Y-52714285D02*
X102704819Y-52619047D01*
X102704819Y-52619047D02*
X102704819Y-52380952D01*
X102704819Y-52380952D02*
X102752438Y-52285714D01*
X102752438Y-52285714D02*
X102800057Y-52238095D01*
X102800057Y-52238095D02*
X102895295Y-52190476D01*
X102895295Y-52190476D02*
X102990533Y-52190476D01*
X102990533Y-52190476D02*
X103133390Y-52238095D01*
X103133390Y-52238095D02*
X103704819Y-52809523D01*
X103704819Y-52809523D02*
X103704819Y-52190476D01*
X111299405Y-59204819D02*
X111299405Y-58204819D01*
X111299405Y-58204819D02*
X111537500Y-58204819D01*
X111537500Y-58204819D02*
X111680357Y-58252438D01*
X111680357Y-58252438D02*
X111775595Y-58347676D01*
X111775595Y-58347676D02*
X111823214Y-58442914D01*
X111823214Y-58442914D02*
X111870833Y-58633390D01*
X111870833Y-58633390D02*
X111870833Y-58776247D01*
X111870833Y-58776247D02*
X111823214Y-58966723D01*
X111823214Y-58966723D02*
X111775595Y-59061961D01*
X111775595Y-59061961D02*
X111680357Y-59157200D01*
X111680357Y-59157200D02*
X111537500Y-59204819D01*
X111537500Y-59204819D02*
X111299405Y-59204819D01*
X112775595Y-58204819D02*
X112299405Y-58204819D01*
X112299405Y-58204819D02*
X112251786Y-58681009D01*
X112251786Y-58681009D02*
X112299405Y-58633390D01*
X112299405Y-58633390D02*
X112394643Y-58585771D01*
X112394643Y-58585771D02*
X112632738Y-58585771D01*
X112632738Y-58585771D02*
X112727976Y-58633390D01*
X112727976Y-58633390D02*
X112775595Y-58681009D01*
X112775595Y-58681009D02*
X112823214Y-58776247D01*
X112823214Y-58776247D02*
X112823214Y-59014342D01*
X112823214Y-59014342D02*
X112775595Y-59109580D01*
X112775595Y-59109580D02*
X112727976Y-59157200D01*
X112727976Y-59157200D02*
X112632738Y-59204819D01*
X112632738Y-59204819D02*
X112394643Y-59204819D01*
X112394643Y-59204819D02*
X112299405Y-59157200D01*
X112299405Y-59157200D02*
X112251786Y-59109580D01*
X98444819Y-80648333D02*
X99159104Y-80648333D01*
X99159104Y-80648333D02*
X99301961Y-80695952D01*
X99301961Y-80695952D02*
X99397200Y-80791190D01*
X99397200Y-80791190D02*
X99444819Y-80934047D01*
X99444819Y-80934047D02*
X99444819Y-81029285D01*
X98444819Y-80267380D02*
X98444819Y-79648333D01*
X98444819Y-79648333D02*
X98825771Y-79981666D01*
X98825771Y-79981666D02*
X98825771Y-79838809D01*
X98825771Y-79838809D02*
X98873390Y-79743571D01*
X98873390Y-79743571D02*
X98921009Y-79695952D01*
X98921009Y-79695952D02*
X99016247Y-79648333D01*
X99016247Y-79648333D02*
X99254342Y-79648333D01*
X99254342Y-79648333D02*
X99349580Y-79695952D01*
X99349580Y-79695952D02*
X99397200Y-79743571D01*
X99397200Y-79743571D02*
X99444819Y-79838809D01*
X99444819Y-79838809D02*
X99444819Y-80124523D01*
X99444819Y-80124523D02*
X99397200Y-80219761D01*
X99397200Y-80219761D02*
X99349580Y-80267380D01*
X124466667Y-60407200D02*
X124609524Y-60454819D01*
X124609524Y-60454819D02*
X124847619Y-60454819D01*
X124847619Y-60454819D02*
X124942857Y-60407200D01*
X124942857Y-60407200D02*
X124990476Y-60359580D01*
X124990476Y-60359580D02*
X125038095Y-60264342D01*
X125038095Y-60264342D02*
X125038095Y-60169104D01*
X125038095Y-60169104D02*
X124990476Y-60073866D01*
X124990476Y-60073866D02*
X124942857Y-60026247D01*
X124942857Y-60026247D02*
X124847619Y-59978628D01*
X124847619Y-59978628D02*
X124657143Y-59931009D01*
X124657143Y-59931009D02*
X124561905Y-59883390D01*
X124561905Y-59883390D02*
X124514286Y-59835771D01*
X124514286Y-59835771D02*
X124466667Y-59740533D01*
X124466667Y-59740533D02*
X124466667Y-59645295D01*
X124466667Y-59645295D02*
X124514286Y-59550057D01*
X124514286Y-59550057D02*
X124561905Y-59502438D01*
X124561905Y-59502438D02*
X124657143Y-59454819D01*
X124657143Y-59454819D02*
X124895238Y-59454819D01*
X124895238Y-59454819D02*
X125038095Y-59502438D01*
X125371429Y-59454819D02*
X125609524Y-60454819D01*
X125609524Y-60454819D02*
X125800000Y-59740533D01*
X125800000Y-59740533D02*
X125990476Y-60454819D01*
X125990476Y-60454819D02*
X126228572Y-59454819D01*
X126561905Y-59550057D02*
X126609524Y-59502438D01*
X126609524Y-59502438D02*
X126704762Y-59454819D01*
X126704762Y-59454819D02*
X126942857Y-59454819D01*
X126942857Y-59454819D02*
X127038095Y-59502438D01*
X127038095Y-59502438D02*
X127085714Y-59550057D01*
X127085714Y-59550057D02*
X127133333Y-59645295D01*
X127133333Y-59645295D02*
X127133333Y-59740533D01*
X127133333Y-59740533D02*
X127085714Y-59883390D01*
X127085714Y-59883390D02*
X126514286Y-60454819D01*
X126514286Y-60454819D02*
X127133333Y-60454819D01*
X102466667Y-61907200D02*
X102609524Y-61954819D01*
X102609524Y-61954819D02*
X102847619Y-61954819D01*
X102847619Y-61954819D02*
X102942857Y-61907200D01*
X102942857Y-61907200D02*
X102990476Y-61859580D01*
X102990476Y-61859580D02*
X103038095Y-61764342D01*
X103038095Y-61764342D02*
X103038095Y-61669104D01*
X103038095Y-61669104D02*
X102990476Y-61573866D01*
X102990476Y-61573866D02*
X102942857Y-61526247D01*
X102942857Y-61526247D02*
X102847619Y-61478628D01*
X102847619Y-61478628D02*
X102657143Y-61431009D01*
X102657143Y-61431009D02*
X102561905Y-61383390D01*
X102561905Y-61383390D02*
X102514286Y-61335771D01*
X102514286Y-61335771D02*
X102466667Y-61240533D01*
X102466667Y-61240533D02*
X102466667Y-61145295D01*
X102466667Y-61145295D02*
X102514286Y-61050057D01*
X102514286Y-61050057D02*
X102561905Y-61002438D01*
X102561905Y-61002438D02*
X102657143Y-60954819D01*
X102657143Y-60954819D02*
X102895238Y-60954819D01*
X102895238Y-60954819D02*
X103038095Y-61002438D01*
X103371429Y-60954819D02*
X103609524Y-61954819D01*
X103609524Y-61954819D02*
X103800000Y-61240533D01*
X103800000Y-61240533D02*
X103990476Y-61954819D01*
X103990476Y-61954819D02*
X104228572Y-60954819D01*
X105133333Y-61954819D02*
X104561905Y-61954819D01*
X104847619Y-61954819D02*
X104847619Y-60954819D01*
X104847619Y-60954819D02*
X104752381Y-61097676D01*
X104752381Y-61097676D02*
X104657143Y-61192914D01*
X104657143Y-61192914D02*
X104561905Y-61240533D01*
X110857142Y-57454819D02*
X110523809Y-56978628D01*
X110285714Y-57454819D02*
X110285714Y-56454819D01*
X110285714Y-56454819D02*
X110666666Y-56454819D01*
X110666666Y-56454819D02*
X110761904Y-56502438D01*
X110761904Y-56502438D02*
X110809523Y-56550057D01*
X110809523Y-56550057D02*
X110857142Y-56645295D01*
X110857142Y-56645295D02*
X110857142Y-56788152D01*
X110857142Y-56788152D02*
X110809523Y-56883390D01*
X110809523Y-56883390D02*
X110761904Y-56931009D01*
X110761904Y-56931009D02*
X110666666Y-56978628D01*
X110666666Y-56978628D02*
X110285714Y-56978628D01*
X111809523Y-57454819D02*
X111238095Y-57454819D01*
X111523809Y-57454819D02*
X111523809Y-56454819D01*
X111523809Y-56454819D02*
X111428571Y-56597676D01*
X111428571Y-56597676D02*
X111333333Y-56692914D01*
X111333333Y-56692914D02*
X111238095Y-56740533D01*
X112190476Y-56550057D02*
X112238095Y-56502438D01*
X112238095Y-56502438D02*
X112333333Y-56454819D01*
X112333333Y-56454819D02*
X112571428Y-56454819D01*
X112571428Y-56454819D02*
X112666666Y-56502438D01*
X112666666Y-56502438D02*
X112714285Y-56550057D01*
X112714285Y-56550057D02*
X112761904Y-56645295D01*
X112761904Y-56645295D02*
X112761904Y-56740533D01*
X112761904Y-56740533D02*
X112714285Y-56883390D01*
X112714285Y-56883390D02*
X112142857Y-57454819D01*
X112142857Y-57454819D02*
X112761904Y-57454819D01*
X105477142Y-80954819D02*
X105143809Y-80478628D01*
X104905714Y-80954819D02*
X104905714Y-79954819D01*
X104905714Y-79954819D02*
X105286666Y-79954819D01*
X105286666Y-79954819D02*
X105381904Y-80002438D01*
X105381904Y-80002438D02*
X105429523Y-80050057D01*
X105429523Y-80050057D02*
X105477142Y-80145295D01*
X105477142Y-80145295D02*
X105477142Y-80288152D01*
X105477142Y-80288152D02*
X105429523Y-80383390D01*
X105429523Y-80383390D02*
X105381904Y-80431009D01*
X105381904Y-80431009D02*
X105286666Y-80478628D01*
X105286666Y-80478628D02*
X104905714Y-80478628D01*
X106429523Y-80954819D02*
X105858095Y-80954819D01*
X106143809Y-80954819D02*
X106143809Y-79954819D01*
X106143809Y-79954819D02*
X106048571Y-80097676D01*
X106048571Y-80097676D02*
X105953333Y-80192914D01*
X105953333Y-80192914D02*
X105858095Y-80240533D01*
X107334285Y-79954819D02*
X106858095Y-79954819D01*
X106858095Y-79954819D02*
X106810476Y-80431009D01*
X106810476Y-80431009D02*
X106858095Y-80383390D01*
X106858095Y-80383390D02*
X106953333Y-80335771D01*
X106953333Y-80335771D02*
X107191428Y-80335771D01*
X107191428Y-80335771D02*
X107286666Y-80383390D01*
X107286666Y-80383390D02*
X107334285Y-80431009D01*
X107334285Y-80431009D02*
X107381904Y-80526247D01*
X107381904Y-80526247D02*
X107381904Y-80764342D01*
X107381904Y-80764342D02*
X107334285Y-80859580D01*
X107334285Y-80859580D02*
X107286666Y-80907200D01*
X107286666Y-80907200D02*
X107191428Y-80954819D01*
X107191428Y-80954819D02*
X106953333Y-80954819D01*
X106953333Y-80954819D02*
X106858095Y-80907200D01*
X106858095Y-80907200D02*
X106810476Y-80859580D01*
X118359580Y-76666666D02*
X118407200Y-76714285D01*
X118407200Y-76714285D02*
X118454819Y-76857142D01*
X118454819Y-76857142D02*
X118454819Y-76952380D01*
X118454819Y-76952380D02*
X118407200Y-77095237D01*
X118407200Y-77095237D02*
X118311961Y-77190475D01*
X118311961Y-77190475D02*
X118216723Y-77238094D01*
X118216723Y-77238094D02*
X118026247Y-77285713D01*
X118026247Y-77285713D02*
X117883390Y-77285713D01*
X117883390Y-77285713D02*
X117692914Y-77238094D01*
X117692914Y-77238094D02*
X117597676Y-77190475D01*
X117597676Y-77190475D02*
X117502438Y-77095237D01*
X117502438Y-77095237D02*
X117454819Y-76952380D01*
X117454819Y-76952380D02*
X117454819Y-76857142D01*
X117454819Y-76857142D02*
X117502438Y-76714285D01*
X117502438Y-76714285D02*
X117550057Y-76666666D01*
X118454819Y-75714285D02*
X118454819Y-76285713D01*
X118454819Y-75999999D02*
X117454819Y-75999999D01*
X117454819Y-75999999D02*
X117597676Y-76095237D01*
X117597676Y-76095237D02*
X117692914Y-76190475D01*
X117692914Y-76190475D02*
X117740533Y-76285713D01*
X86954819Y-51166666D02*
X86478628Y-51499999D01*
X86954819Y-51738094D02*
X85954819Y-51738094D01*
X85954819Y-51738094D02*
X85954819Y-51357142D01*
X85954819Y-51357142D02*
X86002438Y-51261904D01*
X86002438Y-51261904D02*
X86050057Y-51214285D01*
X86050057Y-51214285D02*
X86145295Y-51166666D01*
X86145295Y-51166666D02*
X86288152Y-51166666D01*
X86288152Y-51166666D02*
X86383390Y-51214285D01*
X86383390Y-51214285D02*
X86431009Y-51261904D01*
X86431009Y-51261904D02*
X86478628Y-51357142D01*
X86478628Y-51357142D02*
X86478628Y-51738094D01*
X86954819Y-50690475D02*
X86954819Y-50499999D01*
X86954819Y-50499999D02*
X86907200Y-50404761D01*
X86907200Y-50404761D02*
X86859580Y-50357142D01*
X86859580Y-50357142D02*
X86716723Y-50261904D01*
X86716723Y-50261904D02*
X86526247Y-50214285D01*
X86526247Y-50214285D02*
X86145295Y-50214285D01*
X86145295Y-50214285D02*
X86050057Y-50261904D01*
X86050057Y-50261904D02*
X86002438Y-50309523D01*
X86002438Y-50309523D02*
X85954819Y-50404761D01*
X85954819Y-50404761D02*
X85954819Y-50595237D01*
X85954819Y-50595237D02*
X86002438Y-50690475D01*
X86002438Y-50690475D02*
X86050057Y-50738094D01*
X86050057Y-50738094D02*
X86145295Y-50785713D01*
X86145295Y-50785713D02*
X86383390Y-50785713D01*
X86383390Y-50785713D02*
X86478628Y-50738094D01*
X86478628Y-50738094D02*
X86526247Y-50690475D01*
X86526247Y-50690475D02*
X86573866Y-50595237D01*
X86573866Y-50595237D02*
X86573866Y-50404761D01*
X86573866Y-50404761D02*
X86526247Y-50309523D01*
X86526247Y-50309523D02*
X86478628Y-50261904D01*
X86478628Y-50261904D02*
X86383390Y-50214285D01*
X120011905Y-82704819D02*
X120011905Y-81704819D01*
X120011905Y-81704819D02*
X120250000Y-81704819D01*
X120250000Y-81704819D02*
X120392857Y-81752438D01*
X120392857Y-81752438D02*
X120488095Y-81847676D01*
X120488095Y-81847676D02*
X120535714Y-81942914D01*
X120535714Y-81942914D02*
X120583333Y-82133390D01*
X120583333Y-82133390D02*
X120583333Y-82276247D01*
X120583333Y-82276247D02*
X120535714Y-82466723D01*
X120535714Y-82466723D02*
X120488095Y-82561961D01*
X120488095Y-82561961D02*
X120392857Y-82657200D01*
X120392857Y-82657200D02*
X120250000Y-82704819D01*
X120250000Y-82704819D02*
X120011905Y-82704819D01*
X121535714Y-82704819D02*
X120964286Y-82704819D01*
X121250000Y-82704819D02*
X121250000Y-81704819D01*
X121250000Y-81704819D02*
X121154762Y-81847676D01*
X121154762Y-81847676D02*
X121059524Y-81942914D01*
X121059524Y-81942914D02*
X120964286Y-81990533D01*
X124182142Y-63204819D02*
X123848809Y-62728628D01*
X123610714Y-63204819D02*
X123610714Y-62204819D01*
X123610714Y-62204819D02*
X123991666Y-62204819D01*
X123991666Y-62204819D02*
X124086904Y-62252438D01*
X124086904Y-62252438D02*
X124134523Y-62300057D01*
X124134523Y-62300057D02*
X124182142Y-62395295D01*
X124182142Y-62395295D02*
X124182142Y-62538152D01*
X124182142Y-62538152D02*
X124134523Y-62633390D01*
X124134523Y-62633390D02*
X124086904Y-62681009D01*
X124086904Y-62681009D02*
X123991666Y-62728628D01*
X123991666Y-62728628D02*
X123610714Y-62728628D01*
X125134523Y-63204819D02*
X124563095Y-63204819D01*
X124848809Y-63204819D02*
X124848809Y-62204819D01*
X124848809Y-62204819D02*
X124753571Y-62347676D01*
X124753571Y-62347676D02*
X124658333Y-62442914D01*
X124658333Y-62442914D02*
X124563095Y-62490533D01*
X125991666Y-62538152D02*
X125991666Y-63204819D01*
X125753571Y-62157200D02*
X125515476Y-62871485D01*
X125515476Y-62871485D02*
X126134523Y-62871485D01*
X96333333Y-40454819D02*
X96000000Y-39978628D01*
X95761905Y-40454819D02*
X95761905Y-39454819D01*
X95761905Y-39454819D02*
X96142857Y-39454819D01*
X96142857Y-39454819D02*
X96238095Y-39502438D01*
X96238095Y-39502438D02*
X96285714Y-39550057D01*
X96285714Y-39550057D02*
X96333333Y-39645295D01*
X96333333Y-39645295D02*
X96333333Y-39788152D01*
X96333333Y-39788152D02*
X96285714Y-39883390D01*
X96285714Y-39883390D02*
X96238095Y-39931009D01*
X96238095Y-39931009D02*
X96142857Y-39978628D01*
X96142857Y-39978628D02*
X95761905Y-39978628D01*
X97190476Y-39454819D02*
X97000000Y-39454819D01*
X97000000Y-39454819D02*
X96904762Y-39502438D01*
X96904762Y-39502438D02*
X96857143Y-39550057D01*
X96857143Y-39550057D02*
X96761905Y-39692914D01*
X96761905Y-39692914D02*
X96714286Y-39883390D01*
X96714286Y-39883390D02*
X96714286Y-40264342D01*
X96714286Y-40264342D02*
X96761905Y-40359580D01*
X96761905Y-40359580D02*
X96809524Y-40407200D01*
X96809524Y-40407200D02*
X96904762Y-40454819D01*
X96904762Y-40454819D02*
X97095238Y-40454819D01*
X97095238Y-40454819D02*
X97190476Y-40407200D01*
X97190476Y-40407200D02*
X97238095Y-40359580D01*
X97238095Y-40359580D02*
X97285714Y-40264342D01*
X97285714Y-40264342D02*
X97285714Y-40026247D01*
X97285714Y-40026247D02*
X97238095Y-39931009D01*
X97238095Y-39931009D02*
X97190476Y-39883390D01*
X97190476Y-39883390D02*
X97095238Y-39835771D01*
X97095238Y-39835771D02*
X96904762Y-39835771D01*
X96904762Y-39835771D02*
X96809524Y-39883390D01*
X96809524Y-39883390D02*
X96761905Y-39931009D01*
X96761905Y-39931009D02*
X96714286Y-40026247D01*
X92923333Y-76359580D02*
X92875714Y-76407200D01*
X92875714Y-76407200D02*
X92732857Y-76454819D01*
X92732857Y-76454819D02*
X92637619Y-76454819D01*
X92637619Y-76454819D02*
X92494762Y-76407200D01*
X92494762Y-76407200D02*
X92399524Y-76311961D01*
X92399524Y-76311961D02*
X92351905Y-76216723D01*
X92351905Y-76216723D02*
X92304286Y-76026247D01*
X92304286Y-76026247D02*
X92304286Y-75883390D01*
X92304286Y-75883390D02*
X92351905Y-75692914D01*
X92351905Y-75692914D02*
X92399524Y-75597676D01*
X92399524Y-75597676D02*
X92494762Y-75502438D01*
X92494762Y-75502438D02*
X92637619Y-75454819D01*
X92637619Y-75454819D02*
X92732857Y-75454819D01*
X92732857Y-75454819D02*
X92875714Y-75502438D01*
X92875714Y-75502438D02*
X92923333Y-75550057D01*
X93256667Y-75454819D02*
X93923333Y-75454819D01*
X93923333Y-75454819D02*
X93494762Y-76454819D01*
X101583333Y-49954819D02*
X101250000Y-49478628D01*
X101011905Y-49954819D02*
X101011905Y-48954819D01*
X101011905Y-48954819D02*
X101392857Y-48954819D01*
X101392857Y-48954819D02*
X101488095Y-49002438D01*
X101488095Y-49002438D02*
X101535714Y-49050057D01*
X101535714Y-49050057D02*
X101583333Y-49145295D01*
X101583333Y-49145295D02*
X101583333Y-49288152D01*
X101583333Y-49288152D02*
X101535714Y-49383390D01*
X101535714Y-49383390D02*
X101488095Y-49431009D01*
X101488095Y-49431009D02*
X101392857Y-49478628D01*
X101392857Y-49478628D02*
X101011905Y-49478628D01*
X102154762Y-49383390D02*
X102059524Y-49335771D01*
X102059524Y-49335771D02*
X102011905Y-49288152D01*
X102011905Y-49288152D02*
X101964286Y-49192914D01*
X101964286Y-49192914D02*
X101964286Y-49145295D01*
X101964286Y-49145295D02*
X102011905Y-49050057D01*
X102011905Y-49050057D02*
X102059524Y-49002438D01*
X102059524Y-49002438D02*
X102154762Y-48954819D01*
X102154762Y-48954819D02*
X102345238Y-48954819D01*
X102345238Y-48954819D02*
X102440476Y-49002438D01*
X102440476Y-49002438D02*
X102488095Y-49050057D01*
X102488095Y-49050057D02*
X102535714Y-49145295D01*
X102535714Y-49145295D02*
X102535714Y-49192914D01*
X102535714Y-49192914D02*
X102488095Y-49288152D01*
X102488095Y-49288152D02*
X102440476Y-49335771D01*
X102440476Y-49335771D02*
X102345238Y-49383390D01*
X102345238Y-49383390D02*
X102154762Y-49383390D01*
X102154762Y-49383390D02*
X102059524Y-49431009D01*
X102059524Y-49431009D02*
X102011905Y-49478628D01*
X102011905Y-49478628D02*
X101964286Y-49573866D01*
X101964286Y-49573866D02*
X101964286Y-49764342D01*
X101964286Y-49764342D02*
X102011905Y-49859580D01*
X102011905Y-49859580D02*
X102059524Y-49907200D01*
X102059524Y-49907200D02*
X102154762Y-49954819D01*
X102154762Y-49954819D02*
X102345238Y-49954819D01*
X102345238Y-49954819D02*
X102440476Y-49907200D01*
X102440476Y-49907200D02*
X102488095Y-49859580D01*
X102488095Y-49859580D02*
X102535714Y-49764342D01*
X102535714Y-49764342D02*
X102535714Y-49573866D01*
X102535714Y-49573866D02*
X102488095Y-49478628D01*
X102488095Y-49478628D02*
X102440476Y-49431009D01*
X102440476Y-49431009D02*
X102345238Y-49383390D01*
X96954819Y-56833333D02*
X97669104Y-56833333D01*
X97669104Y-56833333D02*
X97811961Y-56880952D01*
X97811961Y-56880952D02*
X97907200Y-56976190D01*
X97907200Y-56976190D02*
X97954819Y-57119047D01*
X97954819Y-57119047D02*
X97954819Y-57214285D01*
X97050057Y-56404761D02*
X97002438Y-56357142D01*
X97002438Y-56357142D02*
X96954819Y-56261904D01*
X96954819Y-56261904D02*
X96954819Y-56023809D01*
X96954819Y-56023809D02*
X97002438Y-55928571D01*
X97002438Y-55928571D02*
X97050057Y-55880952D01*
X97050057Y-55880952D02*
X97145295Y-55833333D01*
X97145295Y-55833333D02*
X97240533Y-55833333D01*
X97240533Y-55833333D02*
X97383390Y-55880952D01*
X97383390Y-55880952D02*
X97954819Y-56452380D01*
X97954819Y-56452380D02*
X97954819Y-55833333D01*
X119954819Y-76166666D02*
X119478628Y-76499999D01*
X119954819Y-76738094D02*
X118954819Y-76738094D01*
X118954819Y-76738094D02*
X118954819Y-76357142D01*
X118954819Y-76357142D02*
X119002438Y-76261904D01*
X119002438Y-76261904D02*
X119050057Y-76214285D01*
X119050057Y-76214285D02*
X119145295Y-76166666D01*
X119145295Y-76166666D02*
X119288152Y-76166666D01*
X119288152Y-76166666D02*
X119383390Y-76214285D01*
X119383390Y-76214285D02*
X119431009Y-76261904D01*
X119431009Y-76261904D02*
X119478628Y-76357142D01*
X119478628Y-76357142D02*
X119478628Y-76738094D01*
X119954819Y-75214285D02*
X119954819Y-75785713D01*
X119954819Y-75499999D02*
X118954819Y-75499999D01*
X118954819Y-75499999D02*
X119097676Y-75595237D01*
X119097676Y-75595237D02*
X119192914Y-75690475D01*
X119192914Y-75690475D02*
X119240533Y-75785713D01*
X106478095Y-68479819D02*
X106478095Y-69289342D01*
X106478095Y-69289342D02*
X106525714Y-69384580D01*
X106525714Y-69384580D02*
X106573333Y-69432200D01*
X106573333Y-69432200D02*
X106668571Y-69479819D01*
X106668571Y-69479819D02*
X106859047Y-69479819D01*
X106859047Y-69479819D02*
X106954285Y-69432200D01*
X106954285Y-69432200D02*
X107001904Y-69384580D01*
X107001904Y-69384580D02*
X107049523Y-69289342D01*
X107049523Y-69289342D02*
X107049523Y-68479819D01*
X107954285Y-68813152D02*
X107954285Y-69479819D01*
X107716190Y-68432200D02*
X107478095Y-69146485D01*
X107478095Y-69146485D02*
X108097142Y-69146485D01*
X119238095Y-70454819D02*
X119238095Y-71264342D01*
X119238095Y-71264342D02*
X119285714Y-71359580D01*
X119285714Y-71359580D02*
X119333333Y-71407200D01*
X119333333Y-71407200D02*
X119428571Y-71454819D01*
X119428571Y-71454819D02*
X119619047Y-71454819D01*
X119619047Y-71454819D02*
X119714285Y-71407200D01*
X119714285Y-71407200D02*
X119761904Y-71359580D01*
X119761904Y-71359580D02*
X119809523Y-71264342D01*
X119809523Y-71264342D02*
X119809523Y-70454819D01*
X120809523Y-71454819D02*
X120238095Y-71454819D01*
X120523809Y-71454819D02*
X120523809Y-70454819D01*
X120523809Y-70454819D02*
X120428571Y-70597676D01*
X120428571Y-70597676D02*
X120333333Y-70692914D01*
X120333333Y-70692914D02*
X120238095Y-70740533D01*
X92923333Y-73859580D02*
X92875714Y-73907200D01*
X92875714Y-73907200D02*
X92732857Y-73954819D01*
X92732857Y-73954819D02*
X92637619Y-73954819D01*
X92637619Y-73954819D02*
X92494762Y-73907200D01*
X92494762Y-73907200D02*
X92399524Y-73811961D01*
X92399524Y-73811961D02*
X92351905Y-73716723D01*
X92351905Y-73716723D02*
X92304286Y-73526247D01*
X92304286Y-73526247D02*
X92304286Y-73383390D01*
X92304286Y-73383390D02*
X92351905Y-73192914D01*
X92351905Y-73192914D02*
X92399524Y-73097676D01*
X92399524Y-73097676D02*
X92494762Y-73002438D01*
X92494762Y-73002438D02*
X92637619Y-72954819D01*
X92637619Y-72954819D02*
X92732857Y-72954819D01*
X92732857Y-72954819D02*
X92875714Y-73002438D01*
X92875714Y-73002438D02*
X92923333Y-73050057D01*
X93494762Y-73383390D02*
X93399524Y-73335771D01*
X93399524Y-73335771D02*
X93351905Y-73288152D01*
X93351905Y-73288152D02*
X93304286Y-73192914D01*
X93304286Y-73192914D02*
X93304286Y-73145295D01*
X93304286Y-73145295D02*
X93351905Y-73050057D01*
X93351905Y-73050057D02*
X93399524Y-73002438D01*
X93399524Y-73002438D02*
X93494762Y-72954819D01*
X93494762Y-72954819D02*
X93685238Y-72954819D01*
X93685238Y-72954819D02*
X93780476Y-73002438D01*
X93780476Y-73002438D02*
X93828095Y-73050057D01*
X93828095Y-73050057D02*
X93875714Y-73145295D01*
X93875714Y-73145295D02*
X93875714Y-73192914D01*
X93875714Y-73192914D02*
X93828095Y-73288152D01*
X93828095Y-73288152D02*
X93780476Y-73335771D01*
X93780476Y-73335771D02*
X93685238Y-73383390D01*
X93685238Y-73383390D02*
X93494762Y-73383390D01*
X93494762Y-73383390D02*
X93399524Y-73431009D01*
X93399524Y-73431009D02*
X93351905Y-73478628D01*
X93351905Y-73478628D02*
X93304286Y-73573866D01*
X93304286Y-73573866D02*
X93304286Y-73764342D01*
X93304286Y-73764342D02*
X93351905Y-73859580D01*
X93351905Y-73859580D02*
X93399524Y-73907200D01*
X93399524Y-73907200D02*
X93494762Y-73954819D01*
X93494762Y-73954819D02*
X93685238Y-73954819D01*
X93685238Y-73954819D02*
X93780476Y-73907200D01*
X93780476Y-73907200D02*
X93828095Y-73859580D01*
X93828095Y-73859580D02*
X93875714Y-73764342D01*
X93875714Y-73764342D02*
X93875714Y-73573866D01*
X93875714Y-73573866D02*
X93828095Y-73478628D01*
X93828095Y-73478628D02*
X93780476Y-73431009D01*
X93780476Y-73431009D02*
X93685238Y-73383390D01*
X91182142Y-55454819D02*
X90848809Y-54978628D01*
X90610714Y-55454819D02*
X90610714Y-54454819D01*
X90610714Y-54454819D02*
X90991666Y-54454819D01*
X90991666Y-54454819D02*
X91086904Y-54502438D01*
X91086904Y-54502438D02*
X91134523Y-54550057D01*
X91134523Y-54550057D02*
X91182142Y-54645295D01*
X91182142Y-54645295D02*
X91182142Y-54788152D01*
X91182142Y-54788152D02*
X91134523Y-54883390D01*
X91134523Y-54883390D02*
X91086904Y-54931009D01*
X91086904Y-54931009D02*
X90991666Y-54978628D01*
X90991666Y-54978628D02*
X90610714Y-54978628D01*
X92134523Y-55454819D02*
X91563095Y-55454819D01*
X91848809Y-55454819D02*
X91848809Y-54454819D01*
X91848809Y-54454819D02*
X91753571Y-54597676D01*
X91753571Y-54597676D02*
X91658333Y-54692914D01*
X91658333Y-54692914D02*
X91563095Y-54740533D01*
X93086904Y-55454819D02*
X92515476Y-55454819D01*
X92801190Y-55454819D02*
X92801190Y-54454819D01*
X92801190Y-54454819D02*
X92705952Y-54597676D01*
X92705952Y-54597676D02*
X92610714Y-54692914D01*
X92610714Y-54692914D02*
X92515476Y-54740533D01*
X103954819Y-44416666D02*
X103478628Y-44749999D01*
X103954819Y-44988094D02*
X102954819Y-44988094D01*
X102954819Y-44988094D02*
X102954819Y-44607142D01*
X102954819Y-44607142D02*
X103002438Y-44511904D01*
X103002438Y-44511904D02*
X103050057Y-44464285D01*
X103050057Y-44464285D02*
X103145295Y-44416666D01*
X103145295Y-44416666D02*
X103288152Y-44416666D01*
X103288152Y-44416666D02*
X103383390Y-44464285D01*
X103383390Y-44464285D02*
X103431009Y-44511904D01*
X103431009Y-44511904D02*
X103478628Y-44607142D01*
X103478628Y-44607142D02*
X103478628Y-44988094D01*
X102954819Y-43511904D02*
X102954819Y-43988094D01*
X102954819Y-43988094D02*
X103431009Y-44035713D01*
X103431009Y-44035713D02*
X103383390Y-43988094D01*
X103383390Y-43988094D02*
X103335771Y-43892856D01*
X103335771Y-43892856D02*
X103335771Y-43654761D01*
X103335771Y-43654761D02*
X103383390Y-43559523D01*
X103383390Y-43559523D02*
X103431009Y-43511904D01*
X103431009Y-43511904D02*
X103526247Y-43464285D01*
X103526247Y-43464285D02*
X103764342Y-43464285D01*
X103764342Y-43464285D02*
X103859580Y-43511904D01*
X103859580Y-43511904D02*
X103907200Y-43559523D01*
X103907200Y-43559523D02*
X103954819Y-43654761D01*
X103954819Y-43654761D02*
X103954819Y-43892856D01*
X103954819Y-43892856D02*
X103907200Y-43988094D01*
X103907200Y-43988094D02*
X103859580Y-44035713D01*
X127454819Y-78666666D02*
X126978628Y-78999999D01*
X127454819Y-79238094D02*
X126454819Y-79238094D01*
X126454819Y-79238094D02*
X126454819Y-78857142D01*
X126454819Y-78857142D02*
X126502438Y-78761904D01*
X126502438Y-78761904D02*
X126550057Y-78714285D01*
X126550057Y-78714285D02*
X126645295Y-78666666D01*
X126645295Y-78666666D02*
X126788152Y-78666666D01*
X126788152Y-78666666D02*
X126883390Y-78714285D01*
X126883390Y-78714285D02*
X126931009Y-78761904D01*
X126931009Y-78761904D02*
X126978628Y-78857142D01*
X126978628Y-78857142D02*
X126978628Y-79238094D01*
X126788152Y-77809523D02*
X127454819Y-77809523D01*
X126407200Y-78047618D02*
X127121485Y-78285713D01*
X127121485Y-78285713D02*
X127121485Y-77666666D01*
X103032142Y-64954819D02*
X102698809Y-64478628D01*
X102460714Y-64954819D02*
X102460714Y-63954819D01*
X102460714Y-63954819D02*
X102841666Y-63954819D01*
X102841666Y-63954819D02*
X102936904Y-64002438D01*
X102936904Y-64002438D02*
X102984523Y-64050057D01*
X102984523Y-64050057D02*
X103032142Y-64145295D01*
X103032142Y-64145295D02*
X103032142Y-64288152D01*
X103032142Y-64288152D02*
X102984523Y-64383390D01*
X102984523Y-64383390D02*
X102936904Y-64431009D01*
X102936904Y-64431009D02*
X102841666Y-64478628D01*
X102841666Y-64478628D02*
X102460714Y-64478628D01*
X103984523Y-64954819D02*
X103413095Y-64954819D01*
X103698809Y-64954819D02*
X103698809Y-63954819D01*
X103698809Y-63954819D02*
X103603571Y-64097676D01*
X103603571Y-64097676D02*
X103508333Y-64192914D01*
X103508333Y-64192914D02*
X103413095Y-64240533D01*
X104317857Y-63954819D02*
X104936904Y-63954819D01*
X104936904Y-63954819D02*
X104603571Y-64335771D01*
X104603571Y-64335771D02*
X104746428Y-64335771D01*
X104746428Y-64335771D02*
X104841666Y-64383390D01*
X104841666Y-64383390D02*
X104889285Y-64431009D01*
X104889285Y-64431009D02*
X104936904Y-64526247D01*
X104936904Y-64526247D02*
X104936904Y-64764342D01*
X104936904Y-64764342D02*
X104889285Y-64859580D01*
X104889285Y-64859580D02*
X104841666Y-64907200D01*
X104841666Y-64907200D02*
X104746428Y-64954819D01*
X104746428Y-64954819D02*
X104460714Y-64954819D01*
X104460714Y-64954819D02*
X104365476Y-64907200D01*
X104365476Y-64907200D02*
X104317857Y-64859580D01*
X111854761Y-62400057D02*
X111759523Y-62352438D01*
X111759523Y-62352438D02*
X111664285Y-62257200D01*
X111664285Y-62257200D02*
X111521428Y-62114342D01*
X111521428Y-62114342D02*
X111426190Y-62066723D01*
X111426190Y-62066723D02*
X111330952Y-62066723D01*
X111378571Y-62304819D02*
X111283333Y-62257200D01*
X111283333Y-62257200D02*
X111188095Y-62161961D01*
X111188095Y-62161961D02*
X111140476Y-61971485D01*
X111140476Y-61971485D02*
X111140476Y-61638152D01*
X111140476Y-61638152D02*
X111188095Y-61447676D01*
X111188095Y-61447676D02*
X111283333Y-61352438D01*
X111283333Y-61352438D02*
X111378571Y-61304819D01*
X111378571Y-61304819D02*
X111569047Y-61304819D01*
X111569047Y-61304819D02*
X111664285Y-61352438D01*
X111664285Y-61352438D02*
X111759523Y-61447676D01*
X111759523Y-61447676D02*
X111807142Y-61638152D01*
X111807142Y-61638152D02*
X111807142Y-61971485D01*
X111807142Y-61971485D02*
X111759523Y-62161961D01*
X111759523Y-62161961D02*
X111664285Y-62257200D01*
X111664285Y-62257200D02*
X111569047Y-62304819D01*
X111569047Y-62304819D02*
X111378571Y-62304819D01*
X112759523Y-62304819D02*
X112188095Y-62304819D01*
X112473809Y-62304819D02*
X112473809Y-61304819D01*
X112473809Y-61304819D02*
X112378571Y-61447676D01*
X112378571Y-61447676D02*
X112283333Y-61542914D01*
X112283333Y-61542914D02*
X112188095Y-61590533D01*
X124204819Y-81166666D02*
X123728628Y-81499999D01*
X124204819Y-81738094D02*
X123204819Y-81738094D01*
X123204819Y-81738094D02*
X123204819Y-81357142D01*
X123204819Y-81357142D02*
X123252438Y-81261904D01*
X123252438Y-81261904D02*
X123300057Y-81214285D01*
X123300057Y-81214285D02*
X123395295Y-81166666D01*
X123395295Y-81166666D02*
X123538152Y-81166666D01*
X123538152Y-81166666D02*
X123633390Y-81214285D01*
X123633390Y-81214285D02*
X123681009Y-81261904D01*
X123681009Y-81261904D02*
X123728628Y-81357142D01*
X123728628Y-81357142D02*
X123728628Y-81738094D01*
X123204819Y-80833332D02*
X123204819Y-80214285D01*
X123204819Y-80214285D02*
X123585771Y-80547618D01*
X123585771Y-80547618D02*
X123585771Y-80404761D01*
X123585771Y-80404761D02*
X123633390Y-80309523D01*
X123633390Y-80309523D02*
X123681009Y-80261904D01*
X123681009Y-80261904D02*
X123776247Y-80214285D01*
X123776247Y-80214285D02*
X124014342Y-80214285D01*
X124014342Y-80214285D02*
X124109580Y-80261904D01*
X124109580Y-80261904D02*
X124157200Y-80309523D01*
X124157200Y-80309523D02*
X124204819Y-80404761D01*
X124204819Y-80404761D02*
X124204819Y-80690475D01*
X124204819Y-80690475D02*
X124157200Y-80785713D01*
X124157200Y-80785713D02*
X124109580Y-80833332D01*
D13*
%TO.C,C6*%
X123857836Y-57860000D02*
X123642164Y-57860000D01*
X123857836Y-57140000D02*
X123642164Y-57140000D01*
D10*
%TO.C,J1*%
X121225000Y-89300000D02*
X121225000Y-90025000D01*
X121225000Y-90025000D02*
X121650000Y-90025000D01*
X121650000Y-86425000D02*
X121650000Y-85425000D01*
X121650000Y-90025000D02*
X121650000Y-91025000D01*
X123400000Y-92375000D02*
X124800000Y-92375000D01*
X124800000Y-84075000D02*
X123400000Y-84075000D01*
X127200000Y-92375000D02*
X127350000Y-92375000D01*
X127350000Y-84075000D02*
X127200000Y-84075000D01*
X127350000Y-84375000D02*
X127350000Y-84075000D01*
X127350000Y-92075000D02*
X127800000Y-92075000D01*
X127350000Y-92375000D02*
X127350000Y-92075000D01*
X127800000Y-84375000D02*
X127350000Y-84375000D01*
D14*
%TO.C,D2*%
X115240000Y-72980000D02*
X116440000Y-72980000D01*
X116440000Y-74020000D02*
X115240000Y-74020000D01*
D15*
X114440000Y-73500000D02*
G75*
G02*
X114240000Y-73500000I-100000J0D01*
G01*
X114240000Y-73500000D02*
G75*
G02*
X114440000Y-73500000I100000J0D01*
G01*
D13*
%TO.C,R2*%
X121477500Y-78737258D02*
X121477500Y-78262742D01*
X122522500Y-78737258D02*
X122522500Y-78262742D01*
%TO.C,R10*%
X92062258Y-52477500D02*
X91587742Y-52477500D01*
X92062258Y-53522500D02*
X91587742Y-53522500D01*
%TO.C,D6*%
X108532500Y-83235000D02*
X110817500Y-83235000D01*
X110817500Y-81765000D02*
X108532500Y-81765000D01*
X110817500Y-83235000D02*
X110817500Y-81765000D01*
%TO.C,C5*%
X106859420Y-58490000D02*
X107140580Y-58490000D01*
X106859420Y-59510000D02*
X107140580Y-59510000D01*
D14*
%TO.C,D3*%
X115240000Y-71480000D02*
X116440000Y-71480000D01*
X116440000Y-72520000D02*
X115240000Y-72520000D01*
D15*
X114440000Y-72000000D02*
G75*
G02*
X114240000Y-72000000I-100000J0D01*
G01*
X114240000Y-72000000D02*
G75*
G02*
X114440000Y-72000000I100000J0D01*
G01*
D13*
%TO.C,U3*%
X95000000Y-44940000D02*
X93050000Y-44940000D01*
X95000000Y-44940000D02*
X96950000Y-44940000D01*
X95000000Y-50060000D02*
X93050000Y-50060000D01*
X95000000Y-50060000D02*
X96950000Y-50060000D01*
X97940000Y-50295000D02*
X97460000Y-50295000D01*
X97700000Y-49965000D01*
X97940000Y-50295000D01*
G36*
X97940000Y-50295000D02*
G01*
X97460000Y-50295000D01*
X97700000Y-49965000D01*
X97940000Y-50295000D01*
G37*
%TO.C,C2*%
X125584420Y-80490000D02*
X125865580Y-80490000D01*
X125584420Y-81510000D02*
X125865580Y-81510000D01*
%TO.C,U2*%
X105800000Y-29750000D02*
X105800000Y-35950000D01*
X105800000Y-29750000D02*
X124200000Y-29750000D01*
X105800000Y-54600000D02*
X105800000Y-55600000D01*
X105800000Y-55600000D02*
X107300000Y-55600000D01*
X124200000Y-29750000D02*
X124200000Y-35950000D01*
X124200000Y-55600000D02*
X122700000Y-55600000D01*
X124200000Y-55600000D02*
X124200000Y-54600000D01*
X105800000Y-36625000D02*
X105300000Y-36625000D01*
X105800000Y-36125000D01*
X105800000Y-36625000D01*
G36*
X105800000Y-36625000D02*
G01*
X105300000Y-36625000D01*
X105800000Y-36125000D01*
X105800000Y-36625000D01*
G37*
%TO.C,D5*%
X113737500Y-59235000D02*
X116022500Y-59235000D01*
X116022500Y-57765000D02*
X113737500Y-57765000D01*
X116022500Y-59235000D02*
X116022500Y-57765000D01*
%TO.C,J3*%
X85700000Y-79585000D02*
X85700000Y-89935000D01*
X85700000Y-89935000D02*
X86650000Y-89935000D01*
X86400000Y-90435000D02*
X88300000Y-90435000D01*
X86650000Y-89935000D02*
X86400000Y-90435000D01*
X88100000Y-89935000D02*
X93500000Y-89935000D01*
X88300000Y-90435000D02*
X88350000Y-90435000D01*
X88350000Y-90435000D02*
X88100000Y-89935000D01*
X93200000Y-90435000D02*
X98300000Y-90435000D01*
X93500000Y-89935000D02*
X93200000Y-90435000D01*
X98300000Y-79585000D02*
X85700000Y-79585000D01*
X98300000Y-90435000D02*
X98300000Y-79585000D01*
%TO.C,SW2*%
X120150000Y-58600000D02*
X123450000Y-58600000D01*
X120150000Y-58900000D02*
X120150000Y-58600000D01*
X120150000Y-61100000D02*
X120150000Y-61400000D01*
X120150000Y-61400000D02*
X123450000Y-61400000D01*
X123450000Y-58600000D02*
X123450000Y-58900000D01*
X123450000Y-61400000D02*
X123450000Y-61100000D01*
%TO.C,SW1*%
X106150000Y-60100000D02*
X106150000Y-60400000D01*
X106150000Y-62900000D02*
X106150000Y-62600000D01*
X109450000Y-60100000D02*
X106150000Y-60100000D01*
X109450000Y-60400000D02*
X109450000Y-60100000D01*
X109450000Y-62600000D02*
X109450000Y-62900000D01*
X109450000Y-62900000D02*
X106150000Y-62900000D01*
%TO.C,R12*%
X114262742Y-56477500D02*
X114737258Y-56477500D01*
X114262742Y-57522500D02*
X114737258Y-57522500D01*
%TO.C,R15*%
X109057742Y-79977500D02*
X109532258Y-79977500D01*
X109057742Y-81022500D02*
X109532258Y-81022500D01*
%TO.C,C1*%
X118360000Y-78392164D02*
X118360000Y-78607836D01*
X117640000Y-78392164D02*
X117640000Y-78607836D01*
%TO.C,R9*%
X88412258Y-52477500D02*
X87937742Y-52477500D01*
X88412258Y-53522500D02*
X87937742Y-53522500D01*
D14*
%TO.C,D1*%
X120240000Y-80480000D02*
X121440000Y-80480000D01*
X121440000Y-81520000D02*
X120240000Y-81520000D01*
D15*
X119440000Y-81000000D02*
G75*
G02*
X119240000Y-81000000I-100000J0D01*
G01*
X119240000Y-81000000D02*
G75*
G02*
X119440000Y-81000000I100000J0D01*
G01*
D13*
%TO.C,R14*%
X121262742Y-62227500D02*
X121737258Y-62227500D01*
X121262742Y-63272500D02*
X121737258Y-63272500D01*
%TO.C,R6*%
X99237258Y-39477500D02*
X98762742Y-39477500D01*
X99237258Y-40522500D02*
X98762742Y-40522500D01*
%TO.C,C7*%
X95140000Y-76935000D02*
X99050000Y-76935000D01*
X99050000Y-75065000D02*
X95140000Y-75065000D01*
X99050000Y-76935000D02*
X99050000Y-75065000D01*
%TO.C,R8*%
X101912258Y-47477500D02*
X101437742Y-47477500D01*
X101912258Y-48522500D02*
X101437742Y-48522500D01*
%TO.C,J2*%
X85700000Y-57850000D02*
X85700000Y-68200000D01*
X85700000Y-68200000D02*
X86650000Y-68200000D01*
X86400000Y-68700000D02*
X88300000Y-68700000D01*
X86650000Y-68200000D02*
X86400000Y-68700000D01*
X88100000Y-68200000D02*
X93500000Y-68200000D01*
X88300000Y-68700000D02*
X88350000Y-68700000D01*
X88350000Y-68700000D02*
X88100000Y-68200000D01*
X93200000Y-68700000D02*
X98300000Y-68700000D01*
X93500000Y-68200000D02*
X93200000Y-68700000D01*
X98300000Y-57850000D02*
X85700000Y-57850000D01*
X98300000Y-68700000D02*
X98300000Y-57850000D01*
%TO.C,R1*%
X118977500Y-78737258D02*
X118977500Y-78262742D01*
X120022500Y-78737258D02*
X120022500Y-78262742D01*
%TO.C,U4*%
X103930000Y-70075000D02*
X103930000Y-70345000D01*
X103930000Y-76975000D02*
X103930000Y-76705000D01*
X110350000Y-70075000D02*
X103930000Y-70075000D01*
X110350000Y-76975000D02*
X103930000Y-76975000D01*
X102200000Y-70385000D02*
X101860000Y-69915000D01*
X102540000Y-69915000D01*
X102200000Y-70385000D01*
G36*
X102200000Y-70385000D02*
G01*
X101860000Y-69915000D01*
X102540000Y-69915000D01*
X102200000Y-70385000D01*
G37*
%TO.C,U1*%
X121510000Y-71615000D02*
X121510000Y-71130000D01*
X121510000Y-76110000D02*
X121510000Y-75385000D01*
X122235000Y-70890000D02*
X121810000Y-70890000D01*
X122235000Y-76110000D02*
X121510000Y-76110000D01*
X126005000Y-70890000D02*
X126730000Y-70890000D01*
X126005000Y-76110000D02*
X126730000Y-76110000D01*
X126730000Y-70890000D02*
X126730000Y-71615000D01*
X126730000Y-76110000D02*
X126730000Y-75385000D01*
X121510000Y-70890000D02*
X121270000Y-70560000D01*
X121750000Y-70560000D01*
X121510000Y-70890000D01*
G36*
X121510000Y-70890000D02*
G01*
X121270000Y-70560000D01*
X121750000Y-70560000D01*
X121510000Y-70890000D01*
G37*
%TO.C,C8*%
X95140000Y-74435000D02*
X99050000Y-74435000D01*
X99050000Y-72565000D02*
X95140000Y-72565000D01*
X99050000Y-74435000D02*
X99050000Y-72565000D01*
%TO.C,R11*%
X88737258Y-55477500D02*
X88262742Y-55477500D01*
X88737258Y-56522500D02*
X88262742Y-56522500D01*
%TO.C,R5*%
X101912258Y-45477500D02*
X101437742Y-45477500D01*
X101912258Y-46522500D02*
X101437742Y-46522500D01*
%TO.C,R4*%
X125047500Y-78562258D02*
X125047500Y-78087742D01*
X126092500Y-78562258D02*
X126092500Y-78087742D01*
%TO.C,R13*%
X107412258Y-63977500D02*
X106937742Y-63977500D01*
X107412258Y-65022500D02*
X106937742Y-65022500D01*
%TO.C,Q1*%
X113340000Y-62710000D02*
X113340000Y-61300000D01*
X115660000Y-62700000D02*
X115660000Y-61300000D01*
X113390000Y-63080000D02*
X113060000Y-63320000D01*
X113060000Y-62840000D01*
X113390000Y-63080000D01*
G36*
X113390000Y-63080000D02*
G01*
X113060000Y-63320000D01*
X113060000Y-62840000D01*
X113390000Y-63080000D01*
G37*
%TO.C,R3*%
X123047500Y-78087742D02*
X123047500Y-78562258D01*
X124092500Y-78087742D02*
X124092500Y-78562258D01*
%TD*%
M02*
