%TF.GenerationSoftware,KiCad,Pcbnew,8.0.7*%
%TF.CreationDate,2025-02-14T15:53:52+00:00*%
%TF.ProjectId,FYP_Motor_R2,4659505f-4d6f-4746-9f72-5f52322e6b69,rev?*%
%TF.SameCoordinates,Original*%
%TF.FileFunction,Soldermask,Top*%
%TF.FilePolarity,Negative*%
%FSLAX46Y46*%
G04 Gerber Fmt 4.6, Leading zero omitted, Abs format (unit mm)*
G04 Created by KiCad (PCBNEW 8.0.7) date 2025-02-14 15:53:52*
%MOMM*%
%LPD*%
G01*
G04 APERTURE LIST*
G04 Aperture macros list*
%AMRoundRect*
0 Rectangle with rounded corners*
0 $1 Rounding radius*
0 $2 $3 $4 $5 $6 $7 $8 $9 X,Y pos of 4 corners*
0 Add a 4 corners polygon primitive as box body*
4,1,4,$2,$3,$4,$5,$6,$7,$8,$9,$2,$3,0*
0 Add four circle primitives for the rounded corners*
1,1,$1+$1,$2,$3*
1,1,$1+$1,$4,$5*
1,1,$1+$1,$6,$7*
1,1,$1+$1,$8,$9*
0 Add four rect primitives between the rounded corners*
20,1,$1+$1,$2,$3,$4,$5,0*
20,1,$1+$1,$4,$5,$6,$7,0*
20,1,$1+$1,$6,$7,$8,$9,0*
20,1,$1+$1,$8,$9,$2,$3,0*%
G04 Aperture macros list end*
%ADD10RoundRect,0.140000X0.140000X0.170000X-0.140000X0.170000X-0.140000X-0.170000X0.140000X-0.170000X0*%
%ADD11O,0.800000X0.800000*%
%ADD12R,1.300000X0.450000*%
%ADD13O,1.800000X1.150000*%
%ADD14O,2.000000X1.450000*%
%ADD15RoundRect,0.102000X-0.240000X-0.200000X0.240000X-0.200000X0.240000X0.200000X-0.240000X0.200000X0*%
%ADD16RoundRect,0.200000X0.275000X-0.200000X0.275000X0.200000X-0.275000X0.200000X-0.275000X-0.200000X0*%
%ADD17RoundRect,0.200000X0.200000X0.275000X-0.200000X0.275000X-0.200000X-0.275000X0.200000X-0.275000X0*%
%ADD18RoundRect,0.218750X0.218750X0.256250X-0.218750X0.256250X-0.218750X-0.256250X0.218750X-0.256250X0*%
%ADD19RoundRect,0.225000X-0.225000X-0.250000X0.225000X-0.250000X0.225000X0.250000X-0.225000X0.250000X0*%
%ADD20RoundRect,0.150000X0.825000X0.150000X-0.825000X0.150000X-0.825000X-0.150000X0.825000X-0.150000X0*%
%ADD21R,1.500000X0.900000*%
%ADD22R,0.900000X1.500000*%
%ADD23C,0.600000*%
%ADD24R,3.900000X3.900000*%
%ADD25R,3.960000X1.980000*%
%ADD26O,3.960000X1.980000*%
%ADD27R,0.900000X1.700000*%
%ADD28RoundRect,0.200000X-0.200000X-0.275000X0.200000X-0.275000X0.200000X0.275000X-0.200000X0.275000X0*%
%ADD29RoundRect,0.140000X-0.170000X0.140000X-0.170000X-0.140000X0.170000X-0.140000X0.170000X0.140000X0*%
%ADD30RoundRect,0.250000X0.450000X0.425000X-0.450000X0.425000X-0.450000X-0.425000X0.450000X-0.425000X0*%
%ADD31RoundRect,0.250000X-0.850000X-0.350000X0.850000X-0.350000X0.850000X0.350000X-0.850000X0.350000X0*%
%ADD32RoundRect,0.249997X-2.950003X-2.650003X2.950003X-2.650003X2.950003X2.650003X-2.950003X2.650003X0*%
%ADD33RoundRect,0.062500X-0.337500X-0.062500X0.337500X-0.062500X0.337500X0.062500X-0.337500X0.062500X0*%
%ADD34RoundRect,0.062500X-0.062500X-0.337500X0.062500X-0.337500X0.062500X0.337500X-0.062500X0.337500X0*%
%ADD35R,3.350000X3.350000*%
%ADD36RoundRect,0.100000X0.100000X-0.225000X0.100000X0.225000X-0.100000X0.225000X-0.100000X-0.225000X0*%
%ADD37RoundRect,0.200000X-0.275000X0.200000X-0.275000X-0.200000X0.275000X-0.200000X0.275000X0.200000X0*%
G04 APERTURE END LIST*
D10*
%TO.C,C6*%
X124230000Y-57500000D03*
X123270000Y-57500000D03*
%TD*%
D11*
%TO.C,J1*%
X123250000Y-90725000D03*
X123250000Y-85725000D03*
D12*
X122150000Y-89525000D03*
X122150000Y-88875000D03*
X122150000Y-88225000D03*
X122150000Y-87575000D03*
X122150000Y-86925000D03*
D13*
X126000000Y-92100000D03*
D14*
X122200000Y-91950000D03*
X122200000Y-84500000D03*
D13*
X126000000Y-84350000D03*
%TD*%
D15*
%TO.C,D2*%
X115180000Y-73500000D03*
X116500000Y-73500000D03*
%TD*%
D16*
%TO.C,R2*%
X122000000Y-79325000D03*
X122000000Y-77675000D03*
%TD*%
D17*
%TO.C,R10*%
X92650000Y-53000000D03*
X91000000Y-53000000D03*
%TD*%
D18*
%TO.C,D6*%
X110120000Y-82500000D03*
X108545000Y-82500000D03*
%TD*%
D19*
%TO.C,C5*%
X106225000Y-59000000D03*
X107775000Y-59000000D03*
%TD*%
D15*
%TO.C,D3*%
X115180000Y-72000000D03*
X116500000Y-72000000D03*
%TD*%
D20*
%TO.C,U3*%
X97475000Y-49405000D03*
X97475000Y-48135000D03*
X97475000Y-46865000D03*
X97475000Y-45595000D03*
X92525000Y-45595000D03*
X92525000Y-46865000D03*
X92525000Y-48135000D03*
X92525000Y-49405000D03*
%TD*%
D19*
%TO.C,C2*%
X124950000Y-81000000D03*
X126500000Y-81000000D03*
%TD*%
D21*
%TO.C,U2*%
X106250000Y-37390000D03*
X106250000Y-38660000D03*
X106250000Y-39930000D03*
X106250000Y-41200000D03*
X106250000Y-42470000D03*
X106250000Y-43740000D03*
X106250000Y-45010000D03*
X106250000Y-46280000D03*
X106250000Y-47550000D03*
X106250000Y-48820000D03*
X106250000Y-50090000D03*
X106250000Y-51360000D03*
X106250000Y-52630000D03*
X106250000Y-53900000D03*
D22*
X108015000Y-55150000D03*
X109285000Y-55150000D03*
X110555000Y-55150000D03*
X111825000Y-55150000D03*
X113095000Y-55150000D03*
X114365000Y-55150000D03*
X115635000Y-55150000D03*
X116905000Y-55150000D03*
X118175000Y-55150000D03*
X119445000Y-55150000D03*
X120715000Y-55150000D03*
X121985000Y-55150000D03*
D21*
X123750000Y-53900000D03*
X123750000Y-52630000D03*
X123750000Y-51360000D03*
X123750000Y-50090000D03*
X123750000Y-48820000D03*
X123750000Y-47550000D03*
X123750000Y-46280000D03*
X123750000Y-45010000D03*
X123750000Y-43740000D03*
X123750000Y-42470000D03*
X123750000Y-41200000D03*
X123750000Y-39930000D03*
X123750000Y-38660000D03*
X123750000Y-37390000D03*
D23*
X112100000Y-44410000D03*
X112100000Y-45810000D03*
X112800000Y-43710000D03*
X112800000Y-45110000D03*
X112800000Y-46510000D03*
X113500000Y-44410000D03*
D24*
X113500000Y-45110000D03*
D23*
X113500000Y-45810000D03*
X114200000Y-43710000D03*
X114200000Y-45110000D03*
X114200000Y-46510000D03*
X114900000Y-44410000D03*
X114900000Y-45810000D03*
%TD*%
D18*
%TO.C,D5*%
X115325000Y-58500000D03*
X113750000Y-58500000D03*
%TD*%
D25*
%TO.C,J3*%
X92000000Y-82235000D03*
D26*
X92000000Y-87235000D03*
%TD*%
D27*
%TO.C,SW2*%
X120100000Y-60000000D03*
X123500000Y-60000000D03*
%TD*%
%TO.C,SW1*%
X109500000Y-61500000D03*
X106100000Y-61500000D03*
%TD*%
D28*
%TO.C,R12*%
X113675000Y-57000000D03*
X115325000Y-57000000D03*
%TD*%
%TO.C,R15*%
X108470000Y-80500000D03*
X110120000Y-80500000D03*
%TD*%
D29*
%TO.C,C1*%
X118000000Y-78980000D03*
X118000000Y-78020000D03*
%TD*%
D17*
%TO.C,R9*%
X89000000Y-53000000D03*
X87350000Y-53000000D03*
%TD*%
D15*
%TO.C,D1*%
X120180000Y-81000000D03*
X121500000Y-81000000D03*
%TD*%
D28*
%TO.C,R14*%
X120675000Y-62750000D03*
X122325000Y-62750000D03*
%TD*%
D17*
%TO.C,R6*%
X99825000Y-40000000D03*
X98175000Y-40000000D03*
%TD*%
D30*
%TO.C,C7*%
X98090000Y-76000000D03*
X95390000Y-76000000D03*
%TD*%
D17*
%TO.C,R8*%
X102500000Y-48000000D03*
X100850000Y-48000000D03*
%TD*%
D25*
%TO.C,J2*%
X92000000Y-60500000D03*
D26*
X92000000Y-65500000D03*
%TD*%
D16*
%TO.C,R1*%
X119500000Y-79325000D03*
X119500000Y-77675000D03*
%TD*%
D31*
%TO.C,U4*%
X102200000Y-71245000D03*
X102200000Y-73525000D03*
D32*
X108500000Y-73525000D03*
D31*
X102200000Y-75805000D03*
%TD*%
D33*
%TO.C,U1*%
X121670000Y-72000000D03*
X121670000Y-72500000D03*
X121670000Y-73000000D03*
X121670000Y-73500000D03*
X121670000Y-74000000D03*
X121670000Y-74500000D03*
X121670000Y-75000000D03*
D34*
X122620000Y-75950000D03*
X123120000Y-75950000D03*
X123620000Y-75950000D03*
X124120000Y-75950000D03*
X124620000Y-75950000D03*
X125120000Y-75950000D03*
X125620000Y-75950000D03*
D33*
X126570000Y-75000000D03*
X126570000Y-74500000D03*
X126570000Y-74000000D03*
X126570000Y-73500000D03*
X126570000Y-73000000D03*
X126570000Y-72500000D03*
X126570000Y-72000000D03*
D34*
X125620000Y-71050000D03*
X125120000Y-71050000D03*
X124620000Y-71050000D03*
X124120000Y-71050000D03*
X123620000Y-71050000D03*
X123120000Y-71050000D03*
X122620000Y-71050000D03*
D35*
X124120000Y-73500000D03*
%TD*%
D30*
%TO.C,C8*%
X98090000Y-73500000D03*
X95390000Y-73500000D03*
%TD*%
D17*
%TO.C,R11*%
X89325000Y-56000000D03*
X87675000Y-56000000D03*
%TD*%
%TO.C,R5*%
X102500000Y-46000000D03*
X100850000Y-46000000D03*
%TD*%
D16*
%TO.C,R4*%
X125570000Y-79150000D03*
X125570000Y-77500000D03*
%TD*%
D17*
%TO.C,R13*%
X108000000Y-64500000D03*
X106350000Y-64500000D03*
%TD*%
D36*
%TO.C,Q1*%
X113850000Y-62950000D03*
X114500000Y-62950000D03*
X115150000Y-62950000D03*
X115150000Y-61050000D03*
X114500000Y-61050000D03*
X113850000Y-61050000D03*
%TD*%
D37*
%TO.C,R3*%
X123570000Y-77500000D03*
X123570000Y-79150000D03*
%TD*%
M02*
