%TF.GenerationSoftware,KiCad,Pcbnew,8.0.7*%
%TF.CreationDate,2025-02-14T15:53:52+00:00*%
%TF.ProjectId,FYP_Motor_R2,4659505f-4d6f-4746-9f72-5f52322e6b69,rev?*%
%TF.SameCoordinates,Original*%
%TF.FileFunction,Copper,L2,Bot*%
%TF.FilePolarity,Positive*%
%FSLAX46Y46*%
G04 Gerber Fmt 4.6, Leading zero omitted, Abs format (unit mm)*
G04 Created by KiCad (PCBNEW 8.0.7) date 2025-02-14 15:53:52*
%MOMM*%
%LPD*%
G01*
G04 APERTURE LIST*
%TA.AperFunction,ComponentPad*%
%ADD10O,1.800000X1.150000*%
%TD*%
%TA.AperFunction,ComponentPad*%
%ADD11O,2.000000X1.450000*%
%TD*%
%TA.AperFunction,HeatsinkPad*%
%ADD12C,0.600000*%
%TD*%
%TA.AperFunction,ComponentPad*%
%ADD13R,3.960000X1.980000*%
%TD*%
%TA.AperFunction,ComponentPad*%
%ADD14O,3.960000X1.980000*%
%TD*%
%TA.AperFunction,ViaPad*%
%ADD15C,0.600000*%
%TD*%
%TA.AperFunction,Conductor*%
%ADD16C,0.300000*%
%TD*%
%TA.AperFunction,Conductor*%
%ADD17C,0.500000*%
%TD*%
G04 APERTURE END LIST*
D10*
%TO.P,J1,6,Shield*%
%TO.N,unconnected-(J1-Shield-Pad6)*%
X126000000Y-92100000D03*
D11*
%TO.N,unconnected-(J1-Shield-Pad6)_3*%
X122200000Y-91950000D03*
%TO.N,unconnected-(J1-Shield-Pad6)_1*%
X122200000Y-84500000D03*
D10*
%TO.N,unconnected-(J1-Shield-Pad6)_2*%
X126000000Y-84350000D03*
%TD*%
D12*
%TO.P,U2,41,GND*%
%TO.N,GND*%
X112100000Y-44410000D03*
X112100000Y-45810000D03*
X112800000Y-43710000D03*
X112800000Y-45110000D03*
X112800000Y-46510000D03*
X113500000Y-44410000D03*
X113500000Y-45810000D03*
X114200000Y-43710000D03*
X114200000Y-45110000D03*
X114200000Y-46510000D03*
X114900000Y-44410000D03*
X114900000Y-45810000D03*
%TD*%
D13*
%TO.P,J3,1,Pin_1*%
%TO.N,5V*%
X92000000Y-82235000D03*
D14*
%TO.P,J3,2,Pin_2*%
%TO.N,GND*%
X92000000Y-87235000D03*
%TD*%
D13*
%TO.P,J2,1,Pin_1*%
%TO.N,Net-(J2-Pin_1)*%
X92000000Y-60500000D03*
D14*
%TO.P,J2,2,Pin_2*%
%TO.N,Net-(J2-Pin_2)*%
X92000000Y-65500000D03*
%TD*%
D15*
%TO.N,GND*%
X122200000Y-57900000D03*
X122200000Y-57200000D03*
X116600000Y-59000000D03*
X116600000Y-58000000D03*
X118800000Y-59600000D03*
X118800000Y-60700000D03*
X124120000Y-73500000D03*
X110750000Y-62750000D03*
X98500000Y-71750000D03*
X108000000Y-38250000D03*
X91750000Y-75000000D03*
X111500000Y-83500000D03*
X96750000Y-70500000D03*
X119000000Y-81500000D03*
X86750000Y-87750000D03*
X94250000Y-72000000D03*
X127000000Y-78750000D03*
X91750000Y-76000000D03*
X118000000Y-80500000D03*
X88750000Y-73000000D03*
X94000000Y-53000000D03*
X118500000Y-81000000D03*
X91750000Y-74000000D03*
X90500000Y-45500000D03*
X87000000Y-74750000D03*
X121250000Y-86000000D03*
X100000000Y-70500000D03*
X122000000Y-38000000D03*
X117500000Y-80000000D03*
X94250000Y-70500000D03*
X88250000Y-87750000D03*
X120250000Y-72500000D03*
X87000000Y-73000000D03*
X115500000Y-75000000D03*
X127000000Y-79500000D03*
X86750000Y-86500000D03*
X91750000Y-73000000D03*
%TO.N,EN*%
X104250000Y-50750000D03*
X104250000Y-40750000D03*
%TO.N,RTS*%
X126500000Y-69000000D03*
X119500000Y-67000000D03*
%TO.N,+3V3*%
X109500000Y-50500000D03*
X118000000Y-62750000D03*
X100500000Y-54257684D03*
X111500000Y-66750000D03*
%TD*%
D16*
%TO.N,EN*%
X104250000Y-50750000D02*
X104250000Y-40750000D01*
%TO.N,RTS*%
X126500000Y-69000000D02*
X124120000Y-69000000D01*
X122120000Y-67000000D02*
X119500000Y-67000000D01*
X124120000Y-69000000D02*
X122120000Y-67000000D01*
D17*
%TO.N,+3V3*%
X117000000Y-62750000D02*
X113000000Y-66750000D01*
X105742316Y-54257684D02*
X100500000Y-54257684D01*
X109500000Y-50500000D02*
X105742316Y-54257684D01*
X118000000Y-62750000D02*
X117000000Y-62750000D01*
X113000000Y-66750000D02*
X111500000Y-66750000D01*
%TD*%
%TA.AperFunction,Conductor*%
%TO.N,GND*%
G36*
X127376578Y-36373822D02*
G01*
X127443440Y-36394085D01*
X127488736Y-36447283D01*
X127499500Y-36497816D01*
X127499500Y-68702885D01*
X127479815Y-68769924D01*
X127427011Y-68815679D01*
X127357853Y-68825623D01*
X127294297Y-68796598D01*
X127258459Y-68743840D01*
X127225790Y-68650480D01*
X127129815Y-68497737D01*
X127002262Y-68370184D01*
X126849523Y-68274211D01*
X126679254Y-68214631D01*
X126679249Y-68214630D01*
X126500004Y-68194435D01*
X126499996Y-68194435D01*
X126320750Y-68214630D01*
X126320737Y-68214633D01*
X126150481Y-68274209D01*
X126150477Y-68274210D01*
X126060904Y-68330494D01*
X125994932Y-68349500D01*
X124440807Y-68349500D01*
X124373768Y-68329815D01*
X124353126Y-68313181D01*
X122534674Y-66494727D01*
X122534673Y-66494726D01*
X122499148Y-66470989D01*
X122428127Y-66423535D01*
X122309744Y-66374499D01*
X122309738Y-66374497D01*
X122184071Y-66349500D01*
X122184069Y-66349500D01*
X120005068Y-66349500D01*
X119939096Y-66330494D01*
X119849522Y-66274210D01*
X119849518Y-66274209D01*
X119679262Y-66214633D01*
X119679249Y-66214630D01*
X119500004Y-66194435D01*
X119499996Y-66194435D01*
X119320750Y-66214630D01*
X119320745Y-66214631D01*
X119150476Y-66274211D01*
X118997737Y-66370184D01*
X118870184Y-66497737D01*
X118774211Y-66650476D01*
X118714631Y-66820745D01*
X118714630Y-66820750D01*
X118694435Y-66999996D01*
X118694435Y-67000003D01*
X118714630Y-67179249D01*
X118714631Y-67179254D01*
X118774211Y-67349523D01*
X118815406Y-67415084D01*
X118870184Y-67502262D01*
X118997738Y-67629816D01*
X119150478Y-67725789D01*
X119320739Y-67785366D01*
X119320745Y-67785368D01*
X119320750Y-67785369D01*
X119499996Y-67805565D01*
X119500000Y-67805565D01*
X119500004Y-67805565D01*
X119679249Y-67785369D01*
X119679251Y-67785368D01*
X119679255Y-67785368D01*
X119679258Y-67785366D01*
X119679262Y-67785366D01*
X119769377Y-67753832D01*
X119849522Y-67725789D01*
X119939096Y-67669505D01*
X120005068Y-67650500D01*
X121799192Y-67650500D01*
X121866231Y-67670185D01*
X121886873Y-67686819D01*
X123614724Y-69414669D01*
X123702317Y-69502262D01*
X123705332Y-69505277D01*
X123811866Y-69576461D01*
X123811872Y-69576464D01*
X123811873Y-69576465D01*
X123930256Y-69625501D01*
X123930260Y-69625501D01*
X123930261Y-69625502D01*
X124055928Y-69650500D01*
X124055931Y-69650500D01*
X125994932Y-69650500D01*
X126060904Y-69669506D01*
X126150477Y-69725789D01*
X126150481Y-69725790D01*
X126320737Y-69785366D01*
X126320743Y-69785367D01*
X126320745Y-69785368D01*
X126320746Y-69785368D01*
X126320750Y-69785369D01*
X126499996Y-69805565D01*
X126500000Y-69805565D01*
X126500004Y-69805565D01*
X126679249Y-69785369D01*
X126679252Y-69785368D01*
X126679255Y-69785368D01*
X126849522Y-69725789D01*
X127002262Y-69629816D01*
X127129816Y-69502262D01*
X127225789Y-69349522D01*
X127258458Y-69256160D01*
X127299180Y-69199383D01*
X127364133Y-69173636D01*
X127432694Y-69187092D01*
X127483097Y-69235479D01*
X127499500Y-69297114D01*
X127499500Y-83769596D01*
X127479815Y-83836635D01*
X127427011Y-83882390D01*
X127357853Y-83892334D01*
X127294297Y-83863309D01*
X127265015Y-83825891D01*
X127244850Y-83786315D01*
X127232137Y-83768817D01*
X127145351Y-83649365D01*
X127145347Y-83649360D01*
X127025639Y-83529652D01*
X127025634Y-83529648D01*
X126888688Y-83430152D01*
X126888687Y-83430151D01*
X126888685Y-83430150D01*
X126841582Y-83406150D01*
X126737853Y-83353296D01*
X126576847Y-83300981D01*
X126409649Y-83274500D01*
X126409644Y-83274500D01*
X125590356Y-83274500D01*
X125590351Y-83274500D01*
X125423152Y-83300981D01*
X125262146Y-83353296D01*
X125111311Y-83430152D01*
X124974365Y-83529648D01*
X124974360Y-83529652D01*
X124854652Y-83649360D01*
X124854648Y-83649365D01*
X124755152Y-83786311D01*
X124678296Y-83937146D01*
X124625981Y-84098152D01*
X124599500Y-84265350D01*
X124599500Y-84434649D01*
X124625981Y-84601847D01*
X124678296Y-84762853D01*
X124755152Y-84913688D01*
X124854648Y-85050634D01*
X124854652Y-85050639D01*
X124974360Y-85170347D01*
X124974365Y-85170351D01*
X125093817Y-85257137D01*
X125111315Y-85269850D01*
X125207425Y-85318820D01*
X125262146Y-85346703D01*
X125262148Y-85346703D01*
X125262151Y-85346705D01*
X125348450Y-85374745D01*
X125423152Y-85399018D01*
X125590351Y-85425500D01*
X125590356Y-85425500D01*
X126409649Y-85425500D01*
X126576847Y-85399018D01*
X126737849Y-85346705D01*
X126888685Y-85269850D01*
X127025641Y-85170346D01*
X127145346Y-85050641D01*
X127244850Y-84913685D01*
X127265015Y-84874108D01*
X127312989Y-84823313D01*
X127380810Y-84806517D01*
X127446945Y-84829054D01*
X127490397Y-84883769D01*
X127499500Y-84930403D01*
X127499500Y-91519596D01*
X127479815Y-91586635D01*
X127427011Y-91632390D01*
X127357853Y-91642334D01*
X127294297Y-91613309D01*
X127265015Y-91575891D01*
X127263760Y-91573428D01*
X127244850Y-91536315D01*
X127203621Y-91479568D01*
X127145351Y-91399365D01*
X127145347Y-91399360D01*
X127025639Y-91279652D01*
X127025634Y-91279648D01*
X126888688Y-91180152D01*
X126888687Y-91180151D01*
X126888685Y-91180150D01*
X126832727Y-91151638D01*
X126737853Y-91103296D01*
X126576847Y-91050981D01*
X126409649Y-91024500D01*
X126409644Y-91024500D01*
X125590356Y-91024500D01*
X125590351Y-91024500D01*
X125423152Y-91050981D01*
X125262146Y-91103296D01*
X125111311Y-91180152D01*
X124974365Y-91279648D01*
X124974360Y-91279652D01*
X124854652Y-91399360D01*
X124854648Y-91399365D01*
X124755152Y-91536311D01*
X124678296Y-91687146D01*
X124625981Y-91848152D01*
X124599500Y-92015350D01*
X124599500Y-92184649D01*
X124625981Y-92351847D01*
X124678296Y-92512853D01*
X124755152Y-92663688D01*
X124854648Y-92800634D01*
X124854652Y-92800639D01*
X124974360Y-92920347D01*
X124974365Y-92920351D01*
X125075607Y-92993907D01*
X125111315Y-93019850D01*
X125207425Y-93068820D01*
X125262146Y-93096703D01*
X125262148Y-93096703D01*
X125262151Y-93096705D01*
X125348450Y-93124745D01*
X125423152Y-93149018D01*
X125590351Y-93175500D01*
X125590356Y-93175500D01*
X126409649Y-93175500D01*
X126576847Y-93149018D01*
X126622870Y-93134064D01*
X126737849Y-93096705D01*
X126888685Y-93019850D01*
X127025641Y-92920346D01*
X127145346Y-92800641D01*
X127244850Y-92663685D01*
X127265015Y-92624108D01*
X127312989Y-92573313D01*
X127380810Y-92556517D01*
X127446945Y-92579054D01*
X127490397Y-92633769D01*
X127499500Y-92680403D01*
X127499500Y-92993907D01*
X127498903Y-93006061D01*
X127486296Y-93134064D01*
X127481554Y-93157906D01*
X127445993Y-93275134D01*
X127436690Y-93297592D01*
X127378942Y-93405630D01*
X127365438Y-93425840D01*
X127287725Y-93520535D01*
X127270535Y-93537725D01*
X127175840Y-93615438D01*
X127155630Y-93628942D01*
X127047592Y-93686690D01*
X127025134Y-93695993D01*
X126907906Y-93731554D01*
X126884064Y-93736296D01*
X126756062Y-93748903D01*
X126743908Y-93749500D01*
X86756092Y-93749500D01*
X86743938Y-93748903D01*
X86615935Y-93736296D01*
X86592095Y-93731554D01*
X86474864Y-93695992D01*
X86452407Y-93686690D01*
X86344369Y-93628942D01*
X86324159Y-93615438D01*
X86229464Y-93537725D01*
X86212274Y-93520535D01*
X86134561Y-93425840D01*
X86121057Y-93405630D01*
X86063308Y-93297589D01*
X86054008Y-93275140D01*
X86018443Y-93157897D01*
X86013704Y-93134069D01*
X86001097Y-93006060D01*
X86000500Y-92993907D01*
X86000500Y-91853551D01*
X120699500Y-91853551D01*
X120699500Y-92046448D01*
X120729675Y-92236969D01*
X120729676Y-92236972D01*
X120789285Y-92420429D01*
X120876859Y-92592302D01*
X120990241Y-92748359D01*
X121126641Y-92884759D01*
X121282698Y-92998141D01*
X121454571Y-93085715D01*
X121638028Y-93145324D01*
X121828551Y-93175500D01*
X121828552Y-93175500D01*
X122571448Y-93175500D01*
X122571449Y-93175500D01*
X122761972Y-93145324D01*
X122945429Y-93085715D01*
X123117302Y-92998141D01*
X123273359Y-92884759D01*
X123409759Y-92748359D01*
X123523141Y-92592302D01*
X123610715Y-92420429D01*
X123670324Y-92236972D01*
X123700500Y-92046449D01*
X123700500Y-91853551D01*
X123670324Y-91663028D01*
X123663902Y-91643266D01*
X123661908Y-91573428D01*
X123697988Y-91513595D01*
X123708941Y-91504637D01*
X123855871Y-91397888D01*
X123982533Y-91257216D01*
X124077179Y-91093284D01*
X124135674Y-90913256D01*
X124155460Y-90725000D01*
X124135674Y-90536744D01*
X124077179Y-90356716D01*
X123982533Y-90192784D01*
X123855871Y-90052112D01*
X123855870Y-90052111D01*
X123702734Y-89940851D01*
X123702729Y-89940848D01*
X123529807Y-89863857D01*
X123529802Y-89863855D01*
X123384001Y-89832865D01*
X123344646Y-89824500D01*
X123155354Y-89824500D01*
X123122897Y-89831398D01*
X122970197Y-89863855D01*
X122970192Y-89863857D01*
X122797270Y-89940848D01*
X122797265Y-89940851D01*
X122644129Y-90052111D01*
X122517466Y-90192785D01*
X122422821Y-90356715D01*
X122422818Y-90356722D01*
X122364325Y-90536745D01*
X122356263Y-90613461D01*
X122329679Y-90678075D01*
X122272382Y-90718061D01*
X122232942Y-90724500D01*
X121828551Y-90724500D01*
X121792697Y-90730178D01*
X121638030Y-90754675D01*
X121454568Y-90814286D01*
X121282697Y-90901859D01*
X121193661Y-90966547D01*
X121126641Y-91015241D01*
X121126639Y-91015243D01*
X121126638Y-91015243D01*
X120990243Y-91151638D01*
X120990243Y-91151639D01*
X120990241Y-91151641D01*
X120969528Y-91180150D01*
X120876859Y-91307697D01*
X120789286Y-91479568D01*
X120729675Y-91663030D01*
X120699500Y-91853551D01*
X86000500Y-91853551D01*
X86000500Y-86985000D01*
X89541023Y-86985000D01*
X91389175Y-86985000D01*
X91365364Y-87042485D01*
X91340000Y-87169996D01*
X91340000Y-87300004D01*
X91365364Y-87427515D01*
X91389175Y-87485000D01*
X89541023Y-87485000D01*
X89556688Y-87583905D01*
X89556688Y-87583906D01*
X89629164Y-87806963D01*
X89735638Y-88015930D01*
X89873494Y-88205672D01*
X90039327Y-88371505D01*
X90229069Y-88509361D01*
X90438034Y-88615835D01*
X90661090Y-88688310D01*
X90892735Y-88725000D01*
X91750000Y-88725000D01*
X91750000Y-87845824D01*
X91807485Y-87869636D01*
X91934996Y-87895000D01*
X92065004Y-87895000D01*
X92192515Y-87869636D01*
X92250000Y-87845824D01*
X92250000Y-88725000D01*
X93107265Y-88725000D01*
X93338909Y-88688310D01*
X93561965Y-88615835D01*
X93770930Y-88509361D01*
X93960672Y-88371505D01*
X94126505Y-88205672D01*
X94264361Y-88015930D01*
X94370835Y-87806963D01*
X94443311Y-87583906D01*
X94443311Y-87583905D01*
X94458977Y-87485000D01*
X92610825Y-87485000D01*
X92634636Y-87427515D01*
X92660000Y-87300004D01*
X92660000Y-87169996D01*
X92634636Y-87042485D01*
X92610825Y-86985000D01*
X94458977Y-86985000D01*
X94443311Y-86886094D01*
X94443311Y-86886093D01*
X94370835Y-86663036D01*
X94264361Y-86454069D01*
X94126505Y-86264327D01*
X93960672Y-86098494D01*
X93770930Y-85960638D01*
X93561965Y-85854164D01*
X93338909Y-85781689D01*
X93107265Y-85745000D01*
X92250000Y-85745000D01*
X92250000Y-86624175D01*
X92192515Y-86600364D01*
X92065004Y-86575000D01*
X91934996Y-86575000D01*
X91807485Y-86600364D01*
X91750000Y-86624175D01*
X91750000Y-85745000D01*
X90892735Y-85745000D01*
X90661090Y-85781689D01*
X90438034Y-85854164D01*
X90229069Y-85960638D01*
X90039327Y-86098494D01*
X89873494Y-86264327D01*
X89735638Y-86454069D01*
X89629164Y-86663036D01*
X89556688Y-86886093D01*
X89556688Y-86886094D01*
X89541023Y-86985000D01*
X86000500Y-86985000D01*
X86000500Y-84403551D01*
X120699500Y-84403551D01*
X120699500Y-84596448D01*
X120729675Y-84786969D01*
X120729676Y-84786972D01*
X120789285Y-84970429D01*
X120876859Y-85142302D01*
X120990241Y-85298359D01*
X121126641Y-85434759D01*
X121282698Y-85548141D01*
X121454571Y-85635715D01*
X121638028Y-85695324D01*
X121828551Y-85725500D01*
X122232942Y-85725500D01*
X122299981Y-85745185D01*
X122345736Y-85797989D01*
X122356263Y-85836539D01*
X122364325Y-85913254D01*
X122422818Y-86093277D01*
X122422821Y-86093284D01*
X122517467Y-86257216D01*
X122644129Y-86397888D01*
X122797265Y-86509148D01*
X122797270Y-86509151D01*
X122970192Y-86586142D01*
X122970197Y-86586144D01*
X123155354Y-86625500D01*
X123155355Y-86625500D01*
X123344644Y-86625500D01*
X123344646Y-86625500D01*
X123529803Y-86586144D01*
X123702730Y-86509151D01*
X123855871Y-86397888D01*
X123982533Y-86257216D01*
X124077179Y-86093284D01*
X124135674Y-85913256D01*
X124155460Y-85725000D01*
X124135674Y-85536744D01*
X124077179Y-85356716D01*
X123982533Y-85192784D01*
X123855871Y-85052112D01*
X123855870Y-85052111D01*
X123708949Y-84945367D01*
X123666283Y-84890037D01*
X123660304Y-84820424D01*
X123663900Y-84806739D01*
X123670324Y-84786972D01*
X123700500Y-84596449D01*
X123700500Y-84403551D01*
X123670324Y-84213028D01*
X123610715Y-84029571D01*
X123523141Y-83857698D01*
X123409759Y-83701641D01*
X123273359Y-83565241D01*
X123117302Y-83451859D01*
X122945429Y-83364285D01*
X122761972Y-83304676D01*
X122761970Y-83304675D01*
X122761969Y-83304675D01*
X122615614Y-83281495D01*
X122571449Y-83274500D01*
X121828551Y-83274500D01*
X121792697Y-83280178D01*
X121638030Y-83304675D01*
X121454568Y-83364286D01*
X121282697Y-83451859D01*
X121193661Y-83516547D01*
X121126641Y-83565241D01*
X121126639Y-83565243D01*
X121126638Y-83565243D01*
X120990243Y-83701638D01*
X120990243Y-83701639D01*
X120990241Y-83701641D01*
X120941547Y-83768661D01*
X120876859Y-83857697D01*
X120789286Y-84029568D01*
X120729675Y-84213030D01*
X120699500Y-84403551D01*
X86000500Y-84403551D01*
X86000500Y-81197135D01*
X89519500Y-81197135D01*
X89519500Y-83272870D01*
X89519501Y-83272876D01*
X89525908Y-83332483D01*
X89576202Y-83467328D01*
X89576206Y-83467335D01*
X89662452Y-83582544D01*
X89662455Y-83582547D01*
X89777664Y-83668793D01*
X89777671Y-83668797D01*
X89912517Y-83719091D01*
X89912516Y-83719091D01*
X89919444Y-83719835D01*
X89972127Y-83725500D01*
X94027872Y-83725499D01*
X94087483Y-83719091D01*
X94222331Y-83668796D01*
X94337546Y-83582546D01*
X94423796Y-83467331D01*
X94474091Y-83332483D01*
X94480500Y-83272873D01*
X94480499Y-81197128D01*
X94474091Y-81137517D01*
X94423796Y-81002669D01*
X94423795Y-81002668D01*
X94423793Y-81002664D01*
X94337547Y-80887455D01*
X94337544Y-80887452D01*
X94222335Y-80801206D01*
X94222328Y-80801202D01*
X94087482Y-80750908D01*
X94087483Y-80750908D01*
X94027883Y-80744501D01*
X94027881Y-80744500D01*
X94027873Y-80744500D01*
X94027864Y-80744500D01*
X89972129Y-80744500D01*
X89972123Y-80744501D01*
X89912516Y-80750908D01*
X89777671Y-80801202D01*
X89777664Y-80801206D01*
X89662455Y-80887452D01*
X89662452Y-80887455D01*
X89576206Y-81002664D01*
X89576202Y-81002671D01*
X89525908Y-81137517D01*
X89519501Y-81197116D01*
X89519501Y-81197123D01*
X89519500Y-81197135D01*
X86000500Y-81197135D01*
X86000500Y-65382695D01*
X89519500Y-65382695D01*
X89519500Y-65617304D01*
X89556201Y-65849027D01*
X89628697Y-66072150D01*
X89628699Y-66072153D01*
X89731652Y-66274210D01*
X89735212Y-66281195D01*
X89873104Y-66470989D01*
X89873108Y-66470994D01*
X90039005Y-66636891D01*
X90039010Y-66636895D01*
X90057706Y-66650478D01*
X90228808Y-66774790D01*
X90437847Y-66881301D01*
X90437849Y-66881302D01*
X90549410Y-66917550D01*
X90660974Y-66953799D01*
X90892695Y-66990500D01*
X90892696Y-66990500D01*
X93107304Y-66990500D01*
X93107305Y-66990500D01*
X93339026Y-66953799D01*
X93562153Y-66881301D01*
X93771192Y-66774790D01*
X93805318Y-66749996D01*
X110694435Y-66749996D01*
X110694435Y-66750003D01*
X110714630Y-66929249D01*
X110714631Y-66929254D01*
X110774211Y-67099523D01*
X110870184Y-67252262D01*
X110997738Y-67379816D01*
X111088080Y-67436582D01*
X111143903Y-67471658D01*
X111150478Y-67475789D01*
X111240983Y-67507458D01*
X111320745Y-67535368D01*
X111320750Y-67535369D01*
X111499996Y-67555565D01*
X111500000Y-67555565D01*
X111500004Y-67555565D01*
X111679249Y-67535369D01*
X111679252Y-67535368D01*
X111679255Y-67535368D01*
X111759017Y-67507457D01*
X111799972Y-67500500D01*
X113073920Y-67500500D01*
X113171462Y-67481096D01*
X113218913Y-67471658D01*
X113355495Y-67415084D01*
X113408277Y-67379816D01*
X113478416Y-67332952D01*
X117274548Y-63536818D01*
X117335871Y-63503334D01*
X117362229Y-63500500D01*
X117700028Y-63500500D01*
X117740983Y-63507458D01*
X117820745Y-63535368D01*
X117820750Y-63535369D01*
X117999996Y-63555565D01*
X118000000Y-63555565D01*
X118000004Y-63555565D01*
X118179249Y-63535369D01*
X118179252Y-63535368D01*
X118179255Y-63535368D01*
X118349522Y-63475789D01*
X118502262Y-63379816D01*
X118629816Y-63252262D01*
X118725789Y-63099522D01*
X118785368Y-62929255D01*
X118805565Y-62750000D01*
X118785368Y-62570745D01*
X118725789Y-62400478D01*
X118629816Y-62247738D01*
X118502262Y-62120184D01*
X118446138Y-62084919D01*
X118349523Y-62024211D01*
X118179254Y-61964631D01*
X118179249Y-61964630D01*
X118000004Y-61944435D01*
X117999996Y-61944435D01*
X117820750Y-61964630D01*
X117820745Y-61964631D01*
X117740983Y-61992542D01*
X117700028Y-61999500D01*
X116926080Y-61999500D01*
X116781092Y-62028340D01*
X116781082Y-62028343D01*
X116644511Y-62084912D01*
X116644498Y-62084919D01*
X116521584Y-62167048D01*
X116521580Y-62167051D01*
X112725451Y-65963181D01*
X112664128Y-65996666D01*
X112637770Y-65999500D01*
X111799972Y-65999500D01*
X111759017Y-65992542D01*
X111679254Y-65964631D01*
X111679249Y-65964630D01*
X111500004Y-65944435D01*
X111499996Y-65944435D01*
X111320750Y-65964630D01*
X111320745Y-65964631D01*
X111150476Y-66024211D01*
X110997737Y-66120184D01*
X110870184Y-66247737D01*
X110774211Y-66400476D01*
X110714631Y-66570745D01*
X110714630Y-66570750D01*
X110694435Y-66749996D01*
X93805318Y-66749996D01*
X93960996Y-66636890D01*
X94126890Y-66470996D01*
X94264790Y-66281192D01*
X94371301Y-66072153D01*
X94443799Y-65849026D01*
X94480500Y-65617305D01*
X94480500Y-65382695D01*
X94443799Y-65150974D01*
X94371301Y-64927847D01*
X94264790Y-64718808D01*
X94247171Y-64694558D01*
X94126895Y-64529010D01*
X94126891Y-64529005D01*
X93960994Y-64363108D01*
X93960989Y-64363104D01*
X93771195Y-64225212D01*
X93771194Y-64225211D01*
X93771192Y-64225210D01*
X93666672Y-64171954D01*
X93562150Y-64118697D01*
X93339027Y-64046201D01*
X93223165Y-64027850D01*
X93107305Y-64009500D01*
X90892695Y-64009500D01*
X90815454Y-64021733D01*
X90660972Y-64046201D01*
X90437849Y-64118697D01*
X90228804Y-64225212D01*
X90039010Y-64363104D01*
X90039005Y-64363108D01*
X89873108Y-64529005D01*
X89873104Y-64529010D01*
X89735212Y-64718804D01*
X89628697Y-64927849D01*
X89556201Y-65150972D01*
X89519500Y-65382695D01*
X86000500Y-65382695D01*
X86000500Y-59462135D01*
X89519500Y-59462135D01*
X89519500Y-61537870D01*
X89519501Y-61537876D01*
X89525908Y-61597483D01*
X89576202Y-61732328D01*
X89576206Y-61732335D01*
X89662452Y-61847544D01*
X89662455Y-61847547D01*
X89777664Y-61933793D01*
X89777671Y-61933797D01*
X89912517Y-61984091D01*
X89912516Y-61984091D01*
X89919444Y-61984835D01*
X89972127Y-61990500D01*
X94027872Y-61990499D01*
X94087483Y-61984091D01*
X94222331Y-61933796D01*
X94337546Y-61847546D01*
X94423796Y-61732331D01*
X94474091Y-61597483D01*
X94480500Y-61537873D01*
X94480499Y-59462128D01*
X94474091Y-59402517D01*
X94423796Y-59267669D01*
X94423795Y-59267668D01*
X94423793Y-59267664D01*
X94337547Y-59152455D01*
X94337544Y-59152452D01*
X94222335Y-59066206D01*
X94222328Y-59066202D01*
X94087482Y-59015908D01*
X94087483Y-59015908D01*
X94027883Y-59009501D01*
X94027881Y-59009500D01*
X94027873Y-59009500D01*
X94027864Y-59009500D01*
X89972129Y-59009500D01*
X89972123Y-59009501D01*
X89912516Y-59015908D01*
X89777671Y-59066202D01*
X89777664Y-59066206D01*
X89662455Y-59152452D01*
X89662452Y-59152455D01*
X89576206Y-59267664D01*
X89576202Y-59267671D01*
X89525908Y-59402517D01*
X89519501Y-59462116D01*
X89519501Y-59462123D01*
X89519500Y-59462135D01*
X86000500Y-59462135D01*
X86000500Y-54257680D01*
X99694435Y-54257680D01*
X99694435Y-54257687D01*
X99714630Y-54436933D01*
X99714631Y-54436938D01*
X99774211Y-54607207D01*
X99870184Y-54759946D01*
X99997738Y-54887500D01*
X100088080Y-54944266D01*
X100143903Y-54979342D01*
X100150478Y-54983473D01*
X100221098Y-55008184D01*
X100320745Y-55043052D01*
X100320750Y-55043053D01*
X100499996Y-55063249D01*
X100500000Y-55063249D01*
X100500004Y-55063249D01*
X100679249Y-55043053D01*
X100679252Y-55043052D01*
X100679255Y-55043052D01*
X100759017Y-55015141D01*
X100799972Y-55008184D01*
X105816236Y-55008184D01*
X105913778Y-54988780D01*
X105961229Y-54979342D01*
X106097811Y-54922768D01*
X106150593Y-54887500D01*
X106220732Y-54840636D01*
X109808059Y-51253306D01*
X109844132Y-51230657D01*
X109843244Y-51228813D01*
X109849515Y-51225792D01*
X109849516Y-51225790D01*
X109849522Y-51225789D01*
X110002262Y-51129816D01*
X110129816Y-51002262D01*
X110225789Y-50849522D01*
X110285368Y-50679255D01*
X110285369Y-50679249D01*
X110305565Y-50500003D01*
X110305565Y-50499996D01*
X110285369Y-50320750D01*
X110285368Y-50320745D01*
X110271340Y-50280656D01*
X110225789Y-50150478D01*
X110129816Y-49997738D01*
X110002262Y-49870184D01*
X109849523Y-49774211D01*
X109679254Y-49714631D01*
X109679249Y-49714630D01*
X109500004Y-49694435D01*
X109499996Y-49694435D01*
X109320750Y-49714630D01*
X109320745Y-49714631D01*
X109150476Y-49774211D01*
X108997737Y-49870184D01*
X108870184Y-49997737D01*
X108774208Y-50150483D01*
X108771186Y-50156758D01*
X108769361Y-50155878D01*
X108746692Y-50191939D01*
X105467767Y-53470865D01*
X105406444Y-53504350D01*
X105380086Y-53507184D01*
X100799972Y-53507184D01*
X100759017Y-53500226D01*
X100679254Y-53472315D01*
X100679249Y-53472314D01*
X100500004Y-53452119D01*
X100499996Y-53452119D01*
X100320750Y-53472314D01*
X100320745Y-53472315D01*
X100150476Y-53531895D01*
X99997737Y-53627868D01*
X99870184Y-53755421D01*
X99774211Y-53908160D01*
X99714631Y-54078429D01*
X99714630Y-54078434D01*
X99694435Y-54257680D01*
X86000500Y-54257680D01*
X86000500Y-40749996D01*
X103444435Y-40749996D01*
X103444435Y-40750003D01*
X103464630Y-40929249D01*
X103464631Y-40929254D01*
X103524211Y-41099524D01*
X103580493Y-41189094D01*
X103599500Y-41255067D01*
X103599500Y-50244931D01*
X103580494Y-50310903D01*
X103524211Y-50400477D01*
X103524209Y-50400481D01*
X103464633Y-50570737D01*
X103464630Y-50570750D01*
X103444435Y-50749996D01*
X103444435Y-50750003D01*
X103464630Y-50929249D01*
X103464631Y-50929254D01*
X103524211Y-51099523D01*
X103603550Y-51225789D01*
X103620184Y-51252262D01*
X103747738Y-51379816D01*
X103900478Y-51475789D01*
X104070745Y-51535368D01*
X104070750Y-51535369D01*
X104249996Y-51555565D01*
X104250000Y-51555565D01*
X104250004Y-51555565D01*
X104429249Y-51535369D01*
X104429252Y-51535368D01*
X104429255Y-51535368D01*
X104599522Y-51475789D01*
X104752262Y-51379816D01*
X104879816Y-51252262D01*
X104975789Y-51099522D01*
X105035368Y-50929255D01*
X105055565Y-50750000D01*
X105047593Y-50679249D01*
X105035369Y-50570750D01*
X105035366Y-50570737D01*
X104975790Y-50400481D01*
X104975789Y-50400478D01*
X104925690Y-50320745D01*
X104919506Y-50310903D01*
X104900500Y-50244931D01*
X104900500Y-41255067D01*
X104919507Y-41189094D01*
X104975788Y-41099524D01*
X105035368Y-40929254D01*
X105035369Y-40929249D01*
X105055565Y-40750003D01*
X105055565Y-40749996D01*
X105035369Y-40570750D01*
X105035368Y-40570745D01*
X104975788Y-40400476D01*
X104879815Y-40247737D01*
X104752262Y-40120184D01*
X104599523Y-40024211D01*
X104429254Y-39964631D01*
X104429249Y-39964630D01*
X104250004Y-39944435D01*
X104249996Y-39944435D01*
X104070750Y-39964630D01*
X104070745Y-39964631D01*
X103900476Y-40024211D01*
X103747737Y-40120184D01*
X103620184Y-40247737D01*
X103524211Y-40400476D01*
X103464631Y-40570745D01*
X103464630Y-40570750D01*
X103444435Y-40749996D01*
X86000500Y-40749996D01*
X86000500Y-36140665D01*
X86020185Y-36073626D01*
X86072989Y-36027871D01*
X86125568Y-36016671D01*
X127376578Y-36373822D01*
G37*
%TD.AperFunction*%
%TD*%
M02*
