%TF.GenerationSoftware,KiCad,Pcbnew,8.0.7*%
%TF.CreationDate,2025-03-03T14:35:13+00:00*%
%TF.ProjectId,FYP_Heater,4659505f-4865-4617-9465-722e6b696361,rev?*%
%TF.SameCoordinates,Original*%
%TF.FileFunction,Legend,Top*%
%TF.FilePolarity,Positive*%
%FSLAX46Y46*%
G04 Gerber Fmt 4.6, Leading zero omitted, Abs format (unit mm)*
G04 Created by KiCad (PCBNEW 8.0.7) date 2025-03-03 14:35:13*
%MOMM*%
%LPD*%
G01*
G04 APERTURE LIST*
%ADD10C,0.200000*%
%ADD11C,0.300000*%
%ADD12C,0.150000*%
%ADD13C,0.120000*%
%ADD14C,0.127000*%
G04 APERTURE END LIST*
D10*
X76867219Y-92154136D02*
X76867219Y-92630326D01*
X76867219Y-92630326D02*
X77343409Y-92677945D01*
X77343409Y-92677945D02*
X77295790Y-92630326D01*
X77295790Y-92630326D02*
X77248171Y-92535088D01*
X77248171Y-92535088D02*
X77248171Y-92296993D01*
X77248171Y-92296993D02*
X77295790Y-92201755D01*
X77295790Y-92201755D02*
X77343409Y-92154136D01*
X77343409Y-92154136D02*
X77438647Y-92106517D01*
X77438647Y-92106517D02*
X77676742Y-92106517D01*
X77676742Y-92106517D02*
X77771980Y-92154136D01*
X77771980Y-92154136D02*
X77819600Y-92201755D01*
X77819600Y-92201755D02*
X77867219Y-92296993D01*
X77867219Y-92296993D02*
X77867219Y-92535088D01*
X77867219Y-92535088D02*
X77819600Y-92630326D01*
X77819600Y-92630326D02*
X77771980Y-92677945D01*
X76867219Y-91820802D02*
X77867219Y-91487469D01*
X77867219Y-91487469D02*
X76867219Y-91154136D01*
X78248171Y-89773183D02*
X78200552Y-89820802D01*
X78200552Y-89820802D02*
X78057695Y-89916040D01*
X78057695Y-89916040D02*
X77962457Y-89963659D01*
X77962457Y-89963659D02*
X77819600Y-90011278D01*
X77819600Y-90011278D02*
X77581504Y-90058897D01*
X77581504Y-90058897D02*
X77391028Y-90058897D01*
X77391028Y-90058897D02*
X77152933Y-90011278D01*
X77152933Y-90011278D02*
X77010076Y-89963659D01*
X77010076Y-89963659D02*
X76914838Y-89916040D01*
X76914838Y-89916040D02*
X76771980Y-89820802D01*
X76771980Y-89820802D02*
X76724361Y-89773183D01*
X76867219Y-89487468D02*
X76867219Y-88868421D01*
X76867219Y-88868421D02*
X77248171Y-89201754D01*
X77248171Y-89201754D02*
X77248171Y-89058897D01*
X77248171Y-89058897D02*
X77295790Y-88963659D01*
X77295790Y-88963659D02*
X77343409Y-88916040D01*
X77343409Y-88916040D02*
X77438647Y-88868421D01*
X77438647Y-88868421D02*
X77676742Y-88868421D01*
X77676742Y-88868421D02*
X77771980Y-88916040D01*
X77771980Y-88916040D02*
X77819600Y-88963659D01*
X77819600Y-88963659D02*
X77867219Y-89058897D01*
X77867219Y-89058897D02*
X77867219Y-89344611D01*
X77867219Y-89344611D02*
X77819600Y-89439849D01*
X77819600Y-89439849D02*
X77771980Y-89487468D01*
X78248171Y-88535087D02*
X78200552Y-88487468D01*
X78200552Y-88487468D02*
X78057695Y-88392230D01*
X78057695Y-88392230D02*
X77962457Y-88344611D01*
X77962457Y-88344611D02*
X77819600Y-88296992D01*
X77819600Y-88296992D02*
X77581504Y-88249373D01*
X77581504Y-88249373D02*
X77391028Y-88249373D01*
X77391028Y-88249373D02*
X77152933Y-88296992D01*
X77152933Y-88296992D02*
X77010076Y-88344611D01*
X77010076Y-88344611D02*
X76914838Y-88392230D01*
X76914838Y-88392230D02*
X76771980Y-88487468D01*
X76771980Y-88487468D02*
X76724361Y-88535087D01*
X125274435Y-98891112D02*
X125774435Y-97391112D01*
X125774435Y-97391112D02*
X126274435Y-98891112D01*
X126274435Y-98891112D02*
X125274435Y-98891112D01*
X126560149Y-97391112D02*
X127417292Y-97391112D01*
X126988720Y-98891112D02*
X126988720Y-97391112D01*
X127917291Y-98748255D02*
X127988720Y-98819684D01*
X127988720Y-98819684D02*
X127917291Y-98891112D01*
X127917291Y-98891112D02*
X127845863Y-98819684D01*
X127845863Y-98819684D02*
X127917291Y-98748255D01*
X127917291Y-98748255D02*
X127917291Y-98891112D01*
X127917291Y-97962541D02*
X127988720Y-98033969D01*
X127988720Y-98033969D02*
X127917291Y-98105398D01*
X127917291Y-98105398D02*
X127845863Y-98033969D01*
X127845863Y-98033969D02*
X127917291Y-97962541D01*
X127917291Y-97962541D02*
X127917291Y-98105398D01*
X129703006Y-97533969D02*
X129774434Y-97462541D01*
X129774434Y-97462541D02*
X129917292Y-97391112D01*
X129917292Y-97391112D02*
X130274434Y-97391112D01*
X130274434Y-97391112D02*
X130417292Y-97462541D01*
X130417292Y-97462541D02*
X130488720Y-97533969D01*
X130488720Y-97533969D02*
X130560149Y-97676826D01*
X130560149Y-97676826D02*
X130560149Y-97819684D01*
X130560149Y-97819684D02*
X130488720Y-98033969D01*
X130488720Y-98033969D02*
X129631577Y-98891112D01*
X129631577Y-98891112D02*
X130560149Y-98891112D01*
X131917291Y-97391112D02*
X131203005Y-97391112D01*
X131203005Y-97391112D02*
X131131577Y-98105398D01*
X131131577Y-98105398D02*
X131203005Y-98033969D01*
X131203005Y-98033969D02*
X131345863Y-97962541D01*
X131345863Y-97962541D02*
X131703005Y-97962541D01*
X131703005Y-97962541D02*
X131845863Y-98033969D01*
X131845863Y-98033969D02*
X131917291Y-98105398D01*
X131917291Y-98105398D02*
X131988720Y-98248255D01*
X131988720Y-98248255D02*
X131988720Y-98605398D01*
X131988720Y-98605398D02*
X131917291Y-98748255D01*
X131917291Y-98748255D02*
X131845863Y-98819684D01*
X131845863Y-98819684D02*
X131703005Y-98891112D01*
X131703005Y-98891112D02*
X131345863Y-98891112D01*
X131345863Y-98891112D02*
X131203005Y-98819684D01*
X131203005Y-98819684D02*
X131131577Y-98748255D01*
X133774433Y-98319684D02*
X134917291Y-98319684D01*
X137560148Y-98891112D02*
X136703005Y-98891112D01*
X137131576Y-98891112D02*
X137131576Y-97391112D01*
X137131576Y-97391112D02*
X136988719Y-97605398D01*
X136988719Y-97605398D02*
X136845862Y-97748255D01*
X136845862Y-97748255D02*
X136703005Y-97819684D01*
X138988719Y-98891112D02*
X138131576Y-98891112D01*
X138560147Y-98891112D02*
X138560147Y-97391112D01*
X138560147Y-97391112D02*
X138417290Y-97605398D01*
X138417290Y-97605398D02*
X138274433Y-97748255D01*
X138274433Y-97748255D02*
X138131576Y-97819684D01*
X139917290Y-97391112D02*
X140060147Y-97391112D01*
X140060147Y-97391112D02*
X140203004Y-97462541D01*
X140203004Y-97462541D02*
X140274433Y-97533969D01*
X140274433Y-97533969D02*
X140345861Y-97676826D01*
X140345861Y-97676826D02*
X140417290Y-97962541D01*
X140417290Y-97962541D02*
X140417290Y-98319684D01*
X140417290Y-98319684D02*
X140345861Y-98605398D01*
X140345861Y-98605398D02*
X140274433Y-98748255D01*
X140274433Y-98748255D02*
X140203004Y-98819684D01*
X140203004Y-98819684D02*
X140060147Y-98891112D01*
X140060147Y-98891112D02*
X139917290Y-98891112D01*
X139917290Y-98891112D02*
X139774433Y-98819684D01*
X139774433Y-98819684D02*
X139703004Y-98748255D01*
X139703004Y-98748255D02*
X139631575Y-98605398D01*
X139631575Y-98605398D02*
X139560147Y-98319684D01*
X139560147Y-98319684D02*
X139560147Y-97962541D01*
X139560147Y-97962541D02*
X139631575Y-97676826D01*
X139631575Y-97676826D02*
X139703004Y-97533969D01*
X139703004Y-97533969D02*
X139774433Y-97462541D01*
X139774433Y-97462541D02*
X139917290Y-97391112D01*
X141274432Y-97391112D02*
X141131575Y-97462541D01*
X141131575Y-97462541D02*
X141060146Y-97605398D01*
X141060146Y-97605398D02*
X141131575Y-97748255D01*
X141131575Y-97748255D02*
X141274432Y-97819684D01*
X141274432Y-97819684D02*
X141417289Y-97748255D01*
X141417289Y-97748255D02*
X141488718Y-97605398D01*
X141488718Y-97605398D02*
X141417289Y-97462541D01*
X141417289Y-97462541D02*
X141274432Y-97391112D01*
X126203006Y-99806028D02*
X125488720Y-99806028D01*
X125488720Y-99806028D02*
X125417292Y-100520314D01*
X125417292Y-100520314D02*
X125488720Y-100448885D01*
X125488720Y-100448885D02*
X125631578Y-100377457D01*
X125631578Y-100377457D02*
X125988720Y-100377457D01*
X125988720Y-100377457D02*
X126131578Y-100448885D01*
X126131578Y-100448885D02*
X126203006Y-100520314D01*
X126203006Y-100520314D02*
X126274435Y-100663171D01*
X126274435Y-100663171D02*
X126274435Y-101020314D01*
X126274435Y-101020314D02*
X126203006Y-101163171D01*
X126203006Y-101163171D02*
X126131578Y-101234600D01*
X126131578Y-101234600D02*
X125988720Y-101306028D01*
X125988720Y-101306028D02*
X125631578Y-101306028D01*
X125631578Y-101306028D02*
X125488720Y-101234600D01*
X125488720Y-101234600D02*
X125417292Y-101163171D01*
X126703006Y-99806028D02*
X127203006Y-101306028D01*
X127203006Y-101306028D02*
X127703006Y-99806028D01*
X130274434Y-100591742D02*
X130203005Y-100520314D01*
X130203005Y-100520314D02*
X130060148Y-100448885D01*
X130060148Y-100448885D02*
X129917291Y-100448885D01*
X129917291Y-100448885D02*
X129774434Y-100520314D01*
X129774434Y-100520314D02*
X129703005Y-100591742D01*
X129703005Y-100591742D02*
X129631577Y-100734600D01*
X129631577Y-100734600D02*
X129631577Y-100877457D01*
X129631577Y-100877457D02*
X129703005Y-101020314D01*
X129703005Y-101020314D02*
X129774434Y-101091742D01*
X129774434Y-101091742D02*
X129917291Y-101163171D01*
X129917291Y-101163171D02*
X130060148Y-101163171D01*
X130060148Y-101163171D02*
X130203005Y-101091742D01*
X130203005Y-101091742D02*
X130274434Y-101020314D01*
X130274434Y-100448885D02*
X130274434Y-101020314D01*
X130274434Y-101020314D02*
X130345862Y-101091742D01*
X130345862Y-101091742D02*
X130417291Y-101091742D01*
X130417291Y-101091742D02*
X130560148Y-101020314D01*
X130560148Y-101020314D02*
X130631577Y-100877457D01*
X130631577Y-100877457D02*
X130631577Y-100520314D01*
X130631577Y-100520314D02*
X130488720Y-100306028D01*
X130488720Y-100306028D02*
X130274434Y-100163171D01*
X130274434Y-100163171D02*
X129988720Y-100091742D01*
X129988720Y-100091742D02*
X129703005Y-100163171D01*
X129703005Y-100163171D02*
X129488720Y-100306028D01*
X129488720Y-100306028D02*
X129345862Y-100520314D01*
X129345862Y-100520314D02*
X129274434Y-100806028D01*
X129274434Y-100806028D02*
X129345862Y-101091742D01*
X129345862Y-101091742D02*
X129488720Y-101306028D01*
X129488720Y-101306028D02*
X129703005Y-101448885D01*
X129703005Y-101448885D02*
X129988720Y-101520314D01*
X129988720Y-101520314D02*
X130274434Y-101448885D01*
X130274434Y-101448885D02*
X130488720Y-101306028D01*
X132345862Y-99948885D02*
X132417290Y-99877457D01*
X132417290Y-99877457D02*
X132560148Y-99806028D01*
X132560148Y-99806028D02*
X132917290Y-99806028D01*
X132917290Y-99806028D02*
X133060148Y-99877457D01*
X133060148Y-99877457D02*
X133131576Y-99948885D01*
X133131576Y-99948885D02*
X133203005Y-100091742D01*
X133203005Y-100091742D02*
X133203005Y-100234600D01*
X133203005Y-100234600D02*
X133131576Y-100448885D01*
X133131576Y-100448885D02*
X132274433Y-101306028D01*
X132274433Y-101306028D02*
X133203005Y-101306028D01*
X133774433Y-100877457D02*
X134488719Y-100877457D01*
X133631576Y-101306028D02*
X134131576Y-99806028D01*
X134131576Y-99806028D02*
X134631576Y-101306028D01*
D11*
X126054510Y-109015114D02*
X125554510Y-109015114D01*
X125554510Y-109800828D02*
X125554510Y-108300828D01*
X125554510Y-108300828D02*
X126268796Y-108300828D01*
X126840224Y-109015114D02*
X127340224Y-109015114D01*
X127554510Y-109800828D02*
X126840224Y-109800828D01*
X126840224Y-109800828D02*
X126840224Y-108300828D01*
X126840224Y-108300828D02*
X127554510Y-108300828D01*
X128697367Y-109015114D02*
X128911653Y-109086542D01*
X128911653Y-109086542D02*
X128983082Y-109157971D01*
X128983082Y-109157971D02*
X129054510Y-109300828D01*
X129054510Y-109300828D02*
X129054510Y-109515114D01*
X129054510Y-109515114D02*
X128983082Y-109657971D01*
X128983082Y-109657971D02*
X128911653Y-109729400D01*
X128911653Y-109729400D02*
X128768796Y-109800828D01*
X128768796Y-109800828D02*
X128197367Y-109800828D01*
X128197367Y-109800828D02*
X128197367Y-108300828D01*
X128197367Y-108300828D02*
X128697367Y-108300828D01*
X128697367Y-108300828D02*
X128840225Y-108372257D01*
X128840225Y-108372257D02*
X128911653Y-108443685D01*
X128911653Y-108443685D02*
X128983082Y-108586542D01*
X128983082Y-108586542D02*
X128983082Y-108729400D01*
X128983082Y-108729400D02*
X128911653Y-108872257D01*
X128911653Y-108872257D02*
X128840225Y-108943685D01*
X128840225Y-108943685D02*
X128697367Y-109015114D01*
X128697367Y-109015114D02*
X128197367Y-109015114D01*
X130768796Y-108443685D02*
X130840224Y-108372257D01*
X130840224Y-108372257D02*
X130983082Y-108300828D01*
X130983082Y-108300828D02*
X131340224Y-108300828D01*
X131340224Y-108300828D02*
X131483082Y-108372257D01*
X131483082Y-108372257D02*
X131554510Y-108443685D01*
X131554510Y-108443685D02*
X131625939Y-108586542D01*
X131625939Y-108586542D02*
X131625939Y-108729400D01*
X131625939Y-108729400D02*
X131554510Y-108943685D01*
X131554510Y-108943685D02*
X130697367Y-109800828D01*
X130697367Y-109800828D02*
X131625939Y-109800828D01*
X132554510Y-108300828D02*
X132697367Y-108300828D01*
X132697367Y-108300828D02*
X132840224Y-108372257D01*
X132840224Y-108372257D02*
X132911653Y-108443685D01*
X132911653Y-108443685D02*
X132983081Y-108586542D01*
X132983081Y-108586542D02*
X133054510Y-108872257D01*
X133054510Y-108872257D02*
X133054510Y-109229400D01*
X133054510Y-109229400D02*
X132983081Y-109515114D01*
X132983081Y-109515114D02*
X132911653Y-109657971D01*
X132911653Y-109657971D02*
X132840224Y-109729400D01*
X132840224Y-109729400D02*
X132697367Y-109800828D01*
X132697367Y-109800828D02*
X132554510Y-109800828D01*
X132554510Y-109800828D02*
X132411653Y-109729400D01*
X132411653Y-109729400D02*
X132340224Y-109657971D01*
X132340224Y-109657971D02*
X132268795Y-109515114D01*
X132268795Y-109515114D02*
X132197367Y-109229400D01*
X132197367Y-109229400D02*
X132197367Y-108872257D01*
X132197367Y-108872257D02*
X132268795Y-108586542D01*
X132268795Y-108586542D02*
X132340224Y-108443685D01*
X132340224Y-108443685D02*
X132411653Y-108372257D01*
X132411653Y-108372257D02*
X132554510Y-108300828D01*
X133625938Y-108443685D02*
X133697366Y-108372257D01*
X133697366Y-108372257D02*
X133840224Y-108300828D01*
X133840224Y-108300828D02*
X134197366Y-108300828D01*
X134197366Y-108300828D02*
X134340224Y-108372257D01*
X134340224Y-108372257D02*
X134411652Y-108443685D01*
X134411652Y-108443685D02*
X134483081Y-108586542D01*
X134483081Y-108586542D02*
X134483081Y-108729400D01*
X134483081Y-108729400D02*
X134411652Y-108943685D01*
X134411652Y-108943685D02*
X133554509Y-109800828D01*
X133554509Y-109800828D02*
X134483081Y-109800828D01*
X135840223Y-108300828D02*
X135125937Y-108300828D01*
X135125937Y-108300828D02*
X135054509Y-109015114D01*
X135054509Y-109015114D02*
X135125937Y-108943685D01*
X135125937Y-108943685D02*
X135268795Y-108872257D01*
X135268795Y-108872257D02*
X135625937Y-108872257D01*
X135625937Y-108872257D02*
X135768795Y-108943685D01*
X135768795Y-108943685D02*
X135840223Y-109015114D01*
X135840223Y-109015114D02*
X135911652Y-109157971D01*
X135911652Y-109157971D02*
X135911652Y-109515114D01*
X135911652Y-109515114D02*
X135840223Y-109657971D01*
X135840223Y-109657971D02*
X135768795Y-109729400D01*
X135768795Y-109729400D02*
X135625937Y-109800828D01*
X135625937Y-109800828D02*
X135268795Y-109800828D01*
X135268795Y-109800828D02*
X135125937Y-109729400D01*
X135125937Y-109729400D02*
X135054509Y-109657971D01*
D10*
X91369673Y-61343409D02*
X91703006Y-61343409D01*
X91845863Y-61867219D02*
X91369673Y-61867219D01*
X91369673Y-61867219D02*
X91369673Y-60867219D01*
X91369673Y-60867219D02*
X91845863Y-60867219D01*
X92226816Y-61819600D02*
X92369673Y-61867219D01*
X92369673Y-61867219D02*
X92607768Y-61867219D01*
X92607768Y-61867219D02*
X92703006Y-61819600D01*
X92703006Y-61819600D02*
X92750625Y-61771980D01*
X92750625Y-61771980D02*
X92798244Y-61676742D01*
X92798244Y-61676742D02*
X92798244Y-61581504D01*
X92798244Y-61581504D02*
X92750625Y-61486266D01*
X92750625Y-61486266D02*
X92703006Y-61438647D01*
X92703006Y-61438647D02*
X92607768Y-61391028D01*
X92607768Y-61391028D02*
X92417292Y-61343409D01*
X92417292Y-61343409D02*
X92322054Y-61295790D01*
X92322054Y-61295790D02*
X92274435Y-61248171D01*
X92274435Y-61248171D02*
X92226816Y-61152933D01*
X92226816Y-61152933D02*
X92226816Y-61057695D01*
X92226816Y-61057695D02*
X92274435Y-60962457D01*
X92274435Y-60962457D02*
X92322054Y-60914838D01*
X92322054Y-60914838D02*
X92417292Y-60867219D01*
X92417292Y-60867219D02*
X92655387Y-60867219D01*
X92655387Y-60867219D02*
X92798244Y-60914838D01*
X93226816Y-61867219D02*
X93226816Y-60867219D01*
X93226816Y-60867219D02*
X93607768Y-60867219D01*
X93607768Y-60867219D02*
X93703006Y-60914838D01*
X93703006Y-60914838D02*
X93750625Y-60962457D01*
X93750625Y-60962457D02*
X93798244Y-61057695D01*
X93798244Y-61057695D02*
X93798244Y-61200552D01*
X93798244Y-61200552D02*
X93750625Y-61295790D01*
X93750625Y-61295790D02*
X93703006Y-61343409D01*
X93703006Y-61343409D02*
X93607768Y-61391028D01*
X93607768Y-61391028D02*
X93226816Y-61391028D01*
X94131578Y-60867219D02*
X94750625Y-60867219D01*
X94750625Y-60867219D02*
X94417292Y-61248171D01*
X94417292Y-61248171D02*
X94560149Y-61248171D01*
X94560149Y-61248171D02*
X94655387Y-61295790D01*
X94655387Y-61295790D02*
X94703006Y-61343409D01*
X94703006Y-61343409D02*
X94750625Y-61438647D01*
X94750625Y-61438647D02*
X94750625Y-61676742D01*
X94750625Y-61676742D02*
X94703006Y-61771980D01*
X94703006Y-61771980D02*
X94655387Y-61819600D01*
X94655387Y-61819600D02*
X94560149Y-61867219D01*
X94560149Y-61867219D02*
X94274435Y-61867219D01*
X94274435Y-61867219D02*
X94179197Y-61819600D01*
X94179197Y-61819600D02*
X94131578Y-61771980D01*
X95131578Y-60962457D02*
X95179197Y-60914838D01*
X95179197Y-60914838D02*
X95274435Y-60867219D01*
X95274435Y-60867219D02*
X95512530Y-60867219D01*
X95512530Y-60867219D02*
X95607768Y-60914838D01*
X95607768Y-60914838D02*
X95655387Y-60962457D01*
X95655387Y-60962457D02*
X95703006Y-61057695D01*
X95703006Y-61057695D02*
X95703006Y-61152933D01*
X95703006Y-61152933D02*
X95655387Y-61295790D01*
X95655387Y-61295790D02*
X95083959Y-61867219D01*
X95083959Y-61867219D02*
X95703006Y-61867219D01*
X96131578Y-61486266D02*
X96893483Y-61486266D01*
X97322054Y-61819600D02*
X97464911Y-61867219D01*
X97464911Y-61867219D02*
X97703006Y-61867219D01*
X97703006Y-61867219D02*
X97798244Y-61819600D01*
X97798244Y-61819600D02*
X97845863Y-61771980D01*
X97845863Y-61771980D02*
X97893482Y-61676742D01*
X97893482Y-61676742D02*
X97893482Y-61581504D01*
X97893482Y-61581504D02*
X97845863Y-61486266D01*
X97845863Y-61486266D02*
X97798244Y-61438647D01*
X97798244Y-61438647D02*
X97703006Y-61391028D01*
X97703006Y-61391028D02*
X97512530Y-61343409D01*
X97512530Y-61343409D02*
X97417292Y-61295790D01*
X97417292Y-61295790D02*
X97369673Y-61248171D01*
X97369673Y-61248171D02*
X97322054Y-61152933D01*
X97322054Y-61152933D02*
X97322054Y-61057695D01*
X97322054Y-61057695D02*
X97369673Y-60962457D01*
X97369673Y-60962457D02*
X97417292Y-60914838D01*
X97417292Y-60914838D02*
X97512530Y-60867219D01*
X97512530Y-60867219D02*
X97750625Y-60867219D01*
X97750625Y-60867219D02*
X97893482Y-60914838D01*
X98226816Y-60867219D02*
X98845863Y-60867219D01*
X98845863Y-60867219D02*
X98512530Y-61248171D01*
X98512530Y-61248171D02*
X98655387Y-61248171D01*
X98655387Y-61248171D02*
X98750625Y-61295790D01*
X98750625Y-61295790D02*
X98798244Y-61343409D01*
X98798244Y-61343409D02*
X98845863Y-61438647D01*
X98845863Y-61438647D02*
X98845863Y-61676742D01*
X98845863Y-61676742D02*
X98798244Y-61771980D01*
X98798244Y-61771980D02*
X98750625Y-61819600D01*
X98750625Y-61819600D02*
X98655387Y-61867219D01*
X98655387Y-61867219D02*
X98369673Y-61867219D01*
X98369673Y-61867219D02*
X98274435Y-61819600D01*
X98274435Y-61819600D02*
X98226816Y-61771980D01*
X99274435Y-61486266D02*
X100036340Y-61486266D01*
X100417292Y-60867219D02*
X100655387Y-61867219D01*
X100655387Y-61867219D02*
X100845863Y-61152933D01*
X100845863Y-61152933D02*
X101036339Y-61867219D01*
X101036339Y-61867219D02*
X101274435Y-60867219D01*
X102226815Y-61867219D02*
X101893482Y-61391028D01*
X101655387Y-61867219D02*
X101655387Y-60867219D01*
X101655387Y-60867219D02*
X102036339Y-60867219D01*
X102036339Y-60867219D02*
X102131577Y-60914838D01*
X102131577Y-60914838D02*
X102179196Y-60962457D01*
X102179196Y-60962457D02*
X102226815Y-61057695D01*
X102226815Y-61057695D02*
X102226815Y-61200552D01*
X102226815Y-61200552D02*
X102179196Y-61295790D01*
X102179196Y-61295790D02*
X102131577Y-61343409D01*
X102131577Y-61343409D02*
X102036339Y-61391028D01*
X102036339Y-61391028D02*
X101655387Y-61391028D01*
X102845863Y-60867219D02*
X103036339Y-60867219D01*
X103036339Y-60867219D02*
X103131577Y-60914838D01*
X103131577Y-60914838D02*
X103226815Y-61010076D01*
X103226815Y-61010076D02*
X103274434Y-61200552D01*
X103274434Y-61200552D02*
X103274434Y-61533885D01*
X103274434Y-61533885D02*
X103226815Y-61724361D01*
X103226815Y-61724361D02*
X103131577Y-61819600D01*
X103131577Y-61819600D02*
X103036339Y-61867219D01*
X103036339Y-61867219D02*
X102845863Y-61867219D01*
X102845863Y-61867219D02*
X102750625Y-61819600D01*
X102750625Y-61819600D02*
X102655387Y-61724361D01*
X102655387Y-61724361D02*
X102607768Y-61533885D01*
X102607768Y-61533885D02*
X102607768Y-61200552D01*
X102607768Y-61200552D02*
X102655387Y-61010076D01*
X102655387Y-61010076D02*
X102750625Y-60914838D01*
X102750625Y-60914838D02*
X102845863Y-60867219D01*
X103893482Y-60867219D02*
X104083958Y-60867219D01*
X104083958Y-60867219D02*
X104179196Y-60914838D01*
X104179196Y-60914838D02*
X104274434Y-61010076D01*
X104274434Y-61010076D02*
X104322053Y-61200552D01*
X104322053Y-61200552D02*
X104322053Y-61533885D01*
X104322053Y-61533885D02*
X104274434Y-61724361D01*
X104274434Y-61724361D02*
X104179196Y-61819600D01*
X104179196Y-61819600D02*
X104083958Y-61867219D01*
X104083958Y-61867219D02*
X103893482Y-61867219D01*
X103893482Y-61867219D02*
X103798244Y-61819600D01*
X103798244Y-61819600D02*
X103703006Y-61724361D01*
X103703006Y-61724361D02*
X103655387Y-61533885D01*
X103655387Y-61533885D02*
X103655387Y-61200552D01*
X103655387Y-61200552D02*
X103703006Y-61010076D01*
X103703006Y-61010076D02*
X103798244Y-60914838D01*
X103798244Y-60914838D02*
X103893482Y-60867219D01*
X104750625Y-61867219D02*
X104750625Y-60867219D01*
X104750625Y-60867219D02*
X105083958Y-61581504D01*
X105083958Y-61581504D02*
X105417291Y-60867219D01*
X105417291Y-60867219D02*
X105417291Y-61867219D01*
X105893482Y-61486266D02*
X106655387Y-61486266D01*
X107655386Y-61867219D02*
X107083958Y-61867219D01*
X107369672Y-61867219D02*
X107369672Y-60867219D01*
X107369672Y-60867219D02*
X107274434Y-61010076D01*
X107274434Y-61010076D02*
X107179196Y-61105314D01*
X107179196Y-61105314D02*
X107083958Y-61152933D01*
X41893482Y-91914838D02*
X41798244Y-91867219D01*
X41798244Y-91867219D02*
X41655387Y-91867219D01*
X41655387Y-91867219D02*
X41512530Y-91914838D01*
X41512530Y-91914838D02*
X41417292Y-92010076D01*
X41417292Y-92010076D02*
X41369673Y-92105314D01*
X41369673Y-92105314D02*
X41322054Y-92295790D01*
X41322054Y-92295790D02*
X41322054Y-92438647D01*
X41322054Y-92438647D02*
X41369673Y-92629123D01*
X41369673Y-92629123D02*
X41417292Y-92724361D01*
X41417292Y-92724361D02*
X41512530Y-92819600D01*
X41512530Y-92819600D02*
X41655387Y-92867219D01*
X41655387Y-92867219D02*
X41750625Y-92867219D01*
X41750625Y-92867219D02*
X41893482Y-92819600D01*
X41893482Y-92819600D02*
X41941101Y-92771980D01*
X41941101Y-92771980D02*
X41941101Y-92438647D01*
X41941101Y-92438647D02*
X41750625Y-92438647D01*
X42369673Y-92867219D02*
X42369673Y-91867219D01*
X42369673Y-91867219D02*
X42941101Y-92867219D01*
X42941101Y-92867219D02*
X42941101Y-91867219D01*
X43417292Y-92867219D02*
X43417292Y-91867219D01*
X43417292Y-91867219D02*
X43655387Y-91867219D01*
X43655387Y-91867219D02*
X43798244Y-91914838D01*
X43798244Y-91914838D02*
X43893482Y-92010076D01*
X43893482Y-92010076D02*
X43941101Y-92105314D01*
X43941101Y-92105314D02*
X43988720Y-92295790D01*
X43988720Y-92295790D02*
X43988720Y-92438647D01*
X43988720Y-92438647D02*
X43941101Y-92629123D01*
X43941101Y-92629123D02*
X43893482Y-92724361D01*
X43893482Y-92724361D02*
X43798244Y-92819600D01*
X43798244Y-92819600D02*
X43655387Y-92867219D01*
X43655387Y-92867219D02*
X43417292Y-92867219D01*
D11*
X126411653Y-88157971D02*
X126340225Y-88229400D01*
X126340225Y-88229400D02*
X126125939Y-88300828D01*
X126125939Y-88300828D02*
X125983082Y-88300828D01*
X125983082Y-88300828D02*
X125768796Y-88229400D01*
X125768796Y-88229400D02*
X125625939Y-88086542D01*
X125625939Y-88086542D02*
X125554510Y-87943685D01*
X125554510Y-87943685D02*
X125483082Y-87657971D01*
X125483082Y-87657971D02*
X125483082Y-87443685D01*
X125483082Y-87443685D02*
X125554510Y-87157971D01*
X125554510Y-87157971D02*
X125625939Y-87015114D01*
X125625939Y-87015114D02*
X125768796Y-86872257D01*
X125768796Y-86872257D02*
X125983082Y-86800828D01*
X125983082Y-86800828D02*
X126125939Y-86800828D01*
X126125939Y-86800828D02*
X126340225Y-86872257D01*
X126340225Y-86872257D02*
X126411653Y-86943685D01*
X127340225Y-86800828D02*
X127625939Y-86800828D01*
X127625939Y-86800828D02*
X127768796Y-86872257D01*
X127768796Y-86872257D02*
X127911653Y-87015114D01*
X127911653Y-87015114D02*
X127983082Y-87300828D01*
X127983082Y-87300828D02*
X127983082Y-87800828D01*
X127983082Y-87800828D02*
X127911653Y-88086542D01*
X127911653Y-88086542D02*
X127768796Y-88229400D01*
X127768796Y-88229400D02*
X127625939Y-88300828D01*
X127625939Y-88300828D02*
X127340225Y-88300828D01*
X127340225Y-88300828D02*
X127197368Y-88229400D01*
X127197368Y-88229400D02*
X127054510Y-88086542D01*
X127054510Y-88086542D02*
X126983082Y-87800828D01*
X126983082Y-87800828D02*
X126983082Y-87300828D01*
X126983082Y-87300828D02*
X127054510Y-87015114D01*
X127054510Y-87015114D02*
X127197368Y-86872257D01*
X127197368Y-86872257D02*
X127340225Y-86800828D01*
X128625939Y-88300828D02*
X128625939Y-86800828D01*
X128625939Y-86800828D02*
X129483082Y-88300828D01*
X129483082Y-88300828D02*
X129483082Y-86800828D01*
X130483083Y-86800828D02*
X130768797Y-86800828D01*
X130768797Y-86800828D02*
X130911654Y-86872257D01*
X130911654Y-86872257D02*
X131054511Y-87015114D01*
X131054511Y-87015114D02*
X131125940Y-87300828D01*
X131125940Y-87300828D02*
X131125940Y-87800828D01*
X131125940Y-87800828D02*
X131054511Y-88086542D01*
X131054511Y-88086542D02*
X130911654Y-88229400D01*
X130911654Y-88229400D02*
X130768797Y-88300828D01*
X130768797Y-88300828D02*
X130483083Y-88300828D01*
X130483083Y-88300828D02*
X130340226Y-88229400D01*
X130340226Y-88229400D02*
X130197368Y-88086542D01*
X130197368Y-88086542D02*
X130125940Y-87800828D01*
X130125940Y-87800828D02*
X130125940Y-87300828D01*
X130125940Y-87300828D02*
X130197368Y-87015114D01*
X130197368Y-87015114D02*
X130340226Y-86872257D01*
X130340226Y-86872257D02*
X130483083Y-86800828D01*
X132625940Y-88300828D02*
X132125940Y-87586542D01*
X131768797Y-88300828D02*
X131768797Y-86800828D01*
X131768797Y-86800828D02*
X132340226Y-86800828D01*
X132340226Y-86800828D02*
X132483083Y-86872257D01*
X132483083Y-86872257D02*
X132554512Y-86943685D01*
X132554512Y-86943685D02*
X132625940Y-87086542D01*
X132625940Y-87086542D02*
X132625940Y-87300828D01*
X132625940Y-87300828D02*
X132554512Y-87443685D01*
X132554512Y-87443685D02*
X132483083Y-87515114D01*
X132483083Y-87515114D02*
X132340226Y-87586542D01*
X132340226Y-87586542D02*
X131768797Y-87586542D01*
X135268797Y-88157971D02*
X135197369Y-88229400D01*
X135197369Y-88229400D02*
X134983083Y-88300828D01*
X134983083Y-88300828D02*
X134840226Y-88300828D01*
X134840226Y-88300828D02*
X134625940Y-88229400D01*
X134625940Y-88229400D02*
X134483083Y-88086542D01*
X134483083Y-88086542D02*
X134411654Y-87943685D01*
X134411654Y-87943685D02*
X134340226Y-87657971D01*
X134340226Y-87657971D02*
X134340226Y-87443685D01*
X134340226Y-87443685D02*
X134411654Y-87157971D01*
X134411654Y-87157971D02*
X134483083Y-87015114D01*
X134483083Y-87015114D02*
X134625940Y-86872257D01*
X134625940Y-86872257D02*
X134840226Y-86800828D01*
X134840226Y-86800828D02*
X134983083Y-86800828D01*
X134983083Y-86800828D02*
X135197369Y-86872257D01*
X135197369Y-86872257D02*
X135268797Y-86943685D01*
X135911654Y-86800828D02*
X135911654Y-88015114D01*
X135911654Y-88015114D02*
X135983083Y-88157971D01*
X135983083Y-88157971D02*
X136054512Y-88229400D01*
X136054512Y-88229400D02*
X136197369Y-88300828D01*
X136197369Y-88300828D02*
X136483083Y-88300828D01*
X136483083Y-88300828D02*
X136625940Y-88229400D01*
X136625940Y-88229400D02*
X136697369Y-88157971D01*
X136697369Y-88157971D02*
X136768797Y-88015114D01*
X136768797Y-88015114D02*
X136768797Y-86800828D01*
X138340226Y-88300828D02*
X137840226Y-87586542D01*
X137483083Y-88300828D02*
X137483083Y-86800828D01*
X137483083Y-86800828D02*
X138054512Y-86800828D01*
X138054512Y-86800828D02*
X138197369Y-86872257D01*
X138197369Y-86872257D02*
X138268798Y-86943685D01*
X138268798Y-86943685D02*
X138340226Y-87086542D01*
X138340226Y-87086542D02*
X138340226Y-87300828D01*
X138340226Y-87300828D02*
X138268798Y-87443685D01*
X138268798Y-87443685D02*
X138197369Y-87515114D01*
X138197369Y-87515114D02*
X138054512Y-87586542D01*
X138054512Y-87586542D02*
X137483083Y-87586542D01*
X139697369Y-88300828D02*
X138983083Y-88300828D01*
X138983083Y-88300828D02*
X138983083Y-86800828D01*
X140197369Y-87515114D02*
X140697369Y-87515114D01*
X140911655Y-88300828D02*
X140197369Y-88300828D01*
X140197369Y-88300828D02*
X140197369Y-86800828D01*
X140197369Y-86800828D02*
X140911655Y-86800828D01*
X141840227Y-87586542D02*
X141840227Y-88300828D01*
X141340227Y-86800828D02*
X141840227Y-87586542D01*
X141840227Y-87586542D02*
X142340227Y-86800828D01*
D10*
X42845863Y-86867219D02*
X42369673Y-86867219D01*
X42369673Y-86867219D02*
X42322054Y-87343409D01*
X42322054Y-87343409D02*
X42369673Y-87295790D01*
X42369673Y-87295790D02*
X42464911Y-87248171D01*
X42464911Y-87248171D02*
X42703006Y-87248171D01*
X42703006Y-87248171D02*
X42798244Y-87295790D01*
X42798244Y-87295790D02*
X42845863Y-87343409D01*
X42845863Y-87343409D02*
X42893482Y-87438647D01*
X42893482Y-87438647D02*
X42893482Y-87676742D01*
X42893482Y-87676742D02*
X42845863Y-87771980D01*
X42845863Y-87771980D02*
X42798244Y-87819600D01*
X42798244Y-87819600D02*
X42703006Y-87867219D01*
X42703006Y-87867219D02*
X42464911Y-87867219D01*
X42464911Y-87867219D02*
X42369673Y-87819600D01*
X42369673Y-87819600D02*
X42322054Y-87771980D01*
X43179197Y-86867219D02*
X43512530Y-87867219D01*
X43512530Y-87867219D02*
X43845863Y-86867219D01*
D11*
X125554510Y-92385912D02*
X125554510Y-90885912D01*
X125554510Y-90885912D02*
X126125939Y-90885912D01*
X126125939Y-90885912D02*
X126268796Y-90957341D01*
X126268796Y-90957341D02*
X126340225Y-91028769D01*
X126340225Y-91028769D02*
X126411653Y-91171626D01*
X126411653Y-91171626D02*
X126411653Y-91385912D01*
X126411653Y-91385912D02*
X126340225Y-91528769D01*
X126340225Y-91528769D02*
X126268796Y-91600198D01*
X126268796Y-91600198D02*
X126125939Y-91671626D01*
X126125939Y-91671626D02*
X125554510Y-91671626D01*
X127911653Y-92243055D02*
X127840225Y-92314484D01*
X127840225Y-92314484D02*
X127625939Y-92385912D01*
X127625939Y-92385912D02*
X127483082Y-92385912D01*
X127483082Y-92385912D02*
X127268796Y-92314484D01*
X127268796Y-92314484D02*
X127125939Y-92171626D01*
X127125939Y-92171626D02*
X127054510Y-92028769D01*
X127054510Y-92028769D02*
X126983082Y-91743055D01*
X126983082Y-91743055D02*
X126983082Y-91528769D01*
X126983082Y-91528769D02*
X127054510Y-91243055D01*
X127054510Y-91243055D02*
X127125939Y-91100198D01*
X127125939Y-91100198D02*
X127268796Y-90957341D01*
X127268796Y-90957341D02*
X127483082Y-90885912D01*
X127483082Y-90885912D02*
X127625939Y-90885912D01*
X127625939Y-90885912D02*
X127840225Y-90957341D01*
X127840225Y-90957341D02*
X127911653Y-91028769D01*
X129054510Y-91600198D02*
X129268796Y-91671626D01*
X129268796Y-91671626D02*
X129340225Y-91743055D01*
X129340225Y-91743055D02*
X129411653Y-91885912D01*
X129411653Y-91885912D02*
X129411653Y-92100198D01*
X129411653Y-92100198D02*
X129340225Y-92243055D01*
X129340225Y-92243055D02*
X129268796Y-92314484D01*
X129268796Y-92314484D02*
X129125939Y-92385912D01*
X129125939Y-92385912D02*
X128554510Y-92385912D01*
X128554510Y-92385912D02*
X128554510Y-90885912D01*
X128554510Y-90885912D02*
X129054510Y-90885912D01*
X129054510Y-90885912D02*
X129197368Y-90957341D01*
X129197368Y-90957341D02*
X129268796Y-91028769D01*
X129268796Y-91028769D02*
X129340225Y-91171626D01*
X129340225Y-91171626D02*
X129340225Y-91314484D01*
X129340225Y-91314484D02*
X129268796Y-91457341D01*
X129268796Y-91457341D02*
X129197368Y-91528769D01*
X129197368Y-91528769D02*
X129054510Y-91600198D01*
X129054510Y-91600198D02*
X128554510Y-91600198D01*
X131197367Y-92385912D02*
X131197367Y-90885912D01*
X131197367Y-91600198D02*
X132054510Y-91600198D01*
X132054510Y-92385912D02*
X132054510Y-90885912D01*
X132768796Y-91600198D02*
X133268796Y-91600198D01*
X133483082Y-92385912D02*
X132768796Y-92385912D01*
X132768796Y-92385912D02*
X132768796Y-90885912D01*
X132768796Y-90885912D02*
X133483082Y-90885912D01*
X134054511Y-91957341D02*
X134768797Y-91957341D01*
X133911654Y-92385912D02*
X134411654Y-90885912D01*
X134411654Y-90885912D02*
X134911654Y-92385912D01*
X135197368Y-90885912D02*
X136054511Y-90885912D01*
X135625939Y-92385912D02*
X135625939Y-90885912D01*
X136554510Y-91600198D02*
X137054510Y-91600198D01*
X137268796Y-92385912D02*
X136554510Y-92385912D01*
X136554510Y-92385912D02*
X136554510Y-90885912D01*
X136554510Y-90885912D02*
X137268796Y-90885912D01*
X138768796Y-92385912D02*
X138268796Y-91671626D01*
X137911653Y-92385912D02*
X137911653Y-90885912D01*
X137911653Y-90885912D02*
X138483082Y-90885912D01*
X138483082Y-90885912D02*
X138625939Y-90957341D01*
X138625939Y-90957341D02*
X138697368Y-91028769D01*
X138697368Y-91028769D02*
X138768796Y-91171626D01*
X138768796Y-91171626D02*
X138768796Y-91385912D01*
X138768796Y-91385912D02*
X138697368Y-91528769D01*
X138697368Y-91528769D02*
X138625939Y-91600198D01*
X138625939Y-91600198D02*
X138483082Y-91671626D01*
X138483082Y-91671626D02*
X137911653Y-91671626D01*
X140554510Y-92385912D02*
X140554510Y-90885912D01*
X140554510Y-90885912D02*
X141054510Y-91957341D01*
X141054510Y-91957341D02*
X141554510Y-90885912D01*
X141554510Y-90885912D02*
X141554510Y-92385912D01*
X142554511Y-90885912D02*
X142840225Y-90885912D01*
X142840225Y-90885912D02*
X142983082Y-90957341D01*
X142983082Y-90957341D02*
X143125939Y-91100198D01*
X143125939Y-91100198D02*
X143197368Y-91385912D01*
X143197368Y-91385912D02*
X143197368Y-91885912D01*
X143197368Y-91885912D02*
X143125939Y-92171626D01*
X143125939Y-92171626D02*
X142983082Y-92314484D01*
X142983082Y-92314484D02*
X142840225Y-92385912D01*
X142840225Y-92385912D02*
X142554511Y-92385912D01*
X142554511Y-92385912D02*
X142411654Y-92314484D01*
X142411654Y-92314484D02*
X142268796Y-92171626D01*
X142268796Y-92171626D02*
X142197368Y-91885912D01*
X142197368Y-91885912D02*
X142197368Y-91385912D01*
X142197368Y-91385912D02*
X142268796Y-91100198D01*
X142268796Y-91100198D02*
X142411654Y-90957341D01*
X142411654Y-90957341D02*
X142554511Y-90885912D01*
X143840225Y-92385912D02*
X143840225Y-90885912D01*
X143840225Y-90885912D02*
X144197368Y-90885912D01*
X144197368Y-90885912D02*
X144411654Y-90957341D01*
X144411654Y-90957341D02*
X144554511Y-91100198D01*
X144554511Y-91100198D02*
X144625940Y-91243055D01*
X144625940Y-91243055D02*
X144697368Y-91528769D01*
X144697368Y-91528769D02*
X144697368Y-91743055D01*
X144697368Y-91743055D02*
X144625940Y-92028769D01*
X144625940Y-92028769D02*
X144554511Y-92171626D01*
X144554511Y-92171626D02*
X144411654Y-92314484D01*
X144411654Y-92314484D02*
X144197368Y-92385912D01*
X144197368Y-92385912D02*
X143840225Y-92385912D01*
X145340225Y-90885912D02*
X145340225Y-92100198D01*
X145340225Y-92100198D02*
X145411654Y-92243055D01*
X145411654Y-92243055D02*
X145483083Y-92314484D01*
X145483083Y-92314484D02*
X145625940Y-92385912D01*
X145625940Y-92385912D02*
X145911654Y-92385912D01*
X145911654Y-92385912D02*
X146054511Y-92314484D01*
X146054511Y-92314484D02*
X146125940Y-92243055D01*
X146125940Y-92243055D02*
X146197368Y-92100198D01*
X146197368Y-92100198D02*
X146197368Y-90885912D01*
X147625940Y-92385912D02*
X146911654Y-92385912D01*
X146911654Y-92385912D02*
X146911654Y-90885912D01*
X148125940Y-91600198D02*
X148625940Y-91600198D01*
X148840226Y-92385912D02*
X148125940Y-92385912D01*
X148125940Y-92385912D02*
X148125940Y-90885912D01*
X148125940Y-90885912D02*
X148840226Y-90885912D01*
X126411653Y-94800828D02*
X125911653Y-94086542D01*
X125554510Y-94800828D02*
X125554510Y-93300828D01*
X125554510Y-93300828D02*
X126125939Y-93300828D01*
X126125939Y-93300828D02*
X126268796Y-93372257D01*
X126268796Y-93372257D02*
X126340225Y-93443685D01*
X126340225Y-93443685D02*
X126411653Y-93586542D01*
X126411653Y-93586542D02*
X126411653Y-93800828D01*
X126411653Y-93800828D02*
X126340225Y-93943685D01*
X126340225Y-93943685D02*
X126268796Y-94015114D01*
X126268796Y-94015114D02*
X126125939Y-94086542D01*
X126125939Y-94086542D02*
X125554510Y-94086542D01*
X127054510Y-94015114D02*
X127554510Y-94015114D01*
X127768796Y-94800828D02*
X127054510Y-94800828D01*
X127054510Y-94800828D02*
X127054510Y-93300828D01*
X127054510Y-93300828D02*
X127768796Y-93300828D01*
X128197368Y-93300828D02*
X128697368Y-94800828D01*
X128697368Y-94800828D02*
X129197368Y-93300828D01*
X129697367Y-94657971D02*
X129768796Y-94729400D01*
X129768796Y-94729400D02*
X129697367Y-94800828D01*
X129697367Y-94800828D02*
X129625939Y-94729400D01*
X129625939Y-94729400D02*
X129697367Y-94657971D01*
X129697367Y-94657971D02*
X129697367Y-94800828D01*
X131411653Y-93300828D02*
X132340225Y-93300828D01*
X132340225Y-93300828D02*
X131840225Y-93872257D01*
X131840225Y-93872257D02*
X132054510Y-93872257D01*
X132054510Y-93872257D02*
X132197368Y-93943685D01*
X132197368Y-93943685D02*
X132268796Y-94015114D01*
X132268796Y-94015114D02*
X132340225Y-94157971D01*
X132340225Y-94157971D02*
X132340225Y-94515114D01*
X132340225Y-94515114D02*
X132268796Y-94657971D01*
X132268796Y-94657971D02*
X132197368Y-94729400D01*
X132197368Y-94729400D02*
X132054510Y-94800828D01*
X132054510Y-94800828D02*
X131625939Y-94800828D01*
X131625939Y-94800828D02*
X131483082Y-94729400D01*
X131483082Y-94729400D02*
X131411653Y-94657971D01*
D10*
X80867219Y-92630326D02*
X79867219Y-92630326D01*
X80343409Y-92630326D02*
X80343409Y-92058898D01*
X80867219Y-92058898D02*
X79867219Y-92058898D01*
X80343409Y-91582707D02*
X80343409Y-91249374D01*
X80867219Y-91106517D02*
X80867219Y-91582707D01*
X80867219Y-91582707D02*
X79867219Y-91582707D01*
X79867219Y-91582707D02*
X79867219Y-91106517D01*
X80581504Y-90725564D02*
X80581504Y-90249374D01*
X80867219Y-90820802D02*
X79867219Y-90487469D01*
X79867219Y-90487469D02*
X80867219Y-90154136D01*
X79867219Y-89963659D02*
X79867219Y-89392231D01*
X80867219Y-89677945D02*
X79867219Y-89677945D01*
X80343409Y-89058897D02*
X80343409Y-88725564D01*
X80867219Y-88582707D02*
X80867219Y-89058897D01*
X80867219Y-89058897D02*
X79867219Y-89058897D01*
X79867219Y-89058897D02*
X79867219Y-88582707D01*
X80867219Y-87582707D02*
X80391028Y-87916040D01*
X80867219Y-88154135D02*
X79867219Y-88154135D01*
X79867219Y-88154135D02*
X79867219Y-87773183D01*
X79867219Y-87773183D02*
X79914838Y-87677945D01*
X79914838Y-87677945D02*
X79962457Y-87630326D01*
X79962457Y-87630326D02*
X80057695Y-87582707D01*
X80057695Y-87582707D02*
X80200552Y-87582707D01*
X80200552Y-87582707D02*
X80295790Y-87630326D01*
X80295790Y-87630326D02*
X80343409Y-87677945D01*
X80343409Y-87677945D02*
X80391028Y-87773183D01*
X80391028Y-87773183D02*
X80391028Y-88154135D01*
X81248171Y-86106516D02*
X81200552Y-86154135D01*
X81200552Y-86154135D02*
X81057695Y-86249373D01*
X81057695Y-86249373D02*
X80962457Y-86296992D01*
X80962457Y-86296992D02*
X80819600Y-86344611D01*
X80819600Y-86344611D02*
X80581504Y-86392230D01*
X80581504Y-86392230D02*
X80391028Y-86392230D01*
X80391028Y-86392230D02*
X80152933Y-86344611D01*
X80152933Y-86344611D02*
X80010076Y-86296992D01*
X80010076Y-86296992D02*
X79914838Y-86249373D01*
X79914838Y-86249373D02*
X79771980Y-86154135D01*
X79771980Y-86154135D02*
X79724361Y-86106516D01*
X79962457Y-85773182D02*
X79914838Y-85725563D01*
X79914838Y-85725563D02*
X79867219Y-85630325D01*
X79867219Y-85630325D02*
X79867219Y-85392230D01*
X79867219Y-85392230D02*
X79914838Y-85296992D01*
X79914838Y-85296992D02*
X79962457Y-85249373D01*
X79962457Y-85249373D02*
X80057695Y-85201754D01*
X80057695Y-85201754D02*
X80152933Y-85201754D01*
X80152933Y-85201754D02*
X80295790Y-85249373D01*
X80295790Y-85249373D02*
X80867219Y-85820801D01*
X80867219Y-85820801D02*
X80867219Y-85201754D01*
X81248171Y-84868420D02*
X81200552Y-84820801D01*
X81200552Y-84820801D02*
X81057695Y-84725563D01*
X81057695Y-84725563D02*
X80962457Y-84677944D01*
X80962457Y-84677944D02*
X80819600Y-84630325D01*
X80819600Y-84630325D02*
X80581504Y-84582706D01*
X80581504Y-84582706D02*
X80391028Y-84582706D01*
X80391028Y-84582706D02*
X80152933Y-84630325D01*
X80152933Y-84630325D02*
X80010076Y-84677944D01*
X80010076Y-84677944D02*
X79914838Y-84725563D01*
X79914838Y-84725563D02*
X79771980Y-84820801D01*
X79771980Y-84820801D02*
X79724361Y-84868420D01*
X63321999Y-54799202D02*
X63894419Y-55371622D01*
X63894419Y-55371622D02*
X63995434Y-55405293D01*
X63995434Y-55405293D02*
X64062777Y-55405293D01*
X64062777Y-55405293D02*
X64163793Y-55371622D01*
X64163793Y-55371622D02*
X64298480Y-55236935D01*
X64298480Y-55236935D02*
X64332151Y-55135919D01*
X64332151Y-55135919D02*
X64332151Y-55068576D01*
X64332151Y-55068576D02*
X64298480Y-54967561D01*
X64298480Y-54967561D02*
X63726060Y-54395141D01*
X64702541Y-54765530D02*
X64837228Y-54698187D01*
X64837228Y-54698187D02*
X65005586Y-54529828D01*
X65005586Y-54529828D02*
X65039258Y-54428813D01*
X65039258Y-54428813D02*
X65039258Y-54361469D01*
X65039258Y-54361469D02*
X65005586Y-54260454D01*
X65005586Y-54260454D02*
X64938243Y-54193110D01*
X64938243Y-54193110D02*
X64837228Y-54159439D01*
X64837228Y-54159439D02*
X64769884Y-54159439D01*
X64769884Y-54159439D02*
X64668869Y-54193110D01*
X64668869Y-54193110D02*
X64500510Y-54294126D01*
X64500510Y-54294126D02*
X64399495Y-54327797D01*
X64399495Y-54327797D02*
X64332151Y-54327797D01*
X64332151Y-54327797D02*
X64231136Y-54294126D01*
X64231136Y-54294126D02*
X64163793Y-54226782D01*
X64163793Y-54226782D02*
X64130121Y-54125767D01*
X64130121Y-54125767D02*
X64130121Y-54058423D01*
X64130121Y-54058423D02*
X64163793Y-53957408D01*
X64163793Y-53957408D02*
X64332151Y-53789049D01*
X64332151Y-53789049D02*
X64466838Y-53721706D01*
X65308632Y-53486004D02*
X65443319Y-53418660D01*
X65443319Y-53418660D02*
X65510663Y-53418660D01*
X65510663Y-53418660D02*
X65611678Y-53452332D01*
X65611678Y-53452332D02*
X65712693Y-53553347D01*
X65712693Y-53553347D02*
X65746365Y-53654362D01*
X65746365Y-53654362D02*
X65746365Y-53721706D01*
X65746365Y-53721706D02*
X65712693Y-53822721D01*
X65712693Y-53822721D02*
X65443319Y-54092095D01*
X65443319Y-54092095D02*
X64736212Y-53384988D01*
X64736212Y-53384988D02*
X64971915Y-53149286D01*
X64971915Y-53149286D02*
X65072930Y-53115614D01*
X65072930Y-53115614D02*
X65140273Y-53115614D01*
X65140273Y-53115614D02*
X65241289Y-53149286D01*
X65241289Y-53149286D02*
X65308632Y-53216630D01*
X65308632Y-53216630D02*
X65342304Y-53317645D01*
X65342304Y-53317645D02*
X65342304Y-53384988D01*
X65342304Y-53384988D02*
X65308632Y-53486004D01*
X65308632Y-53486004D02*
X65072930Y-53721706D01*
X67059563Y-52475851D02*
X66655502Y-52879912D01*
X66857533Y-52677881D02*
X66150426Y-51970775D01*
X66150426Y-51970775D02*
X66184098Y-52139133D01*
X66184098Y-52139133D02*
X66184098Y-52273820D01*
X66184098Y-52273820D02*
X66150426Y-52374836D01*
X67295266Y-52105462D02*
X67362609Y-52105462D01*
X67362609Y-52105462D02*
X67362609Y-52172805D01*
X67362609Y-52172805D02*
X67295266Y-52172805D01*
X67295266Y-52172805D02*
X67295266Y-52105462D01*
X67295266Y-52105462D02*
X67362609Y-52172805D01*
X68069716Y-51465699D02*
X67665655Y-51869760D01*
X67867685Y-51667729D02*
X67160578Y-50960622D01*
X67160578Y-50960622D02*
X67194250Y-51128981D01*
X67194250Y-51128981D02*
X67194250Y-51263668D01*
X67194250Y-51263668D02*
X67160578Y-51364683D01*
X65638912Y-56712054D02*
X65571569Y-56712054D01*
X65571569Y-56712054D02*
X65403210Y-56678382D01*
X65403210Y-56678382D02*
X65302195Y-56644711D01*
X65302195Y-56644711D02*
X65167508Y-56577367D01*
X65167508Y-56577367D02*
X64965477Y-56442680D01*
X64965477Y-56442680D02*
X64830790Y-56307993D01*
X64830790Y-56307993D02*
X64696103Y-56105963D01*
X64696103Y-56105963D02*
X64628760Y-55971276D01*
X64628760Y-55971276D02*
X64595088Y-55870260D01*
X64595088Y-55870260D02*
X64561416Y-55701902D01*
X64561416Y-55701902D02*
X64561416Y-55634558D01*
X65638912Y-56173306D02*
X64931806Y-55466199D01*
X64931806Y-55466199D02*
X65672584Y-55735573D01*
X65672584Y-55735573D02*
X65403210Y-54994795D01*
X65403210Y-54994795D02*
X66110317Y-55701901D01*
X66447034Y-55365184D02*
X65739928Y-54658077D01*
X67120469Y-54557062D02*
X67120469Y-54624406D01*
X67120469Y-54624406D02*
X67053126Y-54759093D01*
X67053126Y-54759093D02*
X66985782Y-54826436D01*
X66985782Y-54826436D02*
X66851095Y-54893780D01*
X66851095Y-54893780D02*
X66716408Y-54893780D01*
X66716408Y-54893780D02*
X66615393Y-54860108D01*
X66615393Y-54860108D02*
X66447034Y-54759093D01*
X66447034Y-54759093D02*
X66346019Y-54658078D01*
X66346019Y-54658078D02*
X66245003Y-54489719D01*
X66245003Y-54489719D02*
X66211332Y-54388704D01*
X66211332Y-54388704D02*
X66211332Y-54254017D01*
X66211332Y-54254017D02*
X66278675Y-54119330D01*
X66278675Y-54119330D02*
X66346019Y-54051986D01*
X66346019Y-54051986D02*
X66480706Y-53984643D01*
X66480706Y-53984643D02*
X66548049Y-53984643D01*
X67894919Y-53917299D02*
X67322500Y-53816284D01*
X67490858Y-54321360D02*
X66783752Y-53614253D01*
X66783752Y-53614253D02*
X67053126Y-53344879D01*
X67053126Y-53344879D02*
X67154141Y-53311208D01*
X67154141Y-53311208D02*
X67221484Y-53311208D01*
X67221484Y-53311208D02*
X67322500Y-53344879D01*
X67322500Y-53344879D02*
X67423515Y-53445895D01*
X67423515Y-53445895D02*
X67457187Y-53546910D01*
X67457187Y-53546910D02*
X67457187Y-53614253D01*
X67457187Y-53614253D02*
X67423515Y-53715269D01*
X67423515Y-53715269D02*
X67154141Y-53984643D01*
X67625545Y-52772460D02*
X67760232Y-52637773D01*
X67760232Y-52637773D02*
X67861248Y-52604101D01*
X67861248Y-52604101D02*
X67995935Y-52604101D01*
X67995935Y-52604101D02*
X68164293Y-52705116D01*
X68164293Y-52705116D02*
X68399996Y-52940818D01*
X68399996Y-52940818D02*
X68501011Y-53109177D01*
X68501011Y-53109177D02*
X68501011Y-53243864D01*
X68501011Y-53243864D02*
X68467339Y-53344879D01*
X68467339Y-53344879D02*
X68332652Y-53479566D01*
X68332652Y-53479566D02*
X68231637Y-53513238D01*
X68231637Y-53513238D02*
X68096950Y-53513238D01*
X68096950Y-53513238D02*
X67928591Y-53412223D01*
X67928591Y-53412223D02*
X67692889Y-53176521D01*
X67692889Y-53176521D02*
X67591874Y-53008162D01*
X67591874Y-53008162D02*
X67591874Y-52873475D01*
X67591874Y-52873475D02*
X67625545Y-52772460D01*
X69140774Y-53210192D02*
X69140774Y-53142849D01*
X69140774Y-53142849D02*
X69107102Y-52974490D01*
X69107102Y-52974490D02*
X69073431Y-52873475D01*
X69073431Y-52873475D02*
X69006087Y-52738788D01*
X69006087Y-52738788D02*
X68871400Y-52536757D01*
X68871400Y-52536757D02*
X68736713Y-52402070D01*
X68736713Y-52402070D02*
X68534683Y-52267383D01*
X68534683Y-52267383D02*
X68399996Y-52200040D01*
X68399996Y-52200040D02*
X68298980Y-52166368D01*
X68298980Y-52166368D02*
X68130622Y-52132696D01*
X68130622Y-52132696D02*
X68063278Y-52132696D01*
X82867219Y-107773183D02*
X82867219Y-107201755D01*
X83867219Y-107487469D02*
X82867219Y-107487469D01*
X83962457Y-107106517D02*
X83962457Y-106344612D01*
X83771980Y-105535088D02*
X83819600Y-105582707D01*
X83819600Y-105582707D02*
X83867219Y-105725564D01*
X83867219Y-105725564D02*
X83867219Y-105820802D01*
X83867219Y-105820802D02*
X83819600Y-105963659D01*
X83819600Y-105963659D02*
X83724361Y-106058897D01*
X83724361Y-106058897D02*
X83629123Y-106106516D01*
X83629123Y-106106516D02*
X83438647Y-106154135D01*
X83438647Y-106154135D02*
X83295790Y-106154135D01*
X83295790Y-106154135D02*
X83105314Y-106106516D01*
X83105314Y-106106516D02*
X83010076Y-106058897D01*
X83010076Y-106058897D02*
X82914838Y-105963659D01*
X82914838Y-105963659D02*
X82867219Y-105820802D01*
X82867219Y-105820802D02*
X82867219Y-105725564D01*
X82867219Y-105725564D02*
X82914838Y-105582707D01*
X82914838Y-105582707D02*
X82962457Y-105535088D01*
X82867219Y-104916040D02*
X82867219Y-104725564D01*
X82867219Y-104725564D02*
X82914838Y-104630326D01*
X82914838Y-104630326D02*
X83010076Y-104535088D01*
X83010076Y-104535088D02*
X83200552Y-104487469D01*
X83200552Y-104487469D02*
X83533885Y-104487469D01*
X83533885Y-104487469D02*
X83724361Y-104535088D01*
X83724361Y-104535088D02*
X83819600Y-104630326D01*
X83819600Y-104630326D02*
X83867219Y-104725564D01*
X83867219Y-104725564D02*
X83867219Y-104916040D01*
X83867219Y-104916040D02*
X83819600Y-105011278D01*
X83819600Y-105011278D02*
X83724361Y-105106516D01*
X83724361Y-105106516D02*
X83533885Y-105154135D01*
X83533885Y-105154135D02*
X83200552Y-105154135D01*
X83200552Y-105154135D02*
X83010076Y-105106516D01*
X83010076Y-105106516D02*
X82914838Y-105011278D01*
X82914838Y-105011278D02*
X82867219Y-104916040D01*
X83867219Y-104058897D02*
X82867219Y-104058897D01*
X82867219Y-104058897D02*
X83867219Y-103487469D01*
X83867219Y-103487469D02*
X82867219Y-103487469D01*
X82867219Y-103154135D02*
X82867219Y-102582707D01*
X83867219Y-102868421D02*
X82867219Y-102868421D01*
X84248171Y-101201754D02*
X84200552Y-101249373D01*
X84200552Y-101249373D02*
X84057695Y-101344611D01*
X84057695Y-101344611D02*
X83962457Y-101392230D01*
X83962457Y-101392230D02*
X83819600Y-101439849D01*
X83819600Y-101439849D02*
X83581504Y-101487468D01*
X83581504Y-101487468D02*
X83391028Y-101487468D01*
X83391028Y-101487468D02*
X83152933Y-101439849D01*
X83152933Y-101439849D02*
X83010076Y-101392230D01*
X83010076Y-101392230D02*
X82914838Y-101344611D01*
X82914838Y-101344611D02*
X82771980Y-101249373D01*
X82771980Y-101249373D02*
X82724361Y-101201754D01*
X83867219Y-100296992D02*
X83867219Y-100868420D01*
X83867219Y-100582706D02*
X82867219Y-100582706D01*
X82867219Y-100582706D02*
X83010076Y-100677944D01*
X83010076Y-100677944D02*
X83105314Y-100773182D01*
X83105314Y-100773182D02*
X83152933Y-100868420D01*
X84248171Y-99963658D02*
X84200552Y-99916039D01*
X84200552Y-99916039D02*
X84057695Y-99820801D01*
X84057695Y-99820801D02*
X83962457Y-99773182D01*
X83962457Y-99773182D02*
X83819600Y-99725563D01*
X83819600Y-99725563D02*
X83581504Y-99677944D01*
X83581504Y-99677944D02*
X83391028Y-99677944D01*
X83391028Y-99677944D02*
X83152933Y-99725563D01*
X83152933Y-99725563D02*
X83010076Y-99773182D01*
X83010076Y-99773182D02*
X82914838Y-99820801D01*
X82914838Y-99820801D02*
X82771980Y-99916039D01*
X82771980Y-99916039D02*
X82724361Y-99963658D01*
D12*
X60561905Y-90054819D02*
X60561905Y-89054819D01*
X60561905Y-89054819D02*
X60800000Y-89054819D01*
X60800000Y-89054819D02*
X60942857Y-89102438D01*
X60942857Y-89102438D02*
X61038095Y-89197676D01*
X61038095Y-89197676D02*
X61085714Y-89292914D01*
X61085714Y-89292914D02*
X61133333Y-89483390D01*
X61133333Y-89483390D02*
X61133333Y-89626247D01*
X61133333Y-89626247D02*
X61085714Y-89816723D01*
X61085714Y-89816723D02*
X61038095Y-89911961D01*
X61038095Y-89911961D02*
X60942857Y-90007200D01*
X60942857Y-90007200D02*
X60800000Y-90054819D01*
X60800000Y-90054819D02*
X60561905Y-90054819D01*
X61704762Y-89483390D02*
X61609524Y-89435771D01*
X61609524Y-89435771D02*
X61561905Y-89388152D01*
X61561905Y-89388152D02*
X61514286Y-89292914D01*
X61514286Y-89292914D02*
X61514286Y-89245295D01*
X61514286Y-89245295D02*
X61561905Y-89150057D01*
X61561905Y-89150057D02*
X61609524Y-89102438D01*
X61609524Y-89102438D02*
X61704762Y-89054819D01*
X61704762Y-89054819D02*
X61895238Y-89054819D01*
X61895238Y-89054819D02*
X61990476Y-89102438D01*
X61990476Y-89102438D02*
X62038095Y-89150057D01*
X62038095Y-89150057D02*
X62085714Y-89245295D01*
X62085714Y-89245295D02*
X62085714Y-89292914D01*
X62085714Y-89292914D02*
X62038095Y-89388152D01*
X62038095Y-89388152D02*
X61990476Y-89435771D01*
X61990476Y-89435771D02*
X61895238Y-89483390D01*
X61895238Y-89483390D02*
X61704762Y-89483390D01*
X61704762Y-89483390D02*
X61609524Y-89531009D01*
X61609524Y-89531009D02*
X61561905Y-89578628D01*
X61561905Y-89578628D02*
X61514286Y-89673866D01*
X61514286Y-89673866D02*
X61514286Y-89864342D01*
X61514286Y-89864342D02*
X61561905Y-89959580D01*
X61561905Y-89959580D02*
X61609524Y-90007200D01*
X61609524Y-90007200D02*
X61704762Y-90054819D01*
X61704762Y-90054819D02*
X61895238Y-90054819D01*
X61895238Y-90054819D02*
X61990476Y-90007200D01*
X61990476Y-90007200D02*
X62038095Y-89959580D01*
X62038095Y-89959580D02*
X62085714Y-89864342D01*
X62085714Y-89864342D02*
X62085714Y-89673866D01*
X62085714Y-89673866D02*
X62038095Y-89578628D01*
X62038095Y-89578628D02*
X61990476Y-89531009D01*
X61990476Y-89531009D02*
X61895238Y-89483390D01*
X57961905Y-84954819D02*
X57961905Y-83954819D01*
X57961905Y-83954819D02*
X58200000Y-83954819D01*
X58200000Y-83954819D02*
X58342857Y-84002438D01*
X58342857Y-84002438D02*
X58438095Y-84097676D01*
X58438095Y-84097676D02*
X58485714Y-84192914D01*
X58485714Y-84192914D02*
X58533333Y-84383390D01*
X58533333Y-84383390D02*
X58533333Y-84526247D01*
X58533333Y-84526247D02*
X58485714Y-84716723D01*
X58485714Y-84716723D02*
X58438095Y-84811961D01*
X58438095Y-84811961D02*
X58342857Y-84907200D01*
X58342857Y-84907200D02*
X58200000Y-84954819D01*
X58200000Y-84954819D02*
X57961905Y-84954819D01*
X59390476Y-83954819D02*
X59200000Y-83954819D01*
X59200000Y-83954819D02*
X59104762Y-84002438D01*
X59104762Y-84002438D02*
X59057143Y-84050057D01*
X59057143Y-84050057D02*
X58961905Y-84192914D01*
X58961905Y-84192914D02*
X58914286Y-84383390D01*
X58914286Y-84383390D02*
X58914286Y-84764342D01*
X58914286Y-84764342D02*
X58961905Y-84859580D01*
X58961905Y-84859580D02*
X59009524Y-84907200D01*
X59009524Y-84907200D02*
X59104762Y-84954819D01*
X59104762Y-84954819D02*
X59295238Y-84954819D01*
X59295238Y-84954819D02*
X59390476Y-84907200D01*
X59390476Y-84907200D02*
X59438095Y-84859580D01*
X59438095Y-84859580D02*
X59485714Y-84764342D01*
X59485714Y-84764342D02*
X59485714Y-84526247D01*
X59485714Y-84526247D02*
X59438095Y-84431009D01*
X59438095Y-84431009D02*
X59390476Y-84383390D01*
X59390476Y-84383390D02*
X59295238Y-84335771D01*
X59295238Y-84335771D02*
X59104762Y-84335771D01*
X59104762Y-84335771D02*
X59009524Y-84383390D01*
X59009524Y-84383390D02*
X58961905Y-84431009D01*
X58961905Y-84431009D02*
X58914286Y-84526247D01*
X87954819Y-59311904D02*
X88764342Y-59311904D01*
X88764342Y-59311904D02*
X88859580Y-59264285D01*
X88859580Y-59264285D02*
X88907200Y-59216666D01*
X88907200Y-59216666D02*
X88954819Y-59121428D01*
X88954819Y-59121428D02*
X88954819Y-58930952D01*
X88954819Y-58930952D02*
X88907200Y-58835714D01*
X88907200Y-58835714D02*
X88859580Y-58788095D01*
X88859580Y-58788095D02*
X88764342Y-58740476D01*
X88764342Y-58740476D02*
X87954819Y-58740476D01*
X88288152Y-57835714D02*
X88954819Y-57835714D01*
X87907200Y-58073809D02*
X88621485Y-58311904D01*
X88621485Y-58311904D02*
X88621485Y-57692857D01*
X64304819Y-70713094D02*
X63304819Y-70713094D01*
X63304819Y-70713094D02*
X63304819Y-70474999D01*
X63304819Y-70474999D02*
X63352438Y-70332142D01*
X63352438Y-70332142D02*
X63447676Y-70236904D01*
X63447676Y-70236904D02*
X63542914Y-70189285D01*
X63542914Y-70189285D02*
X63733390Y-70141666D01*
X63733390Y-70141666D02*
X63876247Y-70141666D01*
X63876247Y-70141666D02*
X64066723Y-70189285D01*
X64066723Y-70189285D02*
X64161961Y-70236904D01*
X64161961Y-70236904D02*
X64257200Y-70332142D01*
X64257200Y-70332142D02*
X64304819Y-70474999D01*
X64304819Y-70474999D02*
X64304819Y-70713094D01*
X63638152Y-69284523D02*
X64304819Y-69284523D01*
X63257200Y-69522618D02*
X63971485Y-69760713D01*
X63971485Y-69760713D02*
X63971485Y-69141666D01*
X56054819Y-96933333D02*
X56769104Y-96933333D01*
X56769104Y-96933333D02*
X56911961Y-96980952D01*
X56911961Y-96980952D02*
X57007200Y-97076190D01*
X57007200Y-97076190D02*
X57054819Y-97219047D01*
X57054819Y-97219047D02*
X57054819Y-97314285D01*
X56054819Y-96552380D02*
X56054819Y-95933333D01*
X56054819Y-95933333D02*
X56435771Y-96266666D01*
X56435771Y-96266666D02*
X56435771Y-96123809D01*
X56435771Y-96123809D02*
X56483390Y-96028571D01*
X56483390Y-96028571D02*
X56531009Y-95980952D01*
X56531009Y-95980952D02*
X56626247Y-95933333D01*
X56626247Y-95933333D02*
X56864342Y-95933333D01*
X56864342Y-95933333D02*
X56959580Y-95980952D01*
X56959580Y-95980952D02*
X57007200Y-96028571D01*
X57007200Y-96028571D02*
X57054819Y-96123809D01*
X57054819Y-96123809D02*
X57054819Y-96409523D01*
X57054819Y-96409523D02*
X57007200Y-96504761D01*
X57007200Y-96504761D02*
X56959580Y-96552380D01*
X65978795Y-57150201D02*
X66483871Y-57655277D01*
X66483871Y-57655277D02*
X66551215Y-57789964D01*
X66551215Y-57789964D02*
X66551215Y-57924651D01*
X66551215Y-57924651D02*
X66483871Y-58059338D01*
X66483871Y-58059338D02*
X66416528Y-58126682D01*
X67393009Y-57150201D02*
X66988948Y-57554262D01*
X67190978Y-57352231D02*
X66483871Y-56645124D01*
X66483871Y-56645124D02*
X66517543Y-56813483D01*
X66517543Y-56813483D02*
X66517543Y-56948170D01*
X66517543Y-56948170D02*
X66483871Y-57049185D01*
X87954819Y-66738094D02*
X86954819Y-66738094D01*
X86954819Y-66738094D02*
X86954819Y-66499999D01*
X86954819Y-66499999D02*
X87002438Y-66357142D01*
X87002438Y-66357142D02*
X87097676Y-66261904D01*
X87097676Y-66261904D02*
X87192914Y-66214285D01*
X87192914Y-66214285D02*
X87383390Y-66166666D01*
X87383390Y-66166666D02*
X87526247Y-66166666D01*
X87526247Y-66166666D02*
X87716723Y-66214285D01*
X87716723Y-66214285D02*
X87811961Y-66261904D01*
X87811961Y-66261904D02*
X87907200Y-66357142D01*
X87907200Y-66357142D02*
X87954819Y-66499999D01*
X87954819Y-66499999D02*
X87954819Y-66738094D01*
X86954819Y-65261904D02*
X86954819Y-65738094D01*
X86954819Y-65738094D02*
X87431009Y-65785713D01*
X87431009Y-65785713D02*
X87383390Y-65738094D01*
X87383390Y-65738094D02*
X87335771Y-65642856D01*
X87335771Y-65642856D02*
X87335771Y-65404761D01*
X87335771Y-65404761D02*
X87383390Y-65309523D01*
X87383390Y-65309523D02*
X87431009Y-65261904D01*
X87431009Y-65261904D02*
X87526247Y-65214285D01*
X87526247Y-65214285D02*
X87764342Y-65214285D01*
X87764342Y-65214285D02*
X87859580Y-65261904D01*
X87859580Y-65261904D02*
X87907200Y-65309523D01*
X87907200Y-65309523D02*
X87954819Y-65404761D01*
X87954819Y-65404761D02*
X87954819Y-65642856D01*
X87954819Y-65642856D02*
X87907200Y-65738094D01*
X87907200Y-65738094D02*
X87859580Y-65785713D01*
X49533333Y-77159580D02*
X49485714Y-77207200D01*
X49485714Y-77207200D02*
X49342857Y-77254819D01*
X49342857Y-77254819D02*
X49247619Y-77254819D01*
X49247619Y-77254819D02*
X49104762Y-77207200D01*
X49104762Y-77207200D02*
X49009524Y-77111961D01*
X49009524Y-77111961D02*
X48961905Y-77016723D01*
X48961905Y-77016723D02*
X48914286Y-76826247D01*
X48914286Y-76826247D02*
X48914286Y-76683390D01*
X48914286Y-76683390D02*
X48961905Y-76492914D01*
X48961905Y-76492914D02*
X49009524Y-76397676D01*
X49009524Y-76397676D02*
X49104762Y-76302438D01*
X49104762Y-76302438D02*
X49247619Y-76254819D01*
X49247619Y-76254819D02*
X49342857Y-76254819D01*
X49342857Y-76254819D02*
X49485714Y-76302438D01*
X49485714Y-76302438D02*
X49533333Y-76350057D01*
X50485714Y-77254819D02*
X49914286Y-77254819D01*
X50200000Y-77254819D02*
X50200000Y-76254819D01*
X50200000Y-76254819D02*
X50104762Y-76397676D01*
X50104762Y-76397676D02*
X50009524Y-76492914D01*
X50009524Y-76492914D02*
X49914286Y-76540533D01*
X102459580Y-143941666D02*
X102507200Y-143989285D01*
X102507200Y-143989285D02*
X102554819Y-144132142D01*
X102554819Y-144132142D02*
X102554819Y-144227380D01*
X102554819Y-144227380D02*
X102507200Y-144370237D01*
X102507200Y-144370237D02*
X102411961Y-144465475D01*
X102411961Y-144465475D02*
X102316723Y-144513094D01*
X102316723Y-144513094D02*
X102126247Y-144560713D01*
X102126247Y-144560713D02*
X101983390Y-144560713D01*
X101983390Y-144560713D02*
X101792914Y-144513094D01*
X101792914Y-144513094D02*
X101697676Y-144465475D01*
X101697676Y-144465475D02*
X101602438Y-144370237D01*
X101602438Y-144370237D02*
X101554819Y-144227380D01*
X101554819Y-144227380D02*
X101554819Y-144132142D01*
X101554819Y-144132142D02*
X101602438Y-143989285D01*
X101602438Y-143989285D02*
X101650057Y-143941666D01*
X101554819Y-143608332D02*
X101554819Y-142941666D01*
X101554819Y-142941666D02*
X102554819Y-143370237D01*
X85154819Y-91966666D02*
X84678628Y-92299999D01*
X85154819Y-92538094D02*
X84154819Y-92538094D01*
X84154819Y-92538094D02*
X84154819Y-92157142D01*
X84154819Y-92157142D02*
X84202438Y-92061904D01*
X84202438Y-92061904D02*
X84250057Y-92014285D01*
X84250057Y-92014285D02*
X84345295Y-91966666D01*
X84345295Y-91966666D02*
X84488152Y-91966666D01*
X84488152Y-91966666D02*
X84583390Y-92014285D01*
X84583390Y-92014285D02*
X84631009Y-92061904D01*
X84631009Y-92061904D02*
X84678628Y-92157142D01*
X84678628Y-92157142D02*
X84678628Y-92538094D01*
X84154819Y-91633332D02*
X84154819Y-91014285D01*
X84154819Y-91014285D02*
X84535771Y-91347618D01*
X84535771Y-91347618D02*
X84535771Y-91204761D01*
X84535771Y-91204761D02*
X84583390Y-91109523D01*
X84583390Y-91109523D02*
X84631009Y-91061904D01*
X84631009Y-91061904D02*
X84726247Y-91014285D01*
X84726247Y-91014285D02*
X84964342Y-91014285D01*
X84964342Y-91014285D02*
X85059580Y-91061904D01*
X85059580Y-91061904D02*
X85107200Y-91109523D01*
X85107200Y-91109523D02*
X85154819Y-91204761D01*
X85154819Y-91204761D02*
X85154819Y-91490475D01*
X85154819Y-91490475D02*
X85107200Y-91585713D01*
X85107200Y-91585713D02*
X85059580Y-91633332D01*
X97988095Y-141354819D02*
X97988095Y-142164342D01*
X97988095Y-142164342D02*
X98035714Y-142259580D01*
X98035714Y-142259580D02*
X98083333Y-142307200D01*
X98083333Y-142307200D02*
X98178571Y-142354819D01*
X98178571Y-142354819D02*
X98369047Y-142354819D01*
X98369047Y-142354819D02*
X98464285Y-142307200D01*
X98464285Y-142307200D02*
X98511904Y-142259580D01*
X98511904Y-142259580D02*
X98559523Y-142164342D01*
X98559523Y-142164342D02*
X98559523Y-141354819D01*
X98988095Y-141450057D02*
X99035714Y-141402438D01*
X99035714Y-141402438D02*
X99130952Y-141354819D01*
X99130952Y-141354819D02*
X99369047Y-141354819D01*
X99369047Y-141354819D02*
X99464285Y-141402438D01*
X99464285Y-141402438D02*
X99511904Y-141450057D01*
X99511904Y-141450057D02*
X99559523Y-141545295D01*
X99559523Y-141545295D02*
X99559523Y-141640533D01*
X99559523Y-141640533D02*
X99511904Y-141783390D01*
X99511904Y-141783390D02*
X98940476Y-142354819D01*
X98940476Y-142354819D02*
X99559523Y-142354819D01*
X112307142Y-52654819D02*
X111973809Y-52178628D01*
X111735714Y-52654819D02*
X111735714Y-51654819D01*
X111735714Y-51654819D02*
X112116666Y-51654819D01*
X112116666Y-51654819D02*
X112211904Y-51702438D01*
X112211904Y-51702438D02*
X112259523Y-51750057D01*
X112259523Y-51750057D02*
X112307142Y-51845295D01*
X112307142Y-51845295D02*
X112307142Y-51988152D01*
X112307142Y-51988152D02*
X112259523Y-52083390D01*
X112259523Y-52083390D02*
X112211904Y-52131009D01*
X112211904Y-52131009D02*
X112116666Y-52178628D01*
X112116666Y-52178628D02*
X111735714Y-52178628D01*
X113259523Y-52654819D02*
X112688095Y-52654819D01*
X112973809Y-52654819D02*
X112973809Y-51654819D01*
X112973809Y-51654819D02*
X112878571Y-51797676D01*
X112878571Y-51797676D02*
X112783333Y-51892914D01*
X112783333Y-51892914D02*
X112688095Y-51940533D01*
X113592857Y-51654819D02*
X114211904Y-51654819D01*
X114211904Y-51654819D02*
X113878571Y-52035771D01*
X113878571Y-52035771D02*
X114021428Y-52035771D01*
X114021428Y-52035771D02*
X114116666Y-52083390D01*
X114116666Y-52083390D02*
X114164285Y-52131009D01*
X114164285Y-52131009D02*
X114211904Y-52226247D01*
X114211904Y-52226247D02*
X114211904Y-52464342D01*
X114211904Y-52464342D02*
X114164285Y-52559580D01*
X114164285Y-52559580D02*
X114116666Y-52607200D01*
X114116666Y-52607200D02*
X114021428Y-52654819D01*
X114021428Y-52654819D02*
X113735714Y-52654819D01*
X113735714Y-52654819D02*
X113640476Y-52607200D01*
X113640476Y-52607200D02*
X113592857Y-52559580D01*
X110766667Y-45407200D02*
X110909524Y-45454819D01*
X110909524Y-45454819D02*
X111147619Y-45454819D01*
X111147619Y-45454819D02*
X111242857Y-45407200D01*
X111242857Y-45407200D02*
X111290476Y-45359580D01*
X111290476Y-45359580D02*
X111338095Y-45264342D01*
X111338095Y-45264342D02*
X111338095Y-45169104D01*
X111338095Y-45169104D02*
X111290476Y-45073866D01*
X111290476Y-45073866D02*
X111242857Y-45026247D01*
X111242857Y-45026247D02*
X111147619Y-44978628D01*
X111147619Y-44978628D02*
X110957143Y-44931009D01*
X110957143Y-44931009D02*
X110861905Y-44883390D01*
X110861905Y-44883390D02*
X110814286Y-44835771D01*
X110814286Y-44835771D02*
X110766667Y-44740533D01*
X110766667Y-44740533D02*
X110766667Y-44645295D01*
X110766667Y-44645295D02*
X110814286Y-44550057D01*
X110814286Y-44550057D02*
X110861905Y-44502438D01*
X110861905Y-44502438D02*
X110957143Y-44454819D01*
X110957143Y-44454819D02*
X111195238Y-44454819D01*
X111195238Y-44454819D02*
X111338095Y-44502438D01*
X111671429Y-44454819D02*
X111909524Y-45454819D01*
X111909524Y-45454819D02*
X112100000Y-44740533D01*
X112100000Y-44740533D02*
X112290476Y-45454819D01*
X112290476Y-45454819D02*
X112528572Y-44454819D01*
X112861905Y-44550057D02*
X112909524Y-44502438D01*
X112909524Y-44502438D02*
X113004762Y-44454819D01*
X113004762Y-44454819D02*
X113242857Y-44454819D01*
X113242857Y-44454819D02*
X113338095Y-44502438D01*
X113338095Y-44502438D02*
X113385714Y-44550057D01*
X113385714Y-44550057D02*
X113433333Y-44645295D01*
X113433333Y-44645295D02*
X113433333Y-44740533D01*
X113433333Y-44740533D02*
X113385714Y-44883390D01*
X113385714Y-44883390D02*
X112814286Y-45454819D01*
X112814286Y-45454819D02*
X113433333Y-45454819D01*
X89954819Y-67142857D02*
X89478628Y-67476190D01*
X89954819Y-67714285D02*
X88954819Y-67714285D01*
X88954819Y-67714285D02*
X88954819Y-67333333D01*
X88954819Y-67333333D02*
X89002438Y-67238095D01*
X89002438Y-67238095D02*
X89050057Y-67190476D01*
X89050057Y-67190476D02*
X89145295Y-67142857D01*
X89145295Y-67142857D02*
X89288152Y-67142857D01*
X89288152Y-67142857D02*
X89383390Y-67190476D01*
X89383390Y-67190476D02*
X89431009Y-67238095D01*
X89431009Y-67238095D02*
X89478628Y-67333333D01*
X89478628Y-67333333D02*
X89478628Y-67714285D01*
X89954819Y-66190476D02*
X89954819Y-66761904D01*
X89954819Y-66476190D02*
X88954819Y-66476190D01*
X88954819Y-66476190D02*
X89097676Y-66571428D01*
X89097676Y-66571428D02*
X89192914Y-66666666D01*
X89192914Y-66666666D02*
X89240533Y-66761904D01*
X89288152Y-65333333D02*
X89954819Y-65333333D01*
X88907200Y-65571428D02*
X89621485Y-65809523D01*
X89621485Y-65809523D02*
X89621485Y-65190476D01*
X84466667Y-45407200D02*
X84609524Y-45454819D01*
X84609524Y-45454819D02*
X84847619Y-45454819D01*
X84847619Y-45454819D02*
X84942857Y-45407200D01*
X84942857Y-45407200D02*
X84990476Y-45359580D01*
X84990476Y-45359580D02*
X85038095Y-45264342D01*
X85038095Y-45264342D02*
X85038095Y-45169104D01*
X85038095Y-45169104D02*
X84990476Y-45073866D01*
X84990476Y-45073866D02*
X84942857Y-45026247D01*
X84942857Y-45026247D02*
X84847619Y-44978628D01*
X84847619Y-44978628D02*
X84657143Y-44931009D01*
X84657143Y-44931009D02*
X84561905Y-44883390D01*
X84561905Y-44883390D02*
X84514286Y-44835771D01*
X84514286Y-44835771D02*
X84466667Y-44740533D01*
X84466667Y-44740533D02*
X84466667Y-44645295D01*
X84466667Y-44645295D02*
X84514286Y-44550057D01*
X84514286Y-44550057D02*
X84561905Y-44502438D01*
X84561905Y-44502438D02*
X84657143Y-44454819D01*
X84657143Y-44454819D02*
X84895238Y-44454819D01*
X84895238Y-44454819D02*
X85038095Y-44502438D01*
X85371429Y-44454819D02*
X85609524Y-45454819D01*
X85609524Y-45454819D02*
X85800000Y-44740533D01*
X85800000Y-44740533D02*
X85990476Y-45454819D01*
X85990476Y-45454819D02*
X86228572Y-44454819D01*
X87133333Y-45454819D02*
X86561905Y-45454819D01*
X86847619Y-45454819D02*
X86847619Y-44454819D01*
X86847619Y-44454819D02*
X86752381Y-44597676D01*
X86752381Y-44597676D02*
X86657143Y-44692914D01*
X86657143Y-44692914D02*
X86561905Y-44740533D01*
X103654819Y-127791666D02*
X103178628Y-128124999D01*
X103654819Y-128363094D02*
X102654819Y-128363094D01*
X102654819Y-128363094D02*
X102654819Y-127982142D01*
X102654819Y-127982142D02*
X102702438Y-127886904D01*
X102702438Y-127886904D02*
X102750057Y-127839285D01*
X102750057Y-127839285D02*
X102845295Y-127791666D01*
X102845295Y-127791666D02*
X102988152Y-127791666D01*
X102988152Y-127791666D02*
X103083390Y-127839285D01*
X103083390Y-127839285D02*
X103131009Y-127886904D01*
X103131009Y-127886904D02*
X103178628Y-127982142D01*
X103178628Y-127982142D02*
X103178628Y-128363094D01*
X103654819Y-126839285D02*
X103654819Y-127410713D01*
X103654819Y-127124999D02*
X102654819Y-127124999D01*
X102654819Y-127124999D02*
X102797676Y-127220237D01*
X102797676Y-127220237D02*
X102892914Y-127315475D01*
X102892914Y-127315475D02*
X102940533Y-127410713D01*
X95554819Y-127766666D02*
X95078628Y-128099999D01*
X95554819Y-128338094D02*
X94554819Y-128338094D01*
X94554819Y-128338094D02*
X94554819Y-127957142D01*
X94554819Y-127957142D02*
X94602438Y-127861904D01*
X94602438Y-127861904D02*
X94650057Y-127814285D01*
X94650057Y-127814285D02*
X94745295Y-127766666D01*
X94745295Y-127766666D02*
X94888152Y-127766666D01*
X94888152Y-127766666D02*
X94983390Y-127814285D01*
X94983390Y-127814285D02*
X95031009Y-127861904D01*
X95031009Y-127861904D02*
X95078628Y-127957142D01*
X95078628Y-127957142D02*
X95078628Y-128338094D01*
X94983390Y-127195237D02*
X94935771Y-127290475D01*
X94935771Y-127290475D02*
X94888152Y-127338094D01*
X94888152Y-127338094D02*
X94792914Y-127385713D01*
X94792914Y-127385713D02*
X94745295Y-127385713D01*
X94745295Y-127385713D02*
X94650057Y-127338094D01*
X94650057Y-127338094D02*
X94602438Y-127290475D01*
X94602438Y-127290475D02*
X94554819Y-127195237D01*
X94554819Y-127195237D02*
X94554819Y-127004761D01*
X94554819Y-127004761D02*
X94602438Y-126909523D01*
X94602438Y-126909523D02*
X94650057Y-126861904D01*
X94650057Y-126861904D02*
X94745295Y-126814285D01*
X94745295Y-126814285D02*
X94792914Y-126814285D01*
X94792914Y-126814285D02*
X94888152Y-126861904D01*
X94888152Y-126861904D02*
X94935771Y-126909523D01*
X94935771Y-126909523D02*
X94983390Y-127004761D01*
X94983390Y-127004761D02*
X94983390Y-127195237D01*
X94983390Y-127195237D02*
X95031009Y-127290475D01*
X95031009Y-127290475D02*
X95078628Y-127338094D01*
X95078628Y-127338094D02*
X95173866Y-127385713D01*
X95173866Y-127385713D02*
X95364342Y-127385713D01*
X95364342Y-127385713D02*
X95459580Y-127338094D01*
X95459580Y-127338094D02*
X95507200Y-127290475D01*
X95507200Y-127290475D02*
X95554819Y-127195237D01*
X95554819Y-127195237D02*
X95554819Y-127004761D01*
X95554819Y-127004761D02*
X95507200Y-126909523D01*
X95507200Y-126909523D02*
X95459580Y-126861904D01*
X95459580Y-126861904D02*
X95364342Y-126814285D01*
X95364342Y-126814285D02*
X95173866Y-126814285D01*
X95173866Y-126814285D02*
X95078628Y-126861904D01*
X95078628Y-126861904D02*
X95031009Y-126909523D01*
X95031009Y-126909523D02*
X94983390Y-127004761D01*
X65354819Y-67238094D02*
X64354819Y-67238094D01*
X64354819Y-67238094D02*
X64354819Y-66999999D01*
X64354819Y-66999999D02*
X64402438Y-66857142D01*
X64402438Y-66857142D02*
X64497676Y-66761904D01*
X64497676Y-66761904D02*
X64592914Y-66714285D01*
X64592914Y-66714285D02*
X64783390Y-66666666D01*
X64783390Y-66666666D02*
X64926247Y-66666666D01*
X64926247Y-66666666D02*
X65116723Y-66714285D01*
X65116723Y-66714285D02*
X65211961Y-66761904D01*
X65211961Y-66761904D02*
X65307200Y-66857142D01*
X65307200Y-66857142D02*
X65354819Y-66999999D01*
X65354819Y-66999999D02*
X65354819Y-67238094D01*
X64450057Y-66285713D02*
X64402438Y-66238094D01*
X64402438Y-66238094D02*
X64354819Y-66142856D01*
X64354819Y-66142856D02*
X64354819Y-65904761D01*
X64354819Y-65904761D02*
X64402438Y-65809523D01*
X64402438Y-65809523D02*
X64450057Y-65761904D01*
X64450057Y-65761904D02*
X64545295Y-65714285D01*
X64545295Y-65714285D02*
X64640533Y-65714285D01*
X64640533Y-65714285D02*
X64783390Y-65761904D01*
X64783390Y-65761904D02*
X65354819Y-66333332D01*
X65354819Y-66333332D02*
X65354819Y-65714285D01*
X99989819Y-127681666D02*
X99513628Y-128014999D01*
X99989819Y-128253094D02*
X98989819Y-128253094D01*
X98989819Y-128253094D02*
X98989819Y-127872142D01*
X98989819Y-127872142D02*
X99037438Y-127776904D01*
X99037438Y-127776904D02*
X99085057Y-127729285D01*
X99085057Y-127729285D02*
X99180295Y-127681666D01*
X99180295Y-127681666D02*
X99323152Y-127681666D01*
X99323152Y-127681666D02*
X99418390Y-127729285D01*
X99418390Y-127729285D02*
X99466009Y-127776904D01*
X99466009Y-127776904D02*
X99513628Y-127872142D01*
X99513628Y-127872142D02*
X99513628Y-128253094D01*
X99085057Y-127300713D02*
X99037438Y-127253094D01*
X99037438Y-127253094D02*
X98989819Y-127157856D01*
X98989819Y-127157856D02*
X98989819Y-126919761D01*
X98989819Y-126919761D02*
X99037438Y-126824523D01*
X99037438Y-126824523D02*
X99085057Y-126776904D01*
X99085057Y-126776904D02*
X99180295Y-126729285D01*
X99180295Y-126729285D02*
X99275533Y-126729285D01*
X99275533Y-126729285D02*
X99418390Y-126776904D01*
X99418390Y-126776904D02*
X99989819Y-127348332D01*
X99989819Y-127348332D02*
X99989819Y-126729285D01*
X62108333Y-76634580D02*
X62060714Y-76682200D01*
X62060714Y-76682200D02*
X61917857Y-76729819D01*
X61917857Y-76729819D02*
X61822619Y-76729819D01*
X61822619Y-76729819D02*
X61679762Y-76682200D01*
X61679762Y-76682200D02*
X61584524Y-76586961D01*
X61584524Y-76586961D02*
X61536905Y-76491723D01*
X61536905Y-76491723D02*
X61489286Y-76301247D01*
X61489286Y-76301247D02*
X61489286Y-76158390D01*
X61489286Y-76158390D02*
X61536905Y-75967914D01*
X61536905Y-75967914D02*
X61584524Y-75872676D01*
X61584524Y-75872676D02*
X61679762Y-75777438D01*
X61679762Y-75777438D02*
X61822619Y-75729819D01*
X61822619Y-75729819D02*
X61917857Y-75729819D01*
X61917857Y-75729819D02*
X62060714Y-75777438D01*
X62060714Y-75777438D02*
X62108333Y-75825057D01*
X62965476Y-76063152D02*
X62965476Y-76729819D01*
X62727381Y-75682200D02*
X62489286Y-76396485D01*
X62489286Y-76396485D02*
X63108333Y-76396485D01*
X70432142Y-69717319D02*
X70098809Y-69241128D01*
X69860714Y-69717319D02*
X69860714Y-68717319D01*
X69860714Y-68717319D02*
X70241666Y-68717319D01*
X70241666Y-68717319D02*
X70336904Y-68764938D01*
X70336904Y-68764938D02*
X70384523Y-68812557D01*
X70384523Y-68812557D02*
X70432142Y-68907795D01*
X70432142Y-68907795D02*
X70432142Y-69050652D01*
X70432142Y-69050652D02*
X70384523Y-69145890D01*
X70384523Y-69145890D02*
X70336904Y-69193509D01*
X70336904Y-69193509D02*
X70241666Y-69241128D01*
X70241666Y-69241128D02*
X69860714Y-69241128D01*
X71384523Y-69717319D02*
X70813095Y-69717319D01*
X71098809Y-69717319D02*
X71098809Y-68717319D01*
X71098809Y-68717319D02*
X71003571Y-68860176D01*
X71003571Y-68860176D02*
X70908333Y-68955414D01*
X70908333Y-68955414D02*
X70813095Y-69003033D01*
X71765476Y-68812557D02*
X71813095Y-68764938D01*
X71813095Y-68764938D02*
X71908333Y-68717319D01*
X71908333Y-68717319D02*
X72146428Y-68717319D01*
X72146428Y-68717319D02*
X72241666Y-68764938D01*
X72241666Y-68764938D02*
X72289285Y-68812557D01*
X72289285Y-68812557D02*
X72336904Y-68907795D01*
X72336904Y-68907795D02*
X72336904Y-69003033D01*
X72336904Y-69003033D02*
X72289285Y-69145890D01*
X72289285Y-69145890D02*
X71717857Y-69717319D01*
X71717857Y-69717319D02*
X72336904Y-69717319D01*
X69478095Y-71154819D02*
X69478095Y-71964342D01*
X69478095Y-71964342D02*
X69525714Y-72059580D01*
X69525714Y-72059580D02*
X69573333Y-72107200D01*
X69573333Y-72107200D02*
X69668571Y-72154819D01*
X69668571Y-72154819D02*
X69859047Y-72154819D01*
X69859047Y-72154819D02*
X69954285Y-72107200D01*
X69954285Y-72107200D02*
X70001904Y-72059580D01*
X70001904Y-72059580D02*
X70049523Y-71964342D01*
X70049523Y-71964342D02*
X70049523Y-71154819D01*
X70430476Y-71154819D02*
X71049523Y-71154819D01*
X71049523Y-71154819D02*
X70716190Y-71535771D01*
X70716190Y-71535771D02*
X70859047Y-71535771D01*
X70859047Y-71535771D02*
X70954285Y-71583390D01*
X70954285Y-71583390D02*
X71001904Y-71631009D01*
X71001904Y-71631009D02*
X71049523Y-71726247D01*
X71049523Y-71726247D02*
X71049523Y-71964342D01*
X71049523Y-71964342D02*
X71001904Y-72059580D01*
X71001904Y-72059580D02*
X70954285Y-72107200D01*
X70954285Y-72107200D02*
X70859047Y-72154819D01*
X70859047Y-72154819D02*
X70573333Y-72154819D01*
X70573333Y-72154819D02*
X70478095Y-72107200D01*
X70478095Y-72107200D02*
X70430476Y-72059580D01*
X62058333Y-78934580D02*
X62010714Y-78982200D01*
X62010714Y-78982200D02*
X61867857Y-79029819D01*
X61867857Y-79029819D02*
X61772619Y-79029819D01*
X61772619Y-79029819D02*
X61629762Y-78982200D01*
X61629762Y-78982200D02*
X61534524Y-78886961D01*
X61534524Y-78886961D02*
X61486905Y-78791723D01*
X61486905Y-78791723D02*
X61439286Y-78601247D01*
X61439286Y-78601247D02*
X61439286Y-78458390D01*
X61439286Y-78458390D02*
X61486905Y-78267914D01*
X61486905Y-78267914D02*
X61534524Y-78172676D01*
X61534524Y-78172676D02*
X61629762Y-78077438D01*
X61629762Y-78077438D02*
X61772619Y-78029819D01*
X61772619Y-78029819D02*
X61867857Y-78029819D01*
X61867857Y-78029819D02*
X62010714Y-78077438D01*
X62010714Y-78077438D02*
X62058333Y-78125057D01*
X62391667Y-78029819D02*
X63010714Y-78029819D01*
X63010714Y-78029819D02*
X62677381Y-78410771D01*
X62677381Y-78410771D02*
X62820238Y-78410771D01*
X62820238Y-78410771D02*
X62915476Y-78458390D01*
X62915476Y-78458390D02*
X62963095Y-78506009D01*
X62963095Y-78506009D02*
X63010714Y-78601247D01*
X63010714Y-78601247D02*
X63010714Y-78839342D01*
X63010714Y-78839342D02*
X62963095Y-78934580D01*
X62963095Y-78934580D02*
X62915476Y-78982200D01*
X62915476Y-78982200D02*
X62820238Y-79029819D01*
X62820238Y-79029819D02*
X62534524Y-79029819D01*
X62534524Y-79029819D02*
X62439286Y-78982200D01*
X62439286Y-78982200D02*
X62391667Y-78934580D01*
X113333333Y-50859580D02*
X113285714Y-50907200D01*
X113285714Y-50907200D02*
X113142857Y-50954819D01*
X113142857Y-50954819D02*
X113047619Y-50954819D01*
X113047619Y-50954819D02*
X112904762Y-50907200D01*
X112904762Y-50907200D02*
X112809524Y-50811961D01*
X112809524Y-50811961D02*
X112761905Y-50716723D01*
X112761905Y-50716723D02*
X112714286Y-50526247D01*
X112714286Y-50526247D02*
X112714286Y-50383390D01*
X112714286Y-50383390D02*
X112761905Y-50192914D01*
X112761905Y-50192914D02*
X112809524Y-50097676D01*
X112809524Y-50097676D02*
X112904762Y-50002438D01*
X112904762Y-50002438D02*
X113047619Y-49954819D01*
X113047619Y-49954819D02*
X113142857Y-49954819D01*
X113142857Y-49954819D02*
X113285714Y-50002438D01*
X113285714Y-50002438D02*
X113333333Y-50050057D01*
X114190476Y-49954819D02*
X114000000Y-49954819D01*
X114000000Y-49954819D02*
X113904762Y-50002438D01*
X113904762Y-50002438D02*
X113857143Y-50050057D01*
X113857143Y-50050057D02*
X113761905Y-50192914D01*
X113761905Y-50192914D02*
X113714286Y-50383390D01*
X113714286Y-50383390D02*
X113714286Y-50764342D01*
X113714286Y-50764342D02*
X113761905Y-50859580D01*
X113761905Y-50859580D02*
X113809524Y-50907200D01*
X113809524Y-50907200D02*
X113904762Y-50954819D01*
X113904762Y-50954819D02*
X114095238Y-50954819D01*
X114095238Y-50954819D02*
X114190476Y-50907200D01*
X114190476Y-50907200D02*
X114238095Y-50859580D01*
X114238095Y-50859580D02*
X114285714Y-50764342D01*
X114285714Y-50764342D02*
X114285714Y-50526247D01*
X114285714Y-50526247D02*
X114238095Y-50431009D01*
X114238095Y-50431009D02*
X114190476Y-50383390D01*
X114190476Y-50383390D02*
X114095238Y-50335771D01*
X114095238Y-50335771D02*
X113904762Y-50335771D01*
X113904762Y-50335771D02*
X113809524Y-50383390D01*
X113809524Y-50383390D02*
X113761905Y-50431009D01*
X113761905Y-50431009D02*
X113714286Y-50526247D01*
X84233333Y-50959580D02*
X84185714Y-51007200D01*
X84185714Y-51007200D02*
X84042857Y-51054819D01*
X84042857Y-51054819D02*
X83947619Y-51054819D01*
X83947619Y-51054819D02*
X83804762Y-51007200D01*
X83804762Y-51007200D02*
X83709524Y-50911961D01*
X83709524Y-50911961D02*
X83661905Y-50816723D01*
X83661905Y-50816723D02*
X83614286Y-50626247D01*
X83614286Y-50626247D02*
X83614286Y-50483390D01*
X83614286Y-50483390D02*
X83661905Y-50292914D01*
X83661905Y-50292914D02*
X83709524Y-50197676D01*
X83709524Y-50197676D02*
X83804762Y-50102438D01*
X83804762Y-50102438D02*
X83947619Y-50054819D01*
X83947619Y-50054819D02*
X84042857Y-50054819D01*
X84042857Y-50054819D02*
X84185714Y-50102438D01*
X84185714Y-50102438D02*
X84233333Y-50150057D01*
X85138095Y-50054819D02*
X84661905Y-50054819D01*
X84661905Y-50054819D02*
X84614286Y-50531009D01*
X84614286Y-50531009D02*
X84661905Y-50483390D01*
X84661905Y-50483390D02*
X84757143Y-50435771D01*
X84757143Y-50435771D02*
X84995238Y-50435771D01*
X84995238Y-50435771D02*
X85090476Y-50483390D01*
X85090476Y-50483390D02*
X85138095Y-50531009D01*
X85138095Y-50531009D02*
X85185714Y-50626247D01*
X85185714Y-50626247D02*
X85185714Y-50864342D01*
X85185714Y-50864342D02*
X85138095Y-50959580D01*
X85138095Y-50959580D02*
X85090476Y-51007200D01*
X85090476Y-51007200D02*
X84995238Y-51054819D01*
X84995238Y-51054819D02*
X84757143Y-51054819D01*
X84757143Y-51054819D02*
X84661905Y-51007200D01*
X84661905Y-51007200D02*
X84614286Y-50959580D01*
X48835833Y-80454819D02*
X48502500Y-79978628D01*
X48264405Y-80454819D02*
X48264405Y-79454819D01*
X48264405Y-79454819D02*
X48645357Y-79454819D01*
X48645357Y-79454819D02*
X48740595Y-79502438D01*
X48740595Y-79502438D02*
X48788214Y-79550057D01*
X48788214Y-79550057D02*
X48835833Y-79645295D01*
X48835833Y-79645295D02*
X48835833Y-79788152D01*
X48835833Y-79788152D02*
X48788214Y-79883390D01*
X48788214Y-79883390D02*
X48740595Y-79931009D01*
X48740595Y-79931009D02*
X48645357Y-79978628D01*
X48645357Y-79978628D02*
X48264405Y-79978628D01*
X49692976Y-79788152D02*
X49692976Y-80454819D01*
X49454881Y-79407200D02*
X49216786Y-80121485D01*
X49216786Y-80121485D02*
X49835833Y-80121485D01*
X84257142Y-52954819D02*
X83923809Y-52478628D01*
X83685714Y-52954819D02*
X83685714Y-51954819D01*
X83685714Y-51954819D02*
X84066666Y-51954819D01*
X84066666Y-51954819D02*
X84161904Y-52002438D01*
X84161904Y-52002438D02*
X84209523Y-52050057D01*
X84209523Y-52050057D02*
X84257142Y-52145295D01*
X84257142Y-52145295D02*
X84257142Y-52288152D01*
X84257142Y-52288152D02*
X84209523Y-52383390D01*
X84209523Y-52383390D02*
X84161904Y-52431009D01*
X84161904Y-52431009D02*
X84066666Y-52478628D01*
X84066666Y-52478628D02*
X83685714Y-52478628D01*
X85209523Y-52954819D02*
X84638095Y-52954819D01*
X84923809Y-52954819D02*
X84923809Y-51954819D01*
X84923809Y-51954819D02*
X84828571Y-52097676D01*
X84828571Y-52097676D02*
X84733333Y-52192914D01*
X84733333Y-52192914D02*
X84638095Y-52240533D01*
X86161904Y-52954819D02*
X85590476Y-52954819D01*
X85876190Y-52954819D02*
X85876190Y-51954819D01*
X85876190Y-51954819D02*
X85780952Y-52097676D01*
X85780952Y-52097676D02*
X85685714Y-52192914D01*
X85685714Y-52192914D02*
X85590476Y-52240533D01*
X67654819Y-66638094D02*
X66654819Y-66638094D01*
X66654819Y-66638094D02*
X66654819Y-66399999D01*
X66654819Y-66399999D02*
X66702438Y-66257142D01*
X66702438Y-66257142D02*
X66797676Y-66161904D01*
X66797676Y-66161904D02*
X66892914Y-66114285D01*
X66892914Y-66114285D02*
X67083390Y-66066666D01*
X67083390Y-66066666D02*
X67226247Y-66066666D01*
X67226247Y-66066666D02*
X67416723Y-66114285D01*
X67416723Y-66114285D02*
X67511961Y-66161904D01*
X67511961Y-66161904D02*
X67607200Y-66257142D01*
X67607200Y-66257142D02*
X67654819Y-66399999D01*
X67654819Y-66399999D02*
X67654819Y-66638094D01*
X66654819Y-65733332D02*
X66654819Y-65114285D01*
X66654819Y-65114285D02*
X67035771Y-65447618D01*
X67035771Y-65447618D02*
X67035771Y-65304761D01*
X67035771Y-65304761D02*
X67083390Y-65209523D01*
X67083390Y-65209523D02*
X67131009Y-65161904D01*
X67131009Y-65161904D02*
X67226247Y-65114285D01*
X67226247Y-65114285D02*
X67464342Y-65114285D01*
X67464342Y-65114285D02*
X67559580Y-65161904D01*
X67559580Y-65161904D02*
X67607200Y-65209523D01*
X67607200Y-65209523D02*
X67654819Y-65304761D01*
X67654819Y-65304761D02*
X67654819Y-65590475D01*
X67654819Y-65590475D02*
X67607200Y-65685713D01*
X67607200Y-65685713D02*
X67559580Y-65733332D01*
D13*
%TO.C,D8*%
X64810000Y-88750000D02*
X64810000Y-85450000D01*
X64810000Y-88750000D02*
X59300000Y-88750000D01*
X64810000Y-85450000D02*
X59300000Y-85450000D01*
%TO.C,D6*%
X62210000Y-80350000D02*
X56700000Y-80350000D01*
X62210000Y-83650000D02*
X56700000Y-83650000D01*
X62210000Y-83650000D02*
X62210000Y-80350000D01*
%TO.C,U4*%
X89800000Y-34250000D02*
X89800000Y-40450000D01*
X89800000Y-34250000D02*
X108200000Y-34250000D01*
X89800000Y-59100000D02*
X89800000Y-60100000D01*
X89800000Y-60100000D02*
X91300000Y-60100000D01*
X108200000Y-34250000D02*
X108200000Y-40450000D01*
X108200000Y-60100000D02*
X106700000Y-60100000D01*
X108200000Y-60100000D02*
X108200000Y-59100000D01*
X89800000Y-41125000D02*
X89300000Y-41125000D01*
X89800000Y-40625000D01*
X89800000Y-41125000D01*
G36*
X89800000Y-41125000D02*
G01*
X89300000Y-41125000D01*
X89800000Y-40625000D01*
X89800000Y-41125000D01*
G37*
%TO.C,D4*%
X64515000Y-69275000D02*
X64515000Y-71560000D01*
X64515000Y-71560000D02*
X65985000Y-71560000D01*
X65985000Y-71560000D02*
X65985000Y-69275000D01*
%TO.C,J3*%
X44500000Y-84400000D02*
X44500000Y-94750000D01*
X44500000Y-94750000D02*
X45450000Y-94750000D01*
X45200000Y-95250000D02*
X47100000Y-95250000D01*
X45450000Y-94750000D02*
X45200000Y-95250000D01*
X46900000Y-94750000D02*
X52300000Y-94750000D01*
X47100000Y-95250000D02*
X47150000Y-95250000D01*
X47150000Y-95250000D02*
X46900000Y-94750000D01*
X52000000Y-95250000D02*
X57100000Y-95250000D01*
X52300000Y-94750000D02*
X52000000Y-95250000D01*
X57100000Y-84400000D02*
X44500000Y-84400000D01*
X57100000Y-95250000D02*
X57100000Y-84400000D01*
D12*
%TO.C,J1*%
X54983868Y-59596536D02*
X55302067Y-59914734D01*
X55089934Y-60126866D02*
X55196000Y-60232932D01*
X55302067Y-59914734D02*
X55089934Y-60126866D01*
X56893057Y-61929988D02*
X57883006Y-62919938D01*
X60746789Y-54470012D02*
X60428591Y-54151813D01*
X60782144Y-62495673D02*
X60075037Y-63202780D01*
X60958921Y-54257879D02*
X60746789Y-54470012D01*
X61064987Y-54363945D02*
X60958921Y-54257879D01*
X63115596Y-60763262D02*
X63628249Y-60250609D01*
X63327728Y-59950089D02*
X64034835Y-59242982D01*
X63628249Y-60250609D02*
X63327728Y-59950089D01*
X63751993Y-57050951D02*
X62762043Y-56061002D01*
D13*
%TO.C,D5*%
X86915000Y-61827500D02*
X86915000Y-64112500D01*
X88385000Y-61827500D02*
X86915000Y-61827500D01*
X88385000Y-64112500D02*
X88385000Y-61827500D01*
%TO.C,R5*%
X51537742Y-81077500D02*
X52012258Y-81077500D01*
X51537742Y-82122500D02*
X52012258Y-82122500D01*
%TO.C,C1*%
X51612164Y-76340000D02*
X51827836Y-76340000D01*
X51612164Y-77060000D02*
X51827836Y-77060000D01*
D14*
%TO.C,D1*%
X51140000Y-77680000D02*
X52340000Y-77680000D01*
X52340000Y-78720000D02*
X51140000Y-78720000D01*
D10*
X53340000Y-78200000D02*
G75*
G02*
X53140000Y-78200000I-100000J0D01*
G01*
X53140000Y-78200000D02*
G75*
G02*
X53340000Y-78200000I100000J0D01*
G01*
D13*
%TO.C,R3*%
X82377500Y-91937258D02*
X82377500Y-91462742D01*
X83422500Y-91937258D02*
X83422500Y-91462742D01*
%TO.C,U2*%
X99400000Y-142900000D02*
X98300000Y-142900000D01*
X99400000Y-144700000D02*
X98100000Y-144700000D01*
X98050000Y-142900000D02*
X97770000Y-142900000D01*
X98050000Y-142620000D01*
X98050000Y-142900000D01*
G36*
X98050000Y-142900000D02*
G01*
X97770000Y-142900000D01*
X98050000Y-142620000D01*
X98050000Y-142900000D01*
G37*
%TO.C,R13*%
X116412258Y-51677500D02*
X115937742Y-51677500D01*
X116412258Y-52722500D02*
X115937742Y-52722500D01*
%TO.C,SW2*%
X110450000Y-46200000D02*
X110450000Y-46500000D01*
X110450000Y-49000000D02*
X110450000Y-48700000D01*
X113750000Y-46200000D02*
X110450000Y-46200000D01*
X113750000Y-46500000D02*
X113750000Y-46200000D01*
X113750000Y-48700000D02*
X113750000Y-49000000D01*
X113750000Y-49000000D02*
X110450000Y-49000000D01*
%TO.C,R14*%
X88877500Y-63537258D02*
X88877500Y-63062742D01*
X89922500Y-63537258D02*
X89922500Y-63062742D01*
%TO.C,SW1*%
X84150000Y-46200000D02*
X87450000Y-46200000D01*
X84150000Y-46500000D02*
X84150000Y-46200000D01*
X84150000Y-48700000D02*
X84150000Y-49000000D01*
X84150000Y-49000000D02*
X87450000Y-49000000D01*
X87450000Y-46200000D02*
X87450000Y-46500000D01*
X87450000Y-49000000D02*
X87450000Y-48700000D01*
%TO.C,R1*%
X102777500Y-129962742D02*
X102777500Y-130437258D01*
X103822500Y-129962742D02*
X103822500Y-130437258D01*
%TO.C,R8*%
X94577500Y-130437258D02*
X94577500Y-129962742D01*
X95622500Y-130437258D02*
X95622500Y-129962742D01*
D14*
%TO.C,D2*%
X64380000Y-64300000D02*
X64380000Y-63100000D01*
X65420000Y-63100000D02*
X65420000Y-64300000D01*
D10*
X65000000Y-65200000D02*
G75*
G02*
X64800000Y-65200000I-100000J0D01*
G01*
X64800000Y-65200000D02*
G75*
G02*
X65000000Y-65200000I100000J0D01*
G01*
D13*
%TO.C,R2*%
X98977500Y-129987742D02*
X98977500Y-130462258D01*
X100022500Y-129987742D02*
X100022500Y-130462258D01*
%TO.C,C4*%
X57125000Y-77110000D02*
X61035000Y-77110000D01*
X61035000Y-75240000D02*
X57125000Y-75240000D01*
X61035000Y-77110000D02*
X61035000Y-75240000D01*
%TO.C,R12*%
X67612742Y-68752500D02*
X68087258Y-68752500D01*
X67612742Y-69797500D02*
X68087258Y-69797500D01*
%TO.C,U3*%
X66930000Y-72750000D02*
X66930000Y-73020000D01*
X66930000Y-79650000D02*
X66930000Y-79380000D01*
X73350000Y-72750000D02*
X66930000Y-72750000D01*
X73350000Y-79650000D02*
X66930000Y-79650000D01*
X65200000Y-73060000D02*
X64860000Y-72590000D01*
X65540000Y-72590000D01*
X65200000Y-73060000D01*
G36*
X65200000Y-73060000D02*
G01*
X64860000Y-72590000D01*
X65540000Y-72590000D01*
X65200000Y-73060000D01*
G37*
%TO.C,C3*%
X57025000Y-79510000D02*
X60935000Y-79510000D01*
X60935000Y-77640000D02*
X57025000Y-77640000D01*
X60935000Y-79510000D02*
X60935000Y-77640000D01*
%TO.C,C6*%
X115512164Y-50140000D02*
X115727836Y-50140000D01*
X115512164Y-50860000D02*
X115727836Y-50860000D01*
%TO.C,Q4*%
X75140000Y-98570000D02*
X75140000Y-93929000D01*
X78409000Y-98570000D02*
X78409000Y-97060000D01*
X82110000Y-98570000D02*
X82110000Y-97060000D01*
X85380000Y-93929000D02*
X75140000Y-93929000D01*
X85380000Y-97060000D02*
X75140000Y-97060000D01*
X85380000Y-98570000D02*
X75140000Y-98570000D01*
X85380000Y-98570000D02*
X85380000Y-93929000D01*
%TO.C,C5*%
X81965580Y-50090000D02*
X81684420Y-50090000D01*
X81965580Y-51110000D02*
X81684420Y-51110000D01*
%TO.C,R4*%
X51962258Y-79277500D02*
X51487742Y-79277500D01*
X51962258Y-80322500D02*
X51487742Y-80322500D01*
%TO.C,R11*%
X81637742Y-51977500D02*
X82112258Y-51977500D01*
X81637742Y-53022500D02*
X82112258Y-53022500D01*
D14*
%TO.C,D3*%
X66680000Y-63700000D02*
X66680000Y-62500000D01*
X67720000Y-62500000D02*
X67720000Y-63700000D01*
D10*
X67300000Y-64600000D02*
G75*
G02*
X67100000Y-64600000I-100000J0D01*
G01*
X67100000Y-64600000D02*
G75*
G02*
X67300000Y-64600000I100000J0D01*
G01*
%TD*%
M02*
