M48
; DRILL file {KiCad 8.0.7} date 2025-03-03T14:34:57+0000
; FORMAT={-:-/ absolute / metric / decimal}
; #@! TF.CreationDate,2025-03-03T14:34:57+00:00
; #@! TF.GenerationSoftware,Kicad,Pcbnew,8.0.7
; #@! TF.FileFunction,MixedPlating,1,2
FMAT,2
METRIC
; #@! TA.AperFunction,Plated,PTH,ComponentDrill
T1C0.200
; #@! TA.AperFunction,Plated,PTH,ViaDrill
T2C0.300
; #@! TA.AperFunction,Plated,PTH,ComponentDrill
T3C0.550
; #@! TA.AperFunction,Plated,PTH,ComponentDrill
T4C0.850
; #@! TA.AperFunction,Plated,PTH,ViaDrill
T5C1.100
; #@! TA.AperFunction,Plated,PTH,ComponentDrill
T6C1.100
; #@! TA.AperFunction,Plated,PTH,ComponentDrill
T7C1.320
; #@! TA.AperFunction,NonPlated,NPTH,ComponentDrill
T8C0.800
; #@! TA.AperFunction,NonPlated,NPTH,ComponentDrill
T9C3.200
%
G90
G05
T1
X96.1Y-48.91
X96.1Y-50.31
X96.8Y-48.21
X96.8Y-49.61
X96.8Y-51.01
X97.5Y-48.91
X97.5Y-50.31
X98.2Y-48.21
X98.2Y-49.61
X98.2Y-51.01
X98.9Y-48.91
X98.9Y-50.31
T2
X53.0Y-76.5
X53.0Y-77.2
X53.6Y-80.0
X54.0Y-77.7
X54.5Y-78.2
X54.5Y-78.8
X57.225Y-74.475
X59.025Y-74.475
X60.725Y-74.475
X61.6Y-62.7
X62.1Y-63.2
X62.525Y-74.475
X63.8Y-63.9
X63.8Y-64.5
X63.825Y-70.375
X63.825Y-71.275
X64.325Y-72.075
X65.225Y-72.075
X66.025Y-72.075
X66.1Y-63.9
X66.1Y-64.5
X74.9Y-63.0
X74.926Y-62.126
X81.875Y-48.375
X85.7Y-57.2
X87.4Y-57.73
X87.6Y-61.3
X88.1Y-131.8
X117.7Y-50.5
T5
X55.0Y-92.05
X77.0Y-76.2
X111.7Y-79.3
T6
X77.72Y-95.3
X80.26Y-95.3
X82.8Y-95.3
T7
X50.8Y-87.05
X50.8Y-92.05
T8
X59.156Y-61.859
X62.691Y-58.324
T9
X99.0Y-86.0
X99.0Y-114.0
T3
G00X56.469Y-61.117
M15
G01X56.009Y-60.657
M16
G05
G00X61.949Y-55.637
M15
G01X61.489Y-55.177
M16
G05
T4
G00X59.227Y-63.662
M15
G01X58.838Y-63.273
M16
G05
G00X64.494Y-58.394
M15
G01X64.106Y-58.006
M16
G05
M30
