%TF.GenerationSoftware,KiCad,Pcbnew,8.0.7*%
%TF.CreationDate,2025-03-03T14:35:13+00:00*%
%TF.ProjectId,FYP_Heater,4659505f-4865-4617-9465-722e6b696361,rev?*%
%TF.SameCoordinates,Original*%
%TF.FileFunction,Copper,L1,Top*%
%TF.FilePolarity,Positive*%
%FSLAX46Y46*%
G04 Gerber Fmt 4.6, Leading zero omitted, Abs format (unit mm)*
G04 Created by KiCad (PCBNEW 8.0.7) date 2025-03-03 14:35:13*
%MOMM*%
%LPD*%
G01*
G04 APERTURE LIST*
G04 Aperture macros list*
%AMRoundRect*
0 Rectangle with rounded corners*
0 $1 Rounding radius*
0 $2 $3 $4 $5 $6 $7 $8 $9 X,Y pos of 4 corners*
0 Add a 4 corners polygon primitive as box body*
4,1,4,$2,$3,$4,$5,$6,$7,$8,$9,$2,$3,0*
0 Add four circle primitives for the rounded corners*
1,1,$1+$1,$2,$3*
1,1,$1+$1,$4,$5*
1,1,$1+$1,$6,$7*
1,1,$1+$1,$8,$9*
0 Add four rect primitives between the rounded corners*
20,1,$1+$1,$2,$3,$4,$5,0*
20,1,$1+$1,$4,$5,$6,$7,0*
20,1,$1+$1,$6,$7,$8,$9,0*
20,1,$1+$1,$8,$9,$2,$3,0*%
%AMHorizOval*
0 Thick line with rounded ends*
0 $1 width*
0 $2 $3 position (X,Y) of the first rounded end (center of the circle)*
0 $4 $5 position (X,Y) of the second rounded end (center of the circle)*
0 Add line between two ends*
20,1,$1,$2,$3,$4,$5,0*
0 Add two circle primitives to create the rounded ends*
1,1,$1,$2,$3*
1,1,$1,$4,$5*%
%AMRotRect*
0 Rectangle, with rotation*
0 The origin of the aperture is its center*
0 $1 length*
0 $2 width*
0 $3 Rotation angle, in degrees counterclockwise*
0 Add horizontal line*
21,1,$1,$2,0,0,$3*%
G04 Aperture macros list end*
%TA.AperFunction,SMDPad,CuDef*%
%ADD10RoundRect,0.250000X1.000000X0.650000X-1.000000X0.650000X-1.000000X-0.650000X1.000000X-0.650000X0*%
%TD*%
%TA.AperFunction,SMDPad,CuDef*%
%ADD11R,1.500000X0.900000*%
%TD*%
%TA.AperFunction,SMDPad,CuDef*%
%ADD12R,0.900000X1.500000*%
%TD*%
%TA.AperFunction,HeatsinkPad*%
%ADD13C,0.600000*%
%TD*%
%TA.AperFunction,SMDPad,CuDef*%
%ADD14R,3.900000X3.900000*%
%TD*%
%TA.AperFunction,SMDPad,CuDef*%
%ADD15RoundRect,0.218750X0.256250X-0.218750X0.256250X0.218750X-0.256250X0.218750X-0.256250X-0.218750X0*%
%TD*%
%TA.AperFunction,ComponentPad*%
%ADD16R,3.960000X1.980000*%
%TD*%
%TA.AperFunction,ComponentPad*%
%ADD17O,3.960000X1.980000*%
%TD*%
%TA.AperFunction,SMDPad,CuDef*%
%ADD18RotRect,0.450000X1.300000X225.000000*%
%TD*%
%TA.AperFunction,ComponentPad*%
%ADD19HorizOval,1.150000X-0.229810X0.229810X0.229810X-0.229810X0*%
%TD*%
%TA.AperFunction,ComponentPad*%
%ADD20HorizOval,1.450000X-0.194454X0.194454X0.194454X-0.194454X0*%
%TD*%
%TA.AperFunction,SMDPad,CuDef*%
%ADD21RoundRect,0.218750X-0.256250X0.218750X-0.256250X-0.218750X0.256250X-0.218750X0.256250X0.218750X0*%
%TD*%
%TA.AperFunction,SMDPad,CuDef*%
%ADD22RoundRect,0.200000X-0.200000X-0.275000X0.200000X-0.275000X0.200000X0.275000X-0.200000X0.275000X0*%
%TD*%
%TA.AperFunction,SMDPad,CuDef*%
%ADD23RoundRect,0.140000X-0.140000X-0.170000X0.140000X-0.170000X0.140000X0.170000X-0.140000X0.170000X0*%
%TD*%
%TA.AperFunction,SMDPad,CuDef*%
%ADD24R,0.480000X0.400000*%
%TD*%
%TA.AperFunction,SMDPad,CuDef*%
%ADD25RoundRect,0.100000X-0.100000X0.130000X-0.100000X-0.130000X0.100000X-0.130000X0.100000X0.130000X0*%
%TD*%
%TA.AperFunction,SMDPad,CuDef*%
%ADD26RoundRect,0.200000X0.275000X-0.200000X0.275000X0.200000X-0.275000X0.200000X-0.275000X-0.200000X0*%
%TD*%
%TA.AperFunction,SMDPad,CuDef*%
%ADD27RoundRect,0.085000X-0.265000X-0.085000X0.265000X-0.085000X0.265000X0.085000X-0.265000X0.085000X0*%
%TD*%
%TA.AperFunction,SMDPad,CuDef*%
%ADD28RoundRect,0.200000X0.200000X0.275000X-0.200000X0.275000X-0.200000X-0.275000X0.200000X-0.275000X0*%
%TD*%
%TA.AperFunction,SMDPad,CuDef*%
%ADD29R,0.900000X1.700000*%
%TD*%
%TA.AperFunction,SMDPad,CuDef*%
%ADD30RoundRect,0.200000X-0.275000X0.200000X-0.275000X-0.200000X0.275000X-0.200000X0.275000X0.200000X0*%
%TD*%
%TA.AperFunction,SMDPad,CuDef*%
%ADD31R,0.400000X0.480000*%
%TD*%
%TA.AperFunction,SMDPad,CuDef*%
%ADD32RoundRect,0.250000X0.450000X0.425000X-0.450000X0.425000X-0.450000X-0.425000X0.450000X-0.425000X0*%
%TD*%
%TA.AperFunction,SMDPad,CuDef*%
%ADD33RoundRect,0.250000X-0.850000X-0.350000X0.850000X-0.350000X0.850000X0.350000X-0.850000X0.350000X0*%
%TD*%
%TA.AperFunction,SMDPad,CuDef*%
%ADD34RoundRect,0.250000X-1.275000X-1.125000X1.275000X-1.125000X1.275000X1.125000X-1.275000X1.125000X0*%
%TD*%
%TA.AperFunction,SMDPad,CuDef*%
%ADD35RoundRect,0.249997X-2.950003X-2.650003X2.950003X-2.650003X2.950003X2.650003X-2.950003X2.650003X0*%
%TD*%
%TA.AperFunction,ComponentPad*%
%ADD36R,1.905000X2.000000*%
%TD*%
%TA.AperFunction,ComponentPad*%
%ADD37O,1.905000X2.000000*%
%TD*%
%TA.AperFunction,SMDPad,CuDef*%
%ADD38RoundRect,0.225000X0.225000X0.250000X-0.225000X0.250000X-0.225000X-0.250000X0.225000X-0.250000X0*%
%TD*%
%TA.AperFunction,ViaPad*%
%ADD39C,0.500000*%
%TD*%
%TA.AperFunction,ViaPad*%
%ADD40C,2.400000*%
%TD*%
%TA.AperFunction,ViaPad*%
%ADD41C,0.600000*%
%TD*%
%TA.AperFunction,Conductor*%
%ADD42C,0.200000*%
%TD*%
%TA.AperFunction,Conductor*%
%ADD43C,0.300000*%
%TD*%
%TA.AperFunction,Conductor*%
%ADD44C,1.000000*%
%TD*%
%TA.AperFunction,Conductor*%
%ADD45C,2.000000*%
%TD*%
%TA.AperFunction,Conductor*%
%ADD46C,3.000000*%
%TD*%
%TA.AperFunction,Conductor*%
%ADD47C,0.500000*%
%TD*%
G04 APERTURE END LIST*
D10*
%TO.P,D8,1,K*%
%TO.N,Net-(D6-K)*%
X63300000Y-87100000D03*
%TO.P,D8,2,A*%
%TO.N,5VIN*%
X59300000Y-87100000D03*
%TD*%
%TO.P,D6,2,A*%
%TO.N,VBUS*%
X56700000Y-82000000D03*
%TO.P,D6,1,K*%
%TO.N,Net-(D6-K)*%
X60700000Y-82000000D03*
%TD*%
D11*
%TO.P,U4,1,GND*%
%TO.N,GND*%
X90250000Y-41890000D03*
%TO.P,U4,2,3V3*%
%TO.N,+3V3*%
X90250000Y-43160000D03*
%TO.P,U4,3,EN*%
%TO.N,EN*%
X90250000Y-44430000D03*
%TO.P,U4,4,IO4*%
%TO.N,GPIO4*%
X90250000Y-45700000D03*
%TO.P,U4,5,IO5*%
%TO.N,GPIO5*%
X90250000Y-46970000D03*
%TO.P,U4,6,IO6*%
%TO.N,GPIO6*%
X90250000Y-48240000D03*
%TO.P,U4,7,IO7*%
%TO.N,GPIO7*%
X90250000Y-49510000D03*
%TO.P,U4,8,IO15*%
%TO.N,TEMP_CONT*%
X90250000Y-50780000D03*
%TO.P,U4,9,IO16*%
%TO.N,TEMP_CONTROL*%
X90250000Y-52050000D03*
%TO.P,U4,10,IO17*%
%TO.N,GPIO17*%
X90250000Y-53320000D03*
%TO.P,U4,11,IO18*%
%TO.N,GPIO18*%
X90250000Y-54590000D03*
%TO.P,U4,12,IO8*%
%TO.N,GPIO8*%
X90250000Y-55860000D03*
%TO.P,U4,13,USB_D-*%
%TO.N,D-*%
X90250000Y-57130000D03*
%TO.P,U4,14,USB_D+*%
%TO.N,D+*%
X90250000Y-58400000D03*
D12*
%TO.P,U4,15,IO3*%
%TO.N,GPIO3_NC*%
X92015000Y-59650000D03*
%TO.P,U4,16,IO46*%
%TO.N,GPIO46_NC*%
X93285000Y-59650000D03*
%TO.P,U4,17,IO9*%
%TO.N,GPIO9*%
X94555000Y-59650000D03*
%TO.P,U4,18,IO10*%
%TO.N,HI_T_ALERT*%
X95825000Y-59650000D03*
%TO.P,U4,19,IO11*%
%TO.N,GPIO11*%
X97095000Y-59650000D03*
%TO.P,U4,20,IO12*%
%TO.N,GPIO12*%
X98365000Y-59650000D03*
%TO.P,U4,21,IO13*%
%TO.N,SDA*%
X99635000Y-59650000D03*
%TO.P,U4,22,IO14*%
%TO.N,SCL*%
X100905000Y-59650000D03*
%TO.P,U4,23,IO21*%
%TO.N,GPIO21*%
X102175000Y-59650000D03*
%TO.P,U4,24,IO47*%
%TO.N,GPIO47*%
X103445000Y-59650000D03*
%TO.P,U4,25,IO48*%
%TO.N,GPIO48*%
X104715000Y-59650000D03*
%TO.P,U4,26,IO45*%
%TO.N,GPIO45_NC*%
X105985000Y-59650000D03*
D11*
%TO.P,U4,27,IO0*%
%TO.N,IO0*%
X107750000Y-58400000D03*
%TO.P,U4,28,IO35*%
%TO.N,GPIO35_NC*%
X107750000Y-57130000D03*
%TO.P,U4,29,IO36*%
%TO.N,GPIO36_NC*%
X107750000Y-55860000D03*
%TO.P,U4,30,IO37*%
%TO.N,GPIO37_NC*%
X107750000Y-54590000D03*
%TO.P,U4,31,IO38*%
%TO.N,GPIO38*%
X107750000Y-53320000D03*
%TO.P,U4,32,IO39*%
%TO.N,GPIO39*%
X107750000Y-52050000D03*
%TO.P,U4,33,IO40*%
%TO.N,GPIO40*%
X107750000Y-50780000D03*
%TO.P,U4,34,IO41*%
%TO.N,GPIO41*%
X107750000Y-49510000D03*
%TO.P,U4,35,IO42*%
%TO.N,GPIO42*%
X107750000Y-48240000D03*
%TO.P,U4,36,RXD0*%
%TO.N,RX0*%
X107750000Y-46970000D03*
%TO.P,U4,37,TXD0*%
%TO.N,TX0*%
X107750000Y-45700000D03*
%TO.P,U4,38,IO2*%
%TO.N,GPIO2*%
X107750000Y-44430000D03*
%TO.P,U4,39,IO1*%
%TO.N,GPIO1*%
X107750000Y-43160000D03*
%TO.P,U4,40,GND*%
%TO.N,GND*%
X107750000Y-41890000D03*
D13*
%TO.P,U4,41,GND*%
X96100000Y-48910000D03*
X96100000Y-50310000D03*
X96800000Y-48210000D03*
X96800000Y-49610000D03*
X96800000Y-51010000D03*
X97500000Y-48910000D03*
D14*
X97500000Y-49610000D03*
D13*
X97500000Y-50310000D03*
X98200000Y-48210000D03*
X98200000Y-49610000D03*
X98200000Y-51010000D03*
X98900000Y-48910000D03*
X98900000Y-50310000D03*
%TD*%
D15*
%TO.P,D4,1,K*%
%TO.N,GND*%
X65250000Y-70862500D03*
%TO.P,D4,2,A*%
%TO.N,Net-(D4-A)*%
X65250000Y-69287500D03*
%TD*%
D16*
%TO.P,J3,1,Pin_1*%
%TO.N,5VIN*%
X50800000Y-87050000D03*
D17*
%TO.P,J3,2,Pin_2*%
%TO.N,GND*%
X50800000Y-92050000D03*
%TD*%
D18*
%TO.P,J1,1,VBUS*%
%TO.N,Net-(J1-VBUS)*%
X62620622Y-59950089D03*
%TO.P,J1,2,D-*%
%TO.N,D+*%
X62161002Y-60409708D03*
%TO.P,J1,3,D+*%
%TO.N,D-*%
X61701383Y-60869328D03*
%TO.P,J1,4,ID*%
%TO.N,unconnected-(J1-ID-Pad4)*%
X61241763Y-61328947D03*
%TO.P,J1,5,GND*%
%TO.N,GND*%
X60782144Y-61788567D03*
D19*
%TO.P,J1,6,Shield*%
%TO.N,unconnected-(J1-Shield-Pad6)_2*%
X61719061Y-55406928D03*
D20*
%TO.N,unconnected-(J1-Shield-Pad6)_1*%
X64300000Y-58200000D03*
%TO.N,unconnected-(J1-Shield-Pad6)_3*%
X59032055Y-63467945D03*
D19*
%TO.N,unconnected-(J1-Shield-Pad6)*%
X56238983Y-60887006D03*
%TD*%
D21*
%TO.P,D5,1,K*%
%TO.N,GND*%
X87650000Y-62525000D03*
%TO.P,D5,2,A*%
%TO.N,Net-(D5-A)*%
X87650000Y-64100000D03*
%TD*%
D22*
%TO.P,R5,1*%
%TO.N,Net-(J1-VBUS)*%
X50950000Y-81600000D03*
%TO.P,R5,2*%
%TO.N,VBUS*%
X52600000Y-81600000D03*
%TD*%
D23*
%TO.P,C1,1*%
%TO.N,Net-(J1-VBUS)*%
X51240000Y-76700000D03*
%TO.P,C1,2*%
%TO.N,GND*%
X52200000Y-76700000D03*
%TD*%
D24*
%TO.P,D1,1*%
%TO.N,GND*%
X52400000Y-78200000D03*
%TO.P,D1,2*%
%TO.N,Net-(J1-VBUS)*%
X51080000Y-78200000D03*
%TD*%
D25*
%TO.P,C7,1*%
%TO.N,+3V3*%
X100700000Y-143500000D03*
%TO.P,C7,2*%
%TO.N,GND*%
X100700000Y-144140000D03*
%TD*%
D26*
%TO.P,R3,1*%
%TO.N,Net-(Q4-G)*%
X82900000Y-92525000D03*
%TO.P,R3,2*%
%TO.N,TEMP_CONT*%
X82900000Y-90875000D03*
%TD*%
D27*
%TO.P,U2,1,SCL*%
%TO.N,Net-(U2-SCL)*%
X98000000Y-143300000D03*
%TO.P,U2,2,GND*%
%TO.N,GND*%
X98000000Y-143800000D03*
%TO.P,U2,3,ALERT*%
%TO.N,Net-(U2-ALERT)*%
X98000000Y-144300000D03*
%TO.P,U2,4,ADD0*%
%TO.N,GND*%
X99500000Y-144300000D03*
%TO.P,U2,5,V+*%
%TO.N,+3V3*%
X99500000Y-143800000D03*
%TO.P,U2,6,SDA*%
%TO.N,Net-(U2-SDA)*%
X99500000Y-143300000D03*
%TD*%
D28*
%TO.P,R13,1*%
%TO.N,+3V3*%
X117000000Y-52200000D03*
%TO.P,R13,2*%
%TO.N,IO0*%
X115350000Y-52200000D03*
%TD*%
D29*
%TO.P,SW2,1,A*%
%TO.N,GND*%
X113800000Y-47600000D03*
%TO.P,SW2,2,B*%
%TO.N,IO0*%
X110400000Y-47600000D03*
%TD*%
D26*
%TO.P,R14,1*%
%TO.N,Net-(D5-A)*%
X89400000Y-64125000D03*
%TO.P,R14,2*%
%TO.N,GPIO9*%
X89400000Y-62475000D03*
%TD*%
D29*
%TO.P,SW1,1,A*%
%TO.N,GND*%
X84100000Y-47600000D03*
%TO.P,SW1,2,B*%
%TO.N,EN*%
X87500000Y-47600000D03*
%TD*%
D30*
%TO.P,R1,1*%
%TO.N,SDA*%
X103300000Y-129375000D03*
%TO.P,R1,2*%
%TO.N,Net-(U2-SDA)*%
X103300000Y-131025000D03*
%TD*%
D26*
%TO.P,R8,1*%
%TO.N,Net-(U2-ALERT)*%
X95100000Y-131025000D03*
%TO.P,R8,2*%
%TO.N,HI_T_ALERT*%
X95100000Y-129375000D03*
%TD*%
D31*
%TO.P,D2,1*%
%TO.N,GND*%
X64900000Y-64360000D03*
%TO.P,D2,2*%
%TO.N,D-*%
X64900000Y-63040000D03*
%TD*%
D30*
%TO.P,R2,1*%
%TO.N,SCL*%
X99500000Y-129400000D03*
%TO.P,R2,2*%
%TO.N,Net-(U2-SCL)*%
X99500000Y-131050000D03*
%TD*%
D32*
%TO.P,C4,1*%
%TO.N,+3V3*%
X60075000Y-76175000D03*
%TO.P,C4,2*%
%TO.N,GND*%
X57375000Y-76175000D03*
%TD*%
D22*
%TO.P,R12,1*%
%TO.N,Net-(D4-A)*%
X67025000Y-69275000D03*
%TO.P,R12,2*%
%TO.N,+3V3*%
X68675000Y-69275000D03*
%TD*%
D33*
%TO.P,U3,1,GND*%
%TO.N,GND*%
X65200000Y-73920000D03*
%TO.P,U3,2,VO*%
%TO.N,+3V3*%
X65200000Y-76200000D03*
D34*
X69825000Y-74675000D03*
X69825000Y-77725000D03*
D35*
X71500000Y-76200000D03*
D34*
X73175000Y-74675000D03*
X73175000Y-77725000D03*
D33*
%TO.P,U3,3,VI*%
%TO.N,Net-(D6-K)*%
X65200000Y-78480000D03*
%TD*%
D32*
%TO.P,C3,1*%
%TO.N,Net-(D6-K)*%
X59975000Y-78575000D03*
%TO.P,C3,2*%
%TO.N,GND*%
X57275000Y-78575000D03*
%TD*%
D23*
%TO.P,C6,1*%
%TO.N,IO0*%
X115140000Y-50500000D03*
%TO.P,C6,2*%
%TO.N,GND*%
X116100000Y-50500000D03*
%TD*%
D36*
%TO.P,Q4,1,G*%
%TO.N,Net-(Q4-G)*%
X82800000Y-95300000D03*
D37*
%TO.P,Q4,2,D*%
%TO.N,Net-(H1-24V)*%
X80260000Y-95300000D03*
%TO.P,Q4,3,S*%
%TO.N,5V*%
X77720000Y-95300000D03*
%TD*%
D38*
%TO.P,C5,1*%
%TO.N,EN*%
X82600000Y-50600000D03*
%TO.P,C5,2*%
%TO.N,GND*%
X81050000Y-50600000D03*
%TD*%
D28*
%TO.P,R4,1*%
%TO.N,GND*%
X52550000Y-79800000D03*
%TO.P,R4,2*%
%TO.N,Net-(J1-VBUS)*%
X50900000Y-79800000D03*
%TD*%
D22*
%TO.P,R11,1*%
%TO.N,+3V3*%
X81050000Y-52500000D03*
%TO.P,R11,2*%
%TO.N,EN*%
X82700000Y-52500000D03*
%TD*%
D31*
%TO.P,D3,1*%
%TO.N,GND*%
X67200000Y-63760000D03*
%TO.P,D3,2*%
%TO.N,D+*%
X67200000Y-62440000D03*
%TD*%
D39*
%TO.N,GND*%
X54500000Y-78800000D03*
X54500000Y-78200000D03*
D40*
X55000000Y-92050000D03*
D39*
X63825000Y-70375000D03*
X53000000Y-76500000D03*
D41*
X62100000Y-63200000D03*
X63800000Y-64500000D03*
D39*
X57225000Y-74475000D03*
X53600000Y-80000000D03*
X62525000Y-74475000D03*
X117700000Y-50500000D03*
X53000000Y-77200000D03*
D41*
X63800000Y-63900000D03*
D39*
X81875000Y-48375000D03*
X87600000Y-61300000D03*
D41*
X66100000Y-63900000D03*
X66100000Y-64500000D03*
D39*
X66025000Y-72075000D03*
X65225000Y-72075000D03*
X64325000Y-72075000D03*
X88100000Y-131800000D03*
X59025000Y-74475000D03*
X60725000Y-74475000D03*
X54000000Y-77700000D03*
D41*
X61600000Y-62700000D03*
D39*
X63825000Y-71275000D03*
D40*
%TO.N,+3V3*%
X111700000Y-79300000D03*
X77000000Y-76200000D03*
D41*
%TO.N,D-*%
X85700000Y-57200000D03*
X74900000Y-63000000D03*
%TO.N,D+*%
X87400000Y-57730000D03*
X74925735Y-62125735D03*
%TD*%
D42*
%TO.N,VBUS*%
X56300000Y-81600000D02*
X56700000Y-82000000D01*
X52600000Y-81600000D02*
X56300000Y-81600000D01*
D43*
%TO.N,Net-(J1-VBUS)*%
X50900000Y-81550000D02*
X50950000Y-81600000D01*
X51240000Y-78040000D02*
X51080000Y-78200000D01*
X51080000Y-78200000D02*
X51080000Y-79620000D01*
X51240000Y-68260000D02*
X51240000Y-76700000D01*
X51240000Y-76700000D02*
X51240000Y-78040000D01*
X50900000Y-79800000D02*
X50900000Y-81550000D01*
X62111523Y-59440990D02*
X60059010Y-59440990D01*
X51080000Y-79620000D02*
X50900000Y-79800000D01*
X62620622Y-59950089D02*
X62111523Y-59440990D01*
X60059010Y-59440990D02*
X51240000Y-68260000D01*
D44*
%TO.N,GND*%
X84100000Y-47600000D02*
X82650000Y-47600000D01*
D42*
X100540000Y-144300000D02*
X99500000Y-144300000D01*
D44*
X104520000Y-41890000D02*
X96800000Y-49610000D01*
D42*
X97573172Y-144770000D02*
X100070000Y-144770000D01*
D44*
X90250000Y-41890000D02*
X91580000Y-41890000D01*
D42*
X98396828Y-143800000D02*
X98000000Y-143800000D01*
D44*
X107750000Y-41890000D02*
X104520000Y-41890000D01*
D45*
X55000000Y-92050000D02*
X50800000Y-92050000D01*
D42*
X100070000Y-144770000D02*
X100700000Y-144140000D01*
D43*
X87650000Y-62525000D02*
X87650000Y-61350000D01*
D44*
X113800000Y-47600000D02*
X116120000Y-49920000D01*
X97500000Y-47810000D02*
X97500000Y-48910000D01*
X116120000Y-49920000D02*
X116120000Y-50500000D01*
D42*
X99500000Y-144300000D02*
X98896828Y-144300000D01*
X88100000Y-131800000D02*
X88100000Y-135296828D01*
D44*
X116120000Y-50500000D02*
X117700000Y-50500000D01*
D42*
X100700000Y-144140000D02*
X100540000Y-144300000D01*
D44*
X91580000Y-41890000D02*
X97500000Y-47810000D01*
D43*
X87650000Y-61350000D02*
X87600000Y-61300000D01*
D44*
X82650000Y-47600000D02*
X81875000Y-48375000D01*
X81875000Y-48375000D02*
X81050000Y-49200000D01*
X81050000Y-49200000D02*
X81050000Y-50600000D01*
D42*
X98896828Y-144300000D02*
X98396828Y-143800000D01*
X88100000Y-135296828D02*
X97573172Y-144770000D01*
D44*
%TO.N,+3V3*%
X81050000Y-52500000D02*
X77425735Y-52500000D01*
D42*
X104200000Y-143000000D02*
X103700000Y-143500000D01*
D46*
X116900000Y-74200000D02*
X116900000Y-56300000D01*
D45*
X68300000Y-76200000D02*
X69825000Y-74675000D01*
D44*
X117000000Y-52200000D02*
X117000000Y-56200000D01*
D42*
X99500000Y-143800000D02*
X99896828Y-143800000D01*
D45*
X76425735Y-50674265D02*
X81600000Y-45500000D01*
D42*
X103700000Y-143500000D02*
X100700000Y-143500000D01*
X100196828Y-143500000D02*
X100700000Y-143500000D01*
D46*
X77000000Y-76200000D02*
X71500000Y-76200000D01*
X104200000Y-143000000D02*
X111700000Y-135500000D01*
D42*
X99896828Y-143800000D02*
X100196828Y-143500000D01*
D45*
X60075000Y-76175000D02*
X65175000Y-76175000D01*
D44*
X77425735Y-52500000D02*
X76425735Y-53500000D01*
D45*
X65200000Y-76200000D02*
X68300000Y-76200000D01*
D46*
X111700000Y-135500000D02*
X111700000Y-79300000D01*
D45*
X81600000Y-45500000D02*
X82600000Y-44500000D01*
X73175000Y-74675000D02*
X76425735Y-71424265D01*
D46*
X116800000Y-74200000D02*
X116900000Y-74200000D01*
D45*
X65175000Y-76175000D02*
X65200000Y-76200000D01*
D44*
X90250000Y-43160000D02*
X83940000Y-43160000D01*
D46*
X111700000Y-79300000D02*
X116800000Y-74200000D01*
D44*
X117000000Y-56200000D02*
X116900000Y-56300000D01*
D45*
X69825000Y-74675000D02*
X69825000Y-70425000D01*
D44*
X83940000Y-43160000D02*
X82600000Y-44500000D01*
D45*
X69825000Y-70425000D02*
X68675000Y-69275000D01*
X76425735Y-71424265D02*
X76425735Y-53500000D01*
X76425735Y-53500000D02*
X76425735Y-50674265D01*
D43*
%TO.N,EN*%
X87500000Y-46450000D02*
X89520000Y-44430000D01*
X87500000Y-47600000D02*
X87500000Y-46450000D01*
X84700000Y-50400000D02*
X87500000Y-47600000D01*
X82600000Y-50600000D02*
X82800000Y-50400000D01*
X82800000Y-50400000D02*
X84700000Y-50400000D01*
X82700000Y-50700000D02*
X82600000Y-50600000D01*
X89520000Y-44430000D02*
X90250000Y-44430000D01*
X82700000Y-52500000D02*
X82700000Y-50700000D01*
D42*
%TO.N,IO0*%
X115350000Y-52200000D02*
X115350000Y-50710000D01*
X108700000Y-58400000D02*
X107750000Y-58400000D01*
X115350000Y-50710000D02*
X115140000Y-50500000D01*
X114900000Y-50500000D02*
X112000000Y-47600000D01*
X110400000Y-56700000D02*
X108700000Y-58400000D01*
X110400000Y-47600000D02*
X110400000Y-56700000D01*
X115140000Y-50500000D02*
X114900000Y-50500000D01*
X112000000Y-47600000D02*
X110400000Y-47600000D01*
D43*
%TO.N,Net-(D4-A)*%
X65262500Y-69275000D02*
X65250000Y-69287500D01*
X67025000Y-69275000D02*
X65262500Y-69275000D01*
D42*
%TO.N,Net-(D5-A)*%
X89350000Y-64100000D02*
X87650000Y-64100000D01*
D47*
%TO.N,Net-(Q4-G)*%
X82800000Y-92625000D02*
X82900000Y-92525000D01*
X82800000Y-95300000D02*
X82800000Y-92625000D01*
D42*
%TO.N,SDA*%
X102575000Y-130100000D02*
X98300000Y-130100000D01*
X90892225Y-69342775D02*
X99635000Y-60600000D01*
X98300000Y-130100000D02*
X97200000Y-129000000D01*
X97200000Y-129000000D02*
X97200000Y-120400000D01*
X99635000Y-60600000D02*
X99635000Y-59650000D01*
X103300000Y-129375000D02*
X102575000Y-130100000D01*
X97200000Y-120400000D02*
X90892225Y-114092225D01*
X90892225Y-114092225D02*
X90892225Y-69342775D01*
%TO.N,SCL*%
X100905000Y-60180000D02*
X100905000Y-59650000D01*
X107700000Y-121200000D02*
X107700000Y-66975000D01*
X107700000Y-66975000D02*
X100905000Y-60180000D01*
X99500000Y-129400000D02*
X107700000Y-121200000D01*
%TO.N,HI_T_ALERT*%
X95100000Y-129375000D02*
X88900000Y-123175000D01*
X95825000Y-61175000D02*
X95825000Y-59650000D01*
X88900000Y-68100000D02*
X95825000Y-61175000D01*
X88900000Y-123175000D02*
X88900000Y-68100000D01*
%TO.N,D-*%
X85770000Y-57130000D02*
X90250000Y-57130000D01*
X63832055Y-63000000D02*
X74900000Y-63000000D01*
X85700000Y-57200000D02*
X85770000Y-57130000D01*
X61701383Y-60869328D02*
X63832055Y-63000000D01*
D43*
%TO.N,GPIO9*%
X94555000Y-60700000D02*
X94555000Y-59650000D01*
X89400000Y-62475000D02*
X92780000Y-62475000D01*
X92780000Y-62475000D02*
X94555000Y-60700000D01*
D42*
%TO.N,D+*%
X74651471Y-62400000D02*
X74651471Y-62399999D01*
X64251294Y-62500000D02*
X74551471Y-62500000D01*
X87400000Y-57730000D02*
X88070000Y-58400000D01*
X62161002Y-60409708D02*
X64251294Y-62500000D01*
X88070000Y-58400000D02*
X90250000Y-58400000D01*
X74651471Y-62399999D02*
X74925735Y-62125735D01*
X74551471Y-62500000D02*
X74651471Y-62400000D01*
D47*
%TO.N,TEMP_CONT*%
X83000000Y-75200000D02*
X83000000Y-90775000D01*
X90250000Y-50780000D02*
X87920000Y-50780000D01*
X79100000Y-59600000D02*
X79100000Y-71300000D01*
X87920000Y-50780000D02*
X79100000Y-59600000D01*
X79100000Y-71300000D02*
X83000000Y-75200000D01*
X83000000Y-90775000D02*
X82900000Y-90875000D01*
D42*
%TO.N,Net-(U2-SDA)*%
X103300000Y-131025000D02*
X103300000Y-139500000D01*
X99500000Y-143300000D02*
X103300000Y-139500000D01*
%TO.N,Net-(U2-SCL)*%
X99500000Y-141800000D02*
X99500000Y-131050000D01*
X98000000Y-143300000D02*
X99500000Y-141800000D01*
%TO.N,Net-(U2-ALERT)*%
X98000000Y-144300000D02*
X97603172Y-144300000D01*
X97603172Y-144300000D02*
X95100000Y-141796828D01*
X95100000Y-141796828D02*
X95100000Y-131025000D01*
%TD*%
%TA.AperFunction,Conductor*%
%TO.N,GND*%
G36*
X64575706Y-70093462D02*
G01*
X64687713Y-70162549D01*
X64847315Y-70215436D01*
X64945826Y-70225500D01*
X64945831Y-70225500D01*
X65554169Y-70225500D01*
X65554174Y-70225500D01*
X65652685Y-70215436D01*
X65812287Y-70162549D01*
X65924294Y-70093462D01*
X65989391Y-70075000D01*
X66308131Y-70075000D01*
X66375170Y-70094685D01*
X66384609Y-70101393D01*
X66389819Y-70105475D01*
X66465149Y-70151013D01*
X66512337Y-70202540D01*
X66525000Y-70257130D01*
X66525000Y-74575500D01*
X66505315Y-74642539D01*
X66452511Y-74688294D01*
X66401000Y-74699500D01*
X65460694Y-74699500D01*
X65441296Y-74697973D01*
X65293097Y-74674500D01*
X65293092Y-74674500D01*
X59956908Y-74674500D01*
X59956903Y-74674500D01*
X59723631Y-74711446D01*
X59499003Y-74784433D01*
X59288566Y-74891657D01*
X59206451Y-74951318D01*
X59140644Y-74974798D01*
X59133565Y-74975000D01*
X58625000Y-74975000D01*
X58625000Y-75762280D01*
X58618931Y-75800599D01*
X58611446Y-75823633D01*
X58574500Y-76056902D01*
X58574500Y-76293097D01*
X58611446Y-76526364D01*
X58611447Y-76526369D01*
X58618931Y-76549402D01*
X58625000Y-76587719D01*
X58625000Y-77299208D01*
X58605315Y-77366247D01*
X58599487Y-77373948D01*
X58596728Y-77378144D01*
X58535594Y-77508384D01*
X58535593Y-77508388D01*
X58515209Y-77575213D01*
X58515207Y-77575221D01*
X58493243Y-77717406D01*
X58493242Y-77717417D01*
X58476988Y-79269797D01*
X58476988Y-79269798D01*
X58474536Y-79503768D01*
X58474513Y-79507471D01*
X58474507Y-79509752D01*
X58474513Y-79513827D01*
X58474714Y-79550319D01*
X58455398Y-79617466D01*
X58402846Y-79663510D01*
X58350716Y-79675000D01*
X56549000Y-79675000D01*
X56481961Y-79655315D01*
X56436206Y-79602511D01*
X56425000Y-79551000D01*
X56425000Y-70199000D01*
X56444685Y-70131961D01*
X56497489Y-70086206D01*
X56549000Y-70075000D01*
X64510609Y-70075000D01*
X64575706Y-70093462D01*
G37*
%TD.AperFunction*%
%TD*%
%TA.AperFunction,Conductor*%
%TO.N,GND*%
G36*
X60266139Y-61389241D02*
G01*
X60300143Y-61413338D01*
X61222228Y-62335422D01*
X61222232Y-62335425D01*
X61222234Y-62335427D01*
X61268909Y-62373042D01*
X61334368Y-62402936D01*
X61399826Y-62432830D01*
X61399825Y-62432830D01*
X61420307Y-62435774D01*
X61542283Y-62453312D01*
X61684741Y-62432830D01*
X61815657Y-62373042D01*
X61815659Y-62373040D01*
X61819126Y-62371457D01*
X61888284Y-62361513D01*
X61951840Y-62390537D01*
X61952978Y-62391536D01*
X63200000Y-63500000D01*
X63463855Y-63500000D01*
X63525854Y-63516612D01*
X63550150Y-63530639D01*
X63550152Y-63530641D01*
X63600268Y-63559576D01*
X63600270Y-63559577D01*
X63752997Y-63600500D01*
X63752998Y-63600500D01*
X64254045Y-63600500D01*
X64321084Y-63620185D01*
X64341720Y-63636812D01*
X64342455Y-63637547D01*
X64457664Y-63723793D01*
X64457671Y-63723797D01*
X64502618Y-63740561D01*
X64592517Y-63774091D01*
X64652127Y-63780500D01*
X65147872Y-63780499D01*
X65207483Y-63774091D01*
X65342331Y-63723796D01*
X65457546Y-63637546D01*
X65457548Y-63637542D01*
X65458280Y-63636812D01*
X65459192Y-63636314D01*
X65464645Y-63632232D01*
X65465232Y-63633016D01*
X65519606Y-63603332D01*
X65545955Y-63600500D01*
X67476000Y-63600500D01*
X67543039Y-63620185D01*
X67588794Y-63672989D01*
X67600000Y-63724500D01*
X67600000Y-64776000D01*
X67580315Y-64843039D01*
X67527511Y-64888794D01*
X67476000Y-64900000D01*
X63152484Y-64900000D01*
X63085445Y-64880315D01*
X63063464Y-64862322D01*
X60649616Y-62373042D01*
X60080119Y-61785748D01*
X60047583Y-61723918D01*
X60045820Y-61712396D01*
X60041472Y-61671021D01*
X60019107Y-61602191D01*
X60017112Y-61532355D01*
X60053192Y-61472522D01*
X60057607Y-61468660D01*
X60133087Y-61405760D01*
X60197185Y-61377967D01*
X60266139Y-61389241D01*
G37*
%TD.AperFunction*%
%TD*%
%TA.AperFunction,Conductor*%
%TO.N,5VIN*%
G36*
X59243039Y-85919685D02*
G01*
X59288794Y-85972489D01*
X59300000Y-86024000D01*
X59300000Y-88400000D01*
X61656509Y-89010060D01*
X61716475Y-89045918D01*
X61719143Y-89048899D01*
X61729926Y-89061343D01*
X61729928Y-89061344D01*
X61729930Y-89061347D01*
X61838664Y-89155567D01*
X61969541Y-89215338D01*
X62036580Y-89235023D01*
X62036584Y-89235024D01*
X62179000Y-89255500D01*
X62179003Y-89255500D01*
X62588786Y-89255500D01*
X62619863Y-89259457D01*
X78907079Y-93475944D01*
X78967044Y-93511801D01*
X78998104Y-93574387D01*
X79000000Y-93595986D01*
X79000000Y-94178286D01*
X78980315Y-94245325D01*
X78927511Y-94291080D01*
X78858353Y-94301024D01*
X78794797Y-94271999D01*
X78788319Y-94265967D01*
X78666568Y-94144216D01*
X78666566Y-94144214D01*
X78481538Y-94009783D01*
X78277755Y-93905950D01*
X78060248Y-93835278D01*
X77890826Y-93808444D01*
X77834354Y-93799500D01*
X77605646Y-93799500D01*
X77530349Y-93811426D01*
X77379753Y-93835278D01*
X77379750Y-93835278D01*
X77162244Y-93905950D01*
X76958461Y-94009783D01*
X76852896Y-94086480D01*
X76773434Y-94144214D01*
X76773432Y-94144216D01*
X76773431Y-94144216D01*
X76611716Y-94305931D01*
X76611716Y-94305932D01*
X76611714Y-94305934D01*
X76553980Y-94385396D01*
X76477283Y-94490961D01*
X76373450Y-94694744D01*
X76302778Y-94912250D01*
X76302778Y-94912253D01*
X76267000Y-95138146D01*
X76267000Y-95461853D01*
X76302778Y-95687746D01*
X76302778Y-95687749D01*
X76373450Y-95905255D01*
X76373452Y-95905258D01*
X76477283Y-96109038D01*
X76611714Y-96294066D01*
X76773434Y-96455786D01*
X76958462Y-96590217D01*
X77162242Y-96694048D01*
X77162244Y-96694049D01*
X77379751Y-96764721D01*
X77379752Y-96764721D01*
X77379755Y-96764722D01*
X77605646Y-96800500D01*
X77605647Y-96800500D01*
X77834353Y-96800500D01*
X77834354Y-96800500D01*
X78060245Y-96764722D01*
X78060248Y-96764721D01*
X78060249Y-96764721D01*
X78277755Y-96694049D01*
X78277755Y-96694048D01*
X78277758Y-96694048D01*
X78481538Y-96590217D01*
X78666566Y-96455786D01*
X78788319Y-96334033D01*
X78849642Y-96300548D01*
X78919334Y-96305532D01*
X78975267Y-96347404D01*
X78999684Y-96412868D01*
X79000000Y-96421714D01*
X79000000Y-97075335D01*
X78980315Y-97142374D01*
X78927511Y-97188129D01*
X78875337Y-97199333D01*
X75276634Y-97180088D01*
X75243979Y-97175530D01*
X59230226Y-92708431D01*
X59177423Y-92678206D01*
X54886004Y-88535618D01*
X48723297Y-88500698D01*
X48656371Y-88480634D01*
X48610916Y-88427572D01*
X48600000Y-88376700D01*
X48600000Y-86024000D01*
X48619685Y-85956961D01*
X48672489Y-85911206D01*
X48724000Y-85900000D01*
X59176000Y-85900000D01*
X59243039Y-85919685D01*
G37*
%TD.AperFunction*%
%TD*%
%TA.AperFunction,Conductor*%
%TO.N,Net-(D6-K)*%
G36*
X59623657Y-77606069D02*
G01*
X59723631Y-77638553D01*
X59956903Y-77675500D01*
X59956908Y-77675500D01*
X64914306Y-77675500D01*
X64933704Y-77677027D01*
X65081903Y-77700500D01*
X66476000Y-77700500D01*
X66543039Y-77720185D01*
X66588794Y-77772989D01*
X66600000Y-77824500D01*
X66600000Y-79275092D01*
X66590383Y-79322973D01*
X66512093Y-79510000D01*
X65014089Y-83088567D01*
X64800000Y-83600001D01*
X64809759Y-88625759D01*
X64790204Y-88692837D01*
X64737489Y-88738694D01*
X64685759Y-88750000D01*
X62179000Y-88750000D01*
X62111961Y-88730315D01*
X62066206Y-88677511D01*
X62055000Y-88626000D01*
X62055000Y-85450000D01*
X59049079Y-83186950D01*
X59007360Y-83130902D01*
X58999662Y-83088567D01*
X58980005Y-79510984D01*
X58980010Y-79509005D01*
X58982460Y-79275092D01*
X58998715Y-77722701D01*
X59019100Y-77655872D01*
X59072380Y-77610672D01*
X59122708Y-77600000D01*
X59585338Y-77600000D01*
X59623657Y-77606069D01*
G37*
%TD.AperFunction*%
%TD*%
%TA.AperFunction,Conductor*%
%TO.N,GND*%
G36*
X54743039Y-76119685D02*
G01*
X54788794Y-76172489D01*
X54800000Y-76224000D01*
X54800000Y-80176903D01*
X54780315Y-80243942D01*
X54727511Y-80289697D01*
X54676907Y-80300900D01*
X51919968Y-80321073D01*
X51852787Y-80301879D01*
X51806647Y-80249411D01*
X51795570Y-80185856D01*
X51800500Y-80131616D01*
X51800500Y-79468384D01*
X51794086Y-79397804D01*
X51743478Y-79235394D01*
X51743475Y-79235389D01*
X51743474Y-79235385D01*
X51741421Y-79230822D01*
X51730500Y-79179939D01*
X51730500Y-78728080D01*
X51750185Y-78661041D01*
X51755234Y-78653768D01*
X51763796Y-78642331D01*
X51814091Y-78507483D01*
X51820500Y-78447873D01*
X51820499Y-78363051D01*
X51829938Y-78315598D01*
X51865501Y-78229744D01*
X51890500Y-78104069D01*
X51890500Y-77298961D01*
X51907768Y-77235840D01*
X51972494Y-77126395D01*
X52017643Y-76970993D01*
X52020500Y-76934690D01*
X52020500Y-76465310D01*
X52017643Y-76429007D01*
X51981051Y-76303058D01*
X51981250Y-76233190D01*
X52016120Y-76177257D01*
X52046774Y-76149023D01*
X52064399Y-76132791D01*
X52127046Y-76101853D01*
X52148404Y-76100000D01*
X54676000Y-76100000D01*
X54743039Y-76119685D01*
G37*
%TD.AperFunction*%
%TD*%
M02*
