%TF.GenerationSoftware,KiCad,Pcbnew,8.0.7*%
%TF.CreationDate,2025-03-03T14:35:13+00:00*%
%TF.ProjectId,FYP_Heater,4659505f-4865-4617-9465-722e6b696361,rev?*%
%TF.SameCoordinates,Original*%
%TF.FileFunction,Copper,L2,Bot*%
%TF.FilePolarity,Positive*%
%FSLAX46Y46*%
G04 Gerber Fmt 4.6, Leading zero omitted, Abs format (unit mm)*
G04 Created by KiCad (PCBNEW 8.0.7) date 2025-03-03 14:35:13*
%MOMM*%
%LPD*%
G01*
G04 APERTURE LIST*
G04 Aperture macros list*
%AMRoundRect*
0 Rectangle with rounded corners*
0 $1 Rounding radius*
0 $2 $3 $4 $5 $6 $7 $8 $9 X,Y pos of 4 corners*
0 Add a 4 corners polygon primitive as box body*
4,1,4,$2,$3,$4,$5,$6,$7,$8,$9,$2,$3,0*
0 Add four circle primitives for the rounded corners*
1,1,$1+$1,$2,$3*
1,1,$1+$1,$4,$5*
1,1,$1+$1,$6,$7*
1,1,$1+$1,$8,$9*
0 Add four rect primitives between the rounded corners*
20,1,$1+$1,$2,$3,$4,$5,0*
20,1,$1+$1,$4,$5,$6,$7,0*
20,1,$1+$1,$6,$7,$8,$9,0*
20,1,$1+$1,$8,$9,$2,$3,0*%
%AMHorizOval*
0 Thick line with rounded ends*
0 $1 width*
0 $2 $3 position (X,Y) of the first rounded end (center of the circle)*
0 $4 $5 position (X,Y) of the second rounded end (center of the circle)*
0 Add line between two ends*
20,1,$1,$2,$3,$4,$5,0*
0 Add two circle primitives to create the rounded ends*
1,1,$1,$2,$3*
1,1,$1,$4,$5*%
G04 Aperture macros list end*
%TA.AperFunction,Conductor*%
%ADD10C,0.700000*%
%TD*%
%TA.AperFunction,HeatsinkPad*%
%ADD11C,0.600000*%
%TD*%
%TA.AperFunction,ComponentPad*%
%ADD12R,3.960000X1.980000*%
%TD*%
%TA.AperFunction,ComponentPad*%
%ADD13O,3.960000X1.980000*%
%TD*%
%TA.AperFunction,ComponentPad*%
%ADD14HorizOval,1.150000X-0.229810X0.229810X0.229810X-0.229810X0*%
%TD*%
%TA.AperFunction,ComponentPad*%
%ADD15HorizOval,1.450000X-0.194454X0.194454X0.194454X-0.194454X0*%
%TD*%
%TA.AperFunction,ComponentPad*%
%ADD16R,1.905000X2.000000*%
%TD*%
%TA.AperFunction,ComponentPad*%
%ADD17O,1.905000X2.000000*%
%TD*%
%TA.AperFunction,SMDPad,CuDef*%
%ADD18RoundRect,0.500000X1.000000X0.500000X-1.000000X0.500000X-1.000000X-0.500000X1.000000X-0.500000X0*%
%TD*%
%TA.AperFunction,ViaPad*%
%ADD19C,0.500000*%
%TD*%
%TA.AperFunction,ViaPad*%
%ADD20C,2.400000*%
%TD*%
%TA.AperFunction,ViaPad*%
%ADD21C,0.600000*%
%TD*%
%TA.AperFunction,Conductor*%
%ADD22C,2.000000*%
%TD*%
%TA.AperFunction,Conductor*%
%ADD23C,3.000000*%
%TD*%
%TA.AperFunction,Conductor*%
%ADD24C,0.200000*%
%TD*%
G04 APERTURE END LIST*
D10*
%TO.N,Net-(H1-24V)*%
X148900000Y-99900000D02*
G75*
G02*
X48900000Y-99900000I-50000000J0D01*
G01*
X136900000Y-99900000D02*
G75*
G02*
X60900000Y-99900000I-38000000J0D01*
G01*
X146900000Y-99900000D02*
G75*
G02*
X50900000Y-99900000I-48000000J0D01*
G01*
X151900000Y-99900000D02*
G75*
G02*
X45900000Y-99900000I-53000000J0D01*
G01*
X147900000Y-99900000D02*
G75*
G02*
X49900000Y-99900000I-49000000J0D01*
G01*
X153900000Y-99900000D02*
G75*
G02*
X43900000Y-99900000I-55000000J0D01*
G01*
X133900000Y-99900000D02*
G75*
G02*
X63900000Y-99900000I-35000000J0D01*
G01*
X142900000Y-99900000D02*
G75*
G02*
X54900000Y-99900000I-44000000J0D01*
G01*
X143900000Y-99900000D02*
G75*
G02*
X53900000Y-99900000I-45000000J0D01*
G01*
X145900000Y-99900000D02*
G75*
G02*
X51900000Y-99900000I-47000000J0D01*
G01*
X135900000Y-99900000D02*
G75*
G02*
X61900000Y-99900000I-37000000J0D01*
G01*
X141900000Y-99900000D02*
G75*
G02*
X55900000Y-99900000I-43000000J0D01*
G01*
X137900000Y-99900000D02*
G75*
G02*
X59900000Y-99900000I-39000000J0D01*
G01*
X134900000Y-99900000D02*
G75*
G02*
X62900000Y-99900000I-36000000J0D01*
G01*
X152900000Y-99900000D02*
G75*
G02*
X44900000Y-99900000I-54000000J0D01*
G01*
X150900000Y-99900000D02*
G75*
G02*
X46900000Y-99900000I-52000000J0D01*
G01*
X139900000Y-99900000D02*
G75*
G02*
X57900000Y-99900000I-41000000J0D01*
G01*
X144900000Y-99900000D02*
G75*
G02*
X52900000Y-99900000I-46000000J0D01*
G01*
X140900000Y-99900000D02*
G75*
G02*
X56900000Y-99900000I-42000000J0D01*
G01*
X149900000Y-99900000D02*
G75*
G02*
X47900000Y-99900000I-51000000J0D01*
G01*
X138900000Y-99900000D02*
G75*
G02*
X58900000Y-99900000I-40000000J0D01*
G01*
%TD*%
D11*
%TO.P,U4,41,GND*%
%TO.N,GND*%
X96100000Y-48910000D03*
X96100000Y-50310000D03*
X96800000Y-48210000D03*
X96800000Y-49610000D03*
X96800000Y-51010000D03*
X97500000Y-48910000D03*
X97500000Y-50310000D03*
X98200000Y-48210000D03*
X98200000Y-49610000D03*
X98200000Y-51010000D03*
X98900000Y-48910000D03*
X98900000Y-50310000D03*
%TD*%
D12*
%TO.P,J3,1,Pin_1*%
%TO.N,5VIN*%
X50800000Y-87050000D03*
D13*
%TO.P,J3,2,Pin_2*%
%TO.N,GND*%
X50800000Y-92050000D03*
%TD*%
D14*
%TO.P,J1,6,Shield*%
%TO.N,unconnected-(J1-Shield-Pad6)_2*%
X61719061Y-55406928D03*
D15*
%TO.N,unconnected-(J1-Shield-Pad6)_1*%
X64300000Y-58200000D03*
%TO.N,unconnected-(J1-Shield-Pad6)_3*%
X59032055Y-63467945D03*
D14*
%TO.N,unconnected-(J1-Shield-Pad6)*%
X56238983Y-60887006D03*
%TD*%
D16*
%TO.P,Q4,1,G*%
%TO.N,Net-(Q4-G)*%
X82800000Y-95300000D03*
D17*
%TO.P,Q4,2,D*%
%TO.N,Net-(H1-24V)*%
X80260000Y-95300000D03*
%TO.P,Q4,3,S*%
%TO.N,5V*%
X77720000Y-95300000D03*
%TD*%
D18*
%TO.P,H1,1,24V*%
%TO.N,Net-(H1-24V)*%
X65000000Y-100500000D03*
%TO.P,H1,2,GND*%
%TO.N,GND*%
X155000000Y-100500000D03*
%TD*%
D19*
%TO.N,GND*%
X54500000Y-78800000D03*
X54500000Y-78200000D03*
D20*
X55000000Y-92050000D03*
D19*
X63825000Y-70375000D03*
X53000000Y-76500000D03*
D21*
X62100000Y-63200000D03*
X63800000Y-64500000D03*
D19*
X57225000Y-74475000D03*
X53600000Y-80000000D03*
X62525000Y-74475000D03*
X117700000Y-50500000D03*
X53000000Y-77200000D03*
D21*
X63800000Y-63900000D03*
D19*
X81875000Y-48375000D03*
X87600000Y-61300000D03*
D21*
X66100000Y-63900000D03*
X66100000Y-64500000D03*
D19*
X66025000Y-72075000D03*
X65225000Y-72075000D03*
X64325000Y-72075000D03*
X88100000Y-131800000D03*
X59025000Y-74475000D03*
X60725000Y-74475000D03*
X54000000Y-77700000D03*
D21*
X61600000Y-62700000D03*
D19*
X63825000Y-71275000D03*
D20*
%TO.N,+3V3*%
X111700000Y-79300000D03*
X77000000Y-76200000D03*
D21*
%TO.N,D-*%
X85700000Y-57200000D03*
X74900000Y-63000000D03*
%TO.N,D+*%
X87400000Y-57730000D03*
X74925735Y-62125735D03*
%TD*%
D22*
%TO.N,GND*%
X87200000Y-127700000D02*
X87200000Y-97100000D01*
X88100000Y-128600000D02*
X87200000Y-127700000D01*
X88100000Y-131100000D02*
X88100000Y-128600000D01*
D23*
%TO.N,+3V3*%
X77000000Y-76200000D02*
X81600000Y-76200000D01*
X82400000Y-77000000D02*
X109400000Y-77000000D01*
X109400000Y-77000000D02*
X111700000Y-79300000D01*
X81600000Y-76200000D02*
X82400000Y-77000000D01*
D10*
%TO.N,Net-(H1-24V)*%
X44900000Y-99900000D02*
X43900000Y-99900000D01*
X151900000Y-99900000D02*
X152900000Y-99900000D01*
X52900000Y-99900000D02*
X51900000Y-99900000D01*
X58900000Y-99900000D02*
X57900000Y-99900000D01*
X139900000Y-99900000D02*
X140900000Y-99900000D01*
X62900000Y-99900000D02*
X61900000Y-99900000D01*
X149900000Y-99900000D02*
X150900000Y-99900000D01*
X143900000Y-99900000D02*
X144900000Y-99900000D01*
X145900000Y-99900000D02*
X146900000Y-99900000D01*
X48900000Y-99900000D02*
X47900000Y-99900000D01*
X46900000Y-99900000D02*
X45900000Y-99900000D01*
X141900000Y-99900000D02*
X142900000Y-99900000D01*
X50900000Y-99900000D02*
X49900000Y-99900000D01*
X147900000Y-99900000D02*
X148900000Y-99900000D01*
D22*
X80260000Y-98205000D02*
X77965000Y-100500000D01*
D10*
X60900000Y-99900000D02*
X59900000Y-99900000D01*
X133900000Y-99900000D02*
X134900000Y-99900000D01*
X54900000Y-99900000D02*
X53900000Y-99900000D01*
D22*
X77965000Y-100500000D02*
X65000000Y-100500000D01*
X80260000Y-95300000D02*
X80260000Y-98205000D01*
D10*
X137900000Y-99900000D02*
X138900000Y-99900000D01*
X56900000Y-99900000D02*
X55900000Y-99900000D01*
X135900000Y-99900000D02*
X136900000Y-99900000D01*
D24*
%TO.N,D-*%
X74900000Y-63000000D02*
X80700000Y-57200000D01*
X80700000Y-57200000D02*
X85700000Y-57200000D01*
%TO.N,D+*%
X80451470Y-56600000D02*
X74925735Y-62125735D01*
X86270000Y-56600000D02*
X80451470Y-56600000D01*
X87400000Y-57730000D02*
X86270000Y-56600000D01*
%TD*%
%TA.AperFunction,Conductor*%
%TO.N,GND*%
G36*
X54800000Y-80300000D02*
G01*
X51725000Y-80322500D01*
X51720000Y-76450000D01*
X52100000Y-76100000D01*
X54800000Y-76100000D01*
X54800000Y-80300000D01*
G37*
%TD.AperFunction*%
%TD*%
%TA.AperFunction,Conductor*%
%TO.N,GND*%
G36*
X99774005Y-40505556D02*
G01*
X101315087Y-40545576D01*
X101318173Y-40545696D01*
X102857792Y-40625716D01*
X102860892Y-40625918D01*
X104397840Y-40745874D01*
X104401007Y-40746163D01*
X105934288Y-40905975D01*
X105937456Y-40906347D01*
X107466115Y-41105917D01*
X107469260Y-41106370D01*
X108992142Y-41345544D01*
X108995255Y-41346074D01*
X110511487Y-41624717D01*
X110514646Y-41625340D01*
X112023118Y-41943247D01*
X112026172Y-41943933D01*
X113525902Y-42300899D01*
X113528947Y-42301665D01*
X115018925Y-42697450D01*
X115021931Y-42698290D01*
X116501141Y-43132626D01*
X116504113Y-43133541D01*
X117971490Y-43606112D01*
X117974531Y-43607134D01*
X119429179Y-44117652D01*
X119432142Y-44118736D01*
X120873035Y-44666841D01*
X120875969Y-44668002D01*
X122302104Y-45253311D01*
X122305016Y-45254549D01*
X123143715Y-45624489D01*
X123715539Y-45876713D01*
X123718467Y-45878051D01*
X125112256Y-46536573D01*
X125115149Y-46537986D01*
X125904517Y-46936324D01*
X126491403Y-47232484D01*
X126494242Y-47233963D01*
X127852033Y-47963972D01*
X127854849Y-47965534D01*
X129193162Y-48730507D01*
X129195936Y-48732140D01*
X130514050Y-49531666D01*
X130516739Y-49533346D01*
X131813566Y-50366767D01*
X131816208Y-50368512D01*
X132283544Y-50686291D01*
X133091037Y-51235370D01*
X133093675Y-51237215D01*
X134345474Y-52136804D01*
X134348064Y-52138716D01*
X135576140Y-53070542D01*
X135578679Y-53072521D01*
X136782144Y-54035909D01*
X136784625Y-54037949D01*
X137962678Y-55032259D01*
X137965057Y-55034319D01*
X139050147Y-55999500D01*
X139116913Y-56058888D01*
X139119276Y-56061045D01*
X140228152Y-57100184D01*
X140244129Y-57115156D01*
X140246449Y-57117388D01*
X141343562Y-58200351D01*
X141345824Y-58202642D01*
X142414435Y-59313701D01*
X142416636Y-59316050D01*
X142683354Y-59608178D01*
X143190010Y-60163102D01*
X143456025Y-60454459D01*
X143458165Y-60456864D01*
X144467707Y-61621937D01*
X144469783Y-61624398D01*
X145448675Y-62815211D01*
X145450687Y-62817724D01*
X146398358Y-64033576D01*
X146400304Y-64036141D01*
X147316108Y-65276210D01*
X147317987Y-65278824D01*
X148201275Y-66542227D01*
X148203085Y-66544889D01*
X149053265Y-67830780D01*
X149055006Y-67833488D01*
X149871538Y-69141053D01*
X149873208Y-69143806D01*
X150655524Y-70472133D01*
X150657121Y-70474928D01*
X151404663Y-71823071D01*
X151406188Y-71825907D01*
X152118501Y-73193044D01*
X152119951Y-73195918D01*
X152796525Y-74581072D01*
X152797900Y-74583983D01*
X153438266Y-75986189D01*
X153439566Y-75989134D01*
X154043350Y-77407576D01*
X154044572Y-77410554D01*
X154611304Y-78844131D01*
X154612449Y-78847140D01*
X155141789Y-80294987D01*
X155142855Y-80298025D01*
X155634421Y-81759102D01*
X155635408Y-81762167D01*
X156088878Y-83235515D01*
X156089785Y-83238604D01*
X156504858Y-84723244D01*
X156505684Y-84726355D01*
X156729732Y-85616206D01*
X156829417Y-86012127D01*
X156882064Y-86221223D01*
X156882810Y-86224355D01*
X157220272Y-87728574D01*
X157220935Y-87731724D01*
X157519218Y-89244115D01*
X157519800Y-89247281D01*
X157778722Y-90766915D01*
X157779222Y-90770096D01*
X157998610Y-92295974D01*
X157999027Y-92299166D01*
X158178731Y-93830252D01*
X158179064Y-93833454D01*
X158318953Y-95368603D01*
X158319204Y-95371813D01*
X158419195Y-96910146D01*
X158419362Y-96913361D01*
X158479383Y-98453729D01*
X158479467Y-98456947D01*
X158483589Y-98774390D01*
X158464776Y-98841679D01*
X158412571Y-98888116D01*
X158359599Y-98900000D01*
X156900000Y-98900000D01*
X156900000Y-97800000D01*
X153400000Y-97800000D01*
X153400000Y-98900000D01*
X107237095Y-98900000D01*
X107170056Y-98880315D01*
X107124301Y-98827511D01*
X107114979Y-98797532D01*
X107112063Y-98780992D01*
X107026189Y-98293981D01*
X106887632Y-97738258D01*
X106710647Y-97193554D01*
X106496096Y-96662523D01*
X106245026Y-96147752D01*
X105958658Y-95651748D01*
X105638388Y-95176929D01*
X105638381Y-95176920D01*
X105638377Y-95176914D01*
X105285790Y-94725622D01*
X105285774Y-94725603D01*
X104902543Y-94299982D01*
X104490564Y-93902138D01*
X104490557Y-93902132D01*
X104490551Y-93902126D01*
X104327190Y-93765050D01*
X104051829Y-93533994D01*
X104051800Y-93533971D01*
X103588453Y-93197330D01*
X103588452Y-93197329D01*
X103102757Y-92893833D01*
X103102752Y-92893830D01*
X103102750Y-92893829D01*
X102597075Y-92624957D01*
X102597064Y-92624951D01*
X102597048Y-92624943D01*
X102073827Y-92391991D01*
X101535630Y-92196103D01*
X100985122Y-92038247D01*
X100985093Y-92038240D01*
X100985090Y-92038239D01*
X100985084Y-92038237D01*
X100985073Y-92038235D01*
X100424884Y-91919164D01*
X100424885Y-91919164D01*
X100424870Y-91919161D01*
X100424862Y-91919159D01*
X100424847Y-91919157D01*
X99857705Y-91839451D01*
X99286380Y-91799500D01*
X99286368Y-91799500D01*
X98713632Y-91799500D01*
X98713619Y-91799500D01*
X98142294Y-91839451D01*
X97575152Y-91919157D01*
X97575133Y-91919160D01*
X97575130Y-91919161D01*
X97575123Y-91919162D01*
X97575115Y-91919164D01*
X97014926Y-92038235D01*
X97014877Y-92038247D01*
X96464369Y-92196103D01*
X95926172Y-92391991D01*
X95402951Y-92624943D01*
X95402924Y-92624957D01*
X94897256Y-92893825D01*
X94897253Y-92893827D01*
X94411547Y-93197329D01*
X94411546Y-93197330D01*
X93948199Y-93533971D01*
X93948170Y-93533994D01*
X93509460Y-93902116D01*
X93509435Y-93902138D01*
X93097456Y-94299982D01*
X92714225Y-94725603D01*
X92714209Y-94725622D01*
X92361622Y-95176914D01*
X92361616Y-95176923D01*
X92041342Y-95651746D01*
X92041341Y-95651749D01*
X91754976Y-96147747D01*
X91503901Y-96662529D01*
X91289353Y-97193552D01*
X91112373Y-97738240D01*
X91112368Y-97738256D01*
X90973809Y-98293988D01*
X90899743Y-98714038D01*
X90889102Y-98774390D01*
X90885021Y-98797532D01*
X90853994Y-98860135D01*
X90794047Y-98896026D01*
X90762905Y-98900000D01*
X81782571Y-98900000D01*
X81715532Y-98880315D01*
X81669777Y-98827511D01*
X81659833Y-98758353D01*
X81664640Y-98737682D01*
X81723553Y-98556369D01*
X81748642Y-98397961D01*
X81760500Y-98323097D01*
X81760500Y-96924499D01*
X81780185Y-96857460D01*
X81832989Y-96811705D01*
X81884495Y-96800499D01*
X83800372Y-96800499D01*
X83859983Y-96794091D01*
X83994831Y-96743796D01*
X84110046Y-96657546D01*
X84196296Y-96542331D01*
X84246591Y-96407483D01*
X84253000Y-96347873D01*
X84252999Y-94252128D01*
X84246591Y-94192517D01*
X84233369Y-94157068D01*
X84196297Y-94057671D01*
X84196293Y-94057664D01*
X84110047Y-93942455D01*
X84110044Y-93942452D01*
X83994835Y-93856206D01*
X83994828Y-93856202D01*
X83859982Y-93805908D01*
X83859983Y-93805908D01*
X83800383Y-93799501D01*
X83800381Y-93799500D01*
X83800373Y-93799500D01*
X83800364Y-93799500D01*
X81799629Y-93799500D01*
X81799623Y-93799501D01*
X81740016Y-93805908D01*
X81605171Y-93856202D01*
X81605164Y-93856206D01*
X81489955Y-93942452D01*
X81489952Y-93942455D01*
X81403706Y-94057664D01*
X81403699Y-94057676D01*
X81396596Y-94076721D01*
X81354723Y-94132653D01*
X81289258Y-94157068D01*
X81220986Y-94142214D01*
X81207538Y-94133707D01*
X81046433Y-94016657D01*
X81032942Y-94009783D01*
X80835996Y-93909433D01*
X80611368Y-93836446D01*
X80378097Y-93799500D01*
X80378092Y-93799500D01*
X80141908Y-93799500D01*
X80141903Y-93799500D01*
X79908631Y-93836446D01*
X79684003Y-93909433D01*
X79473566Y-94016657D01*
X79417119Y-94057669D01*
X79282490Y-94155483D01*
X79282488Y-94155485D01*
X79282487Y-94155485D01*
X79115482Y-94322490D01*
X79078215Y-94373784D01*
X79022885Y-94416449D01*
X78953271Y-94422427D01*
X78891477Y-94389820D01*
X78877582Y-94373784D01*
X78828286Y-94305934D01*
X78666566Y-94144214D01*
X78481538Y-94009783D01*
X78277755Y-93905950D01*
X78060248Y-93835278D01*
X77874812Y-93805908D01*
X77834354Y-93799500D01*
X77605646Y-93799500D01*
X77565188Y-93805908D01*
X77379753Y-93835278D01*
X77379750Y-93835278D01*
X77162244Y-93905950D01*
X76958461Y-94009783D01*
X76892550Y-94057671D01*
X76773434Y-94144214D01*
X76773432Y-94144216D01*
X76773431Y-94144216D01*
X76611716Y-94305931D01*
X76611716Y-94305932D01*
X76611714Y-94305934D01*
X76562418Y-94373784D01*
X76477283Y-94490961D01*
X76373450Y-94694744D01*
X76302778Y-94912250D01*
X76302778Y-94912253D01*
X76267000Y-95138146D01*
X76267000Y-95461853D01*
X76302778Y-95687746D01*
X76302778Y-95687749D01*
X76373450Y-95905255D01*
X76373452Y-95905258D01*
X76477283Y-96109038D01*
X76611714Y-96294066D01*
X76773434Y-96455786D01*
X76958462Y-96590217D01*
X77162242Y-96694048D01*
X77162244Y-96694049D01*
X77379751Y-96764721D01*
X77379752Y-96764721D01*
X77379755Y-96764722D01*
X77605646Y-96800500D01*
X77605647Y-96800500D01*
X77834353Y-96800500D01*
X77834354Y-96800500D01*
X78060245Y-96764722D01*
X78060248Y-96764721D01*
X78060249Y-96764721D01*
X78277755Y-96694049D01*
X78277755Y-96694048D01*
X78277758Y-96694048D01*
X78481538Y-96590217D01*
X78562615Y-96531310D01*
X78628420Y-96507831D01*
X78696474Y-96523656D01*
X78745169Y-96573762D01*
X78759500Y-96631629D01*
X78759500Y-97532111D01*
X78739815Y-97599150D01*
X78723181Y-97619792D01*
X77479292Y-98863681D01*
X77417969Y-98897166D01*
X77391611Y-98900000D01*
X39640401Y-98900000D01*
X39573362Y-98880315D01*
X39527607Y-98827511D01*
X39516411Y-98774390D01*
X39516888Y-98737682D01*
X39520532Y-98456922D01*
X39520616Y-98453729D01*
X39525707Y-98323092D01*
X39580637Y-96913346D01*
X39580804Y-96910146D01*
X39587931Y-96800498D01*
X39680799Y-95371753D01*
X39681041Y-95368665D01*
X39820938Y-93833424D01*
X39821268Y-93830252D01*
X40000978Y-92299119D01*
X40001382Y-92296021D01*
X40220790Y-90770012D01*
X40221261Y-90767014D01*
X40480209Y-89247223D01*
X40480772Y-89244161D01*
X40779071Y-87731688D01*
X40779727Y-87728574D01*
X41117206Y-86224279D01*
X41117916Y-86221301D01*
X41170580Y-86012135D01*
X48319500Y-86012135D01*
X48319500Y-88087870D01*
X48319501Y-88087876D01*
X48325908Y-88147483D01*
X48376202Y-88282328D01*
X48376206Y-88282335D01*
X48462452Y-88397544D01*
X48462455Y-88397547D01*
X48577664Y-88483793D01*
X48577671Y-88483797D01*
X48712517Y-88534091D01*
X48712516Y-88534091D01*
X48719444Y-88534835D01*
X48772127Y-88540500D01*
X52827872Y-88540499D01*
X52887483Y-88534091D01*
X53022331Y-88483796D01*
X53137546Y-88397546D01*
X53223796Y-88282331D01*
X53274091Y-88147483D01*
X53280500Y-88087873D01*
X53280499Y-86012128D01*
X53274091Y-85952517D01*
X53246563Y-85878711D01*
X97149500Y-85878711D01*
X97149500Y-86121288D01*
X97181161Y-86361785D01*
X97243947Y-86596104D01*
X97336773Y-86820205D01*
X97336776Y-86820212D01*
X97458064Y-87030289D01*
X97458066Y-87030292D01*
X97458067Y-87030293D01*
X97605733Y-87222736D01*
X97605739Y-87222743D01*
X97777256Y-87394260D01*
X97777262Y-87394265D01*
X97969711Y-87541936D01*
X98179788Y-87663224D01*
X98403900Y-87756054D01*
X98638211Y-87818838D01*
X98818586Y-87842584D01*
X98878711Y-87850500D01*
X98878712Y-87850500D01*
X99121289Y-87850500D01*
X99169388Y-87844167D01*
X99361789Y-87818838D01*
X99596100Y-87756054D01*
X99820212Y-87663224D01*
X100030289Y-87541936D01*
X100222738Y-87394265D01*
X100394265Y-87222738D01*
X100541936Y-87030289D01*
X100663224Y-86820212D01*
X100756054Y-86596100D01*
X100818838Y-86361789D01*
X100850500Y-86121288D01*
X100850500Y-85878712D01*
X100818838Y-85638211D01*
X100756054Y-85403900D01*
X100663224Y-85179788D01*
X100541936Y-84969711D01*
X100394265Y-84777262D01*
X100394260Y-84777256D01*
X100222743Y-84605739D01*
X100222736Y-84605733D01*
X100030293Y-84458067D01*
X100030292Y-84458066D01*
X100030289Y-84458064D01*
X99820212Y-84336776D01*
X99820205Y-84336773D01*
X99596104Y-84243947D01*
X99361785Y-84181161D01*
X99121289Y-84149500D01*
X99121288Y-84149500D01*
X98878712Y-84149500D01*
X98878711Y-84149500D01*
X98638214Y-84181161D01*
X98403895Y-84243947D01*
X98179794Y-84336773D01*
X98179785Y-84336777D01*
X97969706Y-84458067D01*
X97777263Y-84605733D01*
X97777256Y-84605739D01*
X97605739Y-84777256D01*
X97605733Y-84777263D01*
X97458067Y-84969706D01*
X97336777Y-85179785D01*
X97336773Y-85179794D01*
X97243947Y-85403895D01*
X97181161Y-85638214D01*
X97149500Y-85878711D01*
X53246563Y-85878711D01*
X53223796Y-85817669D01*
X53223795Y-85817668D01*
X53223793Y-85817664D01*
X53137547Y-85702455D01*
X53137544Y-85702452D01*
X53022335Y-85616206D01*
X53022328Y-85616202D01*
X52887482Y-85565908D01*
X52887483Y-85565908D01*
X52827883Y-85559501D01*
X52827881Y-85559500D01*
X52827873Y-85559500D01*
X52827864Y-85559500D01*
X48772129Y-85559500D01*
X48772123Y-85559501D01*
X48712516Y-85565908D01*
X48577671Y-85616202D01*
X48577664Y-85616206D01*
X48462455Y-85702452D01*
X48462452Y-85702455D01*
X48376206Y-85817664D01*
X48376202Y-85817671D01*
X48325908Y-85952517D01*
X48319501Y-86012116D01*
X48319501Y-86012123D01*
X48319500Y-86012135D01*
X41170580Y-86012135D01*
X41494328Y-84726304D01*
X41495127Y-84723294D01*
X41910227Y-83238557D01*
X41911106Y-83235562D01*
X42364607Y-81762117D01*
X42365561Y-81759153D01*
X42857157Y-80297985D01*
X42858195Y-80295027D01*
X43387558Y-78847118D01*
X43388695Y-78844131D01*
X43406916Y-78798041D01*
X43955438Y-77410525D01*
X43956649Y-77407576D01*
X44364257Y-76450000D01*
X51720000Y-76450000D01*
X51725000Y-80322500D01*
X54800000Y-80300000D01*
X54800000Y-76100000D01*
X52100000Y-76100000D01*
X51720000Y-76450000D01*
X44364257Y-76450000D01*
X44526491Y-76068872D01*
X74999500Y-76068872D01*
X74999500Y-76331127D01*
X75026123Y-76533339D01*
X75033730Y-76591116D01*
X75101602Y-76844418D01*
X75101605Y-76844428D01*
X75201953Y-77086690D01*
X75201958Y-77086700D01*
X75333075Y-77313803D01*
X75492718Y-77521851D01*
X75492726Y-77521860D01*
X75678140Y-77707274D01*
X75678148Y-77707281D01*
X75886196Y-77866924D01*
X76113299Y-77998041D01*
X76113309Y-77998046D01*
X76355571Y-78098394D01*
X76355581Y-78098398D01*
X76608884Y-78166270D01*
X76868880Y-78200500D01*
X80720004Y-78200500D01*
X80787043Y-78220185D01*
X80807685Y-78236819D01*
X81078144Y-78507279D01*
X81078150Y-78507284D01*
X81195868Y-78597611D01*
X81195869Y-78597612D01*
X81286186Y-78666916D01*
X81286189Y-78666918D01*
X81286197Y-78666924D01*
X81368173Y-78714252D01*
X81512108Y-78797354D01*
X81513292Y-78798037D01*
X81513299Y-78798041D01*
X81513300Y-78798041D01*
X81513303Y-78798043D01*
X81755581Y-78898398D01*
X82008884Y-78966271D01*
X82130853Y-78982328D01*
X82268880Y-79000500D01*
X108520004Y-79000500D01*
X108587043Y-79020185D01*
X108607685Y-79036819D01*
X110378143Y-80807278D01*
X110378150Y-80807284D01*
X110586188Y-80966916D01*
X110586192Y-80966918D01*
X110586198Y-80966923D01*
X110813303Y-81098043D01*
X111055581Y-81198398D01*
X111308884Y-81266271D01*
X111503881Y-81291942D01*
X111568879Y-81300499D01*
X111568880Y-81300499D01*
X111831120Y-81300499D01*
X111883118Y-81293653D01*
X112091115Y-81266271D01*
X112344419Y-81198398D01*
X112534871Y-81119509D01*
X112586688Y-81098047D01*
X112586689Y-81098045D01*
X112586697Y-81098043D01*
X112813802Y-80966923D01*
X113021851Y-80807283D01*
X113207283Y-80621851D01*
X113366923Y-80413802D01*
X113498043Y-80186697D01*
X113598398Y-79944419D01*
X113666271Y-79691115D01*
X113700499Y-79431119D01*
X113700499Y-79168880D01*
X113666271Y-78908884D01*
X113598398Y-78655581D01*
X113498043Y-78413303D01*
X113366923Y-78186198D01*
X113366918Y-78186192D01*
X113366916Y-78186188D01*
X113207284Y-77978150D01*
X113207278Y-77978143D01*
X110721856Y-75492721D01*
X110721849Y-75492715D01*
X110604131Y-75402388D01*
X110604130Y-75402387D01*
X110513803Y-75333075D01*
X110286700Y-75201958D01*
X110286690Y-75201954D01*
X110044419Y-75101602D01*
X109791112Y-75033728D01*
X109661118Y-75016615D01*
X109531127Y-74999500D01*
X109531120Y-74999500D01*
X83279996Y-74999500D01*
X83212957Y-74979815D01*
X83192315Y-74963181D01*
X82921855Y-74692720D01*
X82921849Y-74692715D01*
X82804131Y-74602388D01*
X82804130Y-74602387D01*
X82713803Y-74533075D01*
X82486700Y-74401958D01*
X82486690Y-74401954D01*
X82244419Y-74301602D01*
X81991116Y-74233729D01*
X81991115Y-74233728D01*
X81991112Y-74233728D01*
X81861118Y-74216615D01*
X81731127Y-74199500D01*
X81731120Y-74199500D01*
X76868880Y-74199500D01*
X76868872Y-74199500D01*
X76637772Y-74229926D01*
X76608884Y-74233730D01*
X76355581Y-74301602D01*
X76355571Y-74301605D01*
X76113309Y-74401953D01*
X76113299Y-74401958D01*
X75886196Y-74533075D01*
X75678148Y-74692718D01*
X75492718Y-74878148D01*
X75333075Y-75086196D01*
X75201958Y-75313299D01*
X75201953Y-75313309D01*
X75101605Y-75555571D01*
X75101602Y-75555581D01*
X75044061Y-75770330D01*
X75033730Y-75808885D01*
X74999500Y-76068872D01*
X44526491Y-76068872D01*
X44560450Y-75989093D01*
X44561714Y-75986232D01*
X45202110Y-74583958D01*
X45203474Y-74581072D01*
X45880089Y-73195836D01*
X45881457Y-73193124D01*
X46593847Y-71825838D01*
X46595298Y-71823140D01*
X47342906Y-70474878D01*
X47344447Y-70472181D01*
X48126821Y-69143755D01*
X48128430Y-69141103D01*
X48945044Y-67833408D01*
X48946681Y-67830862D01*
X49796940Y-66544849D01*
X49798697Y-66542266D01*
X50682035Y-65278791D01*
X50683891Y-65276210D01*
X51101644Y-64710541D01*
X51599703Y-64036129D01*
X51601604Y-64033624D01*
X52269252Y-63177037D01*
X57612102Y-63177037D01*
X57612102Y-63369944D01*
X57642277Y-63560463D01*
X57701886Y-63743919D01*
X57701889Y-63743926D01*
X57783943Y-63904967D01*
X57789459Y-63915793D01*
X57902842Y-64071851D01*
X58428149Y-64597158D01*
X58584207Y-64710541D01*
X58756073Y-64798110D01*
X58756083Y-64798115D01*
X58820322Y-64818987D01*
X58939538Y-64857723D01*
X59130060Y-64887899D01*
X59130061Y-64887899D01*
X59322957Y-64887899D01*
X59322958Y-64887899D01*
X59513481Y-64857723D01*
X59696937Y-64798114D01*
X59868811Y-64710541D01*
X60024869Y-64597158D01*
X60161268Y-64460759D01*
X60274651Y-64304701D01*
X60362224Y-64132827D01*
X60421833Y-63949371D01*
X60452009Y-63758848D01*
X60452009Y-63565950D01*
X60421833Y-63375428D01*
X60362224Y-63191971D01*
X60274651Y-63020097D01*
X60260047Y-62999996D01*
X74094435Y-62999996D01*
X74094435Y-63000003D01*
X74114630Y-63179249D01*
X74114631Y-63179254D01*
X74174211Y-63349523D01*
X74270184Y-63502262D01*
X74397738Y-63629816D01*
X74550478Y-63725789D01*
X74720745Y-63785368D01*
X74720750Y-63785369D01*
X74899996Y-63805565D01*
X74900000Y-63805565D01*
X74900004Y-63805565D01*
X75079249Y-63785369D01*
X75079252Y-63785368D01*
X75079255Y-63785368D01*
X75249522Y-63725789D01*
X75402262Y-63629816D01*
X75529816Y-63502262D01*
X75625789Y-63349522D01*
X75685368Y-63179255D01*
X75695161Y-63092329D01*
X75722226Y-63027918D01*
X75730690Y-63018543D01*
X80912417Y-57836819D01*
X80973740Y-57803334D01*
X81000098Y-57800500D01*
X85117588Y-57800500D01*
X85184627Y-57820185D01*
X85194903Y-57827555D01*
X85197736Y-57829814D01*
X85197738Y-57829816D01*
X85350478Y-57925789D01*
X85520745Y-57985368D01*
X85520750Y-57985369D01*
X85699996Y-58005565D01*
X85700000Y-58005565D01*
X85700004Y-58005565D01*
X85879249Y-57985369D01*
X85879252Y-57985368D01*
X85879255Y-57985368D01*
X86049522Y-57925789D01*
X86202262Y-57829816D01*
X86329816Y-57702262D01*
X86329816Y-57702261D01*
X86334741Y-57697337D01*
X86335862Y-57698458D01*
X86386203Y-57663118D01*
X86456015Y-57660263D01*
X86513652Y-57692887D01*
X86569298Y-57748533D01*
X86602783Y-57809856D01*
X86604837Y-57822330D01*
X86614630Y-57909249D01*
X86614631Y-57909254D01*
X86614632Y-57909255D01*
X86622538Y-57931849D01*
X86674210Y-58079521D01*
X86770184Y-58232262D01*
X86897738Y-58359816D01*
X87050478Y-58455789D01*
X87150828Y-58490903D01*
X87220745Y-58515368D01*
X87220750Y-58515369D01*
X87399996Y-58535565D01*
X87400000Y-58535565D01*
X87400004Y-58535565D01*
X87579249Y-58515369D01*
X87579252Y-58515368D01*
X87579255Y-58515368D01*
X87749522Y-58455789D01*
X87902262Y-58359816D01*
X88029816Y-58232262D01*
X88125789Y-58079522D01*
X88185368Y-57909255D01*
X88194319Y-57829814D01*
X88205565Y-57730003D01*
X88205565Y-57729996D01*
X88185369Y-57550750D01*
X88185368Y-57550745D01*
X88125788Y-57380476D01*
X88029815Y-57227737D01*
X87902262Y-57100184D01*
X87749521Y-57004210D01*
X87579249Y-56944630D01*
X87492330Y-56934837D01*
X87427916Y-56907770D01*
X87418533Y-56899298D01*
X86757590Y-56238355D01*
X86757588Y-56238352D01*
X86638717Y-56119481D01*
X86638709Y-56119475D01*
X86517658Y-56049587D01*
X86517655Y-56049586D01*
X86501785Y-56040423D01*
X86349057Y-55999499D01*
X86190943Y-55999499D01*
X86183347Y-55999499D01*
X86183331Y-55999500D01*
X80372410Y-55999500D01*
X80331489Y-56010464D01*
X80331489Y-56010465D01*
X80294221Y-56020451D01*
X80219684Y-56040423D01*
X80219679Y-56040426D01*
X80082760Y-56119475D01*
X80082752Y-56119481D01*
X79970948Y-56231286D01*
X74907200Y-61295033D01*
X74845877Y-61328518D01*
X74833403Y-61330572D01*
X74746485Y-61340365D01*
X74576213Y-61399945D01*
X74423472Y-61495919D01*
X74295919Y-61623472D01*
X74199946Y-61776211D01*
X74140366Y-61946480D01*
X74140365Y-61946485D01*
X74120170Y-62125731D01*
X74120170Y-62125738D01*
X74140365Y-62304984D01*
X74140368Y-62304997D01*
X74199944Y-62475253D01*
X74199945Y-62475255D01*
X74199946Y-62475257D01*
X74200672Y-62476412D01*
X74200913Y-62477267D01*
X74202966Y-62481529D01*
X74202219Y-62481888D01*
X74219675Y-62543647D01*
X74200676Y-62608359D01*
X74174208Y-62650482D01*
X74114633Y-62820737D01*
X74114630Y-62820750D01*
X74094435Y-62999996D01*
X60260047Y-62999996D01*
X60161268Y-62864039D01*
X59876963Y-62579734D01*
X59843478Y-62518411D01*
X59848462Y-62448719D01*
X59872495Y-62409080D01*
X59888331Y-62391493D01*
X59982977Y-62227561D01*
X60041472Y-62047533D01*
X60061258Y-61859277D01*
X60041472Y-61671021D01*
X59982977Y-61490993D01*
X59888331Y-61327061D01*
X59761669Y-61186389D01*
X59761668Y-61186388D01*
X59608532Y-61075128D01*
X59608527Y-61075125D01*
X59435605Y-60998134D01*
X59435600Y-60998132D01*
X59289799Y-60967142D01*
X59250444Y-60958777D01*
X59061152Y-60958777D01*
X59028695Y-60965675D01*
X58875995Y-60998132D01*
X58875990Y-60998134D01*
X58703068Y-61075125D01*
X58703063Y-61075128D01*
X58549927Y-61186388D01*
X58423264Y-61327062D01*
X58328619Y-61490992D01*
X58328616Y-61490999D01*
X58270125Y-61671017D01*
X58270124Y-61671021D01*
X58259068Y-61776213D01*
X58250338Y-61859277D01*
X58270124Y-62047533D01*
X58270125Y-62047537D01*
X58276339Y-62066662D01*
X58278332Y-62136503D01*
X58242250Y-62196335D01*
X58214705Y-62215460D01*
X58195301Y-62225347D01*
X58192254Y-62227561D01*
X58039241Y-62338732D01*
X58039239Y-62338734D01*
X58039238Y-62338734D01*
X57902844Y-62475128D01*
X57902844Y-62475129D01*
X57902842Y-62475131D01*
X57898194Y-62481529D01*
X57789462Y-62631184D01*
X57789457Y-62631192D01*
X57701889Y-62803055D01*
X57701886Y-62803062D01*
X57642277Y-62986518D01*
X57612102Y-63177037D01*
X52269252Y-63177037D01*
X52549325Y-62817706D01*
X52551324Y-62815211D01*
X52561317Y-62803055D01*
X53530248Y-61624359D01*
X53532259Y-61621975D01*
X54541874Y-60456818D01*
X54543931Y-60454506D01*
X54778562Y-60197523D01*
X54838300Y-60161288D01*
X54908146Y-60163102D01*
X54965923Y-60202390D01*
X54993289Y-60266677D01*
X54988065Y-60319451D01*
X54960154Y-60405348D01*
X54933673Y-60572546D01*
X54933673Y-60741845D01*
X54960154Y-60909043D01*
X55012469Y-61070049D01*
X55065323Y-61173778D01*
X55079427Y-61201460D01*
X55089325Y-61220884D01*
X55188821Y-61357830D01*
X55188825Y-61357835D01*
X55188827Y-61357837D01*
X55768152Y-61937162D01*
X55905108Y-62036667D01*
X56055945Y-62113521D01*
X56216946Y-62165834D01*
X56279647Y-62175764D01*
X56384144Y-62192316D01*
X56384149Y-62192316D01*
X56553442Y-62192316D01*
X56720640Y-62165834D01*
X56881642Y-62113521D01*
X57032478Y-62036667D01*
X57169434Y-61937162D01*
X57289139Y-61817457D01*
X57388644Y-61680501D01*
X57465498Y-61529665D01*
X57517811Y-61368663D01*
X57529473Y-61295033D01*
X57544293Y-61201465D01*
X57544293Y-61032166D01*
X57526638Y-60920703D01*
X57517811Y-60864969D01*
X57465498Y-60703968D01*
X57388644Y-60553131D01*
X57289139Y-60416175D01*
X56709814Y-59836850D01*
X56709812Y-59836848D01*
X56709807Y-59836844D01*
X56572861Y-59737348D01*
X56572860Y-59737347D01*
X56572858Y-59737346D01*
X56525755Y-59713346D01*
X56422026Y-59660492D01*
X56261020Y-59608177D01*
X56093822Y-59581696D01*
X56093817Y-59581696D01*
X55924529Y-59581696D01*
X55924524Y-59581696D01*
X55757325Y-59608177D01*
X55596316Y-59660493D01*
X55591896Y-59662746D01*
X55523226Y-59675636D01*
X55458488Y-59649354D01*
X55418236Y-59592244D01*
X55415249Y-59522438D01*
X55444036Y-59468650D01*
X55583396Y-59316014D01*
X55585531Y-59313736D01*
X56537701Y-58323743D01*
X61785872Y-58323743D01*
X61805658Y-58511999D01*
X61805659Y-58512002D01*
X61864150Y-58692020D01*
X61864153Y-58692027D01*
X61958799Y-58855959D01*
X62054043Y-58961738D01*
X62085461Y-58996631D01*
X62238597Y-59107891D01*
X62238602Y-59107894D01*
X62411524Y-59184885D01*
X62411529Y-59184887D01*
X62596686Y-59224243D01*
X62596687Y-59224243D01*
X62785976Y-59224243D01*
X62785978Y-59224243D01*
X62971135Y-59184887D01*
X63144062Y-59107894D01*
X63249931Y-59030975D01*
X63315734Y-59007497D01*
X63383788Y-59023322D01*
X63410495Y-59043614D01*
X63696094Y-59329213D01*
X63852152Y-59442596D01*
X63903283Y-59468648D01*
X64024028Y-59530170D01*
X64088267Y-59551042D01*
X64207483Y-59589778D01*
X64398005Y-59619954D01*
X64398006Y-59619954D01*
X64590902Y-59619954D01*
X64590903Y-59619954D01*
X64781426Y-59589778D01*
X64964882Y-59530169D01*
X65136756Y-59442596D01*
X65292814Y-59329213D01*
X65429213Y-59192814D01*
X65542596Y-59036756D01*
X65630169Y-58864882D01*
X65689778Y-58681426D01*
X65719954Y-58490903D01*
X65719954Y-58298005D01*
X65689778Y-58107483D01*
X65630169Y-57924026D01*
X65542596Y-57752152D01*
X65429213Y-57596094D01*
X64903906Y-57070787D01*
X64747848Y-56957404D01*
X64694025Y-56929980D01*
X64575981Y-56869834D01*
X64575974Y-56869831D01*
X64392518Y-56810222D01*
X64201999Y-56780047D01*
X64201995Y-56780047D01*
X64009097Y-56780047D01*
X64009093Y-56780047D01*
X63818573Y-56810222D01*
X63635117Y-56869831D01*
X63635110Y-56869834D01*
X63463247Y-56957402D01*
X63463239Y-56957407D01*
X63398821Y-57004210D01*
X63307186Y-57070787D01*
X63307184Y-57070789D01*
X63307183Y-57070789D01*
X63170789Y-57207183D01*
X63170789Y-57207184D01*
X63170787Y-57207186D01*
X63155856Y-57227737D01*
X63057404Y-57363243D01*
X63046492Y-57384659D01*
X62998516Y-57435454D01*
X62930695Y-57452248D01*
X62910228Y-57449653D01*
X62785978Y-57423243D01*
X62596686Y-57423243D01*
X62564229Y-57430141D01*
X62411529Y-57462598D01*
X62411524Y-57462600D01*
X62238602Y-57539591D01*
X62238597Y-57539594D01*
X62085461Y-57650854D01*
X61958798Y-57791528D01*
X61864153Y-57955458D01*
X61864150Y-57955465D01*
X61814757Y-58107483D01*
X61805658Y-58135487D01*
X61785872Y-58323743D01*
X56537701Y-58323743D01*
X56654200Y-58202616D01*
X56656437Y-58200351D01*
X57314531Y-57550745D01*
X57753562Y-57117376D01*
X57755818Y-57115205D01*
X58880761Y-56061010D01*
X58883031Y-56058937D01*
X60034980Y-55034286D01*
X60037282Y-55032291D01*
X60228283Y-54871081D01*
X60292209Y-54842884D01*
X60361233Y-54853725D01*
X60413438Y-54900162D01*
X60432251Y-54967451D01*
X60430734Y-54985238D01*
X60413751Y-55092467D01*
X60413751Y-55261767D01*
X60440232Y-55428965D01*
X60492547Y-55589971D01*
X60545401Y-55693700D01*
X60559505Y-55721382D01*
X60569403Y-55740806D01*
X60668899Y-55877752D01*
X60668903Y-55877757D01*
X60668905Y-55877759D01*
X61248230Y-56457084D01*
X61385186Y-56556589D01*
X61536023Y-56633443D01*
X61697024Y-56685756D01*
X61759725Y-56695686D01*
X61864222Y-56712238D01*
X61864227Y-56712238D01*
X62033520Y-56712238D01*
X62200718Y-56685756D01*
X62361720Y-56633443D01*
X62512556Y-56556589D01*
X62649512Y-56457084D01*
X62769217Y-56337379D01*
X62868722Y-56200423D01*
X62945576Y-56049587D01*
X62997889Y-55888585D01*
X63021295Y-55740806D01*
X63024371Y-55721387D01*
X63024371Y-55552088D01*
X63006716Y-55440625D01*
X62997889Y-55384891D01*
X62945576Y-55223890D01*
X62868722Y-55073053D01*
X62769217Y-54936097D01*
X62189892Y-54356772D01*
X62189890Y-54356770D01*
X62189885Y-54356766D01*
X62052939Y-54257270D01*
X62052938Y-54257269D01*
X62052936Y-54257268D01*
X62005833Y-54233268D01*
X61902104Y-54180414D01*
X61741098Y-54128099D01*
X61573900Y-54101618D01*
X61573895Y-54101618D01*
X61489093Y-54101618D01*
X61422054Y-54081933D01*
X61376299Y-54029129D01*
X61366355Y-53959971D01*
X61395380Y-53896415D01*
X61411601Y-53880814D01*
X62421369Y-53072482D01*
X62423809Y-53070580D01*
X63651976Y-52138685D01*
X63654483Y-52136834D01*
X64906334Y-51237207D01*
X64908962Y-51235370D01*
X66183826Y-50368489D01*
X66186396Y-50366790D01*
X67483296Y-49533324D01*
X67485915Y-49531687D01*
X68804091Y-48732123D01*
X68806809Y-48730523D01*
X70145163Y-47965526D01*
X70147966Y-47963972D01*
X71505803Y-47233938D01*
X71508564Y-47232500D01*
X72884858Y-46537981D01*
X72887743Y-46536573D01*
X74281544Y-45878045D01*
X74284460Y-45876713D01*
X75695010Y-45254538D01*
X75697866Y-45253322D01*
X77124057Y-44667991D01*
X77126938Y-44666851D01*
X78567882Y-44118726D01*
X78570796Y-44117661D01*
X80025491Y-43607126D01*
X80028476Y-43606122D01*
X81495908Y-43133534D01*
X81498836Y-43132632D01*
X82978088Y-42698285D01*
X82981054Y-42697455D01*
X84471071Y-42301660D01*
X84474078Y-42300903D01*
X85973844Y-41943929D01*
X85976864Y-41943251D01*
X87485368Y-41625337D01*
X87488497Y-41624719D01*
X89004756Y-41346071D01*
X89007844Y-41345546D01*
X90530750Y-41106368D01*
X90533873Y-41105918D01*
X92062551Y-40906346D01*
X92065702Y-40905976D01*
X93598999Y-40746162D01*
X93602152Y-40745875D01*
X95139112Y-40625917D01*
X95142202Y-40625716D01*
X96681829Y-40545696D01*
X96684909Y-40545576D01*
X98225995Y-40505556D01*
X98229214Y-40505514D01*
X99770786Y-40505514D01*
X99774005Y-40505556D01*
G37*
%TD.AperFunction*%
%TD*%
%TA.AperFunction,Conductor*%
%TO.N,GND*%
G36*
X156900000Y-98900000D02*
G01*
X156900000Y-101476000D01*
X156880315Y-101543039D01*
X156827511Y-101588794D01*
X156776000Y-101600000D01*
X154852375Y-101600000D01*
X154785336Y-101580315D01*
X154739581Y-101527511D01*
X154728419Y-101472699D01*
X154750500Y-100643518D01*
X154750500Y-99810609D01*
X154713329Y-99635733D01*
X154713327Y-99635728D01*
X154699915Y-99605606D01*
X154640612Y-99472408D01*
X154535526Y-99327770D01*
X154402665Y-99208141D01*
X154247835Y-99118750D01*
X154247829Y-99118747D01*
X154077807Y-99063504D01*
X154077805Y-99063503D01*
X153900000Y-99044815D01*
X153722194Y-99063503D01*
X153722192Y-99063504D01*
X153562318Y-99115450D01*
X153492476Y-99117445D01*
X153432644Y-99081364D01*
X153401816Y-99018663D01*
X153400000Y-98997519D01*
X153400000Y-98900000D01*
X153400000Y-97800000D01*
X156900000Y-97800000D01*
X156900000Y-98900000D01*
G37*
%TD.AperFunction*%
%TD*%
M02*
